<?xml version="1.0" encoding="UTF-8" standalone="no"?>
<svg
   xmlns:dc="http://purl.org/dc/elements/1.1/"
   xmlns:cc="http://creativecommons.org/ns#"
   xmlns:rdf="http://www.w3.org/1999/02/22-rdf-syntax-ns#"
   xmlns:svg="http://www.w3.org/2000/svg"
   xmlns="http://www.w3.org/2000/svg"
   xmlns:sodipodi="http://sodipodi.sourceforge.net/DTD/sodipodi-0.dtd"
   xmlns:inkscape="http://www.inkscape.org/namespaces/inkscape"
   width="2000pt"
   version="1.1"
   height="966pt"
   viewBox="0 0 2000 966"
   id="svg4794"
   inkscape:version="0.48.4 r9939"
   sodipodi:docname="Malaysian Hockey Confederation.svg">
  <metadata
     id="metadata6309">
    <rdf:RDF>
      <cc:Work
         rdf:about="">
        <dc:format>image/svg+xml</dc:format>
        <dc:type
           rdf:resource="http://purl.org/dc/dcmitype/StillImage" />
        <dc:title></dc:title>
      </cc:Work>
    </rdf:RDF>
  </metadata>
  <sodipodi:namedview
     pagecolor="#ffffff"
     bordercolor="#666666"
     borderopacity="1"
     objecttolerance="10"
     gridtolerance="10"
     guidetolerance="10"
     inkscape:pageopacity="0"
     inkscape:pageshadow="2"
     inkscape:window-width="1024"
     inkscape:window-height="538"
     id="namedview6307"
     showgrid="false"
     inkscape:zoom="0.35355339"
     inkscape:cx="981.91454"
     inkscape:cy="636.58235"
     inkscape:window-x="-8"
     inkscape:window-y="-8"
     inkscape:window-maximized="1"
     inkscape:current-layer="svg4794" />
  <defs
     id="defs4796">
    <clipPath
       id="Clip0">
      <path
         d="M0 0 L2000 0 L2000 966 L0 966 L0 0 Z"
         transform="translate(0, 0)"
         id="path4799" />
    </clipPath>
  </defs>
  <g
     id="g11021">
    <path
       id="path3059"
       d="m 135.54221,344.56346 3.31152,-85.7047 c -47.941071,9.12145 -89.260203,41.93908 -114.053515,85.7047 l 110.741995,0 z"
       style="fill:#0081c1;fill-rule:evenodd;stroke:none"
       inkscape:connector-curvature="0" />
    <path
       id="path3061"
       d="m 196.69875,344.56346 119.01005,0 c -24.79448,-45.59217 -67.76767,-78.4098 -117.35427,-87.53124 l -1.65578,87.53124 z"
       style="fill:#0081c1;fill-rule:evenodd;stroke:none"
       inkscape:connector-curvature="0" />
    <path
       id="path3063"
       d="m 229.75953,399.25322 c -11.56881,0 -13.22457,5.47964 -13.22457,12.76199 l -3.30016,122.18295 c 0,12.75445 3.30016,20.0481 16.52473,20.0481 l 77.68064,0 c 21.49313,-31.0074 34.71767,-69.28834 34.71767,-111.22742 0,-14.58854 -1.65576,-31.00363 -4.95705,-43.76562 l -107.44126,0 z"
       style="fill:#0081c1;fill-rule:evenodd;stroke:none"
       inkscape:connector-curvature="0" />
    <path
       id="path3065"
       d="m 107.44876,568.82099 4.95591,-151.32613 c 0,-12.762 -3.31153,-18.24164 -14.880325,-18.24164 l -92.561299,0 c -3.3005715,12.76199 -4.95648976,29.17708 -4.95648976,43.76562 0,89.34649 57.85559176,164.10319 133.87953376,184.16384 -16.52468,-10.93419 -28.09312,-32.82766 -26.43733,-58.36169 z"
       style="fill:#0081c1;fill-rule:evenodd;stroke:none"
       inkscape:connector-curvature="0" />
    <path
       id="path3067"
       d="m 190.08589,550.59316 6.61286,-220.62955 99.17268,0 4.9559,14.59985 -82.63661,0 c -9.92321,0 -18.18043,1.81524 -18.18043,12.75069 l -4.95707,189.63846 c 0,16.40756 1.64553,20.06066 16.52581,20.06066 l 87.60391,0 c -4.95591,5.46082 -4.95591,5.46082 -4.95591,5.46082 l -76.03631,0 c -21.49197,0 -28.10483,1.83282 -28.10483,-21.88093 z"
       style="fill:#0081c1;fill-rule:evenodd;stroke:none"
       inkscape:connector-curvature="0" />
    <path
       id="path3069"
       d="m 180.17289,255.20567 -8.26859,304.51395 c 0,16.39502 8.26859,25.52148 23.14892,25.52148 l 85.93845,0 c -3.30132,5.46082 -3.30132,5.46082 -3.30132,5.46082 l -74.37992,0 c -23.13754,0 -36.36209,-3.64055 -38.01787,-25.52147 l 9.92439,-308.14823 4.95594,-1.82655 z"
       style="fill:#0081c1;fill-rule:evenodd;stroke:none"
       inkscape:connector-curvature="0" />
    <path
       id="path3071"
       d="m 158.67972,255.20567 -8.25722,311.8076 c 0,30.99484 23.13754,36.45566 38.01902,36.45566 l 72.72413,0 c -4.96733,3.6531 -8.26858,5.48592 -8.26858,5.48592 l -57.84385,0 c -26.44907,0 -49.58663,-7.29364 -51.24241,-36.48076 l 9.913,-315.44187 4.95591,-1.82655 z"
       style="fill:#0081c1;fill-rule:evenodd;stroke:none"
       inkscape:connector-curvature="0" />
    <path
       id="path3073"
       d="m 117.36172,344.56346 -90.905755,0 19.837378,-20.06819 89.248867,1.82655 -6.61168,244.332 c 0,23.7012 19.83621,51.0555 42.97377,51.0555 l 54.54366,0 c -3.30014,3.64053 -4.95592,3.64053 -4.95592,3.64053 l -49.58774,0 c -24.79333,0 -47.93084,-23.68864 -47.93084,-56.52886 l 6.61282,-206.02719 c 1.65578,-7.2949 -1.65575,-18.23034 -13.22456,-18.23034 z"
       style="fill:#0081c1;fill-rule:evenodd;stroke:none"
       inkscape:connector-curvature="0" />
    <path
       id="path3075"
       d="m 239.67248,629.00296 988.42942,0 0,-9.11392 -988.42942,0 0,9.11392 z"
       style="fill:#e11418;fill-rule:evenodd;stroke:none"
       inkscape:connector-curvature="0" />
    <path
       id="path3077"
       d="m 376.86418,344.56346 200.00335,0 -3.31153,41.92777 -66.11245,0 -9.92437,156.80829 -67.76822,0 9.92437,-156.80829 -66.11248,0 3.30133,-41.92777 z"
       style="fill:#0081c1;fill-rule:evenodd;stroke:none"
       inkscape:connector-curvature="0" />
    <path
       id="path3079"
       d="m 757.03352,421.13666 -3.31156,43.76562 -89.26137,0 -1.64437,34.64794 105.77468,0 -3.30011,43.7493 -173.55433,0 13.22452,-198.73606 175.21008,0 -3.31153,41.92777 -107.43046,0 -1.65579,34.64543 89.26024,0 z"
       style="fill:#0081c1;fill-rule:evenodd;stroke:none"
       inkscape:connector-curvature="0" />
    <path
       id="path3081"
       d="m 813.22158,344.56346 66.12384,0 -9.92438,154.98676 99.17439,0 -3.3002,43.7493 -166.94257,0 14.86892,-198.73606 z"
       style="fill:#0081c1;fill-rule:evenodd;stroke:none"
       inkscape:connector-curvature="0" />
    <path
       id="path3083"
       d="m 1158.6734,421.13666 -1.6389,43.76562 -90.9251,0 -1.6386,34.64794 105.7871,0 -1.6614,43.7493 -175.20889,0 14.88249,-198.73606 173.5498,0 -3.3115,41.92777 -105.7874,0 -3.3,34.64543 89.2524,0 z"
       style="fill:#0081c1;fill-rule:evenodd;stroke:none"
       inkscape:connector-curvature="0" />
    <path
       id="path3085"
       d="m 1219.8401,344.56346 67.7669,0 -14.8733,198.73606 -66.1171,0 13.2235,-198.73606 z m 138.8343,0 76.0402,0 -80.9907,92.98829 76.0177,105.74777 -80.9792,0 -64.4669,-105.74777 74.3789,-92.98829 z"
       style="fill:#0081c1;fill-rule:evenodd;stroke:none"
       inkscape:connector-curvature="0" />
    <path
       id="path3087"
       d="m 1428.1029,437.55175 c 4.9503,-71.11741 62.8053,-109.40338 143.7957,-109.40338 80.9905,0 133.8843,38.28597 128.9341,109.40338 -4.9732,69.29211 -62.8169,109.40086 -143.8072,109.40086 -80.9906,0 -133.8841,-40.10875 -128.9226,-109.40086 z m 71.0674,0 c -1.6616,32.81762 18.1849,61.99847 61.1553,61.99847 42.9704,0 66.1283,-29.18085 69.4287,-61.99847 1.6499,-32.81889 -16.5354,-63.82252 -61.1554,-63.82252 -42.9818,0 -66.1173,31.00363 -69.4286,63.82252 z"
       style="fill:#0081c1;fill-rule:evenodd;stroke:none"
       inkscape:connector-curvature="0" />
    <path
       id="path3089"
       d="m 1836.3668,344.56346 28.0969,123.97937 47.9206,-123.97937 87.6137,0 -13.2234,198.73606 -56.2052,0 9.9231,-142.21975 -54.5437,142.21975 -57.8551,0 -33.0583,-142.21975 -9.9121,142.21975 -51.2432,0 13.2231,-198.73606 89.2636,0 z"
       style="fill:#0081c1;fill-rule:evenodd;stroke:none"
       inkscape:connector-curvature="0" />
    <path
       id="path3091"
       d="m 1284.2955,570.65382 13.2235,52.87577 19.8351,-52.87577 39.6702,0 -6.6117,85.70344 -24.7968,0 4.9616,-62.00224 -24.7966,62.00224 -24.7968,0 -14.8736,-62.00224 -3.3001,62.00224 -23.1466,0 6.6118,-85.70344 38.02,0 z"
       style="fill:#0081c1;fill-rule:evenodd;stroke:none"
       inkscape:connector-curvature="0" />
    <path
       id="path3093"
       d="m 1355.3628,656.35726 c 16.5349,-27.3543 33.0699,-56.52887 49.5935,-85.70344 l 36.3701,0 c 9.9118,27.35429 21.485,56.52886 33.0469,85.70344 l -31.4082,0 -8.2505,-25.53403 -34.72,0 -13.212,25.53403 -31.4198,0 z m 74.3788,-43.76186 -8.2503,-23.7012 -13.2235,23.7012 21.4738,0 z"
       style="fill:#0081c1;fill-rule:evenodd;stroke:none"
       inkscape:connector-curvature="0" />
    <path
       id="path3095"
       d="m 1484.2967,570.65382 29.7585,0 -4.9616,67.46304 44.6201,0 -1.6502,18.2404 -72.7285,0 4.9617,-85.70344 z"
       style="fill:#0081c1;fill-rule:evenodd;stroke:none"
       inkscape:connector-curvature="0" />
    <path
       id="path3097"
       d="m 1547.1021,656.35726 c 16.5348,-27.3543 33.0587,-56.52887 49.5819,-85.70344 l 36.3816,0 c 9.9116,27.35429 21.4738,56.52886 33.0471,85.70344 l -31.4084,0 -8.2504,-25.53403 -34.7199,0 -13.2233,25.53403 -31.4086,0 z m 74.3789,-43.76186 -8.2621,-23.7012 -13.223,23.7012 21.4851,0 z"
       style="fill:#0081c1;fill-rule:evenodd;stroke:none"
       inkscape:connector-curvature="0" />
    <path
       id="path3099"
       d="m 1692.5597,621.70932 -29.7473,-51.0555 31.4086,0 14.8619,31.00739 19.8354,-31.00739 33.0696,0 -39.6811,52.87577 -3.3002,32.82767 -29.7585,0 3.3116,-34.64794 z"
       style="fill:#0081c1;fill-rule:evenodd;stroke:none"
       inkscape:connector-curvature="0" />
    <path
       id="path3101"
       d="m 1760.3267,634.47633 c 6.6116,1.82027 14.8848,5.46081 23.1352,5.46081 4.9614,0 13.2232,-1.82028 13.2232,-7.29365 1.6616,-10.93417 -33.0581,-20.04809 -33.0581,-41.94157 1.6611,-10.93419 11.5845,-21.88093 36.3812,-21.88093 8.2504,0 18.1622,0 24.7852,1.83283 l 1.6502,20.0481 c -4.9617,-1.80772 -13.223,-3.64055 -19.8234,-3.64055 -4.9732,0 -13.2464,1.83283 -13.2464,5.47337 0,12.76702 34.7199,20.06066 33.0698,41.94159 0,10.93418 -11.5732,23.68864 -36.37,23.68864 -9.9119,0 -19.835,-1.80771 -28.0857,-3.64055 l -1.6612,-20.04809 z"
       style="fill:#0081c1;fill-rule:evenodd;stroke:none"
       inkscape:connector-curvature="0" />
    <path
       id="path3103"
       d="m 1847.9286,570.65382 29.7584,0 -6.6114,85.70344 -29.7583,0 6.6113,-85.70344 z"
       style="fill:#0081c1;fill-rule:evenodd;stroke:none"
       inkscape:connector-curvature="0" />
    <path
       id="path3105"
       d="m 1876.026,656.35726 c 18.1849,-27.3543 34.7197,-56.52887 51.243,-85.70344 l 34.7088,0 c 9.9234,27.35429 21.4963,56.52886 33.0588,85.70344 l -31.4087,0 -8.2616,-25.53403 -34.7087,0 -13.2235,25.53403 -31.4081,0 z m 74.3783,-43.76186 -8.2615,-23.7012 -13.2121,23.7012 21.4736,0 z"
       style="fill:#0081c1;fill-rule:evenodd;stroke:none"
       inkscape:connector-curvature="0" />
  </g>
</svg>
