<?xml version="1.0" encoding="utf-8"?>
<!-- Generator: Adobe Illustrator 23.0.2, SVG Export Plug-In . SVG Version: 6.00 Build 0)  -->
<svg version="1.1" id="Layer_1" xmlns="http://www.w3.org/2000/svg" xmlns:xlink="http://www.w3.org/1999/xlink" x="0px" y="0px"
	 viewBox="0 0 800 600" style="enable-background:new 0 0 800 600;" xml:space="preserve">
<style type="text/css">
	.st0a{fill:#73B79E;}
	.st1a{fill:#F8F9FA;}
	.st2a{fill:#212529;}
	.st3a{fill:#FFFFFF;}
</style>
<image style="overflow:visible;" width="370" height="400" xlink:href="https://tryscrumlive.vervebot.io/wp-content/uploads/2021/10/arun-new.png" transform="matrix(1 0 0 1 215 51.2241)">
</image>
<path class="st0a" d="M541.6,547.39H258.4c-3.87,0-7-3.13-7-7V392.01c0-3.87,3.13-7,7-7H541.6c3.87,0,7,3.13,7,7v148.38
	C548.6,544.26,545.46,547.39,541.6,547.39z"/>
<a xlink:href="https://twitter.com/arunronline" target="_blank">
	<g>
		<path class="st1a" d="M333.57,526.14h-24.29c-1.58,0-2.86-1.28-2.86-2.86V499c0-1.58,1.28-2.86,2.86-2.86h24.29
			c1.58,0,2.86,1.28,2.86,2.86v24.29C336.43,524.86,335.15,526.14,333.57,526.14z"/>
		<path class="st2a" d="M327.79,508.55c0,4.33-3.3,9.33-9.33,9.33c-1.86,0-3.58-0.54-5.04-1.47c0.26,0.03,0.52,0.04,0.79,0.04
			c1.53,0,2.94-0.52,4.07-1.4c-1.44-0.03-2.65-0.97-3.07-2.27c0.2,0.03,0.41,0.05,0.62,0.05c0.29,0,0.59-0.04,0.86-0.11
			c-1.5-0.3-2.63-1.62-2.63-3.22v-0.04c0.44,0.24,0.94,0.4,1.48,0.42c-0.88-0.59-1.46-1.59-1.46-2.73c0-0.61,0.16-1.17,0.45-1.66
			c1.61,1.99,4.04,3.29,6.76,3.43c-0.05-0.24-0.08-0.5-0.08-0.75c0-1.81,1.46-3.28,3.28-3.28c0.94,0,1.8,0.4,2.4,1.04
			c0.74-0.14,1.45-0.42,2.08-0.79c-0.24,0.76-0.76,1.4-1.44,1.81c0.66-0.07,1.3-0.25,1.89-0.51c-0.45,0.65-1,1.23-1.64,1.7
			C327.79,508.26,327.79,508.41,327.79,508.55z"/>
	</g>
</a>
<a xlink:href="https://www.linkedin.com/in/arunvignesh-ramakrishnan/" target="_blank">
	<g>
		<g>
			<path class="st1a" d="M386.08,526.14h-24.29c-1.58,0-2.86-1.28-2.86-2.86V499c0-1.58,1.28-2.86,2.86-2.86h24.29
				c1.58,0,2.86,1.28,2.86,2.86v24.29C388.94,524.86,387.66,526.14,386.08,526.14z"/>
		</g>
		<g>
			<path class="st2a" d="M366.94,505.06c0-0.93,0.75-1.68,1.68-1.68s1.68,0.75,1.68,1.68s-0.75,1.7-1.68,1.7
				S366.94,505.99,366.94,505.06z M367.17,517.38v-9.35h2.9v9.35H367.17z M378.04,517.38v-4.55c0-1.08-0.02-2.47-1.51-2.47
				c-1.51,0-1.74,1.18-1.74,2.4v4.63h-2.9v-9.35h2.78v1.28h0.04c0.39-0.73,1.33-1.51,2.75-1.51c2.94,0,3.48,1.93,3.48,4.45v5.13h0
				H378.04z"/>
		</g>
	</g>
</a>
<a xlink:href="https://tryscrum-community.slack.com/" target="_blank">
	<g>
		<path class="st1a" d="M438.59,526.14H414.3c-1.58,0-2.86-1.28-2.86-2.86V499c0-1.58,1.28-2.86,2.86-2.86h24.29
			c1.58,0,2.86,1.28,2.86,2.86v24.29C441.45,524.86,440.17,526.14,438.59,526.14z"/>
		<path class="st2a" d="M426.07,509.53c0,0.81-0.66,1.47-1.47,1.47h-3.68c-0.81,0-1.47-0.66-1.47-1.47s0.66-1.47,1.47-1.47h3.68
			C425.41,508.06,426.07,508.72,426.07,509.53z M420.92,514.7c-0.81,0-1.47-0.66-1.47-1.47c0-0.81,0.66-1.47,1.47-1.47h1.47v1.47
			C422.39,514.04,421.73,514.7,420.92,514.7z M423.13,505.85c0-0.81,0.66-1.47,1.47-1.47s1.47,0.66,1.47,1.47v1.47h-1.47
			C423.79,507.32,423.13,506.66,423.13,505.85z M424.6,511.76c0.81,0,1.47,0.66,1.47,1.47v3.68c0,0.81-0.66,1.47-1.47,1.47
			s-1.47-0.66-1.47-1.47v-3.68C423.13,512.42,423.79,511.76,424.6,511.76z M428.29,511.01c-0.81,0-1.47-0.66-1.47-1.47v-3.68
			c0-0.81,0.66-1.47,1.47-1.47c0.81,0,1.47,0.66,1.47,1.47v3.68C429.76,510.34,429.1,511.01,428.29,511.01z M426.82,513.23
			c0-0.81,0.66-1.47,1.47-1.47h3.68c0.81,0,1.47,0.66,1.47,1.47c0,0.81-0.66,1.47-1.47,1.47h-3.68
			C427.48,514.7,426.82,514.04,426.82,513.23z M429.76,516.91c0,0.81-0.66,1.47-1.47,1.47c-0.81,0-1.47-0.66-1.47-1.47v-1.47h1.47
			C429.1,515.44,429.76,516.1,429.76,516.91z M431.97,508.06c0.81,0,1.47,0.66,1.47,1.47s-0.66,1.47-1.47,1.47h-1.47v-1.47
			C430.5,508.72,431.17,508.06,431.97,508.06z"/>
	</g>
</a>
<a xlink:href="https://www.meetup.com/smstudiochn/" target="_blank">
	<g>
		<g>
			<path class="st1a" d="M491.1,526.14h-24.29c-1.58,0-2.86-1.28-2.86-2.86V499c0-1.58,1.28-2.86,2.86-2.86h24.29
				c1.58,0,2.86,1.28,2.86,2.86v24.29C493.95,524.86,492.68,526.14,491.1,526.14z"/>
		</g>
			<g>
				<path class="st2a" d="M471.96,511.43c-0.22,0.32-0.64,0.4-0.96,0.18c-0.31-0.22-0.39-0.65-0.18-0.97
					c0.22-0.32,0.64-0.4,0.96-0.19C472.1,510.67,472.18,511.1,471.96,511.43z M483.66,516.11c-0.54,0.38-1.16,0.55-1.78,0.53
					c-0.38,1.47-2.17,2.02-3.28,1.02c-0.04,0.03-0.08,0.05-0.12,0.09c-1.22,0.85-2.88,0.54-3.73-0.7c-0.3-0.45-0.46-0.96-0.47-1.47
					c-2.04-0.34-2.81-2.94-1.28-4.37c-0.88-1.47,0.02-3.36,1.67-3.59c0.78-2.07,3.36-3.05,5.11-1.69c2.11-0.7,4.26,0.92,4.09,3.16
					c1.28,0.39,1.65,2.09,0.62,2.97C485.31,513.42,484.96,515.2,483.66,516.11z M473.56,516.71c-0.17,0.03-0.34-0.07-0.38-0.25
					c-0.03-0.17,0.07-0.35,0.24-0.38c0.17-0.04,0.35,0.07,0.38,0.25C473.84,516.51,473.73,516.67,473.56,516.71z M473.59,506.79
					c-0.16-0.24-0.11-0.57,0.13-0.74c0.23-0.16,0.56-0.11,0.72,0.13c0.16,0.24,0.11,0.57-0.13,0.74
					C474.08,507.09,473.75,507.03,473.59,506.79z M480.95,513.55c-0.1-1,1.37-3.16,1.25-4c-0.11-0.75-0.61-0.91-1.04-0.92
					c-0.42-0.01-0.53,0.06-0.67,0.14c-0.09,0.05-0.21,0.15-0.37-0.01c-0.2-0.19-0.35-0.37-0.61-0.4c-0.38-0.06-0.55,0.06-0.83,0.3
					c-0.11,0.09-0.38,0.4-0.63,0.28c-0.11-0.05-0.48-0.24-0.75-0.36c-0.51-0.22-1.25,0.14-1.52,0.63c-0.4,0.71-1.19,3.53-1.3,3.91
					c-0.27,0.83,0.34,1.52,1.15,1.47c0.35-0.02,0.57-0.14,0.79-0.54c0.13-0.23,1.3-3.37,1.39-3.52c0.06-0.11,0.28-0.25,0.46-0.16
					c0.18,0.1,0.22,0.29,0.19,0.47c-0.03,0.3-0.88,2.22-0.9,2.43c-0.11,0.72,0.84,0.83,1.21,0.13c0.12-0.22,1.43-2.89,1.54-3.07
					c0.13-0.2,0.23-0.26,0.37-0.25c0.1,0,0.26,0.03,0.22,0.34c-0.04,0.29-1.1,2.26-1.22,2.74c-0.14,0.64,0.21,1.29,0.78,1.58
					c0.36,0.18,1.95,0.49,1.83-0.35C482.2,513.76,481.02,514.26,480.95,513.55z M475.16,503.83c-0.04-0.2,0.09-0.39,0.28-0.44
					c0.2-0.05,0.39,0.08,0.43,0.29c0.04,0.2-0.08,0.39-0.28,0.44C475.39,504.16,475.2,504.03,475.16,503.83z M478.89,518.67
					c0.14,0.21,0.09,0.48-0.11,0.63c-0.21,0.14-0.48,0.09-0.63-0.12c-0.13-0.21-0.08-0.48,0.12-0.63
					C478.48,518.42,478.76,518.47,478.89,518.67z M479.36,504.88c-0.2-0.33-0.09-0.76,0.23-0.96c0.32-0.2,0.74-0.09,0.94,0.24
					c0.19,0.32,0.09,0.75-0.24,0.95C479.96,505.31,479.55,505.2,479.36,504.88z M483.48,517.47c0.22,0.33,0.14,0.79-0.19,1.02
					c-0.33,0.22-0.78,0.14-1-0.19c-0.22-0.33-0.14-0.79,0.18-1.02C482.81,517.05,483.25,517.14,483.48,517.47z M485.48,507.87
					c0.18,0.27,0.12,0.63-0.14,0.82c-0.27,0.18-0.63,0.12-0.81-0.15s-0.12-0.63,0.15-0.82C484.94,507.53,485.31,507.6,485.48,507.87
					z M486.46,512.14c0.05,0.24-0.1,0.48-0.33,0.52c-0.23,0.05-0.46-0.1-0.51-0.33c-0.05-0.24,0.1-0.47,0.33-0.53
					C486.18,511.76,486.41,511.91,486.46,512.14z M486.95,510.42c-0.18,0.03-0.35-0.08-0.38-0.25c-0.03-0.18,0.07-0.36,0.25-0.39
					c0.17-0.03,0.34,0.07,0.38,0.25C487.23,510.2,487.12,510.37,486.95,510.42z"/>
			</g>
	</g>
</a>
<g>
	<path class="st3a" d="M276.17,432.32h-6.06l-1.27,3.64h-2.83l5.91-15.64h2.44l5.92,15.64h-2.84L276.17,432.32z M270.87,430.13h4.53
		l-2.27-6.49L270.87,430.13z"/>
	<path class="st3a" d="M287.89,426.72c-0.17-0.03-0.35-0.05-0.52-0.06c-0.18-0.01-0.36-0.02-0.54-0.02c-0.63,0-1.14,0.12-1.54,0.37
		c-0.39,0.24-0.69,0.58-0.88,1.01v7.95h-2.61v-11.62h2.49l0.06,1.3c0.29-0.47,0.66-0.84,1.09-1.11c0.43-0.27,0.94-0.4,1.53-0.4
		c0.15,0,0.32,0.02,0.51,0.05c0.19,0.03,0.33,0.07,0.41,0.1L287.89,426.72z"/>
	<path class="st3a" d="M296.58,434.82c-0.37,0.43-0.82,0.76-1.35,1s-1.17,0.35-1.91,0.35c-0.57,0-1.09-0.08-1.56-0.24
		c-0.47-0.16-0.87-0.42-1.21-0.76c-0.34-0.35-0.6-0.79-0.78-1.34c-0.19-0.55-0.28-1.2-0.28-1.97v-7.52h2.61v7.54
		c0,0.42,0.05,0.77,0.15,1.05c0.1,0.28,0.23,0.5,0.4,0.67c0.17,0.17,0.36,0.29,0.59,0.35c0.22,0.07,0.45,0.1,0.7,0.1
		c0.67,0,1.22-0.12,1.63-0.37c0.42-0.24,0.73-0.58,0.93-1v-8.35h2.61v11.62h-2.46L296.58,434.82z"/>
	<path class="st3a" d="M304.19,424.34l0.08,1.34c0.41-0.49,0.9-0.88,1.47-1.15c0.57-0.27,1.21-0.41,1.91-0.41
		c0.56,0,1.06,0.08,1.52,0.23c0.45,0.15,0.84,0.4,1.17,0.75s0.57,0.79,0.75,1.34c0.18,0.55,0.26,1.22,0.26,2.01v7.51h-2.61v-7.53
		c0-0.4-0.04-0.74-0.13-1.02c-0.09-0.28-0.22-0.5-0.39-0.67s-0.39-0.3-0.64-0.37c-0.25-0.08-0.55-0.11-0.88-0.11
		c-0.54,0-1,0.13-1.4,0.39s-0.71,0.61-0.95,1.04v8.27h-2.61v-11.62H304.19z"/>
	<path class="st3a" d="M318.1,432.65l2.46-8.31h2.7l-4.03,11.62h-2.27l-4.06-11.62h2.71L318.1,432.65z"/>
	<path class="st3a" d="M324.89,421.32c0-0.4,0.13-0.73,0.38-1c0.25-0.26,0.62-0.4,1.09-0.4s0.84,0.13,1.1,0.4s0.39,0.6,0.39,1
		c0,0.39-0.13,0.72-0.39,0.98c-0.26,0.26-0.62,0.39-1.1,0.39s-0.84-0.13-1.09-0.39C325.01,422.04,324.89,421.71,324.89,421.32z
		 M327.66,435.96h-2.61v-11.62h2.61V435.96z"/>
	<path class="st3a" d="M330.04,430.06c0-0.88,0.11-1.69,0.32-2.42s0.52-1.36,0.93-1.88c0.4-0.52,0.89-0.93,1.47-1.21
		c0.57-0.29,1.22-0.43,1.93-0.43c0.7,0,1.31,0.12,1.82,0.36c0.51,0.24,0.95,0.58,1.31,1.03l0.12-1.17h2.35v11.3
		c0,0.78-0.13,1.47-0.39,2.08c-0.26,0.61-0.62,1.12-1.08,1.54c-0.46,0.42-1.02,0.73-1.67,0.95c-0.65,0.22-1.36,0.33-2.13,0.33
		c-0.32,0-0.68-0.03-1.07-0.1c-0.39-0.07-0.79-0.18-1.19-0.33c-0.4-0.15-0.78-0.35-1.15-0.6c-0.37-0.24-0.68-0.54-0.93-0.89
		l1.24-1.57c0.43,0.51,0.9,0.87,1.4,1.1c0.5,0.22,1.03,0.33,1.56,0.33c0.87,0,1.55-0.24,2.05-0.7c0.5-0.47,0.75-1.16,0.75-2.07
		v-0.78c-0.37,0.41-0.79,0.72-1.29,0.93s-1.07,0.32-1.72,0.32c-0.71,0-1.35-0.15-1.92-0.45s-1.06-0.71-1.46-1.23
		c-0.4-0.52-0.71-1.14-0.93-1.86s-0.32-1.5-0.32-2.35V430.06z M332.64,430.29c0,0.52,0.05,1,0.16,1.46c0.1,0.46,0.27,0.85,0.49,1.2
		c0.22,0.34,0.5,0.61,0.84,0.81c0.34,0.2,0.74,0.3,1.21,0.3c0.59,0,1.07-0.12,1.44-0.37c0.37-0.25,0.67-0.57,0.9-0.98v-5.11
		c-0.23-0.41-0.53-0.73-0.91-0.97s-0.85-0.35-1.41-0.35c-0.47,0-0.88,0.1-1.22,0.3s-0.63,0.47-0.84,0.82
		c-0.22,0.34-0.38,0.75-0.49,1.21s-0.16,0.96-0.16,1.48V430.29z"/>
	<path class="st3a" d="M345.39,424.34l0.08,1.34c0.41-0.49,0.9-0.88,1.47-1.15c0.57-0.27,1.21-0.41,1.91-0.41
		c0.56,0,1.06,0.08,1.52,0.23c0.45,0.15,0.84,0.4,1.17,0.75s0.57,0.79,0.75,1.34c0.18,0.55,0.26,1.22,0.26,2.01v7.51h-2.61v-7.53
		c0-0.4-0.04-0.74-0.13-1.02c-0.09-0.28-0.22-0.5-0.39-0.67s-0.39-0.3-0.64-0.37c-0.25-0.08-0.55-0.11-0.88-0.11
		c-0.54,0-1,0.13-1.4,0.39s-0.71,0.61-0.95,1.04v8.27h-2.61v-11.62H345.39z"/>
	<path class="st3a" d="M360.32,436.17c-0.86,0-1.63-0.14-2.32-0.43s-1.27-0.68-1.75-1.18c-0.48-0.5-0.85-1.1-1.11-1.78
		s-0.39-1.43-0.39-2.22v-0.43c0-0.92,0.14-1.75,0.41-2.49c0.27-0.74,0.64-1.37,1.12-1.89c0.47-0.52,1.03-0.92,1.67-1.2
		c0.64-0.28,1.33-0.42,2.07-0.42c0.84,0,1.58,0.14,2.2,0.42c0.62,0.28,1.14,0.68,1.55,1.19s0.71,1.11,0.91,1.82
		c0.2,0.7,0.3,1.47,0.3,2.31v1.12h-7.59c0.04,0.45,0.13,0.87,0.28,1.25c0.15,0.38,0.36,0.71,0.63,0.98
		c0.26,0.28,0.58,0.49,0.94,0.65c0.36,0.16,0.77,0.24,1.23,0.24c0.64,0,1.2-0.13,1.68-0.39c0.48-0.26,0.89-0.61,1.24-1.06l1.41,1.34
		c-0.19,0.28-0.42,0.55-0.69,0.81c-0.28,0.26-0.6,0.49-0.97,0.7c-0.37,0.2-0.79,0.37-1.25,0.49
		C361.43,436.11,360.9,436.17,360.32,436.17z M360.01,426.22c-0.72,0-1.29,0.25-1.73,0.75s-0.72,1.2-0.84,2.09h4.97v-0.19
		c-0.02-0.34-0.08-0.67-0.17-0.99c-0.09-0.32-0.23-0.6-0.41-0.85c-0.19-0.25-0.43-0.44-0.73-0.59
		C360.81,426.29,360.44,426.22,360.01,426.22z"/>
	<path class="st3a" d="M373.53,432.8c0-0.19-0.03-0.36-0.09-0.52c-0.06-0.16-0.18-0.31-0.36-0.45c-0.18-0.14-0.43-0.27-0.76-0.39
		c-0.33-0.12-0.75-0.24-1.27-0.34c-0.62-0.13-1.19-0.29-1.7-0.48c-0.51-0.19-0.95-0.43-1.32-0.7c-0.37-0.28-0.65-0.6-0.85-0.97
		s-0.31-0.8-0.31-1.29c0-0.47,0.1-0.92,0.31-1.35c0.21-0.43,0.51-0.8,0.9-1.12c0.39-0.32,0.86-0.58,1.42-0.77
		c0.55-0.19,1.18-0.28,1.86-0.28c0.72,0,1.37,0.09,1.95,0.28c0.58,0.19,1.06,0.45,1.47,0.78c0.4,0.33,0.71,0.73,0.92,1.18
		c0.21,0.45,0.32,0.94,0.32,1.46h-2.61c0-0.22-0.04-0.44-0.13-0.65c-0.09-0.21-0.21-0.4-0.39-0.56s-0.39-0.3-0.64-0.39
		c-0.25-0.1-0.55-0.14-0.89-0.14c-0.33,0-0.62,0.04-0.86,0.12c-0.24,0.08-0.45,0.19-0.61,0.32c-0.16,0.13-0.28,0.29-0.36,0.46
		c-0.08,0.18-0.12,0.36-0.12,0.55s0.04,0.37,0.11,0.52c0.07,0.15,0.2,0.29,0.38,0.41s0.43,0.23,0.74,0.34
		c0.31,0.1,0.69,0.21,1.16,0.31c0.67,0.14,1.28,0.31,1.81,0.5c0.53,0.19,0.98,0.43,1.35,0.71c0.37,0.28,0.65,0.61,0.84,0.99
		s0.29,0.83,0.29,1.35c0,0.52-0.11,0.99-0.33,1.42c-0.22,0.43-0.54,0.8-0.95,1.11c-0.41,0.31-0.91,0.55-1.49,0.73
		s-1.22,0.26-1.93,0.26c-0.79,0-1.5-0.11-2.11-0.34s-1.13-0.52-1.54-0.89c-0.42-0.37-0.73-0.78-0.94-1.24
		c-0.21-0.46-0.32-0.93-0.32-1.41h2.54c0.02,0.36,0.1,0.66,0.25,0.9c0.14,0.24,0.33,0.44,0.55,0.59c0.22,0.15,0.47,0.26,0.75,0.33
		c0.28,0.07,0.57,0.1,0.86,0.1c0.69,0,1.21-0.13,1.57-0.39C373.35,433.57,373.53,433.22,373.53,432.8z"/>
	<path class="st3a" d="M380.94,425.6c0.4-0.47,0.87-0.83,1.42-1.09c0.54-0.26,1.15-0.39,1.82-0.39c0.57,0,1.08,0.08,1.55,0.24
		c0.47,0.16,0.86,0.41,1.19,0.76c0.33,0.35,0.58,0.8,0.76,1.35c0.18,0.56,0.27,1.23,0.27,2.01v7.48h-2.61v-7.5
		c0-0.8-0.17-1.37-0.52-1.7c-0.35-0.33-0.86-0.5-1.53-0.5c-0.54,0-1.01,0.13-1.4,0.38c-0.39,0.25-0.7,0.59-0.94,1.02v8.3h-2.61
		v-16.5h2.61V425.6z"/>
	<path class="st3a" d="M402.06,429.93h-3.03v6.03h-2.72v-15.64h5.5c0.9,0,1.69,0.1,2.4,0.31s1.29,0.5,1.78,0.9s0.85,0.89,1.1,1.48
		s0.38,1.27,0.38,2.04c0,1.05-0.25,1.92-0.76,2.63c-0.5,0.71-1.21,1.25-2.11,1.63l3.51,6.52v0.14h-2.91L402.06,429.93z
		 M399.03,427.75h2.79c0.49,0,0.91-0.06,1.28-0.19s0.67-0.31,0.91-0.54s0.43-0.5,0.55-0.82s0.18-0.66,0.18-1.04
		c0-0.4-0.06-0.76-0.17-1.09c-0.11-0.33-0.29-0.6-0.53-0.84c-0.24-0.23-0.54-0.41-0.91-0.54c-0.37-0.13-0.81-0.19-1.33-0.19h-2.78
		V427.75z"/>
	<path class="st3a" d="M416.73,435.96c-0.07-0.14-0.13-0.3-0.18-0.48c-0.05-0.19-0.09-0.39-0.12-0.6c-0.17,0.18-0.36,0.35-0.57,0.5
		c-0.21,0.16-0.44,0.29-0.7,0.41c-0.25,0.12-0.53,0.21-0.83,0.28c-0.3,0.07-0.61,0.1-0.95,0.1c-0.58,0-1.11-0.09-1.6-0.26
		c-0.49-0.17-0.9-0.42-1.25-0.73c-0.35-0.31-0.62-0.68-0.82-1.1c-0.2-0.42-0.3-0.88-0.3-1.38c0-0.62,0.12-1.17,0.35-1.65
		s0.58-0.88,1.03-1.2s1-0.57,1.66-0.74c0.66-0.17,1.4-0.25,2.24-0.25h1.64v-0.76c0-0.6-0.17-1.08-0.5-1.45
		c-0.34-0.36-0.85-0.54-1.54-0.54c-0.31,0-0.59,0.04-0.84,0.12c-0.25,0.08-0.46,0.19-0.64,0.33c-0.18,0.14-0.31,0.31-0.41,0.5
		s-0.15,0.4-0.15,0.62h-2.61c0-0.46,0.11-0.9,0.34-1.33c0.23-0.43,0.55-0.81,0.96-1.14s0.92-0.6,1.51-0.8s1.25-0.3,1.98-0.3
		c0.65,0,1.25,0.08,1.8,0.25c0.55,0.17,1.03,0.42,1.43,0.75s0.71,0.75,0.93,1.25c0.22,0.5,0.33,1.08,0.33,1.75v5.16
		c0,1.05,0.15,1.88,0.44,2.5v0.18H416.73z M413.86,434.08c0.3,0,0.58-0.04,0.84-0.12c0.26-0.08,0.5-0.18,0.71-0.31
		c0.21-0.13,0.4-0.28,0.55-0.45c0.16-0.17,0.28-0.34,0.38-0.51v-2.19h-1.41c-0.97,0-1.69,0.17-2.18,0.5s-0.73,0.81-0.73,1.43
		c0,0.24,0.04,0.46,0.12,0.66s0.2,0.37,0.35,0.52c0.16,0.15,0.35,0.26,0.58,0.34C413.3,434.04,413.56,434.08,413.86,434.08z"/>
	<path class="st3a" d="M424.14,424.34l0.08,1.21c0.39-0.45,0.86-0.8,1.41-1.05c0.55-0.25,1.2-0.38,1.94-0.38
		c0.71,0,1.34,0.14,1.9,0.42c0.56,0.28,0.99,0.74,1.29,1.36c0.39-0.54,0.88-0.98,1.47-1.3s1.29-0.48,2.1-0.48
		c0.6,0,1.14,0.08,1.61,0.24s0.87,0.42,1.2,0.76c0.33,0.35,0.58,0.79,0.75,1.34c0.17,0.54,0.26,1.2,0.26,1.97v7.53h-2.61v-7.54
		c0-0.43-0.05-0.78-0.14-1.06c-0.1-0.28-0.24-0.5-0.42-0.66s-0.4-0.28-0.66-0.34c-0.25-0.06-0.54-0.1-0.87-0.1
		c-0.59,0-1.08,0.16-1.46,0.48c-0.38,0.32-0.64,0.74-0.79,1.25c0,0.04,0,0.07,0.01,0.11c0,0.04,0,0.08,0,0.11v7.75h-2.61v-7.51
		c0-0.41-0.05-0.75-0.14-1.03s-0.24-0.5-0.42-0.68s-0.4-0.3-0.66-0.37s-0.55-0.11-0.87-0.11c-0.56,0-1.02,0.11-1.38,0.34
		c-0.36,0.23-0.64,0.54-0.84,0.93v8.42h-2.61v-11.62H424.14z"/>
	<path class="st3a" d="M447.78,435.96c-0.07-0.14-0.13-0.3-0.18-0.48c-0.05-0.19-0.09-0.39-0.12-0.6c-0.17,0.18-0.36,0.35-0.57,0.5
		c-0.21,0.16-0.44,0.29-0.7,0.41c-0.25,0.12-0.53,0.21-0.83,0.28c-0.3,0.07-0.61,0.1-0.95,0.1c-0.58,0-1.11-0.09-1.6-0.26
		c-0.49-0.17-0.9-0.42-1.25-0.73c-0.35-0.31-0.62-0.68-0.82-1.1c-0.2-0.42-0.3-0.88-0.3-1.38c0-0.62,0.12-1.17,0.35-1.65
		s0.58-0.88,1.03-1.2s1-0.57,1.66-0.74c0.66-0.17,1.4-0.25,2.24-0.25h1.64v-0.76c0-0.6-0.17-1.08-0.5-1.45
		c-0.34-0.36-0.85-0.54-1.54-0.54c-0.31,0-0.59,0.04-0.84,0.12c-0.25,0.08-0.46,0.19-0.64,0.33c-0.18,0.14-0.31,0.31-0.41,0.5
		s-0.15,0.4-0.15,0.62h-2.61c0-0.46,0.11-0.9,0.34-1.33c0.23-0.43,0.55-0.81,0.96-1.14s0.92-0.6,1.51-0.8s1.25-0.3,1.98-0.3
		c0.65,0,1.25,0.08,1.8,0.25c0.55,0.17,1.03,0.42,1.43,0.75s0.71,0.75,0.93,1.25c0.22,0.5,0.33,1.08,0.33,1.75v5.16
		c0,1.05,0.15,1.88,0.44,2.5v0.18H447.78z M444.91,434.08c0.3,0,0.58-0.04,0.84-0.12c0.26-0.08,0.5-0.18,0.71-0.31
		c0.21-0.13,0.4-0.28,0.55-0.45c0.16-0.17,0.28-0.34,0.38-0.51v-2.19h-1.41c-0.97,0-1.69,0.17-2.18,0.5s-0.73,0.81-0.73,1.43
		c0,0.24,0.04,0.46,0.12,0.66s0.2,0.37,0.35,0.52c0.16,0.15,0.35,0.26,0.58,0.34C444.34,434.04,444.61,434.08,444.91,434.08z"/>
	<path class="st3a" d="M456.51,430.97l-1.16,1.19v3.79h-2.61v-16.5h2.61v9.52l0.82-1.02l3.21-3.62h3.14l-4.32,4.84l4.78,6.78h-3.02
		L456.51,430.97z"/>
	<path class="st3a" d="M470.3,426.72c-0.17-0.03-0.35-0.05-0.52-0.06c-0.18-0.01-0.36-0.02-0.54-0.02c-0.63,0-1.14,0.12-1.54,0.37
		s-0.69,0.58-0.88,1.01v7.95h-2.61v-11.62h2.49l0.06,1.3c0.29-0.47,0.66-0.84,1.09-1.11c0.43-0.27,0.94-0.4,1.53-0.4
		c0.15,0,0.32,0.02,0.51,0.05c0.19,0.03,0.33,0.07,0.41,0.1L470.3,426.72z"/>
	<path class="st3a" d="M471.96,421.32c0-0.4,0.13-0.73,0.38-1c0.25-0.26,0.62-0.4,1.09-0.4s0.84,0.13,1.1,0.4s0.39,0.6,0.39,1
		c0,0.39-0.13,0.72-0.39,0.98c-0.26,0.26-0.62,0.39-1.1,0.39s-0.84-0.13-1.09-0.39C472.08,422.04,471.96,421.71,471.96,421.32z
		 M474.73,435.96h-2.61v-11.62h2.61V435.96z"/>
	<path class="st3a" d="M484.08,432.8c0-0.19-0.03-0.36-0.09-0.52c-0.06-0.16-0.18-0.31-0.36-0.45s-0.43-0.27-0.76-0.39
		c-0.33-0.12-0.75-0.24-1.27-0.34c-0.62-0.13-1.19-0.29-1.7-0.48c-0.51-0.19-0.95-0.43-1.32-0.7c-0.37-0.28-0.65-0.6-0.85-0.97
		s-0.31-0.8-0.31-1.29c0-0.47,0.1-0.92,0.31-1.35c0.21-0.43,0.51-0.8,0.9-1.12c0.39-0.32,0.86-0.58,1.42-0.77
		c0.55-0.19,1.18-0.28,1.86-0.28c0.72,0,1.37,0.09,1.95,0.28c0.58,0.19,1.06,0.45,1.47,0.78s0.71,0.73,0.92,1.18
		c0.21,0.45,0.32,0.94,0.32,1.46h-2.61c0-0.22-0.04-0.44-0.13-0.65c-0.09-0.21-0.21-0.4-0.39-0.56s-0.38-0.3-0.64-0.39
		c-0.25-0.1-0.55-0.14-0.89-0.14c-0.33,0-0.62,0.04-0.86,0.12c-0.24,0.08-0.45,0.19-0.61,0.32c-0.16,0.13-0.28,0.29-0.36,0.46
		c-0.08,0.18-0.12,0.36-0.12,0.55s0.04,0.37,0.11,0.52s0.2,0.29,0.38,0.41s0.43,0.23,0.74,0.34c0.31,0.1,0.69,0.21,1.16,0.31
		c0.67,0.14,1.28,0.31,1.81,0.5c0.53,0.19,0.98,0.43,1.35,0.71c0.37,0.28,0.65,0.61,0.84,0.99s0.29,0.83,0.29,1.35
		c0,0.52-0.11,0.99-0.33,1.42s-0.54,0.8-0.95,1.11c-0.41,0.31-0.91,0.55-1.49,0.73s-1.22,0.26-1.93,0.26c-0.79,0-1.5-0.11-2.11-0.34
		s-1.13-0.52-1.54-0.89s-0.73-0.78-0.94-1.24c-0.21-0.46-0.32-0.93-0.32-1.41h2.54c0.02,0.36,0.1,0.66,0.25,0.9s0.33,0.44,0.55,0.59
		s0.47,0.26,0.75,0.33c0.28,0.07,0.57,0.1,0.86,0.1c0.69,0,1.21-0.13,1.57-0.39C483.91,433.57,484.08,433.22,484.08,432.8z"/>
	<path class="st3a" d="M491.5,425.6c0.4-0.47,0.87-0.83,1.42-1.09c0.54-0.26,1.15-0.39,1.82-0.39c0.57,0,1.08,0.08,1.55,0.24
		s0.86,0.41,1.19,0.76c0.33,0.35,0.58,0.8,0.76,1.35c0.18,0.56,0.27,1.23,0.27,2.01v7.48h-2.61v-7.5c0-0.8-0.17-1.37-0.52-1.7
		c-0.35-0.33-0.86-0.5-1.53-0.5c-0.54,0-1.01,0.13-1.4,0.38c-0.39,0.25-0.7,0.59-0.94,1.02v8.3h-2.61v-16.5h2.61V425.6z"/>
	<path class="st3a" d="M503.56,424.34l0.08,1.34c0.41-0.49,0.9-0.88,1.47-1.15s1.21-0.41,1.91-0.41c0.56,0,1.07,0.08,1.52,0.23
		c0.45,0.15,0.84,0.4,1.17,0.75s0.57,0.79,0.75,1.34c0.17,0.55,0.26,1.22,0.26,2.01v7.51h-2.61v-7.53c0-0.4-0.04-0.74-0.13-1.02
		c-0.09-0.28-0.22-0.5-0.39-0.67s-0.38-0.3-0.64-0.37c-0.25-0.08-0.55-0.11-0.88-0.11c-0.54,0-1,0.13-1.4,0.39s-0.71,0.61-0.95,1.04
		v8.27h-2.61v-11.62H503.56z"/>
	<path class="st3a" d="M520.32,435.96c-0.07-0.14-0.13-0.3-0.18-0.48c-0.05-0.19-0.09-0.39-0.12-0.6c-0.17,0.18-0.36,0.35-0.57,0.5
		c-0.21,0.16-0.44,0.29-0.7,0.41c-0.25,0.12-0.53,0.21-0.83,0.28c-0.3,0.07-0.61,0.1-0.95,0.1c-0.58,0-1.11-0.09-1.6-0.26
		c-0.49-0.17-0.9-0.42-1.25-0.73c-0.35-0.31-0.62-0.68-0.82-1.1c-0.2-0.42-0.3-0.88-0.3-1.38c0-0.62,0.12-1.17,0.35-1.65
		s0.58-0.88,1.03-1.2s1-0.57,1.66-0.74c0.66-0.17,1.4-0.25,2.24-0.25h1.64v-0.76c0-0.6-0.17-1.08-0.5-1.45
		c-0.34-0.36-0.85-0.54-1.54-0.54c-0.31,0-0.59,0.04-0.84,0.12c-0.25,0.08-0.46,0.19-0.64,0.33c-0.18,0.14-0.31,0.31-0.41,0.5
		s-0.15,0.4-0.15,0.62h-2.61c0-0.46,0.11-0.9,0.34-1.33c0.23-0.43,0.55-0.81,0.96-1.14s0.92-0.6,1.51-0.8s1.25-0.3,1.98-0.3
		c0.65,0,1.25,0.08,1.8,0.25c0.55,0.17,1.03,0.42,1.43,0.75s0.71,0.75,0.93,1.25c0.22,0.5,0.33,1.08,0.33,1.75v5.16
		c0,1.05,0.15,1.88,0.44,2.5v0.18H520.32z M517.45,434.08c0.3,0,0.58-0.04,0.84-0.12c0.26-0.08,0.5-0.18,0.71-0.31
		c0.21-0.13,0.4-0.28,0.55-0.45c0.16-0.17,0.28-0.34,0.38-0.51v-2.19h-1.41c-0.97,0-1.69,0.17-2.18,0.5s-0.73,0.81-0.73,1.43
		c0,0.24,0.04,0.46,0.12,0.66s0.2,0.37,0.35,0.52c0.16,0.15,0.35,0.26,0.58,0.34C516.89,434.04,517.15,434.08,517.45,434.08z"/>
	<path class="st3a" d="M527.7,424.34l0.08,1.34c0.41-0.49,0.9-0.88,1.47-1.15s1.21-0.41,1.91-0.41c0.56,0,1.07,0.08,1.52,0.23
		c0.45,0.15,0.84,0.4,1.17,0.75s0.57,0.79,0.75,1.34c0.17,0.55,0.26,1.22,0.26,2.01v7.51h-2.61v-7.53c0-0.4-0.04-0.74-0.13-1.02
		c-0.09-0.28-0.22-0.5-0.39-0.67s-0.38-0.3-0.64-0.37c-0.25-0.08-0.55-0.11-0.88-0.11c-0.54,0-1,0.13-1.4,0.39s-0.71,0.61-0.95,1.04
		v8.27h-2.61v-11.62H527.7z"/>
</g>
<g>
	<path class="st3a" d="M276.13,465.17h-5.36l-1.2,3.34h-1.74l4.89-12.8h1.48l4.9,12.8h-1.73L276.13,465.17z M271.28,463.78h4.35
		l-2.18-5.99L271.28,463.78z"/>
	<path class="st3a" d="M280.17,463.68c0-0.73,0.09-1.39,0.26-1.98s0.42-1.1,0.75-1.53s0.72-0.75,1.18-0.99s0.98-0.35,1.56-0.35
		c0.6,0,1.13,0.11,1.57,0.32s0.83,0.52,1.14,0.91l0.08-1.05h1.49v9.31c0,0.63-0.1,1.18-0.29,1.67s-0.47,0.9-0.83,1.24
		s-0.78,0.59-1.27,0.77s-1.04,0.26-1.63,0.26c-0.25,0-0.53-0.03-0.85-0.08s-0.64-0.15-0.97-0.27s-0.64-0.29-0.94-0.5
		s-0.55-0.47-0.76-0.78l0.84-0.98c0.2,0.25,0.4,0.45,0.62,0.62s0.42,0.3,0.64,0.4s0.43,0.17,0.65,0.21s0.44,0.07,0.65,0.07
		c0.38,0,0.73-0.05,1.04-0.16s0.58-0.27,0.8-0.49s0.39-0.48,0.51-0.8s0.18-0.68,0.18-1.09v-0.83c-0.32,0.36-0.69,0.64-1.13,0.83
		s-0.95,0.29-1.53,0.29c-0.57,0-1.08-0.12-1.54-0.36s-0.85-0.58-1.18-1.01s-0.58-0.94-0.75-1.53s-0.26-1.23-0.26-1.93V463.68z
		 M281.8,463.86c0,0.47,0.05,0.92,0.15,1.34s0.25,0.78,0.45,1.09s0.46,0.56,0.78,0.74s0.69,0.27,1.13,0.27
		c0.29,0,0.55-0.04,0.78-0.11s0.44-0.17,0.62-0.29s0.35-0.27,0.49-0.44s0.26-0.36,0.37-0.56v-4.34c-0.11-0.19-0.23-0.37-0.37-0.54
		s-0.3-0.31-0.49-0.43s-0.39-0.22-0.62-0.29s-0.48-0.1-0.76-0.1c-0.45,0-0.83,0.09-1.14,0.28s-0.58,0.44-0.78,0.75
		s-0.36,0.68-0.45,1.1s-0.15,0.87-0.15,1.34V463.86z"/>
	<path class="st3a" d="M290.66,456.48c0-0.26,0.08-0.49,0.24-0.67s0.4-0.27,0.72-0.27s0.56,0.09,0.72,0.27s0.25,0.4,0.25,0.67
		s-0.08,0.48-0.25,0.66s-0.4,0.26-0.72,0.26s-0.56-0.09-0.72-0.26S290.66,456.74,290.66,456.48z M292.42,468.51h-1.63V459h1.63
		V468.51z"/>
	<path class="st3a" d="M296.79,468.51h-1.63v-13.5h1.63V468.51z"/>
	<path class="st3a" d="M303.33,468.69c-0.66,0-1.26-0.11-1.8-0.34s-0.99-0.55-1.38-0.95s-0.67-0.89-0.88-1.45s-0.31-1.18-0.31-1.85
		v-0.37c0-0.77,0.12-1.46,0.35-2.07s0.54-1.12,0.93-1.54s0.83-0.73,1.33-0.95s1.02-0.33,1.56-0.33c0.68,0,1.27,0.12,1.76,0.36
		s0.9,0.56,1.22,0.98s0.56,0.91,0.71,1.48s0.23,1.19,0.23,1.85v0.73h-6.44c0.01,0.44,0.08,0.85,0.22,1.23s0.32,0.71,0.56,0.99
		s0.54,0.5,0.88,0.67s0.73,0.25,1.16,0.25c0.57,0,1.06-0.12,1.46-0.35s0.75-0.54,1.05-0.93l0.99,0.77
		c-0.15,0.23-0.34,0.46-0.55,0.68s-0.47,0.42-0.76,0.59s-0.62,0.31-1,0.41S303.81,468.69,303.33,468.69z M303.13,460.16
		c-0.33,0-0.63,0.06-0.91,0.18s-0.52,0.29-0.74,0.52s-0.4,0.51-0.54,0.85s-0.24,0.73-0.29,1.17h4.76v-0.12
		c-0.02-0.32-0.07-0.63-0.15-0.94s-0.22-0.59-0.4-0.83s-0.41-0.45-0.69-0.6S303.55,460.16,303.13,460.16z"/>
	<path class="st3a" d="M322.12,457.1h-4.11v11.41h-1.68V457.1h-4.1v-1.39h9.9V457.1z"/>
	<path class="st3a" d="M327.71,460.46c-0.14-0.02-0.27-0.04-0.39-0.05s-0.26-0.01-0.41-0.01c-0.56,0-1.02,0.12-1.38,0.37
		s-0.62,0.58-0.8,0.99v6.75h-1.63V459h1.58l0.03,1.1c0.25-0.39,0.55-0.7,0.92-0.93s0.82-0.34,1.34-0.34c0.12,0,0.25,0.01,0.4,0.04
		s0.26,0.05,0.32,0.08V460.46z"/>
	<path class="st3a" d="M334.72,468.51c-0.06-0.12-0.11-0.27-0.14-0.44s-0.06-0.36-0.09-0.56c-0.15,0.16-0.32,0.31-0.51,0.45
		s-0.4,0.27-0.62,0.38s-0.47,0.19-0.73,0.25s-0.54,0.09-0.83,0.09c-0.49,0-0.93-0.07-1.32-0.22s-0.73-0.35-1.01-0.6
		s-0.49-0.55-0.65-0.89s-0.23-0.71-0.23-1.1c0-0.51,0.1-0.96,0.3-1.35s0.48-0.72,0.86-0.98s0.82-0.46,1.35-0.6s1.12-0.2,1.77-0.2
		h1.62V462c0-0.57-0.17-1.02-0.51-1.36s-0.84-0.5-1.5-0.5c-0.3,0-0.58,0.04-0.83,0.12s-0.47,0.19-0.65,0.33s-0.32,0.3-0.42,0.48
		s-0.15,0.37-0.15,0.57h-1.63c0-0.34,0.09-0.68,0.27-1.01s0.43-0.63,0.76-0.9s0.73-0.48,1.19-0.65s0.99-0.25,1.56-0.25
		c0.52,0,0.99,0.07,1.43,0.2s0.81,0.33,1.12,0.6s0.55,0.6,0.73,1s0.26,0.86,0.26,1.4v4.42c0,0.32,0.03,0.66,0.08,1.01
		s0.14,0.66,0.25,0.92v0.14H334.72z M332.02,467.27c0.29,0,0.57-0.04,0.83-0.12s0.49-0.19,0.7-0.32s0.39-0.28,0.55-0.45
		s0.28-0.35,0.36-0.53v-1.95h-1.35c-0.93,0-1.65,0.14-2.15,0.43s-0.76,0.73-0.76,1.31c0,0.23,0.04,0.44,0.11,0.64
		s0.19,0.37,0.35,0.51s0.35,0.26,0.57,0.34S331.72,467.27,332.02,467.27z"/>
	<path class="st3a" d="M338.65,456.48c0-0.26,0.08-0.49,0.24-0.67s0.4-0.27,0.72-0.27s0.56,0.09,0.72,0.27s0.25,0.4,0.25,0.67
		s-0.08,0.48-0.25,0.66s-0.4,0.26-0.72,0.26s-0.56-0.09-0.72-0.26S338.65,456.74,338.65,456.48z M340.41,468.51h-1.63V459h1.63
		V468.51z"/>
	<path class="st3a" d="M344.55,459l0.05,1.2c0.34-0.43,0.75-0.76,1.23-1.01s1.02-0.36,1.62-0.36c0.46,0,0.88,0.06,1.26,0.19
		s0.69,0.33,0.96,0.61s0.47,0.64,0.61,1.07s0.22,0.97,0.22,1.59v6.23h-1.63v-6.25c0-0.37-0.04-0.68-0.12-0.95s-0.2-0.47-0.36-0.64
		s-0.36-0.28-0.6-0.36s-0.51-0.11-0.82-0.11c-0.53,0-0.99,0.14-1.39,0.42s-0.71,0.65-0.93,1.11v6.78h-1.63V459H344.55z"/>
	<path class="st3a" d="M356.89,468.69c-0.66,0-1.26-0.11-1.8-0.34s-0.99-0.55-1.38-0.95s-0.67-0.89-0.88-1.45s-0.31-1.18-0.31-1.85
		v-0.37c0-0.77,0.12-1.46,0.35-2.07s0.54-1.12,0.93-1.54s0.83-0.73,1.33-0.95s1.02-0.33,1.56-0.33c0.68,0,1.27,0.12,1.76,0.36
		s0.9,0.56,1.22,0.98s0.56,0.91,0.71,1.48s0.23,1.19,0.23,1.85v0.73h-6.44c0.01,0.44,0.08,0.85,0.22,1.23s0.32,0.71,0.56,0.99
		s0.54,0.5,0.88,0.67s0.73,0.25,1.16,0.25c0.57,0,1.06-0.12,1.46-0.35s0.75-0.54,1.05-0.93l0.99,0.77
		c-0.15,0.23-0.34,0.46-0.55,0.68s-0.47,0.42-0.76,0.59s-0.62,0.31-1,0.41S357.36,468.69,356.89,468.69z M356.68,460.16
		c-0.33,0-0.63,0.06-0.91,0.18s-0.52,0.29-0.74,0.52s-0.4,0.51-0.54,0.85s-0.24,0.73-0.29,1.17h4.76v-0.12
		c-0.02-0.32-0.07-0.63-0.15-0.94s-0.22-0.59-0.4-0.83s-0.41-0.45-0.69-0.6S357.1,460.16,356.68,460.16z"/>
	<path class="st3a" d="M367.07,460.46c-0.14-0.02-0.27-0.04-0.39-0.05s-0.26-0.01-0.41-0.01c-0.56,0-1.02,0.12-1.38,0.37
		s-0.62,0.58-0.8,0.99v6.75h-1.63V459h1.58l0.03,1.1c0.25-0.39,0.55-0.7,0.92-0.93s0.82-0.34,1.34-0.34c0.12,0,0.25,0.01,0.4,0.04
		s0.26,0.05,0.32,0.08V460.46z"/>
	<path class="st3a" d="M368.96,467.89c0,0.26-0.03,0.54-0.1,0.83s-0.17,0.57-0.3,0.85s-0.29,0.55-0.48,0.81s-0.4,0.49-0.65,0.69
		l-0.92-0.63c0.28-0.39,0.49-0.78,0.64-1.19s0.22-0.85,0.22-1.32v-1.33h1.59V467.89z"/>
	<path class="st3a" d="M385.14,464.45c-0.07,0.6-0.22,1.16-0.44,1.68s-0.54,0.97-0.94,1.34s-0.88,0.67-1.46,0.89
		s-1.25,0.32-2.01,0.32c-0.76,0-1.44-0.14-2.06-0.42s-1.14-0.68-1.58-1.2s-0.77-1.14-1.01-1.87s-0.36-1.54-0.36-2.43v-1.28
		c0-0.9,0.12-1.71,0.36-2.44s0.58-1.35,1.03-1.87s0.99-0.92,1.62-1.2s1.35-0.43,2.14-0.43c0.72,0,1.36,0.11,1.92,0.32
		s1.03,0.5,1.42,0.88s0.7,0.83,0.93,1.35s0.38,1.1,0.44,1.74h-1.7c-0.06-0.45-0.16-0.85-0.3-1.2s-0.32-0.66-0.56-0.91
		s-0.53-0.45-0.88-0.58s-0.77-0.2-1.27-0.2c-0.57,0-1.07,0.11-1.5,0.33s-0.79,0.53-1.08,0.92s-0.51,0.87-0.65,1.43
		s-0.22,1.18-0.22,1.85v1.3c0,0.63,0.07,1.22,0.2,1.77s0.33,1.03,0.6,1.45s0.61,0.74,1.03,0.98s0.91,0.36,1.48,0.36
		c0.54,0,0.99-0.06,1.36-0.19s0.68-0.32,0.92-0.56s0.43-0.54,0.57-0.9s0.24-0.76,0.31-1.21H385.14z"/>
	<path class="st3a" d="M386.76,463.67c0-0.69,0.1-1.33,0.3-1.92s0.49-1.1,0.86-1.53s0.82-0.77,1.36-1.02s1.13-0.37,1.79-0.37
		c0.67,0,1.28,0.12,1.81,0.37s0.99,0.59,1.37,1.02s0.66,0.94,0.86,1.53s0.3,1.23,0.3,1.92v0.19c0,0.69-0.1,1.33-0.3,1.92
		s-0.49,1.1-0.86,1.53s-0.83,0.77-1.36,1.01s-1.13,0.37-1.8,0.37s-1.27-0.12-1.8-0.37s-0.99-0.58-1.36-1.01s-0.66-0.94-0.87-1.53
		s-0.3-1.23-0.3-1.92V463.67z M388.39,463.86c0,0.47,0.06,0.92,0.17,1.34s0.28,0.79,0.51,1.11s0.51,0.57,0.84,0.76
		s0.73,0.28,1.18,0.28c0.45,0,0.84-0.09,1.18-0.28s0.62-0.44,0.84-0.76s0.39-0.69,0.51-1.11s0.17-0.87,0.17-1.34v-0.19
		c0-0.47-0.06-0.92-0.17-1.34s-0.28-0.8-0.51-1.12s-0.51-0.57-0.85-0.76s-0.74-0.29-1.19-0.29c-0.45,0-0.83,0.09-1.17,0.29
		s-0.61,0.45-0.84,0.76s-0.39,0.69-0.51,1.12s-0.17,0.87-0.17,1.34V463.86z"/>
	<path class="st3a" d="M403.33,468.51c-0.06-0.12-0.11-0.27-0.14-0.44s-0.06-0.36-0.09-0.56c-0.15,0.16-0.32,0.31-0.51,0.45
		s-0.4,0.27-0.62,0.38s-0.47,0.19-0.73,0.25c-0.26,0.06-0.54,0.09-0.83,0.09c-0.49,0-0.93-0.07-1.32-0.22s-0.73-0.35-1.01-0.6
		s-0.49-0.55-0.65-0.89s-0.23-0.71-0.23-1.1c0-0.51,0.1-0.96,0.3-1.35s0.48-0.72,0.86-0.98s0.82-0.46,1.35-0.6s1.12-0.2,1.77-0.2
		h1.62V462c0-0.57-0.17-1.02-0.51-1.36s-0.84-0.5-1.5-0.5c-0.3,0-0.58,0.04-0.83,0.12s-0.47,0.19-0.65,0.33s-0.32,0.3-0.42,0.48
		s-0.15,0.37-0.15,0.57h-1.63c0-0.34,0.09-0.68,0.27-1.01s0.43-0.63,0.76-0.9s0.73-0.48,1.19-0.65s0.99-0.25,1.56-0.25
		c0.52,0,0.99,0.07,1.43,0.2s0.81,0.33,1.12,0.6s0.55,0.6,0.73,1s0.26,0.86,0.26,1.4v4.42c0,0.32,0.03,0.66,0.08,1.01
		s0.14,0.66,0.25,0.92v0.14H403.33z M400.63,467.27c0.29,0,0.57-0.04,0.83-0.12s0.49-0.19,0.7-0.32s0.39-0.28,0.55-0.45
		s0.28-0.35,0.36-0.53v-1.95h-1.35c-0.93,0-1.65,0.14-2.15,0.43s-0.76,0.73-0.76,1.31c0,0.23,0.04,0.44,0.11,0.64
		s0.19,0.37,0.35,0.51s0.35,0.26,0.57,0.34S400.33,467.27,400.63,467.27z"/>
	<path class="st3a" d="M411.06,467.36c0.29,0,0.56-0.05,0.83-0.14s0.5-0.22,0.7-0.39s0.37-0.36,0.49-0.58s0.2-0.47,0.22-0.73h1.54
		c-0.02,0.42-0.14,0.82-0.35,1.21s-0.48,0.72-0.82,1.01s-0.73,0.52-1.18,0.69s-0.92,0.26-1.43,0.26c-0.71,0-1.34-0.13-1.87-0.38
		s-0.97-0.6-1.32-1.03s-0.61-0.94-0.79-1.51s-0.26-1.18-0.26-1.82v-0.37c0-0.64,0.09-1.25,0.26-1.82s0.43-1.08,0.79-1.51
		s0.79-0.78,1.32-1.03s1.15-0.38,1.86-0.38c0.56,0,1.06,0.09,1.52,0.26s0.85,0.42,1.18,0.72s0.59,0.67,0.78,1.09
		s0.29,0.88,0.32,1.36h-1.54c-0.02-0.29-0.09-0.57-0.21-0.82s-0.27-0.48-0.46-0.67s-0.42-0.34-0.69-0.45s-0.56-0.17-0.89-0.17
		c-0.5,0-0.92,0.1-1.25,0.3s-0.6,0.46-0.8,0.79s-0.34,0.69-0.43,1.1s-0.12,0.82-0.12,1.23v0.37c0,0.42,0.04,0.84,0.12,1.24
		s0.22,0.77,0.42,1.09s0.47,0.58,0.8,0.78S410.55,467.36,411.06,467.36z"/>
	<path class="st3a" d="M418.29,460.15c0.34-0.42,0.75-0.74,1.22-0.98s1-0.35,1.59-0.35c0.46,0,0.88,0.06,1.26,0.19
		s0.69,0.33,0.96,0.61s0.47,0.64,0.61,1.07s0.21,0.97,0.21,1.59v6.23h-1.63v-6.25c0-0.37-0.04-0.68-0.12-0.95s-0.2-0.47-0.36-0.64
		s-0.36-0.28-0.6-0.36s-0.51-0.11-0.82-0.11c-0.53,0-0.99,0.14-1.39,0.42s-0.71,0.65-0.93,1.11v6.78h-1.63v-13.5h1.63V460.15z"/>
	<path class="st3a" d="M430.7,465.07c0-0.39,0.06-0.74,0.18-1.05s0.29-0.61,0.51-0.89s0.48-0.54,0.79-0.79s0.64-0.51,1-0.76
		c-0.22-0.26-0.41-0.52-0.59-0.76s-0.33-0.48-0.45-0.72s-0.22-0.48-0.29-0.72s-0.1-0.49-0.1-0.74c0-0.5,0.08-0.94,0.23-1.33
		s0.37-0.71,0.65-0.98s0.62-0.46,1.01-0.6s0.83-0.21,1.31-0.21c0.47,0,0.89,0.07,1.27,0.22s0.69,0.34,0.96,0.59s0.47,0.53,0.61,0.86
		s0.21,0.67,0.21,1.04c0,0.31-0.04,0.59-0.13,0.85s-0.2,0.5-0.36,0.72s-0.33,0.44-0.55,0.63s-0.45,0.39-0.7,0.58l-0.97,0.71
		l2.85,3.4c0.19-0.36,0.33-0.75,0.44-1.17s0.16-0.88,0.16-1.37h1.47c0,0.73-0.09,1.41-0.26,2.03s-0.45,1.18-0.82,1.69l1.83,2.19
		h-1.95l-0.85-1.01c-0.22,0.2-0.47,0.37-0.73,0.52s-0.54,0.27-0.82,0.37s-0.58,0.17-0.88,0.22s-0.59,0.08-0.88,0.08
		c-0.64,0-1.21-0.09-1.73-0.27s-0.95-0.43-1.31-0.75s-0.63-0.7-0.82-1.14S430.7,465.6,430.7,465.07z M434.83,467.36
		c0.42,0,0.83-0.08,1.24-0.25s0.78-0.41,1.13-0.73l-3.12-3.74l-0.37,0.27c-0.32,0.23-0.57,0.46-0.75,0.68s-0.32,0.42-0.42,0.61
		s-0.15,0.36-0.18,0.5s-0.04,0.27-0.04,0.37c0,0.31,0.05,0.6,0.15,0.88s0.26,0.52,0.47,0.73s0.47,0.37,0.79,0.49
		S434.41,467.36,434.83,467.36z M433.37,458.6c0,0.32,0.09,0.66,0.28,1.01s0.44,0.72,0.76,1.1l0.92-0.65
		c0.18-0.12,0.34-0.25,0.49-0.37s0.26-0.25,0.36-0.4s0.17-0.29,0.22-0.46s0.07-0.36,0.07-0.58c0-0.18-0.03-0.35-0.1-0.51
		s-0.17-0.31-0.3-0.44s-0.29-0.23-0.49-0.31s-0.41-0.12-0.66-0.12c-0.26,0-0.48,0.04-0.68,0.14s-0.36,0.22-0.49,0.37
		s-0.23,0.34-0.3,0.55S433.37,458.36,433.37,458.6z"/>
	<path class="st3a" d="M456.35,464.45c-0.07,0.6-0.22,1.16-0.44,1.68s-0.54,0.97-0.94,1.34s-0.88,0.67-1.46,0.89
		s-1.25,0.32-2.01,0.32c-0.76,0-1.44-0.14-2.06-0.42s-1.14-0.68-1.58-1.2s-0.77-1.14-1.01-1.87s-0.36-1.54-0.36-2.43v-1.28
		c0-0.9,0.12-1.71,0.36-2.44s0.58-1.35,1.03-1.87s0.99-0.92,1.62-1.2s1.35-0.43,2.14-0.43c0.72,0,1.36,0.11,1.92,0.32
		s1.03,0.5,1.42,0.88s0.7,0.83,0.93,1.35s0.38,1.1,0.44,1.74h-1.7c-0.06-0.45-0.16-0.85-0.3-1.2s-0.32-0.66-0.56-0.91
		s-0.53-0.45-0.88-0.58s-0.77-0.2-1.27-0.2c-0.57,0-1.07,0.11-1.5,0.33s-0.79,0.53-1.08,0.92s-0.51,0.87-0.66,1.43
		s-0.22,1.18-0.22,1.85v1.3c0,0.63,0.07,1.22,0.2,1.77s0.33,1.03,0.6,1.45s0.61,0.74,1.03,0.98s0.91,0.36,1.48,0.36
		c0.54,0,0.99-0.06,1.36-0.19s0.68-0.32,0.92-0.56s0.43-0.54,0.57-0.9s0.24-0.76,0.31-1.21H456.35z"/>
	<path class="st3a" d="M457.97,463.67c0-0.69,0.1-1.33,0.3-1.92s0.49-1.1,0.86-1.53s0.82-0.77,1.36-1.02s1.13-0.37,1.79-0.37
		c0.67,0,1.28,0.12,1.82,0.37s0.99,0.59,1.37,1.02s0.66,0.94,0.86,1.53s0.3,1.23,0.3,1.92v0.19c0,0.69-0.1,1.33-0.3,1.92
		s-0.49,1.1-0.86,1.53s-0.83,0.77-1.36,1.01s-1.13,0.37-1.8,0.37s-1.27-0.12-1.8-0.37s-0.99-0.58-1.36-1.01s-0.66-0.94-0.87-1.53
		s-0.3-1.23-0.3-1.92V463.67z M459.6,463.86c0,0.47,0.06,0.92,0.17,1.34s0.28,0.79,0.51,1.11s0.51,0.57,0.84,0.76
		s0.73,0.28,1.18,0.28c0.45,0,0.84-0.09,1.18-0.28s0.62-0.44,0.84-0.76s0.39-0.69,0.51-1.11s0.17-0.87,0.17-1.34v-0.19
		c0-0.47-0.06-0.92-0.17-1.34s-0.28-0.8-0.51-1.12s-0.51-0.57-0.85-0.76s-0.74-0.29-1.19-0.29c-0.45,0-0.83,0.09-1.17,0.29
		s-0.61,0.45-0.84,0.76s-0.39,0.69-0.51,1.12s-0.17,0.87-0.17,1.34V463.86z"/>
	<path class="st3a" d="M470.2,459l0.05,1.2c0.34-0.43,0.75-0.76,1.23-1.01s1.02-0.36,1.62-0.36c0.46,0,0.88,0.06,1.26,0.19
		s0.69,0.33,0.96,0.61s0.47,0.64,0.61,1.07s0.21,0.97,0.21,1.59v6.23h-1.63v-6.25c0-0.37-0.04-0.68-0.12-0.95s-0.2-0.47-0.36-0.64
		s-0.36-0.28-0.6-0.36s-0.51-0.11-0.82-0.11c-0.53,0-0.99,0.14-1.39,0.42s-0.71,0.65-0.93,1.11v6.78h-1.63V459H470.2z"/>
	<path class="st3a" d="M484.13,465.99c0-0.18-0.03-0.34-0.08-0.5s-0.16-0.3-0.31-0.44s-0.38-0.26-0.66-0.38s-0.67-0.23-1.13-0.33
		c-0.53-0.11-1-0.24-1.42-0.4s-0.78-0.34-1.08-0.55s-0.52-0.47-0.68-0.76s-0.24-0.64-0.24-1.03c0-0.38,0.08-0.73,0.25-1.07
		s0.4-0.63,0.71-0.89s0.67-0.46,1.11-0.61s0.92-0.22,1.45-0.22c0.57,0,1.08,0.08,1.53,0.23s0.83,0.37,1.14,0.64s0.55,0.58,0.72,0.94
		s0.25,0.75,0.25,1.16h-1.63c0-0.19-0.04-0.39-0.13-0.58s-0.22-0.37-0.39-0.53s-0.38-0.28-0.62-0.38s-0.53-0.14-0.85-0.14
		c-0.34,0-0.63,0.04-0.87,0.12s-0.43,0.18-0.58,0.32s-0.26,0.28-0.33,0.45s-0.11,0.34-0.11,0.51s0.03,0.33,0.09,0.47
		s0.17,0.27,0.33,0.38s0.39,0.22,0.67,0.32s0.65,0.2,1.1,0.29c0.58,0.13,1.08,0.29,1.51,0.46s0.78,0.37,1.06,0.59
		s0.49,0.49,0.63,0.78s0.21,0.63,0.21,1.02c0,0.42-0.09,0.8-0.26,1.14s-0.42,0.64-0.74,0.89s-0.71,0.44-1.16,0.58
		s-0.95,0.21-1.5,0.21c-0.63,0-1.19-0.09-1.67-0.26s-0.89-0.41-1.22-0.7s-0.58-0.62-0.75-0.99s-0.25-0.75-0.25-1.15h1.63
		c0.02,0.33,0.1,0.61,0.24,0.84s0.32,0.41,0.54,0.55s0.45,0.24,0.71,0.3s0.52,0.09,0.77,0.09c0.33,0,0.63-0.04,0.88-0.11
		s0.46-0.17,0.64-0.29s0.3-0.27,0.39-0.44S484.13,466.18,484.13,465.99z"/>
	<path class="st3a" d="M493.75,467.57c-0.3,0.35-0.68,0.63-1.13,0.82s-1.01,0.29-1.65,0.29c-0.47,0-0.89-0.07-1.27-0.2
		s-0.71-0.34-0.98-0.62s-0.49-0.65-0.64-1.1s-0.22-0.99-0.22-1.62V459h1.63v6.16c0,0.43,0.05,0.78,0.15,1.06s0.23,0.5,0.4,0.66
		s0.35,0.27,0.56,0.33s0.43,0.09,0.65,0.09c0.66,0,1.19-0.13,1.6-0.38s0.7-0.59,0.88-1.01V459h1.63v9.51h-1.55L493.75,467.57z"/>
	<path class="st3a" d="M499.57,468.51h-1.63v-13.5h1.63V468.51z"/>
	<path class="st3a" d="M504.37,456.7v2.3h1.78v1.26h-1.78v5.9c0,0.25,0.03,0.44,0.09,0.59s0.14,0.27,0.23,0.35s0.21,0.14,0.33,0.16
		s0.26,0.04,0.39,0.04s0.28-0.01,0.43-0.04s0.26-0.05,0.35-0.07v1.32c-0.13,0.04-0.3,0.07-0.5,0.11s-0.45,0.06-0.75,0.06
		c-0.3,0-0.58-0.04-0.85-0.13s-0.5-0.23-0.7-0.43s-0.36-0.46-0.47-0.79s-0.18-0.72-0.18-1.2v-5.89h-1.73V459h1.73v-2.3H504.37z"/>
	<path class="st3a" d="M513.92,468.51c-0.06-0.12-0.11-0.27-0.14-0.44s-0.06-0.36-0.09-0.56c-0.15,0.16-0.32,0.31-0.51,0.45
		s-0.4,0.27-0.62,0.38s-0.47,0.19-0.73,0.25s-0.54,0.09-0.83,0.09c-0.49,0-0.93-0.07-1.32-0.22s-0.73-0.35-1.01-0.6
		s-0.49-0.55-0.65-0.89s-0.23-0.71-0.23-1.1c0-0.51,0.1-0.96,0.3-1.35s0.49-0.72,0.86-0.98s0.82-0.46,1.35-0.6s1.12-0.2,1.77-0.2
		h1.62V462c0-0.57-0.17-1.02-0.51-1.36s-0.84-0.5-1.5-0.5c-0.3,0-0.58,0.04-0.83,0.12s-0.47,0.19-0.65,0.33s-0.32,0.3-0.42,0.48
		s-0.15,0.37-0.15,0.57h-1.63c0-0.34,0.09-0.68,0.27-1.01s0.43-0.63,0.76-0.9s0.73-0.48,1.19-0.65s0.99-0.25,1.56-0.25
		c0.52,0,0.99,0.07,1.43,0.2s0.81,0.33,1.12,0.6s0.55,0.6,0.73,1s0.26,0.86,0.26,1.4v4.42c0,0.32,0.03,0.66,0.08,1.01
		s0.14,0.66,0.25,0.92v0.14H513.92z M511.22,467.27c0.29,0,0.57-0.04,0.83-0.12s0.49-0.19,0.7-0.32s0.39-0.28,0.55-0.45
		s0.28-0.35,0.36-0.53v-1.95h-1.35c-0.93,0-1.65,0.14-2.15,0.43s-0.76,0.73-0.76,1.31c0,0.23,0.04,0.44,0.11,0.64
		s0.19,0.37,0.35,0.51s0.35,0.26,0.57,0.34S510.92,467.27,511.22,467.27z"/>
	<path class="st3a" d="M519.38,459l0.05,1.2c0.34-0.43,0.75-0.76,1.23-1.01s1.02-0.36,1.62-0.36c0.46,0,0.88,0.06,1.26,0.19
		s0.69,0.33,0.96,0.61s0.47,0.64,0.61,1.07s0.21,0.97,0.21,1.59v6.23h-1.63v-6.25c0-0.37-0.04-0.68-0.12-0.95s-0.2-0.47-0.36-0.64
		s-0.36-0.28-0.6-0.36s-0.51-0.11-0.82-0.11c-0.53,0-0.99,0.14-1.39,0.42s-0.71,0.65-0.93,1.11v6.78h-1.63V459H519.38z"/>
	<path class="st3a" d="M529.98,456.7v2.3h1.78v1.26h-1.78v5.9c0,0.25,0.03,0.44,0.09,0.59s0.14,0.27,0.23,0.35s0.21,0.14,0.33,0.16
		s0.26,0.04,0.39,0.04s0.28-0.01,0.43-0.04s0.26-0.05,0.35-0.07v1.32c-0.13,0.04-0.3,0.07-0.5,0.11s-0.45,0.06-0.75,0.06
		c-0.3,0-0.58-0.04-0.85-0.13s-0.5-0.23-0.7-0.43s-0.36-0.46-0.47-0.79s-0.18-0.72-0.18-1.2v-5.89h-1.73V459h1.73v-2.3H529.98z"/>
</g>
</svg>
