<?xml version="1.0" encoding="utf-8"?>
<!-- Generator: Adobe Illustrator 23.0.2, SVG Export Plug-In . SVG Version: 6.00 Build 0)  -->
<svg version="1.1" id="Layer_1" xmlns="http://www.w3.org/2000/svg" xmlns:xlink="http://www.w3.org/1999/xlink" x="0px" y="0px"
	 viewBox="0 0 800 600" style="enable-background:new 0 0 800 600;" xml:space="preserve">
<style type="text/css">
	.st0{fill:#043754;}
	.st1{display:none;}
	.st2{display:inline;}
	.st3{fill:#F8F9FA;}
	.st4{fill:#212529;}
	.st5{display:inline;fill:#F8F9FA;}
	.st6{display:none;fill:#F10901;}
	.st7{fill:#FFFFFF;}
</style>
<g>
	<defs>
		<rect id="SVGID_1_" x="215" y="51.22" width="370" height="400"/>
	</defs>
	<clipPath id="SVGID_2_">
		<use xlink:href="#SVGID_1_"  style="overflow:visible;"/>
	</clipPath>
	<g style="clip-path:url(#SVGID_2_);">
		
			<image style="overflow:visible;" width="370" height="400" xlink:href="https://tryscrumlive.vervebot.io/wp-content/uploads/2022/03/Ashwinee.png" transform="matrix(1 0 0 1 215 51.2241)">
		</image>
	</g>
</g>
<path class="st0" d="M541.6,547.39H258.4c-3.87,0-7-3.13-7-7V392.01c0-3.87,3.13-7,7-7H541.6c3.87,0,7,3.13,7,7v148.38
	C548.6,544.26,545.46,547.39,541.6,547.39z"/>
<a>
	<g class="st1">
		<g class="st2">
			<path class="st3" d="M333.57,526.14h-24.29c-1.58,0-2.86-1.28-2.86-2.86V499c0-1.58,1.28-2.86,2.86-2.86h24.29
				c1.58,0,2.86,1.28,2.86,2.86v24.29C336.43,524.86,335.15,526.14,333.57,526.14z"/>
		</g>
		<a>
			<g class="st2">
				<path class="st4" d="M327.79,508.55c0,4.33-3.3,9.33-9.33,9.33c-1.86,0-3.58-0.54-5.04-1.47c0.26,0.03,0.52,0.04,0.79,0.04
					c1.53,0,2.94-0.52,4.07-1.4c-1.44-0.03-2.65-0.97-3.07-2.27c0.2,0.03,0.41,0.05,0.62,0.05c0.29,0,0.59-0.04,0.86-0.11
					c-1.5-0.3-2.63-1.62-2.63-3.22v-0.04c0.44,0.24,0.94,0.4,1.48,0.42c-0.88-0.59-1.46-1.59-1.46-2.73c0-0.61,0.16-1.17,0.45-1.66
					c1.61,1.99,4.04,3.29,6.76,3.43c-0.05-0.24-0.08-0.5-0.08-0.75c0-1.81,1.46-3.28,3.28-3.28c0.94,0,1.8,0.4,2.4,1.04
					c0.74-0.14,1.45-0.42,2.08-0.79c-0.24,0.76-0.76,1.4-1.44,1.81c0.66-0.07,1.3-0.25,1.89-0.51c-0.45,0.65-1,1.23-1.64,1.7
					C327.79,508.26,327.79,508.41,327.79,508.55z"/>
			</g>
		</a>
	</g>
</a>
<a>
	<g class="st1">
		<g class="st2">
			<path class="st3" d="M385.75,526.14h-24.29c-1.58,0-2.86-1.28-2.86-2.86V499c0-1.58,1.28-2.86,2.86-2.86h24.29
				c1.58,0,2.86,1.28,2.86,2.86v24.29C388.61,524.86,387.33,526.14,385.75,526.14z"/>
		</g>
		<g class="st2">
			<path class="st4" d="M366.61,505.06c0-0.93,0.75-1.68,1.68-1.68s1.68,0.75,1.68,1.68s-0.75,1.7-1.68,1.7
				S366.61,505.99,366.61,505.06z M366.84,517.38v-9.35h2.9v9.35H366.84z M377.71,517.38v-4.55c0-1.08-0.02-2.47-1.51-2.47
				c-1.51,0-1.74,1.18-1.74,2.4v4.63h-2.9v-9.35h2.78v1.28h0.04c0.39-0.73,1.33-1.51,2.75-1.51c2.94,0,3.48,1.93,3.48,4.45v5.13h0
				H377.71z"/>
		</g>
	</g>
</a>
<g class="st1">
	<a>
		<g class="st2">
			<path class="st3" d="M437.94,526.14h-24.29c-1.58,0-2.86-1.28-2.86-2.86V499c0-1.58,1.28-2.86,2.86-2.86h24.29
				c1.58,0,2.86,1.28,2.86,2.86v24.29C440.79,524.86,439.51,526.14,437.94,526.14z"/>
		</g>
	</a>
	<g class="st2">
		<path class="st4" d="M425.42,509.53c0,0.81-0.66,1.47-1.47,1.47h-3.68c-0.81,0-1.47-0.66-1.47-1.47s0.66-1.47,1.47-1.47h3.68
			C424.76,508.06,425.42,508.72,425.42,509.53z M420.26,514.7c-0.81,0-1.47-0.66-1.47-1.47c0-0.81,0.66-1.47,1.47-1.47h1.47v1.47
			C421.73,514.04,421.07,514.7,420.26,514.7z M422.48,505.85c0-0.81,0.66-1.47,1.47-1.47s1.47,0.66,1.47,1.47v1.47h-1.47
			C423.14,507.32,422.48,506.66,422.48,505.85z M423.95,511.76c0.81,0,1.47,0.66,1.47,1.47v3.68c0,0.81-0.66,1.47-1.47,1.47
			s-1.47-0.66-1.47-1.47v-3.68C422.48,512.42,423.14,511.76,423.95,511.76z M427.64,511.01c-0.81,0-1.47-0.66-1.47-1.47v-3.68
			c0-0.81,0.66-1.47,1.47-1.47c0.81,0,1.47,0.66,1.47,1.47v3.68C429.11,510.34,428.45,511.01,427.64,511.01z M426.17,513.23
			c0-0.81,0.66-1.47,1.47-1.47h3.68c0.81,0,1.47,0.66,1.47,1.47c0,0.81-0.66,1.47-1.47,1.47h-3.68
			C426.83,514.7,426.17,514.04,426.17,513.23z M429.11,516.91c0,0.81-0.66,1.47-1.47,1.47c-0.81,0-1.47-0.66-1.47-1.47v-1.47h1.47
			C428.45,515.44,429.11,516.1,429.11,516.91z M431.32,508.06c0.81,0,1.47,0.66,1.47,1.47s-0.66,1.47-1.47,1.47h-1.47v-1.47
			C429.85,508.72,430.51,508.06,431.32,508.06z"/>
	</g>
</g>
<a>
	<g class="st1">
		<path class="st5" d="M490.12,526.14h-24.29c-1.58,0-2.86-1.28-2.86-2.86V499c0-1.58,1.28-2.86,2.86-2.86h24.29
			c1.58,0,2.86,1.28,2.86,2.86v24.29C492.98,524.86,491.7,526.14,490.12,526.14z"/>
		<g class="st2">
			<path class="st4" d="M470.99,511.43c-0.22,0.32-0.64,0.4-0.96,0.18c-0.31-0.22-0.39-0.65-0.18-0.97c0.22-0.32,0.64-0.4,0.96-0.19
				C471.12,510.67,471.2,511.1,470.99,511.43z M482.68,516.11c-0.54,0.38-1.16,0.55-1.78,0.53c-0.38,1.47-2.17,2.02-3.28,1.02
				c-0.04,0.03-0.08,0.05-0.12,0.09c-1.22,0.85-2.88,0.54-3.73-0.7c-0.3-0.45-0.46-0.96-0.47-1.47c-2.04-0.34-2.81-2.94-1.28-4.37
				c-0.88-1.47,0.02-3.36,1.67-3.59c0.78-2.07,3.36-3.05,5.11-1.69c2.11-0.7,4.26,0.92,4.09,3.16c1.28,0.39,1.65,2.09,0.62,2.97
				C484.33,513.42,483.98,515.2,482.68,516.11z M472.58,516.71c-0.17,0.03-0.34-0.07-0.38-0.25c-0.03-0.17,0.07-0.35,0.24-0.38
				c0.17-0.04,0.35,0.07,0.38,0.25C472.86,516.51,472.76,516.67,472.58,516.71z M472.62,506.79c-0.16-0.24-0.11-0.57,0.13-0.74
				c0.23-0.16,0.56-0.11,0.72,0.13c0.16,0.24,0.11,0.57-0.13,0.74C473.1,507.09,472.77,507.03,472.62,506.79z M479.97,513.55
				c-0.1-1,1.37-3.16,1.25-4c-0.11-0.75-0.61-0.91-1.04-0.92c-0.42-0.01-0.53,0.06-0.67,0.14c-0.09,0.05-0.21,0.15-0.37-0.01
				c-0.2-0.19-0.35-0.37-0.61-0.4c-0.38-0.06-0.55,0.06-0.83,0.3c-0.11,0.09-0.38,0.4-0.63,0.28c-0.11-0.05-0.48-0.24-0.75-0.36
				c-0.51-0.22-1.25,0.14-1.52,0.63c-0.4,0.71-1.19,3.53-1.3,3.91c-0.27,0.83,0.34,1.52,1.15,1.47c0.35-0.02,0.57-0.14,0.79-0.54
				c0.13-0.23,1.3-3.37,1.39-3.52c0.06-0.11,0.28-0.25,0.46-0.16c0.18,0.1,0.22,0.29,0.19,0.47c-0.03,0.3-0.88,2.22-0.9,2.43
				c-0.11,0.72,0.84,0.83,1.21,0.13c0.12-0.22,1.43-2.89,1.54-3.07c0.13-0.2,0.23-0.26,0.37-0.25c0.1,0,0.26,0.03,0.22,0.34
				c-0.04,0.29-1.1,2.26-1.22,2.74c-0.14,0.64,0.21,1.29,0.78,1.58c0.36,0.18,1.95,0.49,1.83-0.35
				C481.22,513.76,480.04,514.26,479.97,513.55z M474.18,503.83c-0.04-0.2,0.09-0.39,0.28-0.44c0.2-0.05,0.39,0.08,0.43,0.29
				c0.04,0.2-0.08,0.39-0.28,0.44C474.41,504.16,474.22,504.03,474.18,503.83z M477.91,518.67c0.14,0.21,0.09,0.48-0.11,0.63
				c-0.21,0.14-0.48,0.09-0.63-0.12c-0.13-0.21-0.08-0.48,0.12-0.63C477.51,518.42,477.78,518.47,477.91,518.67z M478.38,504.88
				c-0.2-0.33-0.09-0.76,0.23-0.96c0.32-0.2,0.74-0.09,0.94,0.24c0.19,0.32,0.09,0.75-0.24,0.95
				C478.99,505.31,478.57,505.2,478.38,504.88z M482.51,517.47c0.22,0.33,0.14,0.79-0.19,1.02c-0.33,0.22-0.78,0.14-1-0.19
				c-0.22-0.33-0.14-0.79,0.18-1.02C481.83,517.05,482.27,517.14,482.51,517.47z M484.51,507.87c0.18,0.27,0.12,0.63-0.14,0.82
				c-0.27,0.18-0.63,0.12-0.81-0.15s-0.12-0.63,0.15-0.82C483.96,507.53,484.33,507.6,484.51,507.87z M485.48,512.14
				c0.05,0.24-0.1,0.48-0.33,0.52c-0.23,0.05-0.46-0.1-0.51-0.33c-0.05-0.24,0.1-0.47,0.33-0.53
				C485.2,511.76,485.43,511.91,485.48,512.14z M485.97,510.42c-0.18,0.03-0.35-0.08-0.38-0.25c-0.03-0.18,0.07-0.36,0.25-0.39
				c0.17-0.03,0.34,0.07,0.38,0.25C486.26,510.2,486.14,510.37,485.97,510.42z"/>
		</g>
	</g>
</a>
<path class="st6" d="M464.48,697.02H335.52c-4.68,0-8.49-3.81-8.49-8.49v-28.4c0-4.68,3.81-8.49,8.49-8.49h128.96
	c4.68,0,8.49,3.81,8.49,8.49v28.4C472.96,693.21,469.16,697.02,464.48,697.02z M335.52,653.64c-3.58,0-6.49,2.91-6.49,6.49v28.4
	c0,3.58,2.91,6.49,6.49,6.49h128.96c3.58,0,6.49-2.91,6.49-6.49v-28.4c0-3.58-2.91-6.49-6.49-6.49H335.52z"/>
<g>
	<path class="st7" d="M322.39,429.1h-6.06l-1.27,3.64h-2.83l5.91-15.64h2.44l5.92,15.64h-2.84L322.39,429.1z M317.09,426.91h4.53
		l-2.27-6.49L317.09,426.91z"/>
	<path class="st7" d="M334.54,429.58c0-0.19-0.03-0.36-0.09-0.52c-0.06-0.16-0.18-0.31-0.36-0.45c-0.18-0.14-0.43-0.27-0.76-0.39
		c-0.33-0.12-0.75-0.24-1.27-0.34c-0.62-0.13-1.19-0.29-1.7-0.48c-0.51-0.19-0.95-0.43-1.32-0.7s-0.65-0.6-0.85-0.97
		c-0.2-0.37-0.31-0.8-0.31-1.29c0-0.47,0.1-0.92,0.31-1.35c0.21-0.43,0.51-0.8,0.9-1.12c0.39-0.32,0.86-0.58,1.42-0.77
		c0.55-0.19,1.18-0.29,1.86-0.29c0.72,0,1.37,0.1,1.95,0.29c0.58,0.19,1.06,0.45,1.47,0.78c0.4,0.33,0.71,0.72,0.92,1.18
		c0.21,0.45,0.32,0.94,0.32,1.46h-2.61c0-0.22-0.04-0.44-0.13-0.65s-0.21-0.4-0.39-0.56c-0.17-0.16-0.39-0.29-0.64-0.39
		c-0.25-0.1-0.55-0.15-0.89-0.15c-0.33,0-0.62,0.04-0.86,0.12c-0.24,0.08-0.45,0.19-0.61,0.32s-0.28,0.29-0.36,0.46
		c-0.08,0.18-0.12,0.36-0.12,0.55s0.04,0.37,0.11,0.52c0.07,0.15,0.2,0.29,0.38,0.41c0.18,0.12,0.43,0.24,0.74,0.34
		c0.31,0.1,0.69,0.21,1.16,0.31c0.67,0.14,1.28,0.31,1.81,0.5c0.53,0.19,0.98,0.43,1.35,0.71c0.37,0.28,0.65,0.61,0.84,0.99
		c0.19,0.38,0.29,0.83,0.29,1.35c0,0.52-0.11,0.99-0.33,1.42c-0.22,0.43-0.54,0.8-0.95,1.11c-0.41,0.31-0.91,0.55-1.49,0.72
		s-1.22,0.26-1.93,0.26c-0.79,0-1.5-0.11-2.11-0.34s-1.13-0.52-1.54-0.89c-0.42-0.37-0.73-0.78-0.94-1.24
		c-0.21-0.46-0.32-0.93-0.32-1.41h2.54c0.02,0.36,0.1,0.66,0.25,0.9c0.14,0.24,0.33,0.44,0.55,0.59c0.22,0.15,0.47,0.26,0.75,0.33
		s0.57,0.1,0.86,0.1c0.69,0,1.21-0.13,1.57-0.39C334.36,430.34,334.54,430,334.54,429.58z"/>
	<path class="st7" d="M341.95,422.38c0.4-0.46,0.87-0.83,1.42-1.09c0.54-0.26,1.15-0.39,1.82-0.39c0.57,0,1.08,0.08,1.55,0.24
		c0.47,0.16,0.86,0.41,1.19,0.76c0.33,0.35,0.58,0.8,0.76,1.35c0.18,0.55,0.27,1.23,0.27,2.01v7.48h-2.61v-7.5
		c0-0.8-0.17-1.37-0.52-1.7c-0.35-0.33-0.86-0.5-1.53-0.5c-0.54,0-1.01,0.13-1.4,0.38c-0.39,0.25-0.7,0.59-0.94,1.02v8.3h-2.61
		v-16.5h2.61V422.38z"/>
	<path class="st7" d="M361.8,429.14l1.85-8.02h2.55l-3.17,11.62h-2.15l-2.49-7.98l-2.45,7.98h-2.15l-3.18-11.62h2.55l1.88,7.94
		l2.38-7.94h1.97L361.8,429.14z"/>
	<path class="st7" d="M367.95,418.1c0-0.4,0.13-0.73,0.38-1c0.25-0.26,0.62-0.4,1.09-0.4s0.84,0.13,1.1,0.4
		c0.26,0.27,0.39,0.6,0.39,1c0,0.39-0.13,0.72-0.39,0.98s-0.62,0.39-1.1,0.39s-0.84-0.13-1.09-0.39
		C368.07,418.82,367.95,418.49,367.95,418.1z M370.72,432.74h-2.61v-11.62h2.61V432.74z"/>
	<path class="st7" d="M375.98,421.12l0.08,1.34c0.41-0.49,0.9-0.88,1.47-1.15c0.57-0.27,1.21-0.41,1.91-0.41
		c0.56,0,1.06,0.08,1.52,0.23c0.45,0.15,0.84,0.4,1.17,0.75s0.57,0.79,0.75,1.34c0.18,0.55,0.26,1.22,0.26,2.01v7.51h-2.61v-7.53
		c0-0.4-0.04-0.74-0.13-1.01c-0.09-0.28-0.22-0.5-0.39-0.67s-0.39-0.29-0.64-0.37c-0.25-0.08-0.55-0.11-0.88-0.11
		c-0.54,0-1,0.13-1.4,0.39s-0.71,0.61-0.95,1.04v8.27h-2.61v-11.62H375.98z"/>
	<path class="st7" d="M390.91,432.95c-0.86,0-1.63-0.14-2.32-0.43s-1.27-0.68-1.75-1.18c-0.48-0.5-0.85-1.1-1.11-1.78
		s-0.39-1.43-0.39-2.22v-0.43c0-0.92,0.14-1.75,0.41-2.49c0.27-0.74,0.64-1.37,1.12-1.89s1.03-0.92,1.67-1.2
		c0.64-0.28,1.33-0.42,2.07-0.42c0.84,0,1.58,0.14,2.2,0.42s1.14,0.68,1.55,1.19c0.41,0.51,0.71,1.11,0.91,1.82
		c0.2,0.7,0.3,1.47,0.3,2.31v1.12h-7.59c0.04,0.45,0.13,0.87,0.28,1.25c0.15,0.38,0.36,0.71,0.63,0.98
		c0.26,0.28,0.58,0.49,0.94,0.65c0.36,0.16,0.77,0.24,1.23,0.24c0.64,0,1.2-0.13,1.68-0.39c0.48-0.26,0.89-0.61,1.24-1.06l1.41,1.34
		c-0.19,0.28-0.42,0.55-0.69,0.81c-0.28,0.26-0.6,0.49-0.97,0.7c-0.37,0.2-0.79,0.37-1.25,0.49
		C392.02,432.89,391.49,432.95,390.91,432.95z M390.6,423c-0.72,0-1.29,0.25-1.73,0.75c-0.44,0.5-0.72,1.2-0.84,2.09H393v-0.19
		c-0.02-0.34-0.08-0.67-0.17-0.99c-0.09-0.32-0.23-0.6-0.41-0.85c-0.19-0.25-0.43-0.44-0.73-0.59
		C391.39,423.07,391.03,423,390.6,423z"/>
	<path class="st7" d="M402.72,432.95c-0.86,0-1.63-0.14-2.32-0.43c-0.69-0.29-1.27-0.68-1.75-1.18c-0.48-0.5-0.85-1.1-1.11-1.78
		s-0.39-1.43-0.39-2.22v-0.43c0-0.92,0.14-1.75,0.41-2.49c0.27-0.74,0.64-1.37,1.12-1.89s1.03-0.92,1.67-1.2
		c0.64-0.28,1.33-0.42,2.07-0.42c0.84,0,1.58,0.14,2.2,0.42s1.14,0.68,1.55,1.19c0.41,0.51,0.71,1.11,0.91,1.82
		c0.2,0.7,0.3,1.47,0.3,2.31v1.12h-7.59c0.04,0.45,0.13,0.87,0.28,1.25c0.15,0.38,0.36,0.71,0.63,0.98
		c0.26,0.28,0.58,0.49,0.94,0.65c0.36,0.16,0.77,0.24,1.23,0.24c0.64,0,1.21-0.13,1.68-0.39c0.48-0.26,0.89-0.61,1.24-1.06
		l1.41,1.34c-0.19,0.28-0.42,0.55-0.69,0.81c-0.28,0.26-0.6,0.49-0.97,0.7c-0.37,0.2-0.79,0.37-1.25,0.49
		S403.3,432.95,402.72,432.95z M402.41,423c-0.72,0-1.29,0.25-1.73,0.75c-0.44,0.5-0.72,1.2-0.84,2.09h4.97v-0.19
		c-0.02-0.34-0.08-0.67-0.17-0.99c-0.09-0.32-0.23-0.6-0.41-0.85s-0.43-0.44-0.72-0.59C403.2,423.07,402.84,423,402.41,423z"/>
	<path class="st7" d="M419.63,425.98l-1.77,1.88v4.88h-2.72V417.1h2.72v7.34l1.5-1.86l4.58-5.48h3.29l-5.81,6.93l6.14,8.71h-3.22
		L419.63,425.98z"/>
	<path class="st7" d="M435.7,432.74c-0.07-0.14-0.13-0.3-0.18-0.48c-0.05-0.19-0.09-0.39-0.12-0.6c-0.17,0.18-0.36,0.35-0.57,0.5
		c-0.21,0.16-0.44,0.3-0.7,0.41c-0.25,0.12-0.53,0.21-0.83,0.28c-0.3,0.07-0.61,0.1-0.95,0.1c-0.58,0-1.11-0.09-1.6-0.26
		c-0.49-0.18-0.9-0.42-1.25-0.73c-0.35-0.31-0.62-0.68-0.82-1.1c-0.2-0.42-0.3-0.88-0.3-1.38c0-0.62,0.12-1.17,0.35-1.65
		c0.24-0.48,0.58-0.88,1.03-1.2s1-0.57,1.66-0.74s1.4-0.25,2.24-0.25h1.64v-0.76c0-0.6-0.17-1.08-0.5-1.44s-0.85-0.54-1.54-0.54
		c-0.31,0-0.59,0.04-0.84,0.12s-0.46,0.19-0.64,0.33c-0.18,0.14-0.31,0.31-0.41,0.5s-0.15,0.4-0.15,0.62h-2.61
		c0-0.46,0.11-0.9,0.34-1.33s0.55-0.81,0.96-1.14s0.92-0.6,1.51-0.8c0.59-0.2,1.25-0.3,1.98-0.3c0.65,0,1.25,0.08,1.8,0.25
		s1.03,0.42,1.43,0.75s0.71,0.75,0.93,1.25s0.33,1.08,0.33,1.75v5.16c0,1.05,0.15,1.88,0.44,2.5v0.18H435.7z M432.83,430.86
		c0.3,0,0.58-0.04,0.84-0.12c0.26-0.08,0.5-0.18,0.71-0.31c0.21-0.13,0.4-0.28,0.55-0.45s0.28-0.34,0.38-0.51v-2.19h-1.41
		c-0.97,0-1.69,0.17-2.18,0.5c-0.49,0.34-0.73,0.81-0.73,1.43c0,0.24,0.04,0.46,0.12,0.66c0.08,0.2,0.2,0.38,0.35,0.52
		s0.35,0.26,0.58,0.34S432.53,430.86,432.83,430.86z"/>
	<path class="st7" d="M443.43,432.74h-2.61v-16.5h2.61V432.74z"/>
	<path class="st7" d="M450.05,427.75l-1.16,1.19v3.79h-2.61v-16.5h2.61v9.52l0.82-1.02l3.21-3.62h3.14l-4.32,4.84l4.78,6.78h-3.02
		L450.05,427.75z"/>
	<path class="st7" d="M464.8,431.6c-0.37,0.43-0.82,0.76-1.35,1s-1.17,0.35-1.91,0.35c-0.57,0-1.09-0.08-1.56-0.24
		c-0.47-0.16-0.87-0.42-1.21-0.76s-0.6-0.79-0.78-1.34s-0.28-1.21-0.28-1.97v-7.52h2.61v7.54c0,0.42,0.05,0.77,0.15,1.05
		s0.23,0.5,0.4,0.67c0.17,0.17,0.36,0.29,0.58,0.35s0.46,0.1,0.7,0.1c0.67,0,1.22-0.12,1.63-0.37c0.42-0.24,0.73-0.58,0.93-1v-8.35
		h2.61v11.62h-2.46L464.8,431.6z"/>
	<path class="st7" d="M476.07,423.5c-0.17-0.03-0.35-0.05-0.52-0.06c-0.18-0.01-0.36-0.02-0.54-0.02c-0.63,0-1.14,0.12-1.54,0.37
		c-0.39,0.24-0.69,0.58-0.88,1.01v7.95h-2.61v-11.62h2.49l0.06,1.3c0.29-0.47,0.66-0.84,1.09-1.11c0.43-0.27,0.94-0.4,1.53-0.4
		c0.15,0,0.32,0.02,0.51,0.05c0.19,0.03,0.33,0.07,0.41,0.1L476.07,423.5z"/>
	<path class="st7" d="M484.34,432.74c-0.07-0.14-0.13-0.3-0.18-0.48c-0.05-0.19-0.09-0.39-0.12-0.6c-0.17,0.18-0.36,0.35-0.57,0.5
		c-0.21,0.16-0.44,0.3-0.7,0.41c-0.25,0.12-0.53,0.21-0.83,0.28c-0.3,0.07-0.61,0.1-0.95,0.1c-0.58,0-1.11-0.09-1.6-0.26
		c-0.49-0.18-0.9-0.42-1.25-0.73c-0.35-0.31-0.62-0.68-0.82-1.1c-0.2-0.42-0.3-0.88-0.3-1.38c0-0.62,0.12-1.17,0.35-1.65
		c0.24-0.48,0.58-0.88,1.03-1.2s1-0.57,1.66-0.74s1.4-0.25,2.24-0.25h1.64v-0.76c0-0.6-0.17-1.08-0.5-1.44s-0.85-0.54-1.54-0.54
		c-0.31,0-0.59,0.04-0.84,0.12s-0.46,0.19-0.64,0.33c-0.18,0.14-0.31,0.31-0.41,0.5s-0.15,0.4-0.15,0.62h-2.61
		c0-0.46,0.11-0.9,0.34-1.33s0.55-0.81,0.96-1.14s0.92-0.6,1.51-0.8c0.59-0.2,1.25-0.3,1.98-0.3c0.65,0,1.25,0.08,1.8,0.25
		s1.03,0.42,1.43,0.75s0.71,0.75,0.93,1.25s0.33,1.08,0.33,1.75v5.16c0,1.05,0.15,1.88,0.44,2.5v0.18H484.34z M481.47,430.86
		c0.3,0,0.58-0.04,0.84-0.12c0.26-0.08,0.5-0.18,0.71-0.31c0.21-0.13,0.4-0.28,0.55-0.45s0.28-0.34,0.38-0.51v-2.19h-1.41
		c-0.97,0-1.69,0.17-2.18,0.5c-0.49,0.34-0.73,0.81-0.73,1.43c0,0.24,0.04,0.46,0.12,0.66c0.08,0.2,0.2,0.38,0.35,0.52
		s0.35,0.26,0.58,0.34S481.17,430.86,481.47,430.86z"/>
</g>
<g>
	<path class="st7" d="M339.45,454.04h-4.11v11.41h-1.68v-11.41h-4.1v-1.39h9.9V454.04z"/>
	<path class="st7" d="M345.97,465.45c-0.06-0.12-0.11-0.26-0.14-0.44s-0.06-0.37-0.09-0.56c-0.15,0.16-0.32,0.31-0.51,0.45
		s-0.4,0.27-0.62,0.38s-0.47,0.19-0.73,0.25s-0.54,0.09-0.83,0.09c-0.49,0-0.93-0.07-1.32-0.22s-0.73-0.35-1.01-0.6
		s-0.49-0.55-0.65-0.89s-0.23-0.71-0.23-1.1c0-0.51,0.1-0.96,0.3-1.35s0.48-0.72,0.86-0.98s0.82-0.46,1.35-0.6s1.12-0.2,1.77-0.2
		h1.62v-0.75c0-0.57-0.17-1.02-0.51-1.36s-0.84-0.51-1.5-0.51c-0.3,0-0.58,0.04-0.83,0.12s-0.47,0.19-0.65,0.33s-0.32,0.3-0.42,0.48
		s-0.15,0.37-0.15,0.57h-1.63c0-0.34,0.09-0.68,0.27-1.01s0.43-0.63,0.76-0.9s0.72-0.48,1.19-0.65s0.99-0.25,1.56-0.25
		c0.52,0,0.99,0.07,1.43,0.2s0.81,0.33,1.12,0.6s0.55,0.6,0.73,1s0.26,0.86,0.26,1.4v4.42c0,0.32,0.03,0.66,0.08,1.02
		s0.14,0.66,0.25,0.92v0.14H345.97z M343.28,464.21c0.29,0,0.57-0.04,0.83-0.12s0.49-0.19,0.7-0.32s0.39-0.28,0.55-0.45
		s0.28-0.35,0.37-0.53v-1.95h-1.35c-0.93,0-1.65,0.15-2.15,0.44s-0.76,0.73-0.76,1.31c0,0.23,0.04,0.44,0.11,0.64
		s0.19,0.37,0.35,0.51s0.35,0.26,0.57,0.34S342.98,464.21,343.28,464.21z"/>
	<path class="st7" d="M355.43,462.92c0-0.18-0.03-0.34-0.08-0.5s-0.16-0.3-0.31-0.44s-0.38-0.27-0.66-0.38s-0.67-0.23-1.13-0.33
		c-0.53-0.11-1-0.24-1.42-0.4s-0.78-0.33-1.08-0.55s-0.52-0.47-0.68-0.76s-0.24-0.64-0.24-1.03c0-0.38,0.08-0.73,0.25-1.07
		s0.4-0.63,0.71-0.89s0.67-0.46,1.11-0.61s0.92-0.22,1.45-0.22c0.57,0,1.08,0.08,1.52,0.23s0.83,0.37,1.14,0.64s0.55,0.58,0.72,0.95
		s0.25,0.75,0.25,1.16h-1.63c0-0.19-0.04-0.39-0.13-0.58s-0.22-0.37-0.39-0.53s-0.38-0.28-0.62-0.38s-0.53-0.15-0.85-0.15
		c-0.34,0-0.63,0.04-0.87,0.12s-0.43,0.18-0.58,0.32s-0.26,0.28-0.33,0.45s-0.11,0.34-0.11,0.51s0.03,0.33,0.09,0.47
		s0.17,0.27,0.33,0.38s0.39,0.22,0.67,0.32s0.65,0.19,1.1,0.29c0.58,0.13,1.08,0.29,1.51,0.46s0.78,0.37,1.06,0.59
		s0.49,0.48,0.63,0.78s0.21,0.63,0.21,1.02c0,0.42-0.09,0.8-0.26,1.14s-0.42,0.64-0.74,0.89s-0.71,0.44-1.16,0.58
		s-0.95,0.21-1.5,0.21c-0.63,0-1.19-0.09-1.67-0.26s-0.89-0.41-1.22-0.7s-0.58-0.62-0.75-0.99s-0.25-0.75-0.25-1.15h1.63
		c0.02,0.33,0.1,0.61,0.24,0.84s0.32,0.41,0.54,0.55s0.45,0.24,0.71,0.3s0.52,0.09,0.77,0.09c0.33,0,0.63-0.04,0.88-0.11
		s0.46-0.17,0.64-0.29s0.3-0.27,0.39-0.43S355.43,463.12,355.43,462.92z"/>
	<path class="st7" d="M361.38,453.63v2.3h1.78v1.26h-1.78v5.9c0,0.25,0.03,0.44,0.09,0.59s0.14,0.26,0.23,0.35s0.21,0.14,0.33,0.16
		s0.26,0.04,0.39,0.04s0.28-0.01,0.43-0.04s0.27-0.05,0.35-0.07v1.32c-0.13,0.04-0.3,0.07-0.5,0.11s-0.45,0.06-0.75,0.06
		c-0.3,0-0.58-0.04-0.85-0.13s-0.5-0.23-0.7-0.43s-0.36-0.46-0.47-0.79s-0.18-0.73-0.18-1.2v-5.89h-1.73v-1.26h1.73v-2.3H361.38z"/>
	<path class="st7" d="M369,465.62c-0.66,0-1.26-0.11-1.8-0.34s-0.99-0.55-1.38-0.95s-0.67-0.89-0.88-1.46s-0.31-1.18-0.31-1.85
		v-0.37c0-0.77,0.12-1.46,0.35-2.07s0.54-1.12,0.93-1.54s0.83-0.73,1.33-0.95s1.02-0.33,1.56-0.33c0.68,0,1.27,0.12,1.76,0.36
		s0.9,0.56,1.22,0.98s0.56,0.91,0.71,1.48s0.23,1.19,0.23,1.85v0.73h-6.44c0.01,0.44,0.08,0.85,0.21,1.23s0.32,0.71,0.56,0.99
		s0.54,0.5,0.88,0.67s0.73,0.25,1.17,0.25c0.57,0,1.06-0.12,1.46-0.35s0.75-0.54,1.05-0.93l0.99,0.77
		c-0.15,0.23-0.34,0.46-0.55,0.68s-0.47,0.42-0.76,0.59s-0.62,0.31-1,0.41S369.48,465.62,369,465.62z M368.8,457.1
		c-0.33,0-0.63,0.06-0.91,0.18s-0.52,0.29-0.74,0.52s-0.4,0.51-0.54,0.85s-0.24,0.73-0.29,1.17h4.76v-0.12
		c-0.02-0.32-0.07-0.63-0.15-0.94s-0.22-0.59-0.4-0.83s-0.41-0.45-0.69-0.6S369.21,457.1,368.8,457.1z"/>
	<path class="st7" d="M379.19,457.4c-0.14-0.02-0.27-0.04-0.39-0.05s-0.26-0.01-0.41-0.01c-0.56,0-1.02,0.12-1.38,0.37
		s-0.62,0.58-0.79,0.99v6.75h-1.63v-9.51h1.58l0.03,1.1c0.25-0.39,0.55-0.7,0.92-0.93s0.82-0.34,1.34-0.34
		c0.12,0,0.25,0.01,0.4,0.04s0.26,0.05,0.32,0.08V457.4z"/>
	<path class="st7" d="M394.81,461.39c-0.07,0.6-0.22,1.17-0.44,1.68s-0.54,0.97-0.94,1.34s-0.88,0.67-1.46,0.89
		s-1.25,0.32-2.01,0.32c-0.76,0-1.44-0.14-2.06-0.42s-1.14-0.68-1.58-1.2s-0.77-1.14-1.01-1.87s-0.36-1.54-0.36-2.43v-1.28
		c0-0.9,0.12-1.71,0.36-2.44s0.58-1.35,1.03-1.87s0.99-0.92,1.62-1.2s1.35-0.43,2.14-0.43c0.72,0,1.36,0.11,1.92,0.32
		s1.03,0.51,1.42,0.88s0.7,0.83,0.93,1.35s0.38,1.1,0.44,1.74h-1.7c-0.06-0.45-0.16-0.85-0.3-1.2s-0.32-0.66-0.56-0.91
		s-0.53-0.45-0.88-0.58s-0.77-0.2-1.27-0.2c-0.57,0-1.07,0.11-1.5,0.33s-0.79,0.53-1.08,0.92s-0.51,0.87-0.65,1.43
		s-0.22,1.18-0.22,1.85v1.3c0,0.63,0.07,1.22,0.2,1.77s0.33,1.03,0.6,1.45s0.61,0.74,1.03,0.98s0.91,0.36,1.48,0.36
		c0.54,0,0.99-0.06,1.36-0.19s0.67-0.31,0.92-0.56s0.43-0.54,0.57-0.9s0.24-0.76,0.31-1.21H394.81z"/>
	<path class="st7" d="M396.42,460.6c0-0.69,0.1-1.33,0.3-1.92s0.49-1.1,0.86-1.53s0.83-0.77,1.36-1.02s1.13-0.37,1.79-0.37
		c0.67,0,1.28,0.12,1.81,0.37s0.99,0.59,1.37,1.02s0.66,0.95,0.86,1.53s0.3,1.23,0.3,1.92v0.19c0,0.69-0.1,1.33-0.3,1.92
		s-0.49,1.1-0.86,1.53s-0.83,0.77-1.36,1.01s-1.13,0.36-1.8,0.36s-1.27-0.12-1.8-0.36s-0.99-0.58-1.36-1.01s-0.66-0.94-0.87-1.53
		s-0.3-1.23-0.3-1.92V460.6z M398.06,460.8c0,0.47,0.06,0.92,0.17,1.34s0.28,0.79,0.5,1.11s0.51,0.57,0.84,0.76s0.73,0.28,1.18,0.28
		c0.45,0,0.84-0.09,1.18-0.28s0.62-0.44,0.84-0.76s0.39-0.69,0.5-1.11s0.17-0.87,0.17-1.34v-0.19c0-0.47-0.06-0.92-0.17-1.34
		s-0.28-0.8-0.51-1.12s-0.51-0.57-0.85-0.76s-0.74-0.29-1.19-0.29c-0.45,0-0.83,0.1-1.17,0.29s-0.61,0.45-0.84,0.76
		s-0.39,0.69-0.5,1.12s-0.17,0.87-0.17,1.34V460.8z"/>
	<path class="st7" d="M408.66,455.94l0.05,1.2c0.34-0.43,0.75-0.76,1.23-1.01s1.02-0.37,1.62-0.37c0.46,0,0.88,0.06,1.26,0.19
		s0.69,0.33,0.96,0.61s0.47,0.64,0.61,1.07s0.22,0.96,0.22,1.59v6.23h-1.63v-6.25c0-0.37-0.04-0.68-0.12-0.94s-0.2-0.47-0.37-0.64
		s-0.36-0.28-0.6-0.36s-0.51-0.11-0.82-0.11c-0.53,0-0.99,0.14-1.39,0.42s-0.71,0.65-0.93,1.11v6.78h-1.63v-9.51H408.66z"/>
	<path class="st7" d="M422.59,462.92c0-0.18-0.03-0.34-0.08-0.5s-0.16-0.3-0.31-0.44s-0.38-0.27-0.66-0.38s-0.67-0.23-1.13-0.33
		c-0.53-0.11-1-0.24-1.42-0.4s-0.78-0.33-1.08-0.55s-0.52-0.47-0.68-0.76s-0.24-0.64-0.24-1.03c0-0.38,0.08-0.73,0.25-1.07
		s0.4-0.63,0.71-0.89s0.67-0.46,1.11-0.61s0.92-0.22,1.45-0.22c0.57,0,1.08,0.08,1.52,0.23s0.83,0.37,1.14,0.64s0.55,0.58,0.72,0.95
		s0.25,0.75,0.25,1.16h-1.63c0-0.19-0.04-0.39-0.13-0.58s-0.22-0.37-0.39-0.53s-0.38-0.28-0.62-0.38s-0.53-0.15-0.85-0.15
		c-0.34,0-0.63,0.04-0.87,0.12s-0.43,0.18-0.58,0.32s-0.26,0.28-0.33,0.45s-0.11,0.34-0.11,0.51s0.03,0.33,0.09,0.47
		s0.17,0.27,0.33,0.38s0.39,0.22,0.67,0.32s0.65,0.19,1.1,0.29c0.58,0.13,1.08,0.29,1.51,0.46s0.78,0.37,1.06,0.59
		s0.49,0.48,0.63,0.78s0.21,0.63,0.21,1.02c0,0.42-0.09,0.8-0.26,1.14s-0.42,0.64-0.74,0.89s-0.71,0.44-1.16,0.58
		s-0.95,0.21-1.5,0.21c-0.63,0-1.19-0.09-1.67-0.26s-0.89-0.41-1.22-0.7s-0.58-0.62-0.75-0.99s-0.25-0.75-0.25-1.15h1.63
		c0.02,0.33,0.1,0.61,0.24,0.84s0.32,0.41,0.54,0.55s0.45,0.24,0.71,0.3s0.52,0.09,0.77,0.09c0.33,0,0.63-0.04,0.88-0.11
		s0.46-0.17,0.64-0.29s0.3-0.27,0.39-0.43S422.59,463.12,422.59,462.92z"/>
	<path class="st7" d="M432.2,464.51c-0.3,0.35-0.68,0.63-1.13,0.82s-1.01,0.29-1.65,0.29c-0.47,0-0.89-0.07-1.27-0.2
		s-0.71-0.34-0.98-0.62s-0.49-0.65-0.64-1.1s-0.22-0.99-0.22-1.62v-6.14h1.63v6.16c0,0.43,0.05,0.78,0.15,1.06s0.23,0.5,0.4,0.66
		s0.35,0.27,0.56,0.33s0.43,0.09,0.65,0.09c0.66,0,1.19-0.13,1.59-0.38s0.7-0.59,0.88-1.01v-6.92h1.63v9.51h-1.55L432.2,464.51z"/>
	<path class="st7" d="M438.02,465.45h-1.63v-13.5h1.63V465.45z"/>
	<path class="st7" d="M442.83,453.63v2.3h1.78v1.26h-1.78v5.9c0,0.25,0.03,0.44,0.09,0.59s0.14,0.26,0.23,0.35s0.21,0.14,0.33,0.16
		s0.26,0.04,0.39,0.04s0.28-0.01,0.43-0.04s0.27-0.05,0.35-0.07v1.32c-0.13,0.04-0.3,0.07-0.5,0.11s-0.45,0.06-0.75,0.06
		c-0.3,0-0.58-0.04-0.85-0.13s-0.5-0.23-0.7-0.43s-0.36-0.46-0.47-0.79s-0.18-0.73-0.18-1.2v-5.89h-1.73v-1.26h1.73v-2.3H442.83z"/>
	<path class="st7" d="M452.37,465.45c-0.06-0.12-0.11-0.26-0.14-0.44s-0.06-0.37-0.09-0.56c-0.15,0.16-0.32,0.31-0.51,0.45
		s-0.4,0.27-0.62,0.38s-0.47,0.19-0.73,0.25s-0.54,0.09-0.83,0.09c-0.49,0-0.93-0.07-1.32-0.22s-0.73-0.35-1.01-0.6
		s-0.49-0.55-0.65-0.89s-0.23-0.71-0.23-1.1c0-0.51,0.1-0.96,0.3-1.35s0.48-0.72,0.86-0.98s0.82-0.46,1.35-0.6s1.12-0.2,1.77-0.2
		h1.62v-0.75c0-0.57-0.17-1.02-0.51-1.36s-0.84-0.51-1.5-0.51c-0.3,0-0.58,0.04-0.83,0.12s-0.47,0.19-0.65,0.33s-0.32,0.3-0.42,0.48
		s-0.15,0.37-0.15,0.57h-1.63c0-0.34,0.09-0.68,0.27-1.01s0.43-0.63,0.76-0.9s0.72-0.48,1.19-0.65s0.99-0.25,1.56-0.25
		c0.52,0,0.99,0.07,1.43,0.2s0.81,0.33,1.12,0.6s0.55,0.6,0.73,1s0.26,0.86,0.26,1.4v4.42c0,0.32,0.03,0.66,0.08,1.02
		s0.14,0.66,0.25,0.92v0.14H452.37z M449.68,464.21c0.29,0,0.57-0.04,0.83-0.12s0.49-0.19,0.7-0.32s0.39-0.28,0.55-0.45
		s0.28-0.35,0.37-0.53v-1.95h-1.35c-0.93,0-1.65,0.15-2.15,0.44s-0.76,0.73-0.76,1.31c0,0.23,0.04,0.44,0.11,0.64
		s0.19,0.37,0.35,0.51s0.35,0.26,0.57,0.34S449.38,464.21,449.68,464.21z"/>
	<path class="st7" d="M457.83,455.94l0.05,1.2c0.34-0.43,0.75-0.76,1.23-1.01s1.02-0.37,1.62-0.37c0.46,0,0.88,0.06,1.26,0.19
		s0.69,0.33,0.96,0.61s0.47,0.64,0.61,1.07s0.22,0.96,0.22,1.59v6.23h-1.63v-6.25c0-0.37-0.04-0.68-0.12-0.94s-0.2-0.47-0.37-0.64
		s-0.36-0.28-0.6-0.36s-0.51-0.11-0.82-0.11c-0.53,0-0.99,0.14-1.39,0.42s-0.71,0.65-0.93,1.11v6.78h-1.63v-9.51H457.83z"/>
	<path class="st7" d="M468.43,453.63v2.3h1.78v1.26h-1.78v5.9c0,0.25,0.03,0.44,0.09,0.59s0.14,0.26,0.23,0.35s0.21,0.14,0.33,0.16
		s0.26,0.04,0.39,0.04s0.28-0.01,0.43-0.04s0.27-0.05,0.35-0.07v1.32c-0.13,0.04-0.3,0.07-0.5,0.11s-0.45,0.06-0.75,0.06
		c-0.3,0-0.58-0.04-0.85-0.13s-0.5-0.23-0.7-0.43s-0.36-0.46-0.47-0.79s-0.18-0.73-0.18-1.2v-5.89h-1.73v-1.26h1.73v-2.3H468.43z"/>
</g>
</svg>
