<?xml version="1.0" encoding="utf-8"?>
<!-- Generator: Adobe Illustrator 23.0.2, SVG Export Plug-In . SVG Version: 6.00 Build 0)  -->
<svg version="1.1" id="Layer_1" xmlns="http://www.w3.org/2000/svg" xmlns:xlink="http://www.w3.org/1999/xlink" x="0px" y="0px"
	 viewBox="0 0 800 600" style="enable-background:new 0 0 800 600;" xml:space="preserve">
<style type="text/css">
	.st0b{fill:#CCDE7A;}
	.st1b{fill:#F8F9FA;}
	.st2b{fill:#212529;}
	.st3b{fill:#FFFFFF;}
</style>
<g>
	<defs>
		<rect id="SVGID_1_" x="215" y="52" width="370" height="400"/>
	</defs>
	<clipPath id="SVGID_2_">
		<use xlink:href="#SVGID_1_"  style="overflow:visible;"/>
	</clipPath>
	<g style="clip-path:url(#SVGID_2_);">
		
			<image style="overflow:visible;" width="370" height="400" xlink:href="http://tryscrumlive.vervebot.io/wp-content/uploads/2021/12/buvana.png" transform="matrix(1 0 0 1 215 52)">
		</image>
	</g>
</g>
<a>
	<path class="st0b" d="M541.6,547.39H258.4c-3.87,0-7-3.13-7-7V392.01c0-3.87,3.13-7,7-7H541.6c3.87,0,7,3.13,7,7v148.38
		C548.6,544.26,545.46,547.39,541.6,547.39z"/>
</a>
<a xlink:href="https://twitter.com/Buvana_Isai" target="blank">
	<g>
		<g>
			<path class="st1b" d="M333.85,528.19h-24.29c-1.58,0-2.86-1.28-2.86-2.86v-24.29c0-1.58,1.28-2.86,2.86-2.86h24.29
				c1.58,0,2.86,1.28,2.86,2.86v24.29C336.71,526.91,335.43,528.19,333.85,528.19z"/>
		</g>
			<g>
				<path class="st2b" d="M328.07,510.6c0,4.33-3.3,9.33-9.33,9.33c-1.86,0-3.58-0.54-5.04-1.47c0.26,0.03,0.52,0.04,0.79,0.04
					c1.53,0,2.94-0.52,4.07-1.4c-1.44-0.03-2.65-0.97-3.07-2.27c0.2,0.03,0.41,0.05,0.62,0.05c0.29,0,0.59-0.04,0.86-0.11
					c-1.5-0.3-2.63-1.62-2.63-3.22v-0.04c0.44,0.24,0.94,0.4,1.48,0.42c-0.88-0.59-1.46-1.59-1.46-2.73c0-0.61,0.16-1.17,0.45-1.66
					c1.61,1.99,4.04,3.29,6.76,3.43c-0.05-0.24-0.08-0.5-0.08-0.75c0-1.81,1.46-3.28,3.28-3.28c0.94,0,1.8,0.4,2.4,1.04
					c0.74-0.14,1.45-0.42,2.08-0.79c-0.24,0.76-0.76,1.4-1.44,1.81c0.66-0.07,1.3-0.25,1.89-0.51c-0.45,0.65-1,1.23-1.64,1.7
					C328.07,510.32,328.07,510.46,328.07,510.6z"/>
			</g>
	</g>
</a>
<a xlink:href="https://www.linkedin.com/in/buvana-g-7b6312211" target="blank">
	<g>
		<path class="st1b" d="M386.04,528.19h-24.29c-1.58,0-2.86-1.28-2.86-2.86v-24.29c0-1.58,1.28-2.86,2.86-2.86h24.29
			c1.58,0,2.86,1.28,2.86,2.86v24.29C388.9,526.91,387.62,528.19,386.04,528.19z"/>
		<path class="st2b" d="M366.9,507.11c0-0.93,0.75-1.68,1.68-1.68s1.68,0.75,1.68,1.68s-0.75,1.7-1.68,1.7S366.9,508.04,366.9,507.11
			z M367.13,519.43v-9.35h2.9v9.35H367.13z M378,519.43v-4.55c0-1.08-0.02-2.47-1.51-2.47c-1.51,0-1.74,1.18-1.74,2.4v4.63h-2.9
			v-9.35h2.78v1.28h0.04c0.39-0.73,1.33-1.51,2.75-1.51c2.94,0,3.48,1.93,3.48,4.45v5.13h0H378z"/>
	</g>
</a>
<g>
	<g>
		<path class="st1b" d="M438.24,528.19h-24.29c-1.58,0-2.86-1.28-2.86-2.86v-24.29c0-1.58,1.28-2.86,2.86-2.86h24.29
			c1.58,0,2.86,1.28,2.86,2.86v24.29C441.1,526.91,439.82,528.19,438.24,528.19z"/>
	</g>
	<a xlink:href="https://tryscrum-community.slack.com/" target="blank">
		<g>
			<path class="st2b" d="M425.72,511.59c0,0.81-0.66,1.47-1.47,1.47h-3.68c-0.81,0-1.47-0.66-1.47-1.47c0-0.81,0.66-1.47,1.47-1.47
				h3.68C425.06,510.11,425.72,510.78,425.72,511.59z M420.57,516.75c-0.81,0-1.47-0.66-1.47-1.47c0-0.81,0.66-1.47,1.47-1.47h1.47
				v1.47C422.04,516.09,421.38,516.75,420.57,516.75z M422.78,507.9c0-0.81,0.66-1.47,1.47-1.47s1.47,0.66,1.47,1.47v1.47h-1.47
				C423.44,509.37,422.78,508.71,422.78,507.9z M424.25,513.81c0.81,0,1.47,0.66,1.47,1.47v3.68c0,0.81-0.66,1.47-1.47,1.47
				s-1.47-0.66-1.47-1.47v-3.68C422.78,514.47,423.44,513.81,424.25,513.81z M427.94,513.06c-0.81,0-1.47-0.66-1.47-1.47v-3.68
				c0-0.81,0.66-1.47,1.47-1.47c0.81,0,1.47,0.66,1.47,1.47v3.68C429.42,512.4,428.75,513.06,427.94,513.06z M426.47,515.28
				c0-0.81,0.66-1.47,1.47-1.47h3.68c0.81,0,1.47,0.66,1.47,1.47c0,0.81-0.66,1.47-1.47,1.47h-3.68
				C427.14,516.75,426.47,516.09,426.47,515.28z M429.42,518.96c0,0.81-0.66,1.47-1.47,1.47c-0.81,0-1.47-0.66-1.47-1.47v-1.47h1.47
				C428.75,517.49,429.42,518.15,429.42,518.96z M431.63,510.11c0.81,0,1.47,0.66,1.47,1.47c0,0.81-0.66,1.47-1.47,1.47h-1.47v-1.47
				C430.16,510.78,430.82,510.11,431.63,510.11z"/>
		</g>
	</a>
</g>
<g>
	<g>
		<path class="st1b" d="M490.44,528.19h-24.29c-1.58,0-2.86-1.28-2.86-2.86v-24.29c0-1.58,1.28-2.86,2.86-2.86h24.29
			c1.58,0,2.86,1.28,2.86,2.86v24.29C493.29,526.91,492.01,528.19,490.44,528.19z"/>
	</g>
	<a xlink:href="https://www.meetup.com/smstudiochn/" target="blank">
		<g>
			<path class="st2b" d="M471.3,513.48c-0.22,0.32-0.64,0.4-0.96,0.18c-0.31-0.22-0.39-0.65-0.18-0.97c0.22-0.32,0.64-0.4,0.96-0.19
				C471.44,512.73,471.52,513.15,471.3,513.48z M483,518.16c-0.54,0.38-1.16,0.55-1.78,0.53c-0.38,1.47-2.17,2.02-3.28,1.02
				c-0.04,0.03-0.08,0.05-0.12,0.09c-1.22,0.85-2.88,0.54-3.73-0.7c-0.3-0.45-0.46-0.96-0.47-1.47c-2.04-0.34-2.81-2.94-1.28-4.37
				c-0.88-1.47,0.02-3.36,1.67-3.59c0.78-2.07,3.36-3.05,5.11-1.69c2.11-0.7,4.26,0.92,4.09,3.16c1.28,0.39,1.65,2.09,0.62,2.97
				C484.65,515.48,484.29,517.25,483,518.16z M472.9,518.76c-0.17,0.03-0.34-0.07-0.38-0.25c-0.03-0.17,0.07-0.35,0.24-0.38
				c0.17-0.04,0.35,0.07,0.38,0.25C473.18,518.56,473.07,518.73,472.9,518.76z M472.93,508.84c-0.16-0.24-0.11-0.57,0.13-0.74
				c0.23-0.16,0.56-0.11,0.72,0.13c0.16,0.24,0.11,0.57-0.13,0.74C473.42,509.14,473.09,509.09,472.93,508.84z M480.29,515.6
				c-0.1-1,1.37-3.16,1.25-4c-0.11-0.75-0.61-0.91-1.04-0.92c-0.42-0.01-0.53,0.06-0.67,0.14c-0.09,0.05-0.21,0.15-0.37-0.01
				c-0.2-0.19-0.35-0.37-0.61-0.4c-0.38-0.06-0.55,0.06-0.83,0.3c-0.11,0.09-0.38,0.4-0.63,0.28c-0.11-0.05-0.48-0.24-0.75-0.36
				c-0.51-0.22-1.25,0.14-1.52,0.63c-0.4,0.71-1.19,3.53-1.3,3.91c-0.27,0.83,0.34,1.52,1.15,1.47c0.35-0.02,0.57-0.14,0.79-0.54
				c0.13-0.23,1.3-3.37,1.39-3.52c0.06-0.11,0.28-0.25,0.46-0.16c0.18,0.1,0.22,0.29,0.19,0.47c-0.03,0.3-0.88,2.22-0.9,2.43
				c-0.11,0.72,0.84,0.83,1.21,0.13c0.12-0.22,1.43-2.89,1.54-3.07c0.13-0.2,0.23-0.26,0.37-0.25c0.1,0,0.26,0.03,0.22,0.34
				c-0.04,0.29-1.1,2.26-1.22,2.74c-0.14,0.64,0.21,1.29,0.78,1.58c0.36,0.18,1.95,0.49,1.83-0.35
				C481.54,515.81,480.36,516.31,480.29,515.6z M474.5,505.88c-0.04-0.2,0.09-0.39,0.28-0.44c0.2-0.05,0.39,0.08,0.43,0.29
				c0.04,0.2-0.08,0.39-0.28,0.44C474.73,506.21,474.54,506.09,474.5,505.88z M478.23,520.73c0.14,0.21,0.09,0.48-0.11,0.63
				c-0.21,0.14-0.48,0.09-0.63-0.12c-0.13-0.21-0.08-0.48,0.12-0.63C477.82,520.47,478.1,520.52,478.23,520.73z M478.7,506.93
				c-0.2-0.33-0.09-0.76,0.23-0.96c0.32-0.2,0.74-0.09,0.94,0.24c0.19,0.32,0.09,0.75-0.24,0.95
				C479.3,507.36,478.89,507.25,478.7,506.93z M482.82,519.52c0.22,0.33,0.14,0.79-0.19,1.02c-0.33,0.22-0.78,0.14-1-0.19
				c-0.22-0.33-0.14-0.79,0.18-1.02C482.15,519.1,482.59,519.19,482.82,519.52z M484.82,509.93c0.18,0.27,0.12,0.63-0.14,0.82
				c-0.27,0.18-0.63,0.12-0.81-0.15s-0.12-0.63,0.15-0.82C484.28,509.59,484.65,509.65,484.82,509.93z M485.8,514.19
				c0.05,0.24-0.1,0.48-0.33,0.52c-0.23,0.05-0.46-0.1-0.51-0.33c-0.05-0.24,0.1-0.47,0.33-0.53
				C485.52,513.81,485.75,513.96,485.8,514.19z M486.29,512.47c-0.18,0.03-0.35-0.08-0.38-0.25c-0.03-0.18,0.07-0.36,0.25-0.39
				c0.17-0.03,0.34,0.07,0.38,0.25C486.57,512.25,486.46,512.42,486.29,512.47z"/>
		</g>
	</a>
</g>
<g>
	<path class="st3b" d="M365.16,434.14V418.5h5.36c0.84,0,1.6,0.08,2.28,0.25c0.67,0.17,1.24,0.42,1.71,0.77s0.82,0.78,1.07,1.32
		c0.25,0.53,0.37,1.17,0.37,1.9c0,0.72-0.19,1.36-0.58,1.93s-0.95,1.02-1.7,1.33c0.45,0.12,0.84,0.3,1.18,0.53
		c0.33,0.23,0.61,0.51,0.83,0.82c0.22,0.32,0.38,0.66,0.49,1.04s0.16,0.77,0.16,1.18c0,0.75-0.12,1.41-0.37,1.98
		c-0.25,0.57-0.61,1.05-1.07,1.43c-0.47,0.38-1.04,0.67-1.71,0.86c-0.67,0.19-1.43,0.29-2.27,0.29H365.16z M367.88,425.09h2.66
		c0.84,0,1.51-0.19,1.98-0.58c0.48-0.38,0.71-0.92,0.71-1.63c0-0.77-0.22-1.33-0.66-1.68c-0.44-0.34-1.13-0.52-2.06-0.52h-2.64
		V425.09z M367.88,427.08v4.89h3.02c0.44,0,0.84-0.06,1.18-0.17c0.34-0.11,0.63-0.28,0.85-0.49c0.23-0.21,0.4-0.46,0.52-0.76
		s0.17-0.62,0.17-0.98c0-0.77-0.2-1.38-0.61-1.83s-1.07-0.67-1.99-0.67H367.88z"/>
	<path class="st3b" d="M385.83,433c-0.37,0.43-0.82,0.76-1.35,1s-1.17,0.35-1.91,0.35c-0.57,0-1.09-0.08-1.56-0.24
		c-0.47-0.16-0.87-0.42-1.21-0.76c-0.34-0.35-0.6-0.79-0.78-1.34c-0.19-0.55-0.28-1.2-0.28-1.97v-7.52h2.61v7.54
		c0,0.42,0.05,0.77,0.15,1.05c0.1,0.28,0.23,0.5,0.4,0.67c0.17,0.17,0.36,0.29,0.59,0.36c0.22,0.07,0.46,0.1,0.7,0.1
		c0.67,0,1.22-0.12,1.63-0.37s0.73-0.58,0.93-1v-8.35h2.61v11.62h-2.46L385.83,433z"/>
	<path class="st3b" d="M395.11,430.83l2.46-8.31h2.7l-4.03,11.62h-2.27l-4.06-11.62h2.71L395.11,430.83z"/>
	<path class="st3b" d="M408.67,434.14c-0.07-0.14-0.13-0.3-0.18-0.48c-0.05-0.19-0.09-0.39-0.12-0.6c-0.17,0.18-0.36,0.35-0.58,0.5
		c-0.21,0.16-0.44,0.29-0.7,0.41c-0.25,0.12-0.53,0.21-0.83,0.28c-0.3,0.07-0.61,0.1-0.95,0.1c-0.58,0-1.11-0.09-1.6-0.26
		c-0.49-0.17-0.9-0.42-1.25-0.73c-0.35-0.31-0.62-0.68-0.82-1.1c-0.2-0.42-0.29-0.88-0.29-1.38c0-0.62,0.12-1.17,0.35-1.65
		s0.58-0.88,1.03-1.2s1-0.57,1.66-0.74c0.66-0.17,1.4-0.25,2.24-0.25h1.64v-0.76c0-0.6-0.17-1.08-0.5-1.45
		c-0.34-0.36-0.85-0.54-1.54-0.54c-0.31,0-0.59,0.04-0.84,0.12c-0.25,0.08-0.46,0.19-0.64,0.33c-0.17,0.14-0.31,0.31-0.41,0.5
		c-0.1,0.19-0.14,0.4-0.14,0.62h-2.61c0-0.46,0.11-0.9,0.34-1.33c0.22-0.43,0.55-0.81,0.96-1.14c0.42-0.33,0.92-0.6,1.51-0.8
		c0.59-0.2,1.25-0.3,1.98-0.3c0.65,0,1.25,0.08,1.8,0.25c0.55,0.17,1.03,0.42,1.43,0.75c0.4,0.33,0.71,0.75,0.93,1.25
		c0.22,0.5,0.33,1.08,0.33,1.75v5.16c0,1.05,0.15,1.88,0.44,2.5v0.18H408.67z M405.81,432.26c0.3,0,0.58-0.04,0.84-0.12
		c0.26-0.08,0.5-0.18,0.71-0.31c0.21-0.13,0.4-0.28,0.55-0.45c0.16-0.17,0.28-0.34,0.38-0.51v-2.19h-1.41
		c-0.97,0-1.69,0.17-2.18,0.5s-0.73,0.81-0.73,1.43c0,0.24,0.04,0.46,0.12,0.66s0.2,0.37,0.35,0.52c0.16,0.15,0.35,0.26,0.58,0.34
		C405.24,432.22,405.5,432.26,405.81,432.26z"/>
	<path class="st3b" d="M416.05,422.52l0.08,1.34c0.41-0.49,0.9-0.88,1.47-1.15s1.21-0.41,1.91-0.41c0.56,0,1.07,0.08,1.52,0.23
		c0.46,0.15,0.84,0.4,1.17,0.75s0.57,0.79,0.75,1.34c0.18,0.55,0.26,1.22,0.26,2.01v7.51h-2.61v-7.53c0-0.4-0.04-0.74-0.13-1.01
		c-0.09-0.28-0.22-0.5-0.39-0.67s-0.38-0.29-0.64-0.37c-0.25-0.07-0.55-0.11-0.88-0.11c-0.54,0-1,0.13-1.4,0.39
		c-0.4,0.26-0.71,0.61-0.95,1.04v8.27h-2.61v-11.62H416.05z"/>
	<path class="st3b" d="M432.81,434.14c-0.07-0.14-0.13-0.3-0.18-0.48c-0.05-0.19-0.09-0.39-0.12-0.6c-0.17,0.18-0.36,0.35-0.58,0.5
		c-0.21,0.16-0.44,0.29-0.7,0.41c-0.25,0.12-0.53,0.21-0.83,0.28c-0.3,0.07-0.61,0.1-0.95,0.1c-0.58,0-1.11-0.09-1.6-0.26
		c-0.49-0.17-0.9-0.42-1.25-0.73c-0.35-0.31-0.62-0.68-0.82-1.1c-0.2-0.42-0.29-0.88-0.29-1.38c0-0.62,0.12-1.17,0.35-1.65
		s0.58-0.88,1.03-1.2s1-0.57,1.66-0.74c0.66-0.17,1.4-0.25,2.24-0.25h1.64v-0.76c0-0.6-0.17-1.08-0.5-1.45
		c-0.34-0.36-0.85-0.54-1.54-0.54c-0.31,0-0.59,0.04-0.84,0.12c-0.25,0.08-0.46,0.19-0.64,0.33c-0.17,0.14-0.31,0.31-0.41,0.5
		c-0.1,0.19-0.14,0.4-0.14,0.62h-2.61c0-0.46,0.11-0.9,0.34-1.33c0.22-0.43,0.55-0.81,0.96-1.14c0.42-0.33,0.92-0.6,1.51-0.8
		c0.59-0.2,1.25-0.3,1.98-0.3c0.65,0,1.25,0.08,1.8,0.25c0.55,0.17,1.03,0.42,1.43,0.75c0.4,0.33,0.71,0.75,0.93,1.25
		c0.22,0.5,0.33,1.08,0.33,1.75v5.16c0,1.05,0.15,1.88,0.44,2.5v0.18H432.81z M429.94,432.26c0.3,0,0.58-0.04,0.84-0.12
		c0.26-0.08,0.5-0.18,0.71-0.31c0.21-0.13,0.4-0.28,0.55-0.45c0.16-0.17,0.28-0.34,0.38-0.51v-2.19h-1.41
		c-0.97,0-1.69,0.17-2.18,0.5s-0.73,0.81-0.73,1.43c0,0.24,0.04,0.46,0.12,0.66s0.2,0.37,0.35,0.52c0.16,0.15,0.35,0.26,0.58,0.34
		C429.38,432.22,429.64,432.26,429.94,432.26z"/>
</g>
<g>
	<path class="st3b" d="M298.05,460.61c-0.07,0.6-0.22,1.16-0.44,1.68c-0.23,0.52-0.54,0.97-0.94,1.34c-0.4,0.38-0.88,0.67-1.46,0.89
		c-0.57,0.21-1.25,0.32-2.01,0.32c-0.76,0-1.44-0.14-2.06-0.42s-1.14-0.68-1.58-1.2c-0.44-0.52-0.77-1.14-1.01-1.87
		c-0.24-0.73-0.36-1.54-0.36-2.43v-1.28c0-0.9,0.12-1.71,0.36-2.44c0.24-0.73,0.58-1.35,1.03-1.87c0.45-0.52,0.99-0.92,1.62-1.21
		c0.63-0.28,1.35-0.43,2.14-0.43c0.72,0,1.36,0.11,1.92,0.32s1.03,0.51,1.42,0.88c0.39,0.38,0.7,0.83,0.93,1.35
		c0.23,0.53,0.38,1.1,0.44,1.74h-1.7c-0.06-0.45-0.16-0.85-0.3-1.2s-0.32-0.66-0.56-0.91c-0.24-0.25-0.53-0.45-0.88-0.58
		s-0.77-0.2-1.27-0.2c-0.57,0-1.07,0.11-1.5,0.33c-0.43,0.22-0.79,0.53-1.08,0.92c-0.29,0.4-0.51,0.87-0.66,1.43
		s-0.22,1.18-0.22,1.85v1.3c0,0.63,0.07,1.22,0.2,1.77c0.13,0.55,0.33,1.03,0.6,1.45c0.27,0.41,0.61,0.74,1.03,0.97
		c0.42,0.24,0.91,0.36,1.48,0.36c0.54,0,0.99-0.06,1.36-0.19s0.67-0.31,0.92-0.56c0.24-0.24,0.43-0.54,0.57-0.9s0.24-0.76,0.31-1.21
		H298.05z"/>
	<path class="st3b" d="M305.97,463.73c-0.3,0.35-0.68,0.63-1.13,0.82c-0.46,0.2-1.01,0.29-1.65,0.29c-0.47,0-0.89-0.07-1.27-0.2
		c-0.38-0.13-0.71-0.34-0.98-0.63c-0.28-0.28-0.49-0.65-0.64-1.1c-0.15-0.45-0.22-0.99-0.22-1.62v-6.14h1.63v6.16
		c0,0.43,0.05,0.78,0.15,1.06s0.23,0.5,0.4,0.66c0.16,0.16,0.35,0.27,0.56,0.33c0.21,0.06,0.43,0.09,0.65,0.09
		c0.66,0,1.19-0.13,1.59-0.38s0.7-0.59,0.88-1.01v-6.92h1.63v9.51H306L305.97,463.73z"/>
	<path class="st3b" d="M315.55,462.15c0-0.18-0.03-0.34-0.08-0.5c-0.05-0.15-0.16-0.3-0.31-0.44c-0.16-0.14-0.38-0.26-0.66-0.38
		s-0.67-0.23-1.13-0.33c-0.53-0.11-1-0.24-1.42-0.4s-0.78-0.33-1.08-0.55c-0.3-0.21-0.52-0.47-0.68-0.76s-0.24-0.64-0.24-1.03
		c0-0.38,0.08-0.73,0.25-1.07c0.17-0.34,0.4-0.63,0.71-0.89c0.3-0.25,0.67-0.46,1.11-0.61c0.43-0.15,0.92-0.22,1.45-0.22
		c0.57,0,1.08,0.08,1.53,0.23c0.45,0.16,0.83,0.37,1.14,0.64c0.31,0.27,0.55,0.58,0.72,0.94c0.16,0.36,0.25,0.75,0.25,1.16h-1.63
		c0-0.19-0.04-0.39-0.13-0.58s-0.22-0.37-0.39-0.53s-0.38-0.28-0.62-0.38c-0.25-0.1-0.53-0.14-0.85-0.14
		c-0.34,0-0.63,0.04-0.87,0.12c-0.24,0.08-0.43,0.18-0.58,0.32c-0.15,0.13-0.26,0.28-0.33,0.45c-0.07,0.17-0.11,0.34-0.11,0.51
		s0.03,0.33,0.09,0.47s0.17,0.27,0.33,0.38c0.16,0.12,0.39,0.22,0.67,0.32c0.28,0.1,0.65,0.2,1.1,0.29
		c0.58,0.13,1.08,0.29,1.51,0.46s0.78,0.37,1.06,0.59s0.49,0.48,0.63,0.78c0.14,0.29,0.21,0.63,0.21,1.02c0,0.42-0.09,0.8-0.26,1.14
		c-0.17,0.35-0.42,0.64-0.74,0.89s-0.71,0.44-1.16,0.58c-0.45,0.14-0.95,0.21-1.5,0.21c-0.63,0-1.19-0.09-1.67-0.26
		c-0.48-0.18-0.89-0.41-1.22-0.7c-0.33-0.29-0.58-0.62-0.75-0.99s-0.25-0.75-0.25-1.15h1.63c0.02,0.33,0.1,0.61,0.24,0.84
		c0.14,0.23,0.32,0.41,0.54,0.55s0.45,0.24,0.71,0.3s0.52,0.09,0.77,0.09c0.33,0,0.63-0.04,0.88-0.11s0.46-0.17,0.64-0.29
		s0.3-0.27,0.39-0.44C315.51,462.52,315.55,462.34,315.55,462.15z"/>
	<path class="st3b" d="M321.5,452.86v2.3h1.78v1.26h-1.78v5.9c0,0.25,0.03,0.44,0.09,0.59c0.06,0.15,0.14,0.26,0.23,0.35
		c0.1,0.08,0.21,0.14,0.33,0.16c0.13,0.03,0.26,0.04,0.39,0.04s0.28-0.01,0.43-0.04c0.15-0.03,0.27-0.05,0.35-0.07v1.32
		c-0.13,0.04-0.3,0.07-0.5,0.11s-0.45,0.06-0.75,0.06c-0.3,0-0.58-0.04-0.85-0.13c-0.27-0.08-0.5-0.23-0.7-0.43
		s-0.36-0.46-0.47-0.79c-0.12-0.33-0.18-0.73-0.18-1.2v-5.89h-1.73v-1.26h1.73v-2.3H321.5z"/>
	<path class="st3b" d="M324.57,459.83c0-0.69,0.1-1.33,0.3-1.92c0.2-0.59,0.49-1.1,0.86-1.53c0.37-0.43,0.82-0.77,1.36-1.02
		s1.13-0.37,1.79-0.37c0.67,0,1.28,0.12,1.81,0.37c0.54,0.25,0.99,0.59,1.37,1.02s0.66,0.95,0.86,1.53c0.2,0.59,0.3,1.23,0.3,1.92
		v0.19c0,0.69-0.1,1.33-0.3,1.92c-0.2,0.59-0.49,1.1-0.86,1.53c-0.38,0.43-0.83,0.77-1.36,1.01c-0.53,0.24-1.13,0.37-1.8,0.37
		s-1.27-0.12-1.8-0.37c-0.53-0.24-0.99-0.58-1.36-1.01c-0.38-0.43-0.66-0.94-0.87-1.53c-0.2-0.59-0.3-1.23-0.3-1.92V459.83z
		 M326.21,460.02c0,0.47,0.06,0.92,0.17,1.34s0.28,0.79,0.51,1.11c0.22,0.32,0.51,0.57,0.84,0.76c0.34,0.19,0.73,0.28,1.18,0.28
		c0.45,0,0.84-0.09,1.18-0.28s0.62-0.44,0.84-0.76c0.22-0.32,0.39-0.69,0.51-1.11c0.11-0.42,0.17-0.87,0.17-1.34v-0.19
		c0-0.47-0.06-0.92-0.17-1.34c-0.12-0.42-0.29-0.8-0.51-1.12c-0.23-0.32-0.51-0.57-0.85-0.77c-0.34-0.19-0.74-0.29-1.19-0.29
		c-0.45,0-0.83,0.1-1.17,0.29c-0.33,0.19-0.61,0.45-0.84,0.77c-0.23,0.32-0.39,0.69-0.51,1.12c-0.11,0.43-0.17,0.87-0.17,1.34
		V460.02z"/>
	<path class="st3b" d="M336.8,455.16l0.04,1.05c0.33-0.39,0.73-0.69,1.19-0.91c0.47-0.22,1.01-0.33,1.63-0.33
		c0.62,0,1.16,0.12,1.63,0.37c0.47,0.24,0.83,0.63,1.08,1.16c0.32-0.46,0.73-0.83,1.24-1.11c0.51-0.28,1.11-0.42,1.8-0.42
		c0.51,0,0.96,0.07,1.35,0.2c0.39,0.13,0.72,0.34,1,0.62c0.27,0.28,0.48,0.64,0.62,1.07s0.21,0.95,0.21,1.55v6.25h-1.63v-6.26
		c0-0.4-0.05-0.73-0.15-0.99c-0.1-0.26-0.23-0.47-0.41-0.63s-0.39-0.27-0.64-0.33c-0.25-0.06-0.53-0.09-0.83-0.09
		c-0.33,0-0.63,0.05-0.89,0.16s-0.48,0.25-0.66,0.43c-0.19,0.18-0.33,0.39-0.44,0.63c-0.11,0.24-0.18,0.5-0.21,0.78v6.31h-1.63
		v-6.25c0-0.37-0.05-0.68-0.14-0.94c-0.1-0.26-0.23-0.47-0.41-0.64s-0.39-0.28-0.64-0.36s-0.53-0.11-0.84-0.11
		c-0.58,0-1.05,0.13-1.4,0.38s-0.62,0.58-0.79,0.98v6.94h-1.63v-9.51H336.8z"/>
	<path class="st3b" d="M354.99,464.85c-0.66,0-1.26-0.11-1.8-0.34c-0.54-0.23-0.99-0.55-1.38-0.95c-0.38-0.41-0.67-0.89-0.88-1.45
		s-0.31-1.18-0.31-1.85v-0.37c0-0.77,0.12-1.46,0.35-2.07s0.54-1.12,0.93-1.54s0.83-0.73,1.33-0.95c0.5-0.22,1.02-0.33,1.56-0.33
		c0.68,0,1.27,0.12,1.76,0.36c0.49,0.24,0.9,0.56,1.22,0.98s0.56,0.91,0.71,1.48s0.23,1.19,0.23,1.85v0.73h-6.44
		c0.01,0.44,0.08,0.85,0.21,1.23c0.13,0.38,0.32,0.71,0.56,0.99s0.54,0.5,0.88,0.67c0.34,0.16,0.73,0.25,1.17,0.25
		c0.57,0,1.06-0.12,1.46-0.35s0.75-0.54,1.05-0.93l0.99,0.77c-0.15,0.23-0.34,0.46-0.55,0.68c-0.22,0.22-0.47,0.42-0.76,0.59
		c-0.29,0.17-0.62,0.31-1,0.41C355.89,464.8,355.47,464.85,354.99,464.85z M354.79,456.32c-0.33,0-0.63,0.06-0.91,0.18
		c-0.28,0.12-0.52,0.29-0.74,0.52s-0.4,0.51-0.54,0.85c-0.14,0.34-0.24,0.73-0.29,1.17h4.76v-0.12c-0.02-0.32-0.07-0.63-0.15-0.94
		s-0.22-0.59-0.39-0.83c-0.18-0.25-0.41-0.45-0.69-0.6S355.21,456.32,354.79,456.32z"/>
	<path class="st3b" d="M365.18,456.62c-0.14-0.02-0.27-0.04-0.39-0.05c-0.12-0.01-0.26-0.01-0.41-0.01c-0.56,0-1.02,0.12-1.38,0.37
		c-0.36,0.25-0.62,0.58-0.8,0.99v6.75h-1.63v-9.51h1.58l0.03,1.1c0.25-0.39,0.55-0.7,0.92-0.93s0.82-0.34,1.34-0.34
		c0.12,0,0.25,0.01,0.4,0.04c0.15,0.03,0.26,0.05,0.32,0.08V456.62z"/>
	<path class="st3b" d="M378.2,461.44c0-0.3-0.05-0.56-0.14-0.79c-0.09-0.23-0.25-0.44-0.48-0.63c-0.23-0.19-0.54-0.37-0.94-0.54
		c-0.39-0.17-0.89-0.34-1.49-0.51c-0.63-0.18-1.21-0.39-1.72-0.62c-0.51-0.23-0.95-0.5-1.31-0.8c-0.36-0.3-0.64-0.65-0.83-1.03
		s-0.29-0.83-0.29-1.33s0.1-0.96,0.31-1.38c0.21-0.42,0.5-0.79,0.88-1.11s0.84-0.56,1.37-0.73s1.13-0.26,1.78-0.26
		c0.72,0,1.36,0.11,1.92,0.33s1.04,0.5,1.42,0.86c0.38,0.36,0.67,0.77,0.87,1.24s0.3,0.95,0.3,1.45h-1.7c0-0.36-0.06-0.69-0.17-0.99
		c-0.11-0.3-0.29-0.57-0.52-0.79s-0.53-0.4-0.88-0.52s-0.77-0.18-1.25-0.18c-0.45,0-0.84,0.05-1.18,0.16s-0.61,0.25-0.83,0.44
		c-0.22,0.18-0.38,0.4-0.48,0.65s-0.16,0.53-0.16,0.83c0,0.27,0.06,0.52,0.17,0.74c0.11,0.22,0.29,0.43,0.53,0.62
		s0.55,0.36,0.93,0.52c0.38,0.16,0.83,0.31,1.36,0.46c0.73,0.21,1.35,0.43,1.88,0.68c0.53,0.25,0.96,0.53,1.3,0.85
		c0.34,0.32,0.6,0.67,0.77,1.06c0.17,0.39,0.25,0.84,0.25,1.34c0,0.52-0.11,0.99-0.32,1.42s-0.51,0.78-0.9,1.08
		c-0.39,0.3-0.86,0.53-1.41,0.69c-0.55,0.16-1.16,0.24-1.83,0.24c-0.39,0-0.79-0.04-1.18-0.11c-0.39-0.07-0.77-0.18-1.13-0.33
		c-0.36-0.15-0.69-0.33-1-0.54c-0.31-0.22-0.58-0.47-0.8-0.76s-0.41-0.61-0.54-0.97s-0.19-0.75-0.19-1.18h1.7
		c0,0.44,0.09,0.82,0.26,1.13c0.17,0.31,0.4,0.57,0.7,0.78c0.29,0.21,0.62,0.36,1,0.45c0.38,0.1,0.77,0.15,1.19,0.15
		c0.89,0,1.57-0.18,2.05-0.54S378.2,462.06,378.2,461.44z"/>
	<path class="st3b" d="M387.68,463.73c-0.3,0.35-0.68,0.63-1.13,0.82c-0.46,0.2-1.01,0.29-1.65,0.29c-0.47,0-0.89-0.07-1.27-0.2
		c-0.38-0.13-0.71-0.34-0.98-0.63c-0.28-0.28-0.49-0.65-0.64-1.1c-0.15-0.45-0.22-0.99-0.22-1.62v-6.14h1.63v6.16
		c0,0.43,0.05,0.78,0.15,1.06s0.23,0.5,0.4,0.66c0.16,0.16,0.35,0.27,0.56,0.33c0.21,0.06,0.43,0.09,0.65,0.09
		c0.66,0,1.19-0.13,1.59-0.38s0.7-0.59,0.88-1.01v-6.92h1.63v9.51h-1.55L387.68,463.73z"/>
	<path class="st3b" d="M395.54,463.52c0.29,0,0.56-0.05,0.83-0.14s0.5-0.22,0.7-0.39c0.2-0.16,0.37-0.36,0.49-0.58
		c0.13-0.22,0.2-0.47,0.22-0.73h1.54c-0.02,0.42-0.14,0.83-0.35,1.21c-0.21,0.38-0.48,0.72-0.82,1.01
		c-0.34,0.29-0.73,0.52-1.18,0.69c-0.45,0.17-0.92,0.26-1.43,0.26c-0.71,0-1.34-0.13-1.87-0.38c-0.53-0.25-0.97-0.6-1.32-1.03
		s-0.61-0.94-0.79-1.51c-0.17-0.57-0.26-1.18-0.26-1.82v-0.37c0-0.64,0.09-1.25,0.26-1.82c0.17-0.57,0.43-1.08,0.79-1.51
		s0.79-0.78,1.32-1.03c0.53-0.26,1.15-0.38,1.86-0.38c0.56,0,1.06,0.09,1.52,0.26c0.45,0.18,0.85,0.42,1.18,0.72
		c0.33,0.31,0.59,0.67,0.78,1.09s0.29,0.88,0.32,1.36h-1.54c-0.02-0.29-0.09-0.57-0.21-0.82c-0.12-0.25-0.27-0.48-0.46-0.67
		c-0.19-0.19-0.42-0.34-0.69-0.45s-0.56-0.17-0.89-0.17c-0.5,0-0.92,0.1-1.25,0.3s-0.6,0.46-0.8,0.79c-0.2,0.32-0.34,0.69-0.43,1.1
		c-0.08,0.41-0.12,0.82-0.12,1.23v0.37c0,0.42,0.04,0.84,0.12,1.24s0.22,0.77,0.42,1.09s0.47,0.58,0.8,0.78
		S395.03,463.52,395.54,463.52z"/>
	<path class="st3b" d="M404.97,463.52c0.29,0,0.56-0.05,0.83-0.14s0.5-0.22,0.7-0.39c0.2-0.16,0.37-0.36,0.49-0.58
		c0.13-0.22,0.2-0.47,0.22-0.73h1.54c-0.02,0.42-0.14,0.83-0.35,1.21c-0.21,0.38-0.48,0.72-0.82,1.01
		c-0.34,0.29-0.73,0.52-1.18,0.69c-0.45,0.17-0.92,0.26-1.43,0.26c-0.71,0-1.34-0.13-1.87-0.38c-0.53-0.25-0.97-0.6-1.32-1.03
		s-0.61-0.94-0.79-1.51c-0.17-0.57-0.26-1.18-0.26-1.82v-0.37c0-0.64,0.09-1.25,0.26-1.82c0.17-0.57,0.43-1.08,0.79-1.51
		s0.79-0.78,1.32-1.03c0.53-0.26,1.15-0.38,1.86-0.38c0.56,0,1.06,0.09,1.52,0.26c0.45,0.18,0.85,0.42,1.18,0.72
		c0.33,0.31,0.59,0.67,0.78,1.09s0.29,0.88,0.32,1.36h-1.54c-0.02-0.29-0.09-0.57-0.21-0.82c-0.12-0.25-0.27-0.48-0.46-0.67
		c-0.19-0.19-0.42-0.34-0.69-0.45s-0.56-0.17-0.89-0.17c-0.5,0-0.92,0.1-1.25,0.3s-0.6,0.46-0.8,0.79c-0.2,0.32-0.34,0.69-0.43,1.1
		c-0.08,0.41-0.12,0.82-0.12,1.23v0.37c0,0.42,0.04,0.84,0.12,1.24s0.22,0.77,0.42,1.09s0.47,0.58,0.8,0.78
		S404.46,463.52,404.97,463.52z"/>
	<path class="st3b" d="M414.52,464.85c-0.66,0-1.26-0.11-1.8-0.34c-0.54-0.23-0.99-0.55-1.38-0.95c-0.38-0.41-0.67-0.89-0.88-1.45
		s-0.31-1.18-0.31-1.85v-0.37c0-0.77,0.12-1.46,0.35-2.07s0.54-1.12,0.93-1.54s0.83-0.73,1.33-0.95c0.5-0.22,1.02-0.33,1.56-0.33
		c0.68,0,1.27,0.12,1.76,0.36c0.49,0.24,0.9,0.56,1.22,0.98s0.56,0.91,0.71,1.48s0.23,1.19,0.23,1.85v0.73h-6.44
		c0.01,0.44,0.08,0.85,0.21,1.23c0.13,0.38,0.32,0.71,0.56,0.99s0.54,0.5,0.88,0.67c0.34,0.16,0.73,0.25,1.17,0.25
		c0.57,0,1.06-0.12,1.46-0.35s0.75-0.54,1.05-0.93l0.99,0.77c-0.15,0.23-0.34,0.46-0.55,0.68c-0.22,0.22-0.47,0.42-0.76,0.59
		c-0.29,0.17-0.62,0.31-1,0.41C415.42,464.8,414.99,464.85,414.52,464.85z M414.32,456.32c-0.33,0-0.63,0.06-0.91,0.18
		c-0.28,0.12-0.52,0.29-0.74,0.52s-0.4,0.51-0.54,0.85c-0.14,0.34-0.24,0.73-0.29,1.17h4.76v-0.12c-0.02-0.32-0.07-0.63-0.15-0.94
		s-0.22-0.59-0.39-0.83c-0.18-0.25-0.41-0.45-0.69-0.6S414.73,456.32,414.32,456.32z"/>
	<path class="st3b" d="M425.65,462.15c0-0.18-0.03-0.34-0.08-0.5c-0.05-0.15-0.16-0.3-0.31-0.44c-0.16-0.14-0.38-0.26-0.66-0.38
		s-0.67-0.23-1.13-0.33c-0.53-0.11-1-0.24-1.42-0.4s-0.78-0.33-1.08-0.55c-0.3-0.21-0.52-0.47-0.68-0.76s-0.24-0.64-0.24-1.03
		c0-0.38,0.08-0.73,0.25-1.07c0.17-0.34,0.4-0.63,0.71-0.89c0.3-0.25,0.67-0.46,1.11-0.61c0.43-0.15,0.92-0.22,1.45-0.22
		c0.57,0,1.08,0.08,1.53,0.23c0.45,0.16,0.83,0.37,1.14,0.64c0.31,0.27,0.55,0.58,0.72,0.94c0.16,0.36,0.25,0.75,0.25,1.16h-1.63
		c0-0.19-0.04-0.39-0.13-0.58s-0.22-0.37-0.39-0.53s-0.38-0.28-0.62-0.38c-0.25-0.1-0.53-0.14-0.85-0.14
		c-0.34,0-0.63,0.04-0.87,0.12c-0.24,0.08-0.43,0.18-0.58,0.32c-0.15,0.13-0.26,0.28-0.33,0.45c-0.07,0.17-0.11,0.34-0.11,0.51
		s0.03,0.33,0.09,0.47s0.17,0.27,0.33,0.38c0.16,0.12,0.39,0.22,0.67,0.32c0.28,0.1,0.65,0.2,1.1,0.29
		c0.58,0.13,1.08,0.29,1.51,0.46s0.78,0.37,1.06,0.59s0.49,0.48,0.63,0.78c0.14,0.29,0.21,0.63,0.21,1.02c0,0.42-0.09,0.8-0.26,1.14
		c-0.17,0.35-0.42,0.64-0.74,0.89s-0.71,0.44-1.16,0.58c-0.45,0.14-0.95,0.21-1.5,0.21c-0.63,0-1.19-0.09-1.67-0.26
		c-0.48-0.18-0.89-0.41-1.22-0.7c-0.33-0.29-0.58-0.62-0.75-0.99s-0.25-0.75-0.25-1.15h1.63c0.02,0.33,0.1,0.61,0.24,0.84
		c0.14,0.23,0.32,0.41,0.54,0.55s0.45,0.24,0.71,0.3s0.52,0.09,0.77,0.09c0.33,0,0.63-0.04,0.88-0.11s0.46-0.17,0.64-0.29
		s0.3-0.27,0.39-0.44C425.6,462.52,425.65,462.34,425.65,462.15z"/>
	<path class="st3b" d="M434.93,462.15c0-0.18-0.03-0.34-0.08-0.5c-0.05-0.15-0.16-0.3-0.31-0.44c-0.16-0.14-0.38-0.26-0.66-0.38
		s-0.67-0.23-1.13-0.33c-0.53-0.11-1-0.24-1.42-0.4s-0.78-0.33-1.08-0.55c-0.3-0.21-0.52-0.47-0.68-0.76s-0.24-0.64-0.24-1.03
		c0-0.38,0.08-0.73,0.25-1.07c0.17-0.34,0.4-0.63,0.71-0.89c0.3-0.25,0.67-0.46,1.11-0.61c0.43-0.15,0.92-0.22,1.45-0.22
		c0.57,0,1.08,0.08,1.53,0.23c0.45,0.16,0.83,0.37,1.14,0.64c0.31,0.27,0.55,0.58,0.72,0.94c0.16,0.36,0.25,0.75,0.25,1.16h-1.63
		c0-0.19-0.04-0.39-0.13-0.58s-0.22-0.37-0.39-0.53s-0.38-0.28-0.62-0.38c-0.25-0.1-0.53-0.14-0.85-0.14
		c-0.34,0-0.63,0.04-0.87,0.12c-0.24,0.08-0.43,0.18-0.58,0.32c-0.15,0.13-0.26,0.28-0.33,0.45c-0.07,0.17-0.11,0.34-0.11,0.51
		s0.03,0.33,0.09,0.47s0.17,0.27,0.33,0.38c0.16,0.12,0.39,0.22,0.67,0.32c0.28,0.1,0.65,0.2,1.1,0.29
		c0.58,0.13,1.08,0.29,1.51,0.46s0.78,0.37,1.06,0.59s0.49,0.48,0.63,0.78c0.14,0.29,0.21,0.63,0.21,1.02c0,0.42-0.09,0.8-0.26,1.14
		c-0.17,0.35-0.42,0.64-0.74,0.89s-0.71,0.44-1.16,0.58c-0.45,0.14-0.95,0.21-1.5,0.21c-0.63,0-1.19-0.09-1.67-0.26
		c-0.48-0.18-0.89-0.41-1.22-0.7c-0.33-0.29-0.58-0.62-0.75-0.99s-0.25-0.75-0.25-1.15h1.63c0.02,0.33,0.1,0.61,0.24,0.84
		c0.14,0.23,0.32,0.41,0.54,0.55s0.45,0.24,0.71,0.3s0.52,0.09,0.77,0.09c0.33,0,0.63-0.04,0.88-0.11s0.46-0.17,0.64-0.29
		s0.3-0.27,0.39-0.44C434.88,462.52,434.93,462.34,434.93,462.15z"/>
	<path class="st3b" d="M445.56,451.87l4.18,10.44l4.18-10.44h2.19v12.8h-1.69v-4.98l0.16-5.38l-4.2,10.36h-1.29l-4.19-10.34
		l0.17,5.35v4.98h-1.69v-12.8H445.56z"/>
	<path class="st3b" d="M464.71,464.67c-0.06-0.12-0.11-0.26-0.14-0.44s-0.06-0.37-0.09-0.56c-0.15,0.16-0.32,0.31-0.51,0.45
		c-0.19,0.14-0.4,0.27-0.63,0.38c-0.23,0.11-0.47,0.19-0.73,0.26c-0.26,0.06-0.54,0.09-0.83,0.09c-0.49,0-0.93-0.07-1.32-0.22
		c-0.4-0.15-0.73-0.35-1.01-0.6s-0.49-0.55-0.65-0.89c-0.15-0.34-0.23-0.71-0.23-1.1c0-0.51,0.1-0.96,0.3-1.35
		c0.2-0.39,0.48-0.72,0.86-0.98s0.82-0.46,1.35-0.6s1.12-0.2,1.77-0.2h1.62v-0.75c0-0.57-0.17-1.02-0.51-1.36
		c-0.34-0.34-0.84-0.5-1.5-0.5c-0.3,0-0.58,0.04-0.83,0.12s-0.47,0.19-0.65,0.33c-0.18,0.14-0.32,0.3-0.42,0.48
		s-0.15,0.37-0.15,0.57h-1.63c0-0.34,0.09-0.68,0.27-1.01c0.18-0.33,0.43-0.63,0.76-0.9c0.33-0.27,0.72-0.48,1.19-0.65
		c0.46-0.17,0.99-0.25,1.56-0.25c0.52,0,0.99,0.07,1.43,0.2c0.44,0.13,0.81,0.33,1.12,0.6c0.31,0.27,0.55,0.6,0.73,1
		s0.26,0.86,0.26,1.4v4.42c0,0.32,0.03,0.66,0.08,1.02c0.05,0.35,0.14,0.66,0.25,0.92v0.14H464.71z M462.02,463.43
		c0.29,0,0.57-0.04,0.83-0.12s0.49-0.19,0.7-0.32c0.21-0.13,0.39-0.28,0.55-0.45c0.15-0.17,0.28-0.35,0.36-0.53v-1.95h-1.35
		c-0.93,0-1.65,0.15-2.15,0.43c-0.5,0.29-0.76,0.73-0.76,1.31c0,0.23,0.04,0.44,0.11,0.64s0.19,0.37,0.35,0.51s0.35,0.26,0.57,0.34
		C461.45,463.39,461.72,463.43,462.02,463.43z"/>
	<path class="st3b" d="M470.17,455.16l0.05,1.2c0.34-0.43,0.75-0.76,1.23-1.01s1.02-0.37,1.62-0.37c0.46,0,0.88,0.06,1.26,0.19
		s0.69,0.33,0.96,0.61c0.26,0.28,0.47,0.64,0.61,1.07c0.14,0.44,0.22,0.97,0.22,1.59v6.23h-1.63v-6.25c0-0.37-0.04-0.68-0.12-0.94
		s-0.2-0.47-0.37-0.64s-0.36-0.28-0.6-0.36c-0.24-0.08-0.51-0.11-0.82-0.11c-0.53,0-0.99,0.14-1.39,0.42s-0.71,0.65-0.93,1.11v6.78
		h-1.63v-9.51H470.17z"/>
	<path class="st3b" d="M484.44,464.67c-0.06-0.12-0.11-0.26-0.14-0.44s-0.06-0.37-0.09-0.56c-0.15,0.16-0.32,0.31-0.51,0.45
		c-0.19,0.14-0.4,0.27-0.63,0.38c-0.23,0.11-0.47,0.19-0.73,0.26c-0.26,0.06-0.54,0.09-0.83,0.09c-0.49,0-0.93-0.07-1.32-0.22
		c-0.4-0.15-0.73-0.35-1.01-0.6s-0.49-0.55-0.65-0.89c-0.15-0.34-0.23-0.71-0.23-1.1c0-0.51,0.1-0.96,0.3-1.35
		c0.2-0.39,0.48-0.72,0.86-0.98s0.82-0.46,1.35-0.6s1.12-0.2,1.77-0.2h1.62v-0.75c0-0.57-0.17-1.02-0.51-1.36
		c-0.34-0.34-0.84-0.5-1.5-0.5c-0.3,0-0.58,0.04-0.83,0.12s-0.47,0.19-0.65,0.33c-0.18,0.14-0.32,0.3-0.42,0.48
		s-0.15,0.37-0.15,0.57h-1.63c0-0.34,0.09-0.68,0.27-1.01c0.18-0.33,0.43-0.63,0.76-0.9c0.33-0.27,0.72-0.48,1.19-0.65
		c0.46-0.17,0.99-0.25,1.56-0.25c0.52,0,0.99,0.07,1.43,0.2c0.44,0.13,0.81,0.33,1.12,0.6c0.31,0.27,0.55,0.6,0.73,1
		s0.26,0.86,0.26,1.4v4.42c0,0.32,0.03,0.66,0.08,1.02c0.05,0.35,0.14,0.66,0.25,0.92v0.14H484.44z M481.74,463.43
		c0.29,0,0.57-0.04,0.83-0.12s0.49-0.19,0.7-0.32c0.21-0.13,0.39-0.28,0.55-0.45c0.15-0.17,0.28-0.35,0.36-0.53v-1.95h-1.35
		c-0.93,0-1.65,0.15-2.15,0.43c-0.5,0.29-0.76,0.73-0.76,1.31c0,0.23,0.04,0.44,0.11,0.64s0.19,0.37,0.35,0.51s0.35,0.26,0.57,0.34
		C481.18,463.39,481.44,463.43,481.74,463.43z"/>
	<path class="st3b" d="M487.97,459.84c0-0.73,0.09-1.39,0.26-1.98c0.17-0.59,0.42-1.1,0.75-1.53c0.33-0.42,0.72-0.75,1.18-0.99
		s0.98-0.35,1.56-0.35c0.6,0,1.13,0.11,1.57,0.32s0.83,0.52,1.14,0.91l0.08-1.05H496v9.31c0,0.63-0.1,1.18-0.29,1.67
		c-0.2,0.49-0.47,0.9-0.83,1.24s-0.78,0.59-1.27,0.77s-1.04,0.26-1.63,0.26c-0.25,0-0.53-0.03-0.85-0.08s-0.64-0.15-0.97-0.27
		c-0.32-0.13-0.64-0.29-0.94-0.51s-0.55-0.47-0.76-0.78l0.84-0.98c0.2,0.25,0.4,0.45,0.62,0.62s0.42,0.3,0.64,0.4
		c0.21,0.1,0.43,0.17,0.65,0.22c0.22,0.04,0.44,0.07,0.65,0.07c0.38,0,0.73-0.05,1.04-0.16s0.58-0.27,0.79-0.49
		c0.22-0.22,0.39-0.48,0.51-0.8s0.18-0.68,0.18-1.09v-0.83c-0.32,0.36-0.69,0.64-1.13,0.83c-0.44,0.19-0.95,0.29-1.53,0.29
		c-0.57,0-1.08-0.12-1.54-0.36c-0.46-0.24-0.85-0.58-1.18-1.01c-0.33-0.43-0.58-0.94-0.75-1.53c-0.18-0.59-0.26-1.23-0.26-1.93
		V459.84z M489.6,460.02c0,0.47,0.05,0.92,0.14,1.34c0.1,0.42,0.25,0.78,0.45,1.09c0.2,0.31,0.46,0.56,0.78,0.74
		s0.69,0.27,1.13,0.27c0.29,0,0.55-0.04,0.78-0.11c0.23-0.07,0.44-0.17,0.62-0.29c0.19-0.12,0.35-0.27,0.49-0.44
		s0.26-0.36,0.37-0.56v-4.34c-0.11-0.19-0.23-0.37-0.37-0.54c-0.14-0.17-0.3-0.31-0.49-0.43c-0.18-0.12-0.39-0.22-0.62-0.29
		c-0.23-0.07-0.48-0.1-0.76-0.1c-0.45,0-0.83,0.09-1.14,0.28c-0.32,0.19-0.58,0.44-0.78,0.75s-0.36,0.68-0.45,1.1
		c-0.1,0.42-0.14,0.87-0.14,1.34V460.02z"/>
	<path class="st3b" d="M502.4,464.85c-0.66,0-1.26-0.11-1.8-0.34c-0.54-0.23-0.99-0.55-1.38-0.95c-0.38-0.41-0.67-0.89-0.88-1.45
		s-0.31-1.18-0.31-1.85v-0.37c0-0.77,0.12-1.46,0.35-2.07s0.54-1.12,0.93-1.54s0.83-0.73,1.33-0.95c0.5-0.22,1.02-0.33,1.56-0.33
		c0.68,0,1.27,0.12,1.76,0.36c0.49,0.24,0.9,0.56,1.22,0.98s0.56,0.91,0.71,1.48s0.23,1.19,0.23,1.85v0.73h-6.44
		c0.01,0.44,0.08,0.85,0.21,1.23c0.13,0.38,0.32,0.71,0.56,0.99s0.54,0.5,0.88,0.67c0.34,0.16,0.73,0.25,1.17,0.25
		c0.57,0,1.06-0.12,1.46-0.35s0.75-0.54,1.05-0.93l0.99,0.77c-0.15,0.23-0.34,0.46-0.55,0.68c-0.22,0.22-0.47,0.42-0.76,0.59
		c-0.29,0.17-0.62,0.31-1,0.41C503.3,464.8,502.88,464.85,502.4,464.85z M502.2,456.32c-0.33,0-0.63,0.06-0.91,0.18
		c-0.28,0.12-0.52,0.29-0.74,0.52s-0.4,0.51-0.54,0.85c-0.14,0.34-0.24,0.73-0.29,1.17h4.76v-0.12c-0.02-0.32-0.07-0.63-0.15-0.94
		s-0.22-0.59-0.39-0.83c-0.18-0.25-0.41-0.45-0.69-0.6S502.62,456.32,502.2,456.32z"/>
	<path class="st3b" d="M512.59,456.62c-0.14-0.02-0.27-0.04-0.39-0.05c-0.12-0.01-0.26-0.01-0.41-0.01c-0.56,0-1.02,0.12-1.38,0.37
		c-0.36,0.25-0.62,0.58-0.8,0.99v6.75h-1.63v-9.51h1.58l0.03,1.1c0.25-0.39,0.55-0.7,0.92-0.93s0.82-0.34,1.34-0.34
		c0.12,0,0.25,0.01,0.4,0.04c0.15,0.03,0.26,0.05,0.32,0.08V456.62z"/>
</g>
</svg>
