<?xml version="1.0" encoding="utf-8"?>
<!-- Generator: Adobe Illustrator 23.0.2, SVG Export Plug-In . SVG Version: 6.00 Build 0)  -->
<svg version="1.1" id="Layer_1" xmlns="http://www.w3.org/2000/svg" xmlns:xlink="http://www.w3.org/1999/xlink" x="0px" y="0px"
	 viewBox="0 0 800 600" style="enable-background:new 0 0 800 600;" xml:space="preserve">
<style type="text/css">
	.st0x{fill:#043754;}
	.st1x{fill:#ffffff}
	.st2x{display:inline;}
	.st3x{fill:#F8F9FA;}
	.st4x{fill:#FFFFFF;}
	.st5x{fill:#F8F9FA;}
	.st6x{fill:#F10901;}
	.st7x{fill:#FFFFFF;}
</style>
<g>
	<defs>
		<rect id="SVGID_1_" x="215" y="51.22" width="370" height="400"/>
	</defs>
	<clipPath id="SVGID_2_">
		<use xlink:href="#SVGID_1_"  style="overflow:visible;"/>
	</clipPath>
	<g style="clip-path:url(#SVGID_2_);">
		
			<image style="overflow:visible;" width="370" height="400" xlink:href="https://tryscrumlive.vervebot.io/wp-content/uploads/2022/07/farook-370x400-1.png" transform="matrix(1 0 0 1 215 51.2241)">
		</image>
	</g>
</g>
<path class="st0x" d="M541.6,547.39H258.4c-3.87,0-7-3.13-7-7V392.01c0-3.87,3.13-7,7-7H541.6c3.87,0,7,3.13,7,7v148.38
	C548.6,544.26,545.46,547.39,541.6,547.39z"/>
<a xlink:href="https://twitter.com/empiricist_umar" target="_blank">
	<g>
		<path class="st1x" d="M333.57,526.14h-24.29c-1.58,0-2.86-1.28-2.86-2.86V499c0-1.58,1.28-2.86,2.86-2.86h24.29
			c1.58,0,2.86,1.28,2.86,2.86v24.29C336.43,524.86,335.15,526.14,333.57,526.14z"/>
		<path class="st2x" d="M327.79,508.55c0,4.33-3.3,9.33-9.33,9.33c-1.86,0-3.58-0.54-5.04-1.47c0.26,0.03,0.52,0.04,0.79,0.04
			c1.53,0,2.94-0.52,4.07-1.4c-1.44-0.03-2.65-0.97-3.07-2.27c0.2,0.03,0.41,0.05,0.62,0.05c0.29,0,0.59-0.04,0.86-0.11
			c-1.5-0.3-2.63-1.62-2.63-3.22v-0.04c0.44,0.24,0.94,0.4,1.48,0.42c-0.88-0.59-1.46-1.59-1.46-2.73c0-0.61,0.16-1.17,0.45-1.66
			c1.61,1.99,4.04,3.29,6.76,3.43c-0.05-0.24-0.08-0.5-0.08-0.75c0-1.81,1.46-3.28,3.28-3.28c0.94,0,1.8,0.4,2.4,1.04
			c0.74-0.14,1.45-0.42,2.08-0.79c-0.24,0.76-0.76,1.4-1.44,1.81c0.66-0.07,1.3-0.25,1.89-0.51c-0.45,0.65-1,1.23-1.64,1.7
			C327.79,508.26,327.79,508.41,327.79,508.55z"/>
	</g>
</a>
<a xlink:href="https://www.linkedin.com/in/empiricist/" target="_blank">
	<g>
		<g>
			<path class="st1x" d="M386.08,526.14h-24.29c-1.58,0-2.86-1.28-2.86-2.86V499c0-1.58,1.28-2.86,2.86-2.86h24.29
				c1.58,0,2.86,1.28,2.86,2.86v24.29C388.94,524.86,387.66,526.14,386.08,526.14z"/>
		</g>
		<g>
			<path class="st2x" d="M366.94,505.06c0-0.93,0.75-1.68,1.68-1.68s1.68,0.75,1.68,1.68s-0.75,1.7-1.68,1.7
				S366.94,505.99,366.94,505.06z M367.17,517.38v-9.35h2.9v9.35H367.17z M378.04,517.38v-4.55c0-1.08-0.02-2.47-1.51-2.47
				c-1.51,0-1.74,1.18-1.74,2.4v4.63h-2.9v-9.35h2.78v1.28h0.04c0.39-0.73,1.33-1.51,2.75-1.51c2.94,0,3.48,1.93,3.48,4.45v5.13h0
				H378.04z"/>
		</g>
	</g>
</a>
<a xlink:href="https://tryscrum-community.slack.com/" target="_blank">
	<g>
		<path class="st1x" d="M438.59,526.14H414.3c-1.58,0-2.86-1.28-2.86-2.86V499c0-1.58,1.28-2.86,2.86-2.86h24.29
			c1.58,0,2.86,1.28,2.86,2.86v24.29C441.45,524.86,440.17,526.14,438.59,526.14z"/>
		<path class="st2x" d="M426.07,509.53c0,0.81-0.66,1.47-1.47,1.47h-3.68c-0.81,0-1.47-0.66-1.47-1.47s0.66-1.47,1.47-1.47h3.68
			C425.41,508.06,426.07,508.72,426.07,509.53z M420.92,514.7c-0.81,0-1.47-0.66-1.47-1.47c0-0.81,0.66-1.47,1.47-1.47h1.47v1.47
			C422.39,514.04,421.73,514.7,420.92,514.7z M423.13,505.85c0-0.81,0.66-1.47,1.47-1.47s1.47,0.66,1.47,1.47v1.47h-1.47
			C423.79,507.32,423.13,506.66,423.13,505.85z M424.6,511.76c0.81,0,1.47,0.66,1.47,1.47v3.68c0,0.81-0.66,1.47-1.47,1.47
			s-1.47-0.66-1.47-1.47v-3.68C423.13,512.42,423.79,511.76,424.6,511.76z M428.29,511.01c-0.81,0-1.47-0.66-1.47-1.47v-3.68
			c0-0.81,0.66-1.47,1.47-1.47c0.81,0,1.47,0.66,1.47,1.47v3.68C429.76,510.34,429.1,511.01,428.29,511.01z M426.82,513.23
			c0-0.81,0.66-1.47,1.47-1.47h3.68c0.81,0,1.47,0.66,1.47,1.47c0,0.81-0.66,1.47-1.47,1.47h-3.68
			C427.48,514.7,426.82,514.04,426.82,513.23z M429.76,516.91c0,0.81-0.66,1.47-1.47,1.47c-0.81,0-1.47-0.66-1.47-1.47v-1.47h1.47
			C429.1,515.44,429.76,516.1,429.76,516.91z M431.97,508.06c0.81,0,1.47,0.66,1.47,1.47s-0.66,1.47-1.47,1.47h-1.47v-1.47
			C430.5,508.72,431.17,508.06,431.97,508.06z"/>
	</g>
</a>
<a xlink:href="https://www.meetup.com/smstudiochn/" target="_blank">
	<g>
		<g>
			<path class="st1x" d="M491.1,526.14h-24.29c-1.58,0-2.86-1.28-2.86-2.86V499c0-1.58,1.28-2.86,2.86-2.86h24.29
				c1.58,0,2.86,1.28,2.86,2.86v24.29C493.95,524.86,492.68,526.14,491.1,526.14z"/>
		</g>
			<g>
				<path class="st2x" d="M471.96,511.43c-0.22,0.32-0.64,0.4-0.96,0.18c-0.31-0.22-0.39-0.65-0.18-0.97
					c0.22-0.32,0.64-0.4,0.96-0.19C472.1,510.67,472.18,511.1,471.96,511.43z M483.66,516.11c-0.54,0.38-1.16,0.55-1.78,0.53
					c-0.38,1.47-2.17,2.02-3.28,1.02c-0.04,0.03-0.08,0.05-0.12,0.09c-1.22,0.85-2.88,0.54-3.73-0.7c-0.3-0.45-0.46-0.96-0.47-1.47
					c-2.04-0.34-2.81-2.94-1.28-4.37c-0.88-1.47,0.02-3.36,1.67-3.59c0.78-2.07,3.36-3.05,5.11-1.69c2.11-0.7,4.26,0.92,4.09,3.16
					c1.28,0.39,1.65,2.09,0.62,2.97C485.31,513.42,484.96,515.2,483.66,516.11z M473.56,516.71c-0.17,0.03-0.34-0.07-0.38-0.25
					c-0.03-0.17,0.07-0.35,0.24-0.38c0.17-0.04,0.35,0.07,0.38,0.25C473.84,516.51,473.73,516.67,473.56,516.71z M473.59,506.79
					c-0.16-0.24-0.11-0.57,0.13-0.74c0.23-0.16,0.56-0.11,0.72,0.13c0.16,0.24,0.11,0.57-0.13,0.74
					C474.08,507.09,473.75,507.03,473.59,506.79z M480.95,513.55c-0.1-1,1.37-3.16,1.25-4c-0.11-0.75-0.61-0.91-1.04-0.92
					c-0.42-0.01-0.53,0.06-0.67,0.14c-0.09,0.05-0.21,0.15-0.37-0.01c-0.2-0.19-0.35-0.37-0.61-0.4c-0.38-0.06-0.55,0.06-0.83,0.3
					c-0.11,0.09-0.38,0.4-0.63,0.28c-0.11-0.05-0.48-0.24-0.75-0.36c-0.51-0.22-1.25,0.14-1.52,0.63c-0.4,0.71-1.19,3.53-1.3,3.91
					c-0.27,0.83,0.34,1.52,1.15,1.47c0.35-0.02,0.57-0.14,0.79-0.54c0.13-0.23,1.3-3.37,1.39-3.52c0.06-0.11,0.28-0.25,0.46-0.16
					c0.18,0.1,0.22,0.29,0.19,0.47c-0.03,0.3-0.88,2.22-0.9,2.43c-0.11,0.72,0.84,0.83,1.21,0.13c0.12-0.22,1.43-2.89,1.54-3.07
					c0.13-0.2,0.23-0.26,0.37-0.25c0.1,0,0.26,0.03,0.22,0.34c-0.04,0.29-1.1,2.26-1.22,2.74c-0.14,0.64,0.21,1.29,0.78,1.58
					c0.36,0.18,1.95,0.49,1.83-0.35C482.2,513.76,481.02,514.26,480.95,513.55z M475.16,503.83c-0.04-0.2,0.09-0.39,0.28-0.44
					c0.2-0.05,0.39,0.08,0.43,0.29c0.04,0.2-0.08,0.39-0.28,0.44C475.39,504.16,475.2,504.03,475.16,503.83z M478.89,518.67
					c0.14,0.21,0.09,0.48-0.11,0.63c-0.21,0.14-0.48,0.09-0.63-0.12c-0.13-0.21-0.08-0.48,0.12-0.63
					C478.48,518.42,478.76,518.47,478.89,518.67z M479.36,504.88c-0.2-0.33-0.09-0.76,0.23-0.96c0.32-0.2,0.74-0.09,0.94,0.24
					c0.19,0.32,0.09,0.75-0.24,0.95C479.96,505.31,479.55,505.2,479.36,504.88z M483.48,517.47c0.22,0.33,0.14,0.79-0.19,1.02
					c-0.33,0.22-0.78,0.14-1-0.19c-0.22-0.33-0.14-0.79,0.18-1.02C482.81,517.05,483.25,517.14,483.48,517.47z M485.48,507.87
					c0.18,0.27,0.12,0.63-0.14,0.82c-0.27,0.18-0.63,0.12-0.81-0.15s-0.12-0.63,0.15-0.82C484.94,507.53,485.31,507.6,485.48,507.87
					z M486.46,512.14c0.05,0.24-0.1,0.48-0.33,0.52c-0.23,0.05-0.46-0.1-0.51-0.33c-0.05-0.24,0.1-0.47,0.33-0.53
					C486.18,511.76,486.41,511.91,486.46,512.14z M486.95,510.42c-0.18,0.03-0.35-0.08-0.38-0.25c-0.03-0.18,0.07-0.36,0.25-0.39
					c0.17-0.03,0.34,0.07,0.38,0.25C487.23,510.2,487.12,510.37,486.95,510.42z"/>
			</g>
	</g>
</a>
<g>
	<path class="st4x" d="M279.56,418.06l4.51,11.99l4.5-11.99h3.51v15.64h-2.71v-5.16l0.27-6.9l-4.62,12.05h-1.94l-4.61-12.04
		l0.27,6.89v5.16h-2.71v-15.64H279.56z"/>
	<path class="st4x" d="M294.56,427.78c0-1.14,0.23-2.17,0.68-3.08s1.08-1.61,1.9-2.11c0.82-0.49,1.75-0.74,2.81-0.74
		c1.57,0,2.84,0.5,3.82,1.51s1.51,2.35,1.58,4.02l0.01,0.61c0,1.15-0.22,2.17-0.66,3.07s-1.07,1.6-1.89,2.09
		c-0.82,0.49-1.77,0.74-2.84,0.74c-1.64,0-2.95-0.55-3.94-1.64c-0.98-1.09-1.48-2.55-1.48-4.37V427.78z M297.17,428.01
		c0,1.2,0.25,2.13,0.74,2.81s1.18,1.02,2.06,1.02s1.57-0.34,2.06-1.03c0.49-0.69,0.74-1.69,0.74-3.02c0-1.17-0.25-2.11-0.76-2.79
		s-1.19-1.03-2.06-1.03c-0.85,0-1.53,0.34-2.03,1.01C297.42,425.65,297.17,426.66,297.17,428.01z"/>
	<path class="st4x" d="M310.15,423.35c0.85-0.99,1.93-1.48,3.23-1.48c2.48,0,3.73,1.41,3.77,4.24v7.59h-2.61v-7.5
		c0-0.8-0.17-1.37-0.52-1.7c-0.35-0.33-0.86-0.5-1.53-0.5c-1.05,0-1.83,0.47-2.34,1.4v8.3h-2.61v-16.5h2.61V423.35z"/>
	<path class="st4x" d="M326.73,433.7c-0.11-0.22-0.21-0.58-0.3-1.08c-0.83,0.87-1.85,1.3-3.05,1.3c-1.17,0-2.12-0.33-2.86-1
		c-0.74-0.67-1.11-1.49-1.11-2.47c0-1.24,0.46-2.19,1.38-2.85c0.92-0.66,2.24-0.99,3.95-0.99h1.6v-0.76c0-0.6-0.17-1.08-0.5-1.45
		c-0.34-0.36-0.85-0.54-1.54-0.54c-0.59,0-1.08,0.15-1.46,0.45c-0.38,0.3-0.57,0.68-0.57,1.13h-2.61c0-0.64,0.21-1.23,0.63-1.79
		c0.42-0.55,1-0.99,1.72-1.3c0.73-0.32,1.54-0.47,2.43-0.47c1.36,0,2.45,0.34,3.25,1.03c0.81,0.68,1.22,1.65,1.25,2.88v5.24
		c0,1.05,0.15,1.88,0.44,2.5v0.18H326.73z M323.86,431.82c0.52,0,1-0.13,1.46-0.38c0.45-0.25,0.8-0.59,1.03-1.01v-2.19h-1.41
		c-0.97,0-1.69,0.17-2.18,0.5c-0.49,0.34-0.73,0.81-0.73,1.43c0,0.5,0.17,0.9,0.5,1.2C322.86,431.67,323.31,431.82,323.86,431.82z"
		/>
	<path class="st4x" d="M334.15,422.08l0.08,1.21c0.82-0.95,1.93-1.43,3.35-1.43c1.55,0,2.62,0.59,3.19,1.78
		c0.84-1.19,2.03-1.78,3.57-1.78c1.28,0,2.24,0.35,2.86,1.06c0.63,0.71,0.95,1.75,0.96,3.14v7.64h-2.61v-7.56
		c0-0.74-0.16-1.28-0.48-1.62s-0.86-0.52-1.6-0.52c-0.59,0-1.08,0.16-1.46,0.48c-0.38,0.32-0.64,0.74-0.79,1.25l0.01,7.97h-2.61
		v-7.65c-0.04-1.37-0.73-2.05-2.09-2.05c-1.05,0-1.79,0.43-2.22,1.28v8.42h-2.61v-11.62H334.15z"/>
	<path class="st4x" d="M353.29,422.08l0.08,1.21c0.82-0.95,1.93-1.43,3.35-1.43c1.55,0,2.62,0.59,3.19,1.78
		c0.84-1.19,2.03-1.78,3.57-1.78c1.28,0,2.24,0.35,2.86,1.06c0.63,0.71,0.95,1.75,0.96,3.14v7.64h-2.61v-7.56
		c0-0.74-0.16-1.28-0.48-1.62s-0.86-0.52-1.6-0.52c-0.59,0-1.08,0.16-1.46,0.48c-0.38,0.32-0.64,0.74-0.79,1.25l0.01,7.97h-2.61
		v-7.65c-0.04-1.37-0.73-2.05-2.09-2.05c-1.05,0-1.79,0.43-2.22,1.28v8.42h-2.61v-11.62H353.29z"/>
	<path class="st4x" d="M376.92,433.7c-0.11-0.22-0.21-0.58-0.3-1.08c-0.83,0.87-1.85,1.3-3.05,1.3c-1.17,0-2.12-0.33-2.86-1
		c-0.74-0.67-1.11-1.49-1.11-2.47c0-1.24,0.46-2.19,1.38-2.85c0.92-0.66,2.24-0.99,3.95-0.99h1.6v-0.76c0-0.6-0.17-1.08-0.5-1.45
		c-0.34-0.36-0.85-0.54-1.54-0.54c-0.59,0-1.08,0.15-1.46,0.45c-0.38,0.3-0.57,0.68-0.57,1.13h-2.61c0-0.64,0.21-1.23,0.63-1.79
		c0.42-0.55,1-0.99,1.72-1.3c0.73-0.32,1.54-0.47,2.43-0.47c1.36,0,2.45,0.34,3.25,1.03c0.81,0.68,1.22,1.65,1.25,2.88v5.24
		c0,1.05,0.15,1.88,0.44,2.5v0.18H376.92z M374.05,431.82c0.52,0,1-0.13,1.46-0.38c0.45-0.25,0.8-0.59,1.03-1.01v-2.19h-1.41
		c-0.97,0-1.69,0.17-2.18,0.5c-0.49,0.34-0.73,0.81-0.73,1.43c0,0.5,0.17,0.9,0.5,1.2C373.05,431.67,373.49,431.82,374.05,431.82z"
		/>
	<path class="st4x" d="M381.39,427.8c0-1.79,0.42-3.23,1.25-4.31c0.83-1.08,1.94-1.63,3.34-1.63c1.23,0,2.23,0.43,2.99,1.29v-5.95
		h2.61v16.5h-2.36l-0.13-1.2c-0.78,0.95-1.82,1.42-3.13,1.42c-1.36,0-2.46-0.55-3.3-1.64C381.81,431.18,381.39,429.69,381.39,427.8z
		 M384,428.03c0,1.18,0.23,2.1,0.68,2.77c0.45,0.66,1.1,0.99,1.94,0.99c1.07,0,1.85-0.48,2.34-1.43v-4.96
		c-0.48-0.93-1.25-1.4-2.32-1.4c-0.85,0-1.5,0.33-1.96,1C384.23,425.68,384,426.68,384,428.03z"/>
	<path class="st4x" d="M411.47,418.06v10.45c0,1.66-0.53,2.98-1.6,3.95c-1.06,0.97-2.48,1.46-4.25,1.46c-1.79,0-3.21-0.48-4.26-1.43
		c-1.05-0.96-1.58-2.28-1.58-3.98v-10.44h2.71v10.46c0,1.05,0.26,1.84,0.79,2.4c0.53,0.55,1.31,0.83,2.34,0.83
		c2.09,0,3.14-1.1,3.14-3.31v-10.38H411.47z"/>
	<path class="st4x" d="M416.57,422.08l0.08,1.21c0.82-0.95,1.93-1.43,3.35-1.43c1.55,0,2.62,0.59,3.19,1.78
		c0.84-1.19,2.03-1.78,3.57-1.78c1.28,0,2.24,0.35,2.86,1.06s0.95,1.75,0.96,3.14v7.64h-2.61v-7.56c0-0.74-0.16-1.28-0.48-1.62
		s-0.86-0.52-1.6-0.52c-0.59,0-1.08,0.16-1.46,0.48c-0.38,0.32-0.64,0.74-0.79,1.25l0.01,7.97h-2.61v-7.65
		c-0.04-1.37-0.73-2.05-2.09-2.05c-1.05,0-1.79,0.43-2.22,1.28v8.42h-2.61v-11.62H416.57z"/>
	<path class="st4x" d="M440.2,433.7c-0.12-0.22-0.21-0.58-0.3-1.08c-0.83,0.87-1.85,1.3-3.05,1.3c-1.17,0-2.12-0.33-2.86-1
		c-0.74-0.67-1.11-1.49-1.11-2.47c0-1.24,0.46-2.19,1.38-2.85c0.92-0.66,2.24-0.99,3.95-0.99h1.6v-0.76c0-0.6-0.17-1.08-0.5-1.45
		c-0.34-0.36-0.85-0.54-1.54-0.54c-0.59,0-1.08,0.15-1.46,0.45c-0.38,0.3-0.57,0.68-0.57,1.13h-2.61c0-0.64,0.21-1.23,0.63-1.79
		c0.42-0.55,1-0.99,1.72-1.3s1.54-0.47,2.43-0.47c1.36,0,2.45,0.34,3.25,1.03c0.81,0.68,1.22,1.65,1.25,2.88v5.24
		c0,1.05,0.15,1.88,0.44,2.5v0.18H440.2z M437.33,431.82c0.52,0,1-0.13,1.46-0.38s0.8-0.59,1.03-1.01v-2.19h-1.41
		c-0.97,0-1.69,0.17-2.18,0.5c-0.49,0.34-0.73,0.81-0.73,1.43c0,0.5,0.17,0.9,0.5,1.2C436.33,431.67,436.78,431.82,437.33,431.82z"
		/>
	<path class="st4x" d="M451.25,424.46c-0.34-0.06-0.7-0.09-1.06-0.09c-1.2,0-2,0.46-2.42,1.38v7.95h-2.61v-11.62h2.49l0.06,1.3
		c0.63-1.01,1.5-1.51,2.62-1.51c0.37,0,0.68,0.05,0.92,0.15L451.25,424.46z"/>
	<path class="st4x" d="M467.64,427.07h-6.29v6.63h-2.72v-15.64h9.94v2.19h-7.22v4.65h6.29V427.07z"/>
	<path class="st4x" d="M477.04,433.7c-0.12-0.22-0.21-0.58-0.3-1.08c-0.83,0.87-1.85,1.3-3.05,1.3c-1.17,0-2.12-0.33-2.86-1
		c-0.74-0.67-1.11-1.49-1.11-2.47c0-1.24,0.46-2.19,1.38-2.85c0.92-0.66,2.24-0.99,3.95-0.99h1.6v-0.76c0-0.6-0.17-1.08-0.5-1.45
		c-0.34-0.36-0.85-0.54-1.54-0.54c-0.59,0-1.08,0.15-1.46,0.45c-0.38,0.3-0.57,0.68-0.57,1.13h-2.61c0-0.64,0.21-1.23,0.63-1.79
		c0.42-0.55,1-0.99,1.72-1.3s1.54-0.47,2.43-0.47c1.36,0,2.45,0.34,3.25,1.03c0.81,0.68,1.22,1.65,1.25,2.88v5.24
		c0,1.05,0.15,1.88,0.44,2.5v0.18H477.04z M474.17,431.82c0.52,0,1-0.13,1.46-0.38s0.8-0.59,1.03-1.01v-2.19h-1.41
		c-0.97,0-1.69,0.17-2.18,0.5c-0.49,0.34-0.73,0.81-0.73,1.43c0,0.5,0.17,0.9,0.5,1.2C473.17,431.67,473.61,431.82,474.17,431.82z"
		/>
	<path class="st4x" d="M488.08,424.46c-0.34-0.06-0.7-0.09-1.06-0.09c-1.2,0-2,0.46-2.42,1.38v7.95h-2.61v-11.62h2.49l0.06,1.3
		c0.63-1.01,1.5-1.51,2.62-1.51c0.37,0,0.68,0.05,0.92,0.15L488.08,424.46z"/>
	<path class="st4x" d="M488.85,427.78c0-1.14,0.23-2.17,0.68-3.08s1.08-1.61,1.9-2.11c0.82-0.49,1.75-0.74,2.81-0.74
		c1.57,0,2.84,0.5,3.82,1.51s1.51,2.35,1.58,4.02l0.01,0.61c0,1.15-0.22,2.17-0.66,3.07s-1.07,1.6-1.89,2.09s-1.77,0.74-2.84,0.74
		c-1.64,0-2.95-0.55-3.94-1.64c-0.98-1.09-1.48-2.55-1.48-4.37V427.78z M491.46,428.01c0,1.2,0.25,2.13,0.74,2.81
		s1.18,1.02,2.06,1.02s1.57-0.34,2.06-1.03s0.74-1.69,0.74-3.02c0-1.17-0.25-2.11-0.76-2.79s-1.19-1.03-2.06-1.03
		c-0.85,0-1.53,0.34-2.03,1.01C491.71,425.65,491.46,426.66,491.46,428.01z"/>
	<path class="st4x" d="M501.38,427.78c0-1.14,0.23-2.17,0.68-3.08s1.08-1.61,1.9-2.11c0.82-0.49,1.75-0.74,2.81-0.74
		c1.57,0,2.84,0.5,3.82,1.51s1.51,2.35,1.58,4.02l0.01,0.61c0,1.15-0.22,2.17-0.66,3.07s-1.07,1.6-1.89,2.09s-1.77,0.74-2.84,0.74
		c-1.64,0-2.95-0.55-3.94-1.64c-0.98-1.09-1.48-2.55-1.48-4.37V427.78z M503.99,428.01c0,1.2,0.25,2.13,0.74,2.81
		s1.18,1.02,2.06,1.02s1.57-0.34,2.06-1.03s0.74-1.69,0.74-3.02c0-1.17-0.25-2.11-0.76-2.79s-1.19-1.03-2.06-1.03
		c-0.85,0-1.53,0.34-2.03,1.01C504.24,425.65,503.99,426.66,503.99,428.01z"/>
	<path class="st4x" d="M513.91,427.79c0-1.82,0.42-3.26,1.25-4.33c0.83-1.07,1.96-1.6,3.37-1.6c1.3,0,2.32,0.46,3.08,1.36l0.15-1.15
		h2.32v16.09h-2.61v-5.46c-0.76,0.8-1.75,1.2-2.96,1.2c-1.39,0-2.5-0.54-3.34-1.63S513.91,429.71,513.91,427.79z M516.52,428.02
		c0,1.19,0.23,2.12,0.7,2.8s1.12,1.02,1.95,1.02c1.03,0,1.8-0.44,2.3-1.32v-5.29c-0.5-0.84-1.26-1.27-2.28-1.27
		c-0.83,0-1.48,0.33-1.96,1S516.52,426.64,516.52,428.02z"/>
</g>
<g>
	<path class="st4x" d="M284.13,460.39c-0.16,1.35-0.66,2.4-1.5,3.13s-1.96,1.1-3.35,1.1c-1.51,0-2.72-0.54-3.63-1.63
		s-1.37-2.53-1.37-4.35v-1.23c0-1.19,0.21-2.24,0.64-3.14s1.03-1.59,1.81-2.08s1.68-0.73,2.71-0.73c1.36,0,2.45,0.38,3.27,1.14
		s1.3,1.81,1.43,3.15h-1.7c-0.15-1.02-0.46-1.76-0.95-2.22c-0.49-0.46-1.17-0.69-2.05-0.69c-1.08,0-1.92,0.4-2.54,1.2
		c-0.61,0.8-0.92,1.93-0.92,3.4v1.24c0,1.39,0.29,2.5,0.87,3.32c0.58,0.82,1.39,1.23,2.43,1.23c0.94,0,1.66-0.21,2.16-0.64
		s0.83-1.17,1-2.22H284.13z"/>
	<path class="st4x" d="M285.75,459.6c0-0.93,0.18-1.77,0.55-2.51s0.88-1.32,1.53-1.72s1.4-0.61,2.24-0.61c1.29,0,2.34,0.45,3.14,1.34
		s1.2,2.09,1.2,3.58v0.11c0,0.93-0.18,1.76-0.53,2.49s-0.86,1.31-1.52,1.72s-1.42,0.62-2.27,0.62c-1.29,0-2.33-0.45-3.13-1.34
		s-1.2-2.08-1.2-3.56V459.6z M287.39,459.8c0,1.05,0.24,1.9,0.73,2.54s1.14,0.96,1.96,0.96c0.83,0,1.48-0.32,1.97-0.97
		s0.73-1.55,0.73-2.72c0-1.04-0.25-1.89-0.74-2.54s-1.15-0.97-1.97-0.97c-0.8,0-1.45,0.32-1.94,0.96S287.39,458.61,287.39,459.8z"/>
	<path class="st4x" d="M297.98,454.94l0.04,1.05c0.7-0.82,1.64-1.23,2.82-1.23c1.33,0,2.24,0.51,2.72,1.53
		c0.32-0.46,0.73-0.83,1.23-1.11s1.11-0.42,1.8-0.42c2.09,0,3.15,1.1,3.18,3.31v6.37h-1.63v-6.28c0-0.68-0.16-1.19-0.47-1.52
		s-0.83-0.51-1.56-0.51c-0.6,0-1.1,0.18-1.5,0.54s-0.63,0.84-0.69,1.45v6.31h-1.63v-6.23c0-1.38-0.68-2.07-2.03-2.07
		c-1.07,0-1.8,0.45-2.19,1.36v6.94h-1.63v-9.51H297.98z"/>
	<path class="st4x" d="M313.75,454.94l0.04,1.05c0.7-0.82,1.64-1.23,2.82-1.23c1.33,0,2.24,0.51,2.72,1.53
		c0.32-0.46,0.73-0.83,1.23-1.11s1.11-0.42,1.8-0.42c2.09,0,3.15,1.1,3.18,3.31v6.37h-1.63v-6.28c0-0.68-0.16-1.19-0.47-1.52
		s-0.83-0.51-1.56-0.51c-0.6,0-1.1,0.18-1.5,0.54s-0.63,0.84-0.69,1.45v6.31h-1.63v-6.23c0-1.38-0.68-2.07-2.03-2.07
		c-1.07,0-1.8,0.45-2.19,1.36v6.94h-1.63v-9.51H313.75z"/>
	<path class="st4x" d="M333.87,463.51c-0.63,0.74-1.56,1.12-2.79,1.12c-1.01,0-1.79-0.29-2.32-0.88s-0.8-1.46-0.8-2.62v-6.19h1.63
		v6.14c0,1.44,0.59,2.16,1.76,2.16c1.24,0,2.07-0.46,2.48-1.39v-6.92h1.63v9.51h-1.55L333.87,463.51z"/>
	<path class="st4x" d="M339.46,454.94l0.05,1.2c0.73-0.91,1.68-1.37,2.85-1.37c2.01,0,3.02,1.13,3.04,3.4v6.28h-1.63v-6.29
		c-0.01-0.69-0.16-1.19-0.47-1.52s-0.79-0.49-1.44-0.49c-0.53,0-0.99,0.14-1.39,0.42s-0.71,0.65-0.93,1.11v6.78h-1.63v-9.51H339.46z
		"/>
	<path class="st4x" d="M347.86,452.41c0-0.26,0.08-0.49,0.24-0.67s0.4-0.27,0.72-0.27s0.56,0.09,0.72,0.27s0.25,0.4,0.25,0.67
		s-0.08,0.48-0.25,0.66s-0.4,0.26-0.72,0.26s-0.56-0.09-0.72-0.26S347.86,452.68,347.86,452.41z M349.62,464.45H348v-9.51h1.63
		V464.45z"/>
	<path class="st4x" d="M354.43,452.63v2.3h1.78v1.26h-1.78v5.91c0,0.38,0.08,0.67,0.24,0.86c0.16,0.19,0.43,0.29,0.81,0.29
		c0.19,0,0.45-0.04,0.77-0.11v1.31c-0.43,0.12-0.84,0.17-1.25,0.17c-0.73,0-1.27-0.22-1.64-0.66s-0.55-1.06-0.55-1.87v-5.9h-1.73
		v-1.26h1.73v-2.3H354.43z"/>
	<path class="st4x" d="M361.21,462.06l2.21-7.13h1.74l-3.82,10.98c-0.59,1.58-1.53,2.37-2.82,2.37l-0.31-0.03l-0.61-0.11v-1.32
		l0.44,0.04c0.55,0,0.98-0.11,1.29-0.33s0.56-0.63,0.76-1.22l0.36-0.97l-3.39-9.4h1.78L361.21,462.06z"/>
	<path class="st4x" d="M381.17,458.46c0,1.25-0.21,2.35-0.63,3.28s-1.02,1.65-1.79,2.14s-1.68,0.74-2.71,0.74
		c-1.01,0-1.9-0.25-2.68-0.74s-1.38-1.2-1.81-2.12s-0.65-1.98-0.66-3.19v-0.92c0-1.23,0.21-2.32,0.64-3.26s1.03-1.67,1.81-2.17
		s1.68-0.75,2.69-0.75c1.03,0,1.93,0.25,2.71,0.74s1.38,1.21,1.81,2.15s0.63,2.03,0.63,3.28V458.46z M379.5,457.63
		c0-1.52-0.3-2.68-0.91-3.49s-1.46-1.22-2.56-1.22c-1.07,0-1.91,0.41-2.52,1.22s-0.93,1.94-0.94,3.38v0.94
		c0,1.47,0.31,2.63,0.93,3.47s1.47,1.26,2.55,1.26c1.09,0,1.93-0.4,2.53-1.19s0.91-1.93,0.92-3.42V457.63z"/>
	<path class="st4x" d="M389.32,463.51c-0.63,0.74-1.56,1.12-2.79,1.12c-1.01,0-1.79-0.29-2.32-0.88s-0.8-1.46-0.8-2.62v-6.19h1.63
		v6.14c0,1.44,0.59,2.16,1.76,2.16c1.24,0,2.07-0.46,2.48-1.39v-6.92h1.63v9.51h-1.55L389.32,463.51z"/>
	<path class="st4x" d="M395.58,452.63v2.3h1.78v1.26h-1.78v5.91c0,0.38,0.08,0.67,0.24,0.86c0.16,0.19,0.43,0.29,0.81,0.29
		c0.19,0,0.45-0.04,0.77-0.11v1.31c-0.43,0.12-0.84,0.17-1.25,0.17c-0.73,0-1.27-0.22-1.64-0.66s-0.55-1.06-0.55-1.87v-5.9h-1.73
		v-1.26h1.73v-2.3H395.58z"/>
	<path class="st4x" d="M403.85,456.4c-0.25-0.04-0.51-0.06-0.8-0.06c-1.07,0-1.79,0.45-2.17,1.36v6.75h-1.63v-9.51h1.58l0.03,1.1
		c0.53-0.85,1.29-1.27,2.27-1.27c0.32,0,0.56,0.04,0.72,0.12V456.4z"/>
	<path class="st4x" d="M409.12,464.62c-1.29,0-2.34-0.42-3.15-1.27s-1.21-1.98-1.21-3.4v-0.3c0-0.94,0.18-1.79,0.54-2.53
		s0.86-1.32,1.51-1.74s1.35-0.63,2.11-0.63c1.24,0,2.2,0.41,2.88,1.22s1.03,1.98,1.03,3.5v0.68h-6.44c0.02,0.94,0.3,1.7,0.82,2.27
		s1.19,0.87,2,0.87c0.57,0,1.06-0.12,1.46-0.35s0.75-0.54,1.05-0.93l0.99,0.77C411.91,464.01,410.72,464.62,409.12,464.62z
		 M408.92,456.1c-0.66,0-1.21,0.24-1.65,0.72s-0.72,1.15-0.83,2.01h4.76v-0.12c-0.05-0.83-0.27-1.47-0.67-1.92
		S409.6,456.1,408.92,456.1z"/>
	<path class="st4x" d="M420.58,464.45c-0.09-0.19-0.17-0.52-0.23-1c-0.76,0.79-1.66,1.18-2.71,1.18c-0.94,0-1.71-0.26-2.31-0.79
		s-0.9-1.2-0.9-2.02c0-0.99,0.38-1.76,1.13-2.31s1.81-0.82,3.18-0.82h1.58v-0.75c0-0.57-0.17-1.02-0.51-1.36s-0.84-0.51-1.5-0.51
		c-0.58,0-1.07,0.15-1.46,0.44s-0.59,0.65-0.59,1.06h-1.63c0-0.47,0.17-0.93,0.5-1.38s0.79-0.79,1.37-1.05s1.21-0.39,1.9-0.39
		c1.1,0,1.95,0.27,2.58,0.82s0.94,1.3,0.97,2.26v4.38c0,0.87,0.11,1.57,0.33,2.08v0.14H420.58z M417.89,463.21
		c0.51,0,0.99-0.13,1.45-0.4s0.79-0.61,0.99-1.03v-1.95h-1.27c-1.99,0-2.99,0.58-2.99,1.75c0,0.51,0.17,0.91,0.51,1.2
		S417.35,463.21,417.89,463.21z"/>
	<path class="st4x" d="M428.32,463.3c0.58,0,1.09-0.18,1.52-0.53s0.67-0.79,0.72-1.32h1.54c-0.03,0.54-0.22,1.06-0.56,1.56
		s-0.81,0.88-1.38,1.18s-1.19,0.44-1.83,0.44c-1.29,0-2.33-0.43-3.09-1.3s-1.15-2.05-1.15-3.55v-0.27c0-0.93,0.17-1.75,0.51-2.47
		s0.83-1.28,1.46-1.68s1.39-0.6,2.25-0.6c1.07,0,1.95,0.32,2.66,0.96s1.08,1.47,1.13,2.49h-1.54c-0.05-0.62-0.28-1.12-0.7-1.52
		s-0.94-0.59-1.55-0.59c-0.83,0-1.47,0.3-1.92,0.89s-0.68,1.45-0.68,2.58v0.31c0,1.1,0.23,1.94,0.68,2.53S427.48,463.3,428.32,463.3
		z"/>
	<path class="st4x" d="M435.55,456.09c0.72-0.88,1.66-1.33,2.81-1.33c2.01,0,3.02,1.13,3.04,3.4v6.28h-1.63v-6.29
		c-0.01-0.69-0.16-1.19-0.47-1.52s-0.79-0.49-1.44-0.49c-0.53,0-0.99,0.14-1.39,0.42s-0.71,0.65-0.93,1.11v6.78h-1.63v-13.5h1.63
		V456.09z"/>
	<path class="st4x" d="M455.61,458.8h-5.37v5.65h-1.69v-12.8h7.93v1.38h-6.24v4.39h5.37V458.8z"/>
	<path class="st4x" d="M463.82,464.45c-0.09-0.19-0.17-0.52-0.23-1c-0.76,0.79-1.66,1.18-2.71,1.18c-0.94,0-1.71-0.26-2.31-0.79
		s-0.9-1.2-0.9-2.02c0-0.99,0.38-1.76,1.13-2.31s1.81-0.82,3.18-0.82h1.58v-0.75c0-0.57-0.17-1.02-0.51-1.36s-0.84-0.51-1.5-0.51
		c-0.58,0-1.07,0.15-1.46,0.44s-0.59,0.65-0.59,1.06h-1.63c0-0.47,0.17-0.93,0.5-1.38s0.79-0.79,1.37-1.05s1.21-0.39,1.9-0.39
		c1.1,0,1.95,0.27,2.58,0.82s0.94,1.3,0.97,2.26v4.38c0,0.87,0.11,1.57,0.33,2.08v0.14H463.82z M461.12,463.21
		c0.51,0,0.99-0.13,1.45-0.4s0.79-0.61,0.99-1.03v-1.95h-1.27c-1.99,0-2.99,0.58-2.99,1.75c0,0.51,0.17,0.91,0.51,1.2
		S460.59,463.21,461.12,463.21z"/>
	<path class="st4x" d="M471.55,463.3c0.58,0,1.09-0.18,1.52-0.53s0.67-0.79,0.72-1.32h1.54c-0.03,0.54-0.22,1.06-0.56,1.56
		s-0.81,0.88-1.38,1.18s-1.19,0.44-1.83,0.44c-1.29,0-2.33-0.43-3.09-1.3s-1.15-2.05-1.15-3.55v-0.27c0-0.93,0.17-1.75,0.51-2.47
		s0.83-1.28,1.46-1.68s1.39-0.6,2.25-0.6c1.07,0,1.95,0.32,2.66,0.96s1.08,1.47,1.13,2.49h-1.54c-0.05-0.62-0.28-1.12-0.7-1.52
		s-0.94-0.59-1.55-0.59c-0.83,0-1.47,0.3-1.92,0.89s-0.68,1.45-0.68,2.58v0.31c0,1.1,0.23,1.94,0.68,2.53S470.71,463.3,471.55,463.3
		z"/>
	<path class="st4x" d="M477.17,452.41c0-0.26,0.08-0.49,0.24-0.67s0.4-0.27,0.72-0.27s0.56,0.09,0.72,0.27s0.25,0.4,0.25,0.67
		s-0.08,0.48-0.25,0.66s-0.4,0.26-0.72,0.26s-0.56-0.09-0.72-0.26S477.17,452.68,477.17,452.41z M478.93,464.45h-1.63v-9.51h1.63
		V464.45z"/>
	<path class="st4x" d="M483.29,464.45h-1.63v-13.5h1.63V464.45z"/>
	<path class="st4x" d="M485.9,452.41c0-0.26,0.08-0.49,0.24-0.67s0.4-0.27,0.72-0.27s0.56,0.09,0.72,0.27s0.25,0.4,0.25,0.67
		s-0.08,0.48-0.25,0.66s-0.4,0.26-0.72,0.26s-0.56-0.09-0.72-0.26S485.9,452.68,485.9,452.41z M487.66,464.45h-1.63v-9.51h1.63
		V464.45z"/>
	<path class="st4x" d="M492.47,452.63v2.3h1.78v1.26h-1.78v5.91c0,0.38,0.08,0.67,0.24,0.86c0.16,0.19,0.43,0.29,0.81,0.29
		c0.19,0,0.45-0.04,0.77-0.11v1.31c-0.43,0.12-0.84,0.17-1.25,0.17c-0.73,0-1.27-0.22-1.64-0.66s-0.55-1.06-0.55-1.87v-5.9h-1.73
		v-1.26h1.73v-2.3H492.47z"/>
	<path class="st4x" d="M502.01,464.45c-0.09-0.19-0.17-0.52-0.23-1c-0.76,0.79-1.66,1.18-2.71,1.18c-0.94,0-1.71-0.26-2.31-0.79
		s-0.9-1.2-0.9-2.02c0-0.99,0.38-1.76,1.13-2.31s1.81-0.82,3.18-0.82h1.58v-0.75c0-0.57-0.17-1.02-0.51-1.36s-0.84-0.51-1.5-0.51
		c-0.58,0-1.07,0.15-1.46,0.44s-0.59,0.65-0.59,1.06h-1.63c0-0.47,0.17-0.93,0.5-1.38s0.79-0.79,1.37-1.05s1.21-0.39,1.9-0.39
		c1.1,0,1.95,0.27,2.58,0.82s0.94,1.3,0.97,2.26v4.38c0,0.87,0.11,1.57,0.33,2.08v0.14H502.01z M499.32,463.21
		c0.51,0,0.99-0.13,1.45-0.4s0.79-0.61,0.99-1.03v-1.95h-1.27c-1.99,0-2.99,0.58-2.99,1.75c0,0.51,0.17,0.91,0.51,1.2
		S498.78,463.21,499.32,463.21z"/>
	<path class="st4x" d="M508.14,452.63v2.3h1.78v1.26h-1.78v5.91c0,0.38,0.08,0.67,0.24,0.86c0.16,0.19,0.43,0.29,0.81,0.29
		c0.19,0,0.45-0.04,0.77-0.11v1.31c-0.43,0.12-0.84,0.17-1.25,0.17c-0.73,0-1.27-0.22-1.64-0.66s-0.55-1.06-0.55-1.87v-5.9h-1.73
		v-1.26h1.73v-2.3H508.14z"/>
	<path class="st4x" d="M511.21,459.6c0-0.93,0.18-1.77,0.55-2.51s0.88-1.32,1.53-1.72s1.4-0.61,2.24-0.61c1.29,0,2.34,0.45,3.14,1.34
		s1.2,2.09,1.2,3.58v0.11c0,0.93-0.18,1.76-0.53,2.49s-0.86,1.31-1.52,1.72s-1.42,0.62-2.27,0.62c-1.29,0-2.33-0.45-3.13-1.34
		s-1.2-2.08-1.2-3.56V459.6z M512.84,459.8c0,1.05,0.24,1.9,0.73,2.54s1.14,0.96,1.96,0.96c0.83,0,1.48-0.32,1.97-0.97
		s0.73-1.55,0.73-2.72c0-1.04-0.25-1.89-0.74-2.54s-1.15-0.97-1.97-0.97c-0.8,0-1.45,0.32-1.94,0.96S512.84,458.61,512.84,459.8z"/>
	<path class="st4x" d="M526.5,456.4c-0.25-0.04-0.51-0.06-0.8-0.06c-1.07,0-1.79,0.45-2.17,1.36v6.75h-1.63v-9.51h1.58l0.03,1.1
		c0.53-0.85,1.29-1.27,2.27-1.27c0.32,0,0.56,0.04,0.72,0.12V456.4z"/>
</g>
</svg>
