<?xml version="1.0" encoding="UTF-8" standalone="no"?>
<!-- Generator: Adobe Illustrator 23.0.2, SVG Export Plug-In . SVG Version: 6.00 Build 0)  -->

<svg
   version="1.1"
   id="Layer_1"
   x="0px"
   y="0px"
   viewBox="0 0 462 597.58"
   style="enable-background:new 0 0 462 597.58;"
   xml:space="preserve"
   sodipodi:docname="svgviewer-output-new.svg"
   inkscape:version="1.2 (dc2aedaf03, 2022-05-15)"
   xmlns:inkscape="http://www.inkscape.org/namespaces/inkscape"
   xmlns:sodipodi="http://sodipodi.sourceforge.net/DTD/sodipodi-0.dtd"
   xmlns:xlink="http://www.w3.org/1999/xlink"
   xmlns="http://www.w3.org/2000/svg"
   xmlns:svg="http://www.w3.org/2000/svg"><defs
   id="defs330" /><sodipodi:namedview
   id="namedview328"
   pagecolor="#ffffff"
   bordercolor="#000000"
   borderopacity="0.25"
   inkscape:showpageshadow="2"
   inkscape:pageopacity="0.0"
   inkscape:pagecheckerboard="0"
   inkscape:deskcolor="#d1d1d1"
   showgrid="false"
   inkscape:zoom="1.3621607"
   inkscape:cx="231.25025"
   inkscape:cy="438.64135"
   inkscape:window-width="1920"
   inkscape:window-height="1001"
   inkscape:window-x="-9"
   inkscape:window-y="-9"
   inkscape:window-maximized="1"
   inkscape:current-layer="Layer_1" />
<style
   type="text/css"
   id="style167">
	.st0x{fill:#043754;}
	.st1x{fill:#F8F9FA;}
	.st2x{fill:#212529;}
	.st3x{fill:#FFFFFF;}
    .st4x{fill:#FFFFFF;}
</style>
<g
   id="g179">
	<defs
   id="defs170">
		<rect
   id="SVGID_1_"
   x="46"
   y="51.22"
   width="370"
   height="400" />
	</defs>
	<clipPath
   id="SVGID_2_">
		<use
   xlink:href="#SVGID_1_"
   style="overflow:visible;"
   id="use172" />
	</clipPath>
	<g
   style="clip-path:url(#SVGID_2_);"
   clip-path="url(#SVGID_2_)"
   id="g177">
		
			<image
   style="overflow:visible;"
   width="370"
   height="400"
   xlink:href="https://tryscrumlive.vervebot.io/wp-content/uploads/2022/07/farook-370x400-1.png"
   transform="matrix(1 0 0 1 46 51.2241)"
   id="image175">
		</image>
	</g>
</g>
<a
   id="a183">
	<path
   class="st0x"
   d="M372.6,547.39H89.4c-3.87,0-7-3.13-7-7V392.01c0-3.87,3.13-7,7-7H372.6c3.87,0,7,3.13,7,7v148.38   C379.6,544.26,376.46,547.39,372.6,547.39z"
   id="path181" />
</a>
<a
   xlink:href="https://twitter.com/empiricist_umar"
   target="blank"
   id="a197">
	<g
   id="g195">
		<g
   id="g187">
			<path
   class="st1x"
   d="M164.85,528.19h-24.29c-1.58,0-2.86-1.28-2.86-2.86v-24.29c0-1.58,1.28-2.86,2.86-2.86h24.29     c1.58,0,2.86,1.28,2.86,2.86v24.29C167.71,526.91,166.43,528.19,164.85,528.19z"
   id="path185" />
		</g>
		<a
   id="a193">
			<g
   id="g191">
				<path
   class="st2x"
   d="M159.07,510.6c0,4.33-3.3,9.33-9.33,9.33c-1.86,0-3.58-0.54-5.04-1.47c0.26,0.03,0.52,0.04,0.79,0.04      c1.53,0,2.94-0.52,4.07-1.4c-1.44-0.03-2.65-0.97-3.07-2.27c0.2,0.03,0.41,0.05,0.62,0.05c0.29,0,0.59-0.04,0.86-0.11      c-1.5-0.3-2.63-1.62-2.63-3.22v-0.04c0.44,0.24,0.94,0.4,1.48,0.42c-0.88-0.59-1.46-1.59-1.46-2.73c0-0.61,0.16-1.17,0.45-1.66      c1.61,1.99,4.04,3.29,6.76,3.43c-0.05-0.24-0.08-0.5-0.08-0.75c0-1.81,1.46-3.28,3.28-3.28c0.94,0,1.8,0.4,2.4,1.04      c0.74-0.14,1.45-0.42,2.08-0.79c-0.24,0.76-0.76,1.4-1.44,1.81c0.66-0.07,1.3-0.25,1.89-0.51c-0.45,0.65-1,1.23-1.64,1.7      C159.07,510.32,159.07,510.46,159.07,510.6z"
   id="path189" />
			</g>
		</a>
	</g>
</a>
<a
   xlink:href="https://www.linkedin.com/in/empiricist/"
   target="blank"
   id="a205">
	<g
   id="g203">
		<path
   class="st1x"
   d="M217.04,528.19h-24.29c-1.58,0-2.86-1.28-2.86-2.86v-24.29c0-1.58,1.28-2.86,2.86-2.86h24.29    c1.58,0,2.86,1.28,2.86,2.86v24.29C219.9,526.91,218.62,528.19,217.04,528.19z"
   id="path199" />
		<path
   class="st2x"
   d="M197.9,507.11c0-0.93,0.75-1.68,1.68-1.68s1.68,0.75,1.68,1.68s-0.75,1.7-1.68,1.7S197.9,508.04,197.9,507.11    z M198.13,519.43v-9.35h2.9v9.35H198.13z M209,519.43v-4.55c0-1.08-0.02-2.47-1.51-2.47c-1.51,0-1.74,1.18-1.74,2.4v4.63h-2.9    v-9.35h2.78v1.28h0.04c0.39-0.73,1.33-1.51,2.75-1.51c2.94,0,3.48,1.93,3.48,4.45v5.13h0H209z"
   id="path201" />
	</g>
</a>
<g
   id="g217">
	<g
   id="g209">
		<path
   class="st1x"
   d="M269.24,528.19h-24.29c-1.58,0-2.86-1.28-2.86-2.86v-24.29c0-1.58,1.28-2.86,2.86-2.86h24.29    c1.58,0,2.86,1.28,2.86,2.86v24.29C272.1,526.91,270.82,528.19,269.24,528.19z"
   id="path207" />
	</g>
	<a
   xlink:href="https://tryscrum-community.slack.com/"
   target="blank"
   id="a215">
		<g
   id="g213">
			<path
   class="st2x"
   d="M256.72,511.59c0,0.81-0.66,1.47-1.47,1.47h-3.68c-0.81,0-1.47-0.66-1.47-1.47c0-0.81,0.66-1.47,1.47-1.47     h3.68C256.06,510.11,256.72,510.78,256.72,511.59z M251.57,516.75c-0.81,0-1.47-0.66-1.47-1.47c0-0.81,0.66-1.47,1.47-1.47h1.47     v1.47C253.04,516.09,252.38,516.75,251.57,516.75z M253.78,507.9c0-0.81,0.66-1.47,1.47-1.47c0.81,0,1.47,0.66,1.47,1.47v1.47     h-1.47C254.44,509.37,253.78,508.71,253.78,507.9z M255.25,513.81c0.81,0,1.47,0.66,1.47,1.47v3.68c0,0.81-0.66,1.47-1.47,1.47     c-0.81,0-1.47-0.66-1.47-1.47v-3.68C253.78,514.47,254.44,513.81,255.25,513.81z M258.94,513.06c-0.81,0-1.47-0.66-1.47-1.47     v-3.68c0-0.81,0.66-1.47,1.47-1.47c0.81,0,1.47,0.66,1.47,1.47v3.68C260.42,512.4,259.75,513.06,258.94,513.06z M257.47,515.28     c0-0.81,0.66-1.47,1.47-1.47h3.68c0.81,0,1.47,0.66,1.47,1.47c0,0.81-0.66,1.47-1.47,1.47h-3.68     C258.14,516.75,257.47,516.09,257.47,515.28z M260.42,518.96c0,0.81-0.66,1.47-1.47,1.47c-0.81,0-1.47-0.66-1.47-1.47v-1.47h1.47     C259.75,517.49,260.42,518.15,260.42,518.96z M262.63,510.11c0.81,0,1.47,0.66,1.47,1.47c0,0.81-0.66,1.47-1.47,1.47h-1.47v-1.47     C261.16,510.78,261.82,510.11,262.63,510.11z"
   id="path211" />
		</g>
	</a>
</g>
<g
   id="g229">
	<g
   id="g221">
		<path
   class="st1x"
   d="M321.44,528.19h-24.29c-1.58,0-2.86-1.28-2.86-2.86v-24.29c0-1.58,1.28-2.86,2.86-2.86h24.29    c1.58,0,2.86,1.28,2.86,2.86v24.29C324.29,526.91,323.01,528.19,321.44,528.19z"
   id="path219" />
	</g>
	<a
   xlink:href="https://www.meetup.com/smstudiochn/"
   target="blank"
   id="a227">
		<g
   id="g225">
			<path
   class="st2x"
   d="M302.3,513.48c-0.22,0.32-0.64,0.4-0.96,0.18c-0.31-0.22-0.39-0.65-0.18-0.97c0.22-0.32,0.64-0.4,0.96-0.19     C302.44,512.73,302.52,513.15,302.3,513.48z M314,518.16c-0.54,0.38-1.16,0.55-1.78,0.53c-0.38,1.47-2.17,2.02-3.28,1.02     c-0.04,0.03-0.08,0.05-0.12,0.09c-1.22,0.85-2.88,0.54-3.73-0.7c-0.3-0.45-0.46-0.96-0.47-1.47c-2.04-0.34-2.81-2.94-1.28-4.37     c-0.88-1.47,0.02-3.36,1.67-3.59c0.78-2.07,3.36-3.05,5.11-1.69c2.11-0.7,4.26,0.92,4.09,3.16c1.28,0.39,1.65,2.09,0.62,2.97     C315.65,515.48,315.29,517.25,314,518.16z M303.9,518.76c-0.17,0.03-0.34-0.07-0.38-0.25c-0.03-0.17,0.07-0.35,0.24-0.38     c0.17-0.04,0.35,0.07,0.38,0.25C304.18,518.56,304.07,518.73,303.9,518.76z M303.93,508.84c-0.16-0.24-0.11-0.57,0.13-0.74     c0.23-0.16,0.56-0.11,0.72,0.13c0.16,0.24,0.11,0.57-0.13,0.74C304.42,509.14,304.09,509.09,303.93,508.84z M311.29,515.6     c-0.1-1,1.37-3.16,1.25-4c-0.11-0.75-0.61-0.91-1.04-0.92c-0.42-0.01-0.53,0.06-0.67,0.14c-0.09,0.05-0.21,0.15-0.37-0.01     c-0.2-0.19-0.35-0.37-0.61-0.4c-0.38-0.06-0.55,0.06-0.83,0.3c-0.11,0.09-0.38,0.4-0.63,0.28c-0.11-0.05-0.48-0.24-0.75-0.36     c-0.51-0.22-1.25,0.14-1.52,0.63c-0.4,0.71-1.19,3.53-1.3,3.91c-0.27,0.83,0.34,1.52,1.15,1.47c0.35-0.02,0.57-0.14,0.79-0.54     c0.13-0.23,1.3-3.37,1.39-3.52c0.06-0.11,0.28-0.25,0.46-0.16c0.18,0.1,0.22,0.29,0.19,0.47c-0.03,0.3-0.88,2.22-0.9,2.43     c-0.11,0.72,0.84,0.83,1.21,0.13c0.12-0.22,1.43-2.89,1.54-3.07c0.13-0.2,0.23-0.26,0.37-0.25c0.1,0,0.26,0.03,0.22,0.34     c-0.04,0.29-1.1,2.26-1.22,2.74c-0.14,0.64,0.21,1.29,0.78,1.58c0.36,0.18,1.95,0.49,1.83-0.35     C312.54,515.81,311.36,516.31,311.29,515.6z M305.5,505.88c-0.04-0.2,0.09-0.39,0.28-0.44c0.2-0.05,0.39,0.08,0.43,0.29     c0.04,0.2-0.08,0.39-0.28,0.44C305.73,506.21,305.54,506.09,305.5,505.88z M309.23,520.73c0.14,0.21,0.09,0.48-0.11,0.63     c-0.21,0.14-0.48,0.09-0.63-0.12c-0.13-0.21-0.08-0.48,0.12-0.63C308.82,520.47,309.1,520.52,309.23,520.73z M309.7,506.93     c-0.2-0.33-0.09-0.76,0.23-0.96c0.32-0.2,0.74-0.09,0.94,0.24c0.19,0.32,0.09,0.75-0.24,0.95     C310.3,507.36,309.89,507.25,309.7,506.93z M313.82,519.52c0.22,0.33,0.14,0.79-0.19,1.02c-0.33,0.22-0.78,0.14-1-0.19     c-0.22-0.33-0.14-0.79,0.18-1.02C313.15,519.1,313.59,519.19,313.82,519.52z M315.82,509.93c0.18,0.27,0.12,0.63-0.14,0.82     c-0.27,0.18-0.63,0.12-0.81-0.15s-0.12-0.63,0.15-0.82C315.28,509.59,315.65,509.65,315.82,509.93z M316.8,514.19     c0.05,0.24-0.1,0.48-0.33,0.52c-0.23,0.05-0.46-0.1-0.51-0.33c-0.05-0.24,0.1-0.47,0.33-0.53     C316.52,513.81,316.75,513.96,316.8,514.19z M317.29,512.47c-0.18,0.03-0.35-0.08-0.38-0.25c-0.03-0.18,0.07-0.36,0.25-0.39     c0.17-0.03,0.34,0.07,0.38,0.25C317.57,512.25,317.46,512.42,317.29,512.47z"
   id="path223" />
		</g>
	</a>
</g>
<g
   id="g267"
   transform="translate(-168)">
	<path
   class="st4x"
   d="m 279.56,418.06 4.51,11.99 4.5,-11.99 h 3.51 v 15.64 h -2.71 v -5.16 l 0.27,-6.9 -4.62,12.05 h -1.94 l -4.61,-12.04 0.27,6.89 v 5.16 h -2.71 v -15.64 z"
   id="path231" />
	<path
   class="st4x"
   d="m 294.56,427.78 c 0,-1.14 0.23,-2.17 0.68,-3.08 0.45,-0.91 1.08,-1.61 1.9,-2.11 0.82,-0.49 1.75,-0.74 2.81,-0.74 1.57,0 2.84,0.5 3.82,1.51 0.98,1.01 1.51,2.35 1.58,4.02 l 0.01,0.61 c 0,1.15 -0.22,2.17 -0.66,3.07 -0.44,0.9 -1.07,1.6 -1.89,2.09 -0.82,0.49 -1.77,0.74 -2.84,0.74 -1.64,0 -2.95,-0.55 -3.94,-1.64 -0.98,-1.09 -1.48,-2.55 -1.48,-4.37 v -0.1 z m 2.61,0.23 c 0,1.2 0.25,2.13 0.74,2.81 0.49,0.68 1.18,1.02 2.06,1.02 0.88,0 1.57,-0.34 2.06,-1.03 0.49,-0.69 0.74,-1.69 0.74,-3.02 0,-1.17 -0.25,-2.11 -0.76,-2.79 -0.51,-0.68 -1.19,-1.03 -2.06,-1.03 -0.85,0 -1.53,0.34 -2.03,1.01 -0.5,0.67 -0.75,1.68 -0.75,3.03 z"
   id="path233" />
	<path
   class="st4x"
   d="m 310.15,423.35 c 0.85,-0.99 1.93,-1.48 3.23,-1.48 2.48,0 3.73,1.41 3.77,4.24 v 7.59 h -2.61 v -7.5 c 0,-0.8 -0.17,-1.37 -0.52,-1.7 -0.35,-0.33 -0.86,-0.5 -1.53,-0.5 -1.05,0 -1.83,0.47 -2.34,1.4 v 8.3 h -2.61 v -16.5 h 2.61 z"
   id="path235" />
	<path
   class="st4x"
   d="m 326.73,433.7 c -0.11,-0.22 -0.21,-0.58 -0.3,-1.08 -0.83,0.87 -1.85,1.3 -3.05,1.3 -1.17,0 -2.12,-0.33 -2.86,-1 -0.74,-0.67 -1.11,-1.49 -1.11,-2.47 0,-1.24 0.46,-2.19 1.38,-2.85 0.92,-0.66 2.24,-0.99 3.95,-0.99 h 1.6 v -0.76 c 0,-0.6 -0.17,-1.08 -0.5,-1.45 -0.34,-0.36 -0.85,-0.54 -1.54,-0.54 -0.59,0 -1.08,0.15 -1.46,0.45 -0.38,0.3 -0.57,0.68 -0.57,1.13 h -2.61 c 0,-0.64 0.21,-1.23 0.63,-1.79 0.42,-0.55 1,-0.99 1.72,-1.3 0.73,-0.32 1.54,-0.47 2.43,-0.47 1.36,0 2.45,0.34 3.25,1.03 0.81,0.68 1.22,1.65 1.25,2.88 v 5.24 c 0,1.05 0.15,1.88 0.44,2.5 v 0.18 h -2.65 z m -2.87,-1.88 c 0.52,0 1,-0.13 1.46,-0.38 0.45,-0.25 0.8,-0.59 1.03,-1.01 v -2.19 h -1.41 c -0.97,0 -1.69,0.17 -2.18,0.5 -0.49,0.34 -0.73,0.81 -0.73,1.43 0,0.5 0.17,0.9 0.5,1.2 0.33,0.3 0.78,0.45 1.33,0.45 z"
   id="path237" />
	<path
   class="st4x"
   d="m 334.15,422.08 0.08,1.21 c 0.82,-0.95 1.93,-1.43 3.35,-1.43 1.55,0 2.62,0.59 3.19,1.78 0.84,-1.19 2.03,-1.78 3.57,-1.78 1.28,0 2.24,0.35 2.86,1.06 0.63,0.71 0.95,1.75 0.96,3.14 v 7.64 h -2.61 v -7.56 c 0,-0.74 -0.16,-1.28 -0.48,-1.62 -0.32,-0.34 -0.86,-0.52 -1.6,-0.52 -0.59,0 -1.08,0.16 -1.46,0.48 -0.38,0.32 -0.64,0.74 -0.79,1.25 l 0.01,7.97 h -2.61 v -7.65 c -0.04,-1.37 -0.73,-2.05 -2.09,-2.05 -1.05,0 -1.79,0.43 -2.22,1.28 v 8.42 h -2.61 v -11.62 z"
   id="path239" />
	<path
   class="st4x"
   d="m 353.29,422.08 0.08,1.21 c 0.82,-0.95 1.93,-1.43 3.35,-1.43 1.55,0 2.62,0.59 3.19,1.78 0.84,-1.19 2.03,-1.78 3.57,-1.78 1.28,0 2.24,0.35 2.86,1.06 0.63,0.71 0.95,1.75 0.96,3.14 v 7.64 h -2.61 v -7.56 c 0,-0.74 -0.16,-1.28 -0.48,-1.62 -0.32,-0.34 -0.86,-0.52 -1.6,-0.52 -0.59,0 -1.08,0.16 -1.46,0.48 -0.38,0.32 -0.64,0.74 -0.79,1.25 l 0.01,7.97 h -2.61 v -7.65 c -0.04,-1.37 -0.73,-2.05 -2.09,-2.05 -1.05,0 -1.79,0.43 -2.22,1.28 v 8.42 h -2.61 v -11.62 z"
   id="path241" />
	<path
   class="st4x"
   d="m 376.92,433.7 c -0.11,-0.22 -0.21,-0.58 -0.3,-1.08 -0.83,0.87 -1.85,1.3 -3.05,1.3 -1.17,0 -2.12,-0.33 -2.86,-1 -0.74,-0.67 -1.11,-1.49 -1.11,-2.47 0,-1.24 0.46,-2.19 1.38,-2.85 0.92,-0.66 2.24,-0.99 3.95,-0.99 h 1.6 v -0.76 c 0,-0.6 -0.17,-1.08 -0.5,-1.45 -0.34,-0.36 -0.85,-0.54 -1.54,-0.54 -0.59,0 -1.08,0.15 -1.46,0.45 -0.38,0.3 -0.57,0.68 -0.57,1.13 h -2.61 c 0,-0.64 0.21,-1.23 0.63,-1.79 0.42,-0.55 1,-0.99 1.72,-1.3 0.73,-0.32 1.54,-0.47 2.43,-0.47 1.36,0 2.45,0.34 3.25,1.03 0.81,0.68 1.22,1.65 1.25,2.88 v 5.24 c 0,1.05 0.15,1.88 0.44,2.5 v 0.18 h -2.65 z m -2.87,-1.88 c 0.52,0 1,-0.13 1.46,-0.38 0.45,-0.25 0.8,-0.59 1.03,-1.01 v -2.19 h -1.41 c -0.97,0 -1.69,0.17 -2.18,0.5 -0.49,0.34 -0.73,0.81 -0.73,1.43 0,0.5 0.17,0.9 0.5,1.2 0.33,0.3 0.77,0.45 1.33,0.45 z"
   id="path243" />
	<path
   class="st4x"
   d="m 381.39,427.8 c 0,-1.79 0.42,-3.23 1.25,-4.31 0.83,-1.08 1.94,-1.63 3.34,-1.63 1.23,0 2.23,0.43 2.99,1.29 v -5.95 h 2.61 v 16.5 h -2.36 l -0.13,-1.2 c -0.78,0.95 -1.82,1.42 -3.13,1.42 -1.36,0 -2.46,-0.55 -3.3,-1.64 -0.85,-1.1 -1.27,-2.59 -1.27,-4.48 z m 2.61,0.23 c 0,1.18 0.23,2.1 0.68,2.77 0.45,0.66 1.1,0.99 1.94,0.99 1.07,0 1.85,-0.48 2.34,-1.43 v -4.96 c -0.48,-0.93 -1.25,-1.4 -2.32,-1.4 -0.85,0 -1.5,0.33 -1.96,1 -0.45,0.68 -0.68,1.68 -0.68,3.03 z"
   id="path245" />
	<path
   class="st4x"
   d="m 411.47,418.06 v 10.45 c 0,1.66 -0.53,2.98 -1.6,3.95 -1.06,0.97 -2.48,1.46 -4.25,1.46 -1.79,0 -3.21,-0.48 -4.26,-1.43 -1.05,-0.96 -1.58,-2.28 -1.58,-3.98 v -10.44 h 2.71 v 10.46 c 0,1.05 0.26,1.84 0.79,2.4 0.53,0.55 1.31,0.83 2.34,0.83 2.09,0 3.14,-1.1 3.14,-3.31 v -10.38 h 2.71 z"
   id="path247" />
	<path
   class="st4x"
   d="m 416.57,422.08 0.08,1.21 c 0.82,-0.95 1.93,-1.43 3.35,-1.43 1.55,0 2.62,0.59 3.19,1.78 0.84,-1.19 2.03,-1.78 3.57,-1.78 1.28,0 2.24,0.35 2.86,1.06 0.62,0.71 0.95,1.75 0.96,3.14 v 7.64 h -2.61 v -7.56 c 0,-0.74 -0.16,-1.28 -0.48,-1.62 -0.32,-0.34 -0.86,-0.52 -1.6,-0.52 -0.59,0 -1.08,0.16 -1.46,0.48 -0.38,0.32 -0.64,0.74 -0.79,1.25 l 0.01,7.97 h -2.61 v -7.65 C 421,424.68 420.31,424 418.95,424 c -1.05,0 -1.79,0.43 -2.22,1.28 v 8.42 h -2.61 v -11.62 z"
   id="path249" />
	<path
   class="st4x"
   d="m 440.2,433.7 c -0.12,-0.22 -0.21,-0.58 -0.3,-1.08 -0.83,0.87 -1.85,1.3 -3.05,1.3 -1.17,0 -2.12,-0.33 -2.86,-1 -0.74,-0.67 -1.11,-1.49 -1.11,-2.47 0,-1.24 0.46,-2.19 1.38,-2.85 0.92,-0.66 2.24,-0.99 3.95,-0.99 h 1.6 v -0.76 c 0,-0.6 -0.17,-1.08 -0.5,-1.45 -0.34,-0.36 -0.85,-0.54 -1.54,-0.54 -0.59,0 -1.08,0.15 -1.46,0.45 -0.38,0.3 -0.57,0.68 -0.57,1.13 h -2.61 c 0,-0.64 0.21,-1.23 0.63,-1.79 0.42,-0.55 1,-0.99 1.72,-1.3 0.72,-0.31 1.54,-0.47 2.43,-0.47 1.36,0 2.45,0.34 3.25,1.03 0.81,0.68 1.22,1.65 1.25,2.88 v 5.24 c 0,1.05 0.15,1.88 0.44,2.5 v 0.18 h -2.65 z m -2.87,-1.88 c 0.52,0 1,-0.13 1.46,-0.38 0.46,-0.25 0.8,-0.59 1.03,-1.01 v -2.19 h -1.41 c -0.97,0 -1.69,0.17 -2.18,0.5 -0.49,0.34 -0.73,0.81 -0.73,1.43 0,0.5 0.17,0.9 0.5,1.2 0.33,0.3 0.78,0.45 1.33,0.45 z"
   id="path251" />
	<path
   class="st4x"
   d="m 451.25,424.46 c -0.34,-0.06 -0.7,-0.09 -1.06,-0.09 -1.2,0 -2,0.46 -2.42,1.38 v 7.95 h -2.61 v -11.62 h 2.49 l 0.06,1.3 c 0.63,-1.01 1.5,-1.51 2.62,-1.51 0.37,0 0.68,0.05 0.92,0.15 z"
   id="path253" />
	<path
   class="st4x"
   d="m 467.64,427.07 h -6.29 v 6.63 h -2.72 v -15.64 h 9.94 v 2.19 h -7.22 v 4.65 h 6.29 z"
   id="path255" />
	<path
   class="st4x"
   d="m 477.04,433.7 c -0.12,-0.22 -0.21,-0.58 -0.3,-1.08 -0.83,0.87 -1.85,1.3 -3.05,1.3 -1.17,0 -2.12,-0.33 -2.86,-1 -0.74,-0.67 -1.11,-1.49 -1.11,-2.47 0,-1.24 0.46,-2.19 1.38,-2.85 0.92,-0.66 2.24,-0.99 3.95,-0.99 h 1.6 v -0.76 c 0,-0.6 -0.17,-1.08 -0.5,-1.45 -0.34,-0.36 -0.85,-0.54 -1.54,-0.54 -0.59,0 -1.08,0.15 -1.46,0.45 -0.38,0.3 -0.57,0.68 -0.57,1.13 h -2.61 c 0,-0.64 0.21,-1.23 0.63,-1.79 0.42,-0.55 1,-0.99 1.72,-1.3 0.72,-0.31 1.54,-0.47 2.43,-0.47 1.36,0 2.45,0.34 3.25,1.03 0.81,0.68 1.22,1.65 1.25,2.88 v 5.24 c 0,1.05 0.15,1.88 0.44,2.5 v 0.18 h -2.65 z m -2.87,-1.88 c 0.52,0 1,-0.13 1.46,-0.38 0.46,-0.25 0.8,-0.59 1.03,-1.01 v -2.19 h -1.41 c -0.97,0 -1.69,0.17 -2.18,0.5 -0.49,0.34 -0.73,0.81 -0.73,1.43 0,0.5 0.17,0.9 0.5,1.2 0.33,0.3 0.77,0.45 1.33,0.45 z"
   id="path257" />
	<path
   class="st4x"
   d="m 488.08,424.46 c -0.34,-0.06 -0.7,-0.09 -1.06,-0.09 -1.2,0 -2,0.46 -2.42,1.38 v 7.95 h -2.61 v -11.62 h 2.49 l 0.06,1.3 c 0.63,-1.01 1.5,-1.51 2.62,-1.51 0.37,0 0.68,0.05 0.92,0.15 z"
   id="path259" />
	<path
   class="st4x"
   d="m 488.85,427.78 c 0,-1.14 0.23,-2.17 0.68,-3.08 0.45,-0.91 1.08,-1.61 1.9,-2.11 0.82,-0.49 1.75,-0.74 2.81,-0.74 1.57,0 2.84,0.5 3.82,1.51 0.98,1.01 1.51,2.35 1.58,4.02 l 0.01,0.61 c 0,1.15 -0.22,2.17 -0.66,3.07 -0.44,0.9 -1.07,1.6 -1.89,2.09 -0.82,0.49 -1.77,0.74 -2.84,0.74 -1.64,0 -2.95,-0.55 -3.94,-1.64 -0.98,-1.09 -1.48,-2.55 -1.48,-4.37 v -0.1 z m 2.61,0.23 c 0,1.2 0.25,2.13 0.74,2.81 0.49,0.68 1.18,1.02 2.06,1.02 0.88,0 1.57,-0.34 2.06,-1.03 0.49,-0.69 0.74,-1.69 0.74,-3.02 0,-1.17 -0.25,-2.11 -0.76,-2.79 -0.51,-0.68 -1.19,-1.03 -2.06,-1.03 -0.85,0 -1.53,0.34 -2.03,1.01 -0.5,0.67 -0.75,1.68 -0.75,3.03 z"
   id="path261" />
	<path
   class="st4x"
   d="m 501.38,427.78 c 0,-1.14 0.23,-2.17 0.68,-3.08 0.45,-0.91 1.08,-1.61 1.9,-2.11 0.82,-0.49 1.75,-0.74 2.81,-0.74 1.57,0 2.84,0.5 3.82,1.51 0.98,1.01 1.51,2.35 1.58,4.02 l 0.01,0.61 c 0,1.15 -0.22,2.17 -0.66,3.07 -0.44,0.9 -1.07,1.6 -1.89,2.09 -0.82,0.49 -1.77,0.74 -2.84,0.74 -1.64,0 -2.95,-0.55 -3.94,-1.64 -0.98,-1.09 -1.48,-2.55 -1.48,-4.37 v -0.1 z m 2.61,0.23 c 0,1.2 0.25,2.13 0.74,2.81 0.49,0.68 1.18,1.02 2.06,1.02 0.88,0 1.57,-0.34 2.06,-1.03 0.49,-0.69 0.74,-1.69 0.74,-3.02 0,-1.17 -0.25,-2.11 -0.76,-2.79 -0.51,-0.68 -1.19,-1.03 -2.06,-1.03 -0.85,0 -1.53,0.34 -2.03,1.01 -0.5,0.67 -0.75,1.68 -0.75,3.03 z"
   id="path263" />
	<path
   class="st4x"
   d="m 513.91,427.79 c 0,-1.82 0.42,-3.26 1.25,-4.33 0.83,-1.07 1.96,-1.6 3.37,-1.6 1.3,0 2.32,0.46 3.08,1.36 l 0.15,-1.15 h 2.32 v 16.09 h -2.61 v -5.46 c -0.76,0.8 -1.75,1.2 -2.96,1.2 -1.39,0 -2.5,-0.54 -3.34,-1.63 -0.84,-1.09 -1.26,-2.56 -1.26,-4.48 z m 2.61,0.23 c 0,1.19 0.23,2.12 0.7,2.8 0.47,0.68 1.12,1.02 1.95,1.02 1.03,0 1.8,-0.44 2.3,-1.32 v -5.29 c -0.5,-0.84 -1.26,-1.27 -2.28,-1.27 -0.83,0 -1.48,0.33 -1.96,1 -0.48,0.67 -0.71,1.68 -0.71,3.06 z"
   id="path265" />
</g>
<g
   id="g325"
   transform="translate(-170)">
	<path
   class="st4x"
   d="m 284.13,460.39 c -0.16,1.35 -0.66,2.4 -1.5,3.13 -0.84,0.73 -1.96,1.1 -3.35,1.1 -1.51,0 -2.72,-0.54 -3.63,-1.63 -0.91,-1.09 -1.37,-2.53 -1.37,-4.35 v -1.23 c 0,-1.19 0.21,-2.24 0.64,-3.14 0.43,-0.9 1.03,-1.59 1.81,-2.08 0.78,-0.49 1.68,-0.73 2.71,-0.73 1.36,0 2.45,0.38 3.27,1.14 0.82,0.76 1.3,1.81 1.43,3.15 h -1.7 c -0.15,-1.02 -0.46,-1.76 -0.95,-2.22 -0.49,-0.46 -1.17,-0.69 -2.05,-0.69 -1.08,0 -1.92,0.4 -2.54,1.2 -0.61,0.8 -0.92,1.93 -0.92,3.4 v 1.24 c 0,1.39 0.29,2.5 0.87,3.32 0.58,0.82 1.39,1.23 2.43,1.23 0.94,0 1.66,-0.21 2.16,-0.64 0.5,-0.43 0.83,-1.17 1,-2.22 h 1.69 z"
   id="path269" />
	<path
   class="st4x"
   d="m 285.75,459.6 c 0,-0.93 0.18,-1.77 0.55,-2.51 0.37,-0.74 0.88,-1.32 1.53,-1.72 0.65,-0.4 1.4,-0.61 2.24,-0.61 1.29,0 2.34,0.45 3.14,1.34 0.8,0.89 1.2,2.09 1.2,3.58 v 0.11 c 0,0.93 -0.18,1.76 -0.53,2.49 -0.35,0.73 -0.86,1.31 -1.52,1.72 -0.66,0.41 -1.42,0.62 -2.27,0.62 -1.29,0 -2.33,-0.45 -3.13,-1.34 -0.8,-0.89 -1.2,-2.08 -1.2,-3.56 v -0.12 z m 1.64,0.2 c 0,1.05 0.24,1.9 0.73,2.54 0.49,0.64 1.14,0.96 1.96,0.96 0.83,0 1.48,-0.32 1.97,-0.97 0.49,-0.65 0.73,-1.55 0.73,-2.72 0,-1.04 -0.25,-1.89 -0.74,-2.54 -0.49,-0.65 -1.15,-0.97 -1.97,-0.97 -0.8,0 -1.45,0.32 -1.94,0.96 -0.49,0.64 -0.74,1.55 -0.74,2.74 z"
   id="path271" />
	<path
   class="st4x"
   d="m 297.98,454.94 0.04,1.05 c 0.7,-0.82 1.64,-1.23 2.82,-1.23 1.33,0 2.24,0.51 2.72,1.53 0.32,-0.46 0.73,-0.83 1.23,-1.11 0.5,-0.28 1.11,-0.42 1.8,-0.42 2.09,0 3.15,1.1 3.18,3.31 v 6.37 h -1.63 v -6.28 c 0,-0.68 -0.16,-1.19 -0.47,-1.52 -0.31,-0.33 -0.83,-0.51 -1.56,-0.51 -0.6,0 -1.1,0.18 -1.5,0.54 -0.4,0.36 -0.63,0.84 -0.69,1.45 v 6.31 h -1.63 v -6.23 c 0,-1.38 -0.68,-2.07 -2.03,-2.07 -1.07,0 -1.8,0.45 -2.19,1.36 v 6.94 h -1.63 v -9.51 h 1.54 z"
   id="path273" />
	<path
   class="st4x"
   d="m 313.75,454.94 0.04,1.05 c 0.7,-0.82 1.64,-1.23 2.82,-1.23 1.33,0 2.24,0.51 2.72,1.53 0.32,-0.46 0.73,-0.83 1.23,-1.11 0.5,-0.28 1.11,-0.42 1.8,-0.42 2.09,0 3.15,1.1 3.18,3.31 v 6.37 h -1.63 v -6.28 c 0,-0.68 -0.16,-1.19 -0.47,-1.52 -0.31,-0.33 -0.83,-0.51 -1.56,-0.51 -0.6,0 -1.1,0.18 -1.5,0.54 -0.4,0.36 -0.63,0.84 -0.69,1.45 v 6.31 h -1.63 v -6.23 c 0,-1.38 -0.68,-2.07 -2.03,-2.07 -1.07,0 -1.8,0.45 -2.19,1.36 v 6.94 h -1.63 v -9.51 h 1.54 z"
   id="path275" />
	<path
   class="st4x"
   d="m 333.87,463.51 c -0.63,0.74 -1.56,1.12 -2.79,1.12 -1.01,0 -1.79,-0.29 -2.32,-0.88 -0.53,-0.59 -0.8,-1.46 -0.8,-2.62 v -6.19 h 1.63 v 6.14 c 0,1.44 0.59,2.16 1.76,2.16 1.24,0 2.07,-0.46 2.48,-1.39 v -6.92 h 1.63 v 9.51 h -1.55 z"
   id="path277" />
	<path
   class="st4x"
   d="m 339.46,454.94 0.05,1.2 c 0.73,-0.91 1.68,-1.37 2.85,-1.37 2.01,0 3.02,1.13 3.04,3.4 v 6.28 h -1.63 v -6.29 c -0.01,-0.69 -0.16,-1.19 -0.47,-1.52 -0.31,-0.33 -0.79,-0.49 -1.44,-0.49 -0.53,0 -0.99,0.14 -1.39,0.42 -0.4,0.28 -0.71,0.65 -0.93,1.11 v 6.78 h -1.63 v -9.51 h 1.55 z"
   id="path279" />
	<path
   class="st4x"
   d="m 347.86,452.41 c 0,-0.26 0.08,-0.49 0.24,-0.67 0.16,-0.18 0.4,-0.27 0.72,-0.27 0.32,0 0.56,0.09 0.72,0.27 0.16,0.18 0.25,0.4 0.25,0.67 0,0.27 -0.08,0.48 -0.25,0.66 -0.17,0.18 -0.4,0.26 -0.72,0.26 -0.32,0 -0.56,-0.09 -0.72,-0.26 -0.16,-0.17 -0.24,-0.39 -0.24,-0.66 z m 1.76,12.04 H 348 v -9.51 h 1.63 v 9.51 z"
   id="path281" />
	<path
   class="st4x"
   d="m 354.43,452.63 v 2.3 h 1.78 v 1.26 h -1.78 v 5.91 c 0,0.38 0.08,0.67 0.24,0.86 0.16,0.19 0.43,0.29 0.81,0.29 0.19,0 0.45,-0.04 0.77,-0.11 v 1.31 c -0.43,0.12 -0.84,0.17 -1.25,0.17 -0.73,0 -1.27,-0.22 -1.64,-0.66 -0.37,-0.44 -0.55,-1.06 -0.55,-1.87 v -5.9 h -1.73 v -1.26 h 1.73 v -2.3 z"
   id="path283" />
	<path
   class="st4x"
   d="m 361.21,462.06 2.21,-7.13 h 1.74 l -3.82,10.98 c -0.59,1.58 -1.53,2.37 -2.82,2.37 l -0.31,-0.03 -0.61,-0.11 v -1.32 l 0.44,0.04 c 0.55,0 0.98,-0.11 1.29,-0.33 0.31,-0.22 0.56,-0.63 0.76,-1.22 l 0.36,-0.97 -3.39,-9.4 h 1.78 z"
   id="path285" />
	<path
   class="st4x"
   d="m 381.17,458.46 c 0,1.25 -0.21,2.35 -0.63,3.28 -0.42,0.93 -1.02,1.65 -1.79,2.14 -0.77,0.49 -1.68,0.74 -2.71,0.74 -1.01,0 -1.9,-0.25 -2.68,-0.74 -0.78,-0.49 -1.38,-1.2 -1.81,-2.12 -0.43,-0.92 -0.65,-1.98 -0.66,-3.19 v -0.92 c 0,-1.23 0.21,-2.32 0.64,-3.26 0.43,-0.94 1.03,-1.67 1.81,-2.17 0.78,-0.5 1.68,-0.75 2.69,-0.75 1.03,0 1.93,0.25 2.71,0.74 0.78,0.49 1.38,1.21 1.81,2.15 0.43,0.94 0.63,2.03 0.63,3.28 v 0.82 z m -1.67,-0.83 c 0,-1.52 -0.3,-2.68 -0.91,-3.49 -0.61,-0.81 -1.46,-1.22 -2.56,-1.22 -1.07,0 -1.91,0.41 -2.52,1.22 -0.61,0.81 -0.93,1.94 -0.94,3.38 v 0.94 c 0,1.47 0.31,2.63 0.93,3.47 0.62,0.84 1.47,1.26 2.55,1.26 1.09,0 1.93,-0.4 2.53,-1.19 0.6,-0.79 0.91,-1.93 0.92,-3.42 z"
   id="path287" />
	<path
   class="st4x"
   d="m 389.32,463.51 c -0.63,0.74 -1.56,1.12 -2.79,1.12 -1.01,0 -1.79,-0.29 -2.32,-0.88 -0.53,-0.59 -0.8,-1.46 -0.8,-2.62 v -6.19 h 1.63 v 6.14 c 0,1.44 0.59,2.16 1.76,2.16 1.24,0 2.07,-0.46 2.48,-1.39 v -6.92 h 1.63 v 9.51 h -1.55 z"
   id="path289" />
	<path
   class="st4x"
   d="m 395.58,452.63 v 2.3 h 1.78 v 1.26 h -1.78 v 5.91 c 0,0.38 0.08,0.67 0.24,0.86 0.16,0.19 0.43,0.29 0.81,0.29 0.19,0 0.45,-0.04 0.77,-0.11 v 1.31 c -0.43,0.12 -0.84,0.17 -1.25,0.17 -0.73,0 -1.27,-0.22 -1.64,-0.66 -0.37,-0.44 -0.55,-1.06 -0.55,-1.87 v -5.9 h -1.73 v -1.26 h 1.73 v -2.3 z"
   id="path291" />
	<path
   class="st4x"
   d="m 403.85,456.4 c -0.25,-0.04 -0.51,-0.06 -0.8,-0.06 -1.07,0 -1.79,0.45 -2.17,1.36 v 6.75 h -1.63 v -9.51 h 1.58 l 0.03,1.1 c 0.53,-0.85 1.29,-1.27 2.27,-1.27 0.32,0 0.56,0.04 0.72,0.12 z"
   id="path293" />
	<path
   class="st4x"
   d="m 409.12,464.62 c -1.29,0 -2.34,-0.42 -3.15,-1.27 -0.81,-0.85 -1.21,-1.98 -1.21,-3.4 v -0.3 c 0,-0.94 0.18,-1.79 0.54,-2.53 0.36,-0.74 0.86,-1.32 1.51,-1.74 0.65,-0.42 1.35,-0.63 2.11,-0.63 1.24,0 2.2,0.41 2.88,1.22 0.68,0.81 1.03,1.98 1.03,3.5 v 0.68 h -6.44 c 0.02,0.94 0.3,1.7 0.82,2.27 0.52,0.57 1.19,0.87 2,0.87 0.57,0 1.06,-0.12 1.46,-0.35 0.4,-0.23 0.75,-0.54 1.05,-0.93 l 0.99,0.77 c -0.8,1.23 -1.99,1.84 -3.59,1.84 z m -0.2,-8.52 c -0.66,0 -1.21,0.24 -1.65,0.72 -0.44,0.48 -0.72,1.15 -0.83,2.01 h 4.76 v -0.12 c -0.05,-0.83 -0.27,-1.47 -0.67,-1.92 -0.4,-0.45 -0.93,-0.69 -1.61,-0.69 z"
   id="path295" />
	<path
   class="st4x"
   d="m 420.58,464.45 c -0.09,-0.19 -0.17,-0.52 -0.23,-1 -0.76,0.79 -1.66,1.18 -2.71,1.18 -0.94,0 -1.71,-0.26 -2.31,-0.79 -0.6,-0.53 -0.9,-1.2 -0.9,-2.02 0,-0.99 0.38,-1.76 1.13,-2.31 0.75,-0.55 1.81,-0.82 3.18,-0.82 h 1.58 v -0.75 c 0,-0.57 -0.17,-1.02 -0.51,-1.36 -0.34,-0.34 -0.84,-0.51 -1.5,-0.51 -0.58,0 -1.07,0.15 -1.46,0.44 -0.39,0.29 -0.59,0.65 -0.59,1.06 h -1.63 c 0,-0.47 0.17,-0.93 0.5,-1.38 0.33,-0.45 0.79,-0.79 1.37,-1.05 0.58,-0.26 1.21,-0.39 1.9,-0.39 1.1,0 1.95,0.27 2.58,0.82 0.63,0.55 0.94,1.3 0.97,2.26 v 4.38 c 0,0.87 0.11,1.57 0.33,2.08 v 0.14 h -1.7 z m -2.69,-1.24 c 0.51,0 0.99,-0.13 1.45,-0.4 0.46,-0.27 0.79,-0.61 0.99,-1.03 v -1.95 h -1.27 c -1.99,0 -2.99,0.58 -2.99,1.75 0,0.51 0.17,0.91 0.51,1.2 0.34,0.29 0.77,0.43 1.31,0.43 z"
   id="path297" />
	<path
   class="st4x"
   d="m 428.32,463.3 c 0.58,0 1.09,-0.18 1.52,-0.53 0.43,-0.35 0.67,-0.79 0.72,-1.32 h 1.54 c -0.03,0.54 -0.22,1.06 -0.56,1.56 -0.34,0.5 -0.81,0.88 -1.38,1.18 -0.57,0.3 -1.19,0.44 -1.83,0.44 -1.29,0 -2.33,-0.43 -3.09,-1.3 -0.76,-0.87 -1.15,-2.05 -1.15,-3.55 v -0.27 c 0,-0.93 0.17,-1.75 0.51,-2.47 0.34,-0.72 0.83,-1.28 1.46,-1.68 0.63,-0.4 1.39,-0.6 2.25,-0.6 1.07,0 1.95,0.32 2.66,0.96 0.71,0.64 1.08,1.47 1.13,2.49 h -1.54 c -0.05,-0.62 -0.28,-1.12 -0.7,-1.52 -0.42,-0.4 -0.94,-0.59 -1.55,-0.59 -0.83,0 -1.47,0.3 -1.92,0.89 -0.45,0.59 -0.68,1.45 -0.68,2.58 v 0.31 c 0,1.1 0.23,1.94 0.68,2.53 0.45,0.59 1.09,0.89 1.93,0.89 z"
   id="path299" />
	<path
   class="st4x"
   d="m 435.55,456.09 c 0.72,-0.88 1.66,-1.33 2.81,-1.33 2.01,0 3.02,1.13 3.04,3.4 v 6.28 h -1.63 v -6.29 c -0.01,-0.69 -0.16,-1.19 -0.47,-1.52 -0.31,-0.33 -0.79,-0.49 -1.44,-0.49 -0.53,0 -0.99,0.14 -1.39,0.42 -0.4,0.28 -0.71,0.65 -0.93,1.11 v 6.78 h -1.63 v -13.5 h 1.63 v 5.14 z"
   id="path301" />
	<path
   class="st4x"
   d="m 455.61,458.8 h -5.37 v 5.65 h -1.69 v -12.8 h 7.93 v 1.38 h -6.24 v 4.39 h 5.37 z"
   id="path303" />
	<path
   class="st4x"
   d="m 463.82,464.45 c -0.09,-0.19 -0.17,-0.52 -0.23,-1 -0.76,0.79 -1.66,1.18 -2.71,1.18 -0.94,0 -1.71,-0.26 -2.31,-0.79 -0.6,-0.53 -0.9,-1.2 -0.9,-2.02 0,-0.99 0.38,-1.76 1.13,-2.31 0.75,-0.55 1.81,-0.82 3.18,-0.82 h 1.58 v -0.75 c 0,-0.57 -0.17,-1.02 -0.51,-1.36 -0.34,-0.34 -0.84,-0.51 -1.5,-0.51 -0.58,0 -1.07,0.15 -1.46,0.44 -0.39,0.29 -0.59,0.65 -0.59,1.06 h -1.63 c 0,-0.47 0.17,-0.93 0.5,-1.38 0.33,-0.45 0.79,-0.79 1.37,-1.05 0.58,-0.26 1.21,-0.39 1.9,-0.39 1.1,0 1.95,0.27 2.58,0.82 0.63,0.55 0.94,1.3 0.97,2.26 v 4.38 c 0,0.87 0.11,1.57 0.33,2.08 v 0.14 h -1.7 z m -2.7,-1.24 c 0.51,0 0.99,-0.13 1.45,-0.4 0.46,-0.27 0.79,-0.61 0.99,-1.03 v -1.95 h -1.27 c -1.99,0 -2.99,0.58 -2.99,1.75 0,0.51 0.17,0.91 0.51,1.2 0.34,0.29 0.78,0.43 1.31,0.43 z"
   id="path305" />
	<path
   class="st4x"
   d="m 471.55,463.3 c 0.58,0 1.09,-0.18 1.52,-0.53 0.43,-0.35 0.67,-0.79 0.72,-1.32 h 1.54 c -0.03,0.54 -0.22,1.06 -0.56,1.56 -0.34,0.5 -0.81,0.88 -1.38,1.18 -0.57,0.3 -1.19,0.44 -1.83,0.44 -1.29,0 -2.33,-0.43 -3.09,-1.3 -0.76,-0.87 -1.15,-2.05 -1.15,-3.55 v -0.27 c 0,-0.93 0.17,-1.75 0.51,-2.47 0.34,-0.72 0.83,-1.28 1.46,-1.68 0.63,-0.4 1.39,-0.6 2.25,-0.6 1.07,0 1.95,0.32 2.66,0.96 0.71,0.64 1.08,1.47 1.13,2.49 h -1.54 c -0.05,-0.62 -0.28,-1.12 -0.7,-1.52 -0.42,-0.4 -0.94,-0.59 -1.55,-0.59 -0.83,0 -1.47,0.3 -1.92,0.89 -0.45,0.59 -0.68,1.45 -0.68,2.58 v 0.31 c 0,1.1 0.23,1.94 0.68,2.53 0.45,0.59 1.09,0.89 1.93,0.89 z"
   id="path307" />
	<path
   class="st4x"
   d="m 477.17,452.41 c 0,-0.26 0.08,-0.49 0.24,-0.67 0.16,-0.18 0.4,-0.27 0.72,-0.27 0.32,0 0.56,0.09 0.72,0.27 0.16,0.18 0.25,0.4 0.25,0.67 0,0.27 -0.08,0.48 -0.25,0.66 -0.17,0.18 -0.4,0.26 -0.72,0.26 -0.32,0 -0.56,-0.09 -0.72,-0.26 -0.16,-0.17 -0.24,-0.39 -0.24,-0.66 z m 1.76,12.04 h -1.63 v -9.51 h 1.63 z"
   id="path309" />
	<path
   class="st4x"
   d="m 483.29,464.45 h -1.63 v -13.5 h 1.63 z"
   id="path311" />
	<path
   class="st4x"
   d="m 485.9,452.41 c 0,-0.26 0.08,-0.49 0.24,-0.67 0.16,-0.18 0.4,-0.27 0.72,-0.27 0.32,0 0.56,0.09 0.72,0.27 0.16,0.18 0.25,0.4 0.25,0.67 0,0.27 -0.08,0.48 -0.25,0.66 -0.17,0.18 -0.4,0.26 -0.72,0.26 -0.32,0 -0.56,-0.09 -0.72,-0.26 -0.16,-0.17 -0.24,-0.39 -0.24,-0.66 z m 1.76,12.04 h -1.63 v -9.51 h 1.63 z"
   id="path313" />
	<path
   class="st4x"
   d="m 492.47,452.63 v 2.3 h 1.78 v 1.26 h -1.78 v 5.91 c 0,0.38 0.08,0.67 0.24,0.86 0.16,0.19 0.43,0.29 0.81,0.29 0.19,0 0.45,-0.04 0.77,-0.11 v 1.31 c -0.43,0.12 -0.84,0.17 -1.25,0.17 -0.73,0 -1.27,-0.22 -1.64,-0.66 -0.37,-0.44 -0.55,-1.06 -0.55,-1.87 v -5.9 h -1.73 v -1.26 h 1.73 v -2.3 z"
   id="path315" />
	<path
   class="st4x"
   d="m 502.01,464.45 c -0.09,-0.19 -0.17,-0.52 -0.23,-1 -0.76,0.79 -1.66,1.18 -2.71,1.18 -0.94,0 -1.71,-0.26 -2.31,-0.79 -0.6,-0.53 -0.9,-1.2 -0.9,-2.02 0,-0.99 0.38,-1.76 1.13,-2.31 0.75,-0.55 1.81,-0.82 3.18,-0.82 h 1.58 v -0.75 c 0,-0.57 -0.17,-1.02 -0.51,-1.36 -0.34,-0.34 -0.84,-0.51 -1.5,-0.51 -0.58,0 -1.07,0.15 -1.46,0.44 -0.39,0.29 -0.59,0.65 -0.59,1.06 h -1.63 c 0,-0.47 0.17,-0.93 0.5,-1.38 0.33,-0.45 0.79,-0.79 1.37,-1.05 0.58,-0.26 1.21,-0.39 1.9,-0.39 1.1,0 1.95,0.27 2.58,0.82 0.63,0.55 0.94,1.3 0.97,2.26 v 4.38 c 0,0.87 0.11,1.57 0.33,2.08 v 0.14 h -1.7 z m -2.69,-1.24 c 0.51,0 0.99,-0.13 1.45,-0.4 0.46,-0.27 0.79,-0.61 0.99,-1.03 v -1.95 h -1.27 c -1.99,0 -2.99,0.58 -2.99,1.75 0,0.51 0.17,0.91 0.51,1.2 0.34,0.29 0.77,0.43 1.31,0.43 z"
   id="path317" />
	<path
   class="st4x"
   d="m 508.14,452.63 v 2.3 h 1.78 v 1.26 h -1.78 v 5.91 c 0,0.38 0.08,0.67 0.24,0.86 0.16,0.19 0.43,0.29 0.81,0.29 0.19,0 0.45,-0.04 0.77,-0.11 v 1.31 c -0.43,0.12 -0.84,0.17 -1.25,0.17 -0.73,0 -1.27,-0.22 -1.64,-0.66 -0.37,-0.44 -0.55,-1.06 -0.55,-1.87 v -5.9 h -1.73 v -1.26 h 1.73 v -2.3 z"
   id="path319" />
	<path
   class="st4x"
   d="m 511.21,459.6 c 0,-0.93 0.18,-1.77 0.55,-2.51 0.37,-0.74 0.88,-1.32 1.53,-1.72 0.65,-0.4 1.4,-0.61 2.24,-0.61 1.29,0 2.34,0.45 3.14,1.34 0.8,0.89 1.2,2.09 1.2,3.58 v 0.11 c 0,0.93 -0.18,1.76 -0.53,2.49 -0.35,0.73 -0.86,1.31 -1.52,1.72 -0.66,0.41 -1.42,0.62 -2.27,0.62 -1.29,0 -2.33,-0.45 -3.13,-1.34 -0.8,-0.89 -1.2,-2.08 -1.2,-3.56 v -0.12 z m 1.63,0.2 c 0,1.05 0.24,1.9 0.73,2.54 0.49,0.64 1.14,0.96 1.96,0.96 0.83,0 1.48,-0.32 1.97,-0.97 0.49,-0.65 0.73,-1.55 0.73,-2.72 0,-1.04 -0.25,-1.89 -0.74,-2.54 -0.49,-0.65 -1.15,-0.97 -1.97,-0.97 -0.8,0 -1.45,0.32 -1.94,0.96 -0.49,0.64 -0.74,1.55 -0.74,2.74 z"
   id="path321" />
	<path
   class="st4x"
   d="m 526.5,456.4 c -0.25,-0.04 -0.51,-0.06 -0.8,-0.06 -1.07,0 -1.79,0.45 -2.17,1.36 v 6.75 h -1.63 v -9.51 h 1.58 l 0.03,1.1 c 0.53,-0.85 1.29,-1.27 2.27,-1.27 0.32,0 0.56,0.04 0.72,0.12 z"
   id="path323" />
</g>
</svg>
