<?xml version="1.0" encoding="utf-8"?>
<!-- Generator: Adobe Illustrator 23.0.2, SVG Export Plug-In . SVG Version: 6.00 Build 0)  -->
<svg version="1.1" id="Layer_1" xmlns="http://www.w3.org/2000/svg" xmlns:xlink="http://www.w3.org/1999/xlink" x="0px" y="0px"
	 viewBox="0 0 1920 2835.1" enable-background="new 0 0 1920 2835.1" xml:space="preserve">
<path display="none" fill="none" stroke="#231F20" stroke-width="45" stroke-miterlimit="10" d="M402,392.2h950.8
	c72.8,0,131.7,59,131.7,131.7v2c0,72.8-59,131.7-131.7,131.7H533.8c-72.8,0-131.7,59-131.7,131.7v4.1c0,72.8,59,131.7,131.7,131.7
	h819.1c72.8,0,131.7,59,131.7,131.7v2c0,72.8-59,131.7-131.7,131.7H533.8c-72.8,0-131.7,59-131.7,131.7v0
	c0,72.8,59,131.7,131.7,131.7h819.1c72.8,0,131.7,59,131.7,131.7v0c0,72.8-59,131.7-131.7,131.7H533.8c-72.8,0-131.7,59-131.7,131.7
	v2c0,72.8,59,131.7,131.7,131.7h819.1c72.8,0,131.7,59,131.7,131.7v2c0,72.8-59,131.7-131.7,131.7H533.8
	c-72.8,0-131.7,59-131.7,131.7v2c0,72.8,59,131.7,131.7,131.7h819.1c72.8,0,131.7,59,131.7,131.7v4.1c0,72.8-59,131.7-131.7,131.7
	H402"/>
<a xlink:href="https://www.tryscrum.com/professional-scrum-master/" target="_black" transform="matrix(1 0 0 1 647.1489 111.5461)">
	<image overflow="visible" width="151" height="151" xlink:href="http://tryscrumlive.vervebot.io/wp-content/uploads/2021/08/psm-05.png" >
	</image>
</a>
<g id="b_2_">
	<path fill="#EB1E28" d="M222.6,438.4c-10.2,10.8-16.5,25.3-16.5,41.2h-45.3c0-28.5,11.3-54.4,29.7-73.3L222.6,438.4z"/>
	<path fill="#F59320" d="M265.1,374.3v45.3c-16,0.3-30.5,6.8-41.2,17.3l-32.1-32.1C210.7,386.2,236.6,374.6,265.1,374.3z"/>
	<path fill="#FCD206" d="M340.3,404.7l-32.2,32.2c-10.6-10.5-25.1-17-41.1-17.2v-45.5C295.7,374.4,321.5,386,340.3,404.7z"/>
	<path fill="#0D8D45" d="M371.5,479.5h-45.3c0-15.9-6.3-30.4-16.5-41.2l32.2-32.2C360.1,425.1,371.5,451,371.5,479.5z"/>
	<path fill="#4B4E58" d="M324.1,479.5h-116c0-15.4,6-29.4,15.8-39.8c0.5-0.5,0.9-1,1.4-1.4c10.3-10.2,24.3-16.5,39.8-16.8
		c0.3,0,0.7,0,1,0c0.3,0,0.7,0,1,0c15.5,0.3,29.5,6.6,39.8,16.7c0.5,0.5,0.9,0.9,1.4,1.4C318.1,450,324.1,464,324.1,479.5z"/>
	<g>
		
			<ellipse transform="matrix(0.2273 -0.9738 0.9738 0.2273 -284.4444 521.5918)" fill="#F2F2F2" cx="186.4" cy="440" rx="3.5" ry="3.5"/>
		<path fill="#F2F2F2" d="M199.1,454.1l-4.5,0l-1.6-2.2c0,0,0,0-0.1,0c-1.2,0.4-2.3,0.5-3.4,0.5h0c-1.9,0-3.4-0.6-4.5-1.2l-0.2,0.2
			c0-0.1,0-0.2,0.1-0.4c-0.7-0.5-1.3-1-1.6-1.3c-1.1-1.2-1.6-2.3-1.8-2.7l0,0l0,0c-0.2-0.4-0.2-0.8,0-1.2c0.2-0.4,0.5-0.7,0.9-0.8
			c0.2-0.1,0.4-0.1,0.6-0.1c0.6,0,1.2,0.4,1.5,1c0,0,0,0.1,0,0.1c0.1,0.1,0.1,0.3,0.2,0.4c0.2,0.3,0.5,0.8,0.9,1.2c0,0,0,0,0,0
			c0,0,0,0,0,0c0.4-1.6-0.1-3.4-1.5-3.8c-1.3-0.3-3.3,0.4-4.1,2.7c-1.1,3.2-1.3,5.2-0.9,8.7c0.5,2.5,2.2,2.8,3.7,2.8c0,0,0,0,0,0
			c0,0,0,0,0,0h16.4c1.1,0,2-0.9,2-2C201.1,454.9,200.2,454.1,199.1,454.1z M187.6,454.1l1.2-1.1l0.8,1.1H187.6z"/>
		<path fill="#F2F2F2" d="M190.9,449.2l-0.3-0.3c-0.3-0.4-0.8-0.7-1.4-0.8c-0.6,0-1.1,0.1-1.5,0.5l-0.4,0.4c0.6,0.3,1.3,0.4,2.1,0.4
			C189.9,449.3,190.4,449.3,190.9,449.2z"/>
		<path fill="#F2F2F2" d="M184.2,446.5c-0.1-0.2-0.2-0.3-0.2-0.4c0,0,0-0.1,0-0.1c0,0,0,0,0,0h0c-0.3-0.6-1-0.9-1.6-0.7
			c-0.6,0.3-1,1-0.7,1.6v0c0,0.1,0.5,1.3,1.8,2.6c0.4,0.4,0.9,0.8,1.5,1.2c0.1,0.1,0.2,0.2,0.4,0.2c1.1,0.7,2.5,1.1,4.3,1.1
			c0,0,0,0,0,0c1,0,2.1-0.2,3.3-0.5c0,0,0,0,0,0c0.7-0.2,1-0.9,0.8-1.6c-0.2-0.7-0.9-1-1.6-0.8c-0.3,0.1-0.6,0.2-0.9,0.2
			c-0.6,0.1-1.1,0.2-1.6,0.2c-0.9,0-1.7-0.2-2.4-0.5c-0.7-0.3-1.3-0.7-1.8-1.2c-0.1-0.1-0.1-0.1-0.2-0.2
			C184.7,447.3,184.4,446.9,184.2,446.5z"/>
	</g>
	<g>
		<polygon fill="#C8C5C5" points="254.2,476.1 197,457.2 254.2,469.8 		"/>
		<polygon fill="#EAEAEA" points="256.9,464.1 197,457.2 254.2,469.8 		"/>
	</g>
	<path fill="#C8C5C5" d="M266.1,455.6c-8.5,0-15.3,6.9-15.3,15.3c0,3.2,1,6.1,2.6,8.5h25.4c1.6-2.4,2.6-5.4,2.6-8.5
		C281.4,462.5,274.6,455.6,266.1,455.6z"/>
	<path fill="#EAEAEA" d="M279.9,470.9c0,3.2-1.1,6.2-3,8.5h-21.5c-1.9-2.3-3-5.3-3-8.5c0-7.6,6.2-13.8,13.8-13.8
		C273.7,457.2,279.9,463.3,279.9,470.9z"/>
	<g>
		<circle fill="#F2F2F2" cx="302.9" cy="395.3" r="3"/>
		<polygon fill="#F2F2F2" points="299.9,408.1 304.1,399.8 298.9,397.1 294.5,405.6 		"/>
		<path fill="#F2F2F2" d="M307.5,405.1l-3.4,0l0-4.6l-1.8,3.6l0,1.7c0,0.5,0.4,1,1,1l4.2,0c0.5,0,0.8-0.4,0.8-0.8
			C308.3,405.4,307.9,405.1,307.5,405.1z"/>
		<path fill="#F2F2F2" d="M292.7,403.1c0.5,0,0.8-0.4,0.8-0.8l0-3.4l3.9,0l1-1.8c0,0-0.7,0-1.5,0l-4.1,0c-0.5,0-1,0.4-1,1l0,4.2
			C291.8,402.7,292.2,403.1,292.7,403.1z"/>
		<path fill="#F2F2F2" d="M303.6,410.1l-9.3-4.2l0,0l0,0v6.6l-4.7,0c-0.6,0-1.2,0.5-1.2,1.2l0,0c0,0.6,0.5,1.2,1.2,1.2l5.9,0
			c0.8,0,1.4-0.6,1.4-1.4v-3.3l4.6,2.1l-2.1,4.6c-0.3,0.6,0,1.4,0.6,1.7l0,0c0.6,0.3,1.4,0,1.7-0.6l2.6-5.8
			C304.7,411.4,304.4,410.5,303.6,410.1z"/>
	</g>
	<g>
		<path fill="#F2F2F2" d="M232.7,393.9c0.7,0,1.3,0.3,1.7,0.7c0.4,0.4,0.7,1,0.7,1.7c0,0.7-0.3,1.3-0.7,1.7c-0.4,0.4-1,0.7-1.7,0.7
			c-0.7,0-1.3-0.3-1.7-0.7c-0.4-0.4-0.7-1-0.7-1.7c0-0.7,0.3-1.3,0.7-1.7C231.4,394.2,232,393.9,232.7,393.9z"/>
		<path fill="#F2F2F2" d="M232.2,398.9c0.4,0.1,0.7,0.3,0.9,0.5c0.3,0.2,0.5,0.5,0.6,0.8l2.1,3.4l3.9,0.7c0.4,0.1,0.6,0.3,0.7,0.6
			c0.1,0.3,0.2,0.6,0.1,0.9c0,0.1,0,0.1,0,0.1c-0.1,0.3-0.3,0.6-0.6,0.7c-0.2,0.1-0.5,0.1-0.8,0.1c-0.1,0-0.1,0-0.2,0l-4-0.7
			c-0.1,0-0.2-0.1-0.3-0.1c-0.1,0-0.2-0.1-0.2-0.2c-0.1-0.1-0.2-0.1-0.3-0.2c-0.1-0.1-0.2-0.2-0.3-0.3l-0.7-1.1
			c-0.2,1.1-0.6,2.6-1,3.4l2.2,1.9c0.1,0.1,0.2,0.2,0.3,0.3c0.1,0.1,0.1,0.2,0.2,0.3c0.1,0.1,0.1,0.2,0.2,0.3
			c0.1,0.1,0.1,0.2,0.1,0.4l0.4,4.7c0,0.1,0,0.1,0,0.2c0,0.3-0.1,0.6-0.2,0.9c-0.1,0.2-0.2,0.4-0.4,0.5c-0.2,0.1-0.5,0.1-0.8,0.1
			c-0.3,0-0.6-0.1-0.8-0.2c-0.3-0.2-0.5-0.4-0.5-0.8l-0.4-4.6l-2.2-1.8L230,412c0,0.1,0,0.3-0.1,0.4c0,0.1-0.1,0.2-0.1,0.3
			c0,0.1,0,0.2-0.1,0.2c0,0.1-0.1,0.2-0.2,0.2l-3.2,3.5c0,0-0.1,0.1-0.1,0.1c-0.2,0.2-0.5,0.4-0.8,0.5c-0.3,0.1-0.7,0.1-1-0.2l0,0
			c0,0,0,0,0,0l0,0c0,0,0,0,0,0c-0.2-0.3-0.5-0.6-0.6-0.9c-0.1-0.3,0-0.7,0.2-1l3.2-3.5c0,0,0,0,0,0l0.6-4.3c0-0.2,0-0.4,0-0.5
			c0-0.3,0-0.6,0.1-0.8l1-3.8l-1.8,0.5l-1.7,3.6c-0.1,0.3-0.4,0.5-0.7,0.5c-0.3,0.1-0.7,0-1-0.1l0,0c0,0,0,0,0,0c0,0,0,0-0.1,0
			c-0.3-0.1-0.5-0.4-0.5-0.7c0-0.3,0-0.6,0.1-0.8l0,0l0,0c0,0,0-0.1,0.1-0.1l1.7-3.7c0-0.1,0.1-0.2,0.2-0.3c0.1-0.1,0.1-0.1,0.2-0.2
			c0.1-0.1,0.2-0.2,0.3-0.2c0.1-0.1,0.2-0.1,0.4-0.2l4.6-1.4c0,0,0.1,0,0.1,0l0,0c0,0,0,0,0,0c0,0,0.1,0,0.1,0l0,0l0,0
			c0,0,0.1,0,0.1,0c0,0,0.1,0,0.1,0c0.1,0,0.3,0,0.4,0C231.9,398.9,232,398.9,232.2,398.9z"/>
	</g>
	
		<image overflow="visible" width="512" height="512" xlink:href="http://tryscrumlive.vervebot.io/wp-content/uploads/2021/08/beginner-06.png"  transform="matrix(5.721660e-02 0 0 5.721660e-02 327.8985 435.2027)">
	</image>
</g>
<g>
	<path d="M212.3,525.2v-19.9h6.8c1.1,0,2,0.1,2.9,0.3c0.9,0.2,1.6,0.5,2.2,1c0.6,0.4,1,1,1.4,1.7c0.3,0.7,0.5,1.5,0.5,2.4
		c0,0.9-0.2,1.7-0.7,2.5c-0.5,0.7-1.2,1.3-2.2,1.7c0.6,0.2,1.1,0.4,1.5,0.7c0.4,0.3,0.8,0.6,1.1,1c0.3,0.4,0.5,0.8,0.6,1.3
		c0.1,0.5,0.2,1,0.2,1.5c0,1-0.2,1.8-0.5,2.5s-0.8,1.3-1.4,1.8c-0.6,0.5-1.3,0.9-2.2,1.1c-0.9,0.2-1.8,0.4-2.9,0.4H212.3z
		 M215.7,513.7h3.4c1.1,0,1.9-0.2,2.5-0.7c0.6-0.5,0.9-1.2,0.9-2.1c0-1-0.3-1.7-0.8-2.1s-1.4-0.7-2.6-0.7h-3.4V513.7z M215.7,516.2
		v6.2h3.8c0.6,0,1.1-0.1,1.5-0.2c0.4-0.1,0.8-0.4,1.1-0.6c0.3-0.3,0.5-0.6,0.7-1c0.1-0.4,0.2-0.8,0.2-1.2c0-1-0.3-1.8-0.8-2.3
		c-0.5-0.6-1.4-0.8-2.5-0.8H215.7z"/>
	<path d="M236.1,525.5c-1.1,0-2.1-0.2-3-0.5s-1.6-0.9-2.2-1.5c-0.6-0.6-1.1-1.4-1.4-2.3s-0.5-1.8-0.5-2.8v-0.5
		c0-1.2,0.2-2.2,0.5-3.2c0.3-0.9,0.8-1.7,1.4-2.4c0.6-0.7,1.3-1.2,2.1-1.5c0.8-0.4,1.7-0.5,2.6-0.5c1.1,0,2,0.2,2.8,0.5
		c0.8,0.4,1.4,0.9,2,1.5c0.5,0.6,0.9,1.4,1.2,2.3c0.3,0.9,0.4,1.9,0.4,2.9v1.4h-9.7c0,0.6,0.2,1.1,0.4,1.6c0.2,0.5,0.5,0.9,0.8,1.3
		c0.3,0.4,0.7,0.6,1.2,0.8c0.5,0.2,1,0.3,1.6,0.3c0.8,0,1.5-0.2,2.1-0.5c0.6-0.3,1.1-0.8,1.6-1.4l1.8,1.7c-0.2,0.4-0.5,0.7-0.9,1
		c-0.4,0.3-0.8,0.6-1.2,0.9c-0.5,0.3-1,0.5-1.6,0.6C237.5,525.4,236.9,525.5,236.1,525.5z M235.7,512.8c-0.9,0-1.6,0.3-2.2,1
		c-0.6,0.6-0.9,1.5-1.1,2.7h6.3v-0.2c0-0.4-0.1-0.9-0.2-1.3c-0.1-0.4-0.3-0.8-0.5-1.1c-0.2-0.3-0.5-0.6-0.9-0.8
		C236.8,512.9,236.3,512.8,235.7,512.8z"/>
	<path d="M244.1,517.7c0-1.1,0.1-2.1,0.4-3.1s0.7-1.7,1.2-2.4c0.5-0.7,1.1-1.2,1.9-1.5c0.7-0.4,1.5-0.5,2.5-0.5
		c0.9,0,1.7,0.2,2.3,0.5c0.6,0.3,1.2,0.7,1.7,1.3l0.2-1.5h3v14.4c0,1-0.2,1.9-0.5,2.7c-0.3,0.8-0.8,1.4-1.4,2
		c-0.6,0.5-1.3,0.9-2.1,1.2c-0.8,0.3-1.7,0.4-2.7,0.4c-0.4,0-0.9,0-1.4-0.1c-0.5-0.1-1-0.2-1.5-0.4c-0.5-0.2-1-0.4-1.5-0.8
		c-0.5-0.3-0.9-0.7-1.2-1.1l1.6-2c0.5,0.6,1.1,1.1,1.8,1.4c0.6,0.3,1.3,0.4,2,0.4c1.1,0,2-0.3,2.6-0.9c0.6-0.6,1-1.5,1-2.6v-1
		c-0.5,0.5-1,0.9-1.6,1.2s-1.4,0.4-2.2,0.4c-0.9,0-1.7-0.2-2.4-0.6s-1.3-0.9-1.9-1.6c-0.5-0.7-0.9-1.5-1.2-2.4s-0.4-1.9-0.4-3V517.7
		z M247.4,518c0,0.7,0.1,1.3,0.2,1.9c0.1,0.6,0.3,1.1,0.6,1.5c0.3,0.4,0.6,0.8,1.1,1c0.4,0.3,0.9,0.4,1.5,0.4c0.7,0,1.4-0.2,1.8-0.5
		c0.5-0.3,0.9-0.7,1.1-1.3v-6.5c-0.3-0.5-0.7-0.9-1.2-1.2s-1.1-0.5-1.8-0.5c-0.6,0-1.1,0.1-1.6,0.4c-0.4,0.3-0.8,0.6-1.1,1
		c-0.3,0.4-0.5,1-0.6,1.5s-0.2,1.2-0.2,1.9V518z"/>
	<path d="M260.5,506.6c0-0.5,0.2-0.9,0.5-1.3c0.3-0.3,0.8-0.5,1.4-0.5s1.1,0.2,1.4,0.5c0.3,0.3,0.5,0.8,0.5,1.3
		c0,0.5-0.2,0.9-0.5,1.3c-0.3,0.3-0.8,0.5-1.4,0.5s-1.1-0.2-1.4-0.5C260.7,507.5,260.5,507.1,260.5,506.6z M264.1,525.2h-3.3v-14.8
		h3.3V525.2z"/>
	<path d="M270.8,510.4l0.1,1.7c0.5-0.6,1.1-1.1,1.9-1.5c0.7-0.3,1.5-0.5,2.4-0.5c0.7,0,1.4,0.1,1.9,0.3c0.6,0.2,1.1,0.5,1.5,1
		s0.7,1,1,1.7c0.2,0.7,0.3,1.6,0.3,2.6v9.6h-3.3v-9.6c0-0.5-0.1-0.9-0.2-1.3c-0.1-0.4-0.3-0.6-0.5-0.9s-0.5-0.4-0.8-0.5
		c-0.3-0.1-0.7-0.1-1.1-0.1c-0.7,0-1.3,0.2-1.8,0.5s-0.9,0.8-1.2,1.3v10.5h-3.3v-14.8H270.8z"/>
	<path d="M286.3,510.4l0.1,1.7c0.5-0.6,1.1-1.1,1.9-1.5c0.7-0.3,1.5-0.5,2.4-0.5c0.7,0,1.4,0.1,1.9,0.3c0.6,0.2,1.1,0.5,1.5,1
		s0.7,1,1,1.7c0.2,0.7,0.3,1.6,0.3,2.6v9.6h-3.3v-9.6c0-0.5-0.1-0.9-0.2-1.3c-0.1-0.4-0.3-0.6-0.5-0.9s-0.5-0.4-0.8-0.5
		c-0.3-0.1-0.7-0.1-1.1-0.1c-0.7,0-1.3,0.2-1.8,0.5s-0.9,0.8-1.2,1.3v10.5h-3.3v-14.8H286.3z"/>
	<path d="M305.3,525.5c-1.1,0-2.1-0.2-3-0.5s-1.6-0.9-2.2-1.5c-0.6-0.6-1.1-1.4-1.4-2.3s-0.5-1.8-0.5-2.8v-0.5
		c0-1.2,0.2-2.2,0.5-3.2c0.3-0.9,0.8-1.7,1.4-2.4c0.6-0.7,1.3-1.2,2.1-1.5c0.8-0.4,1.7-0.5,2.6-0.5c1.1,0,2,0.2,2.8,0.5
		c0.8,0.4,1.4,0.9,2,1.5c0.5,0.6,0.9,1.4,1.2,2.3c0.3,0.9,0.4,1.9,0.4,2.9v1.4h-9.7c0,0.6,0.2,1.1,0.4,1.6c0.2,0.5,0.5,0.9,0.8,1.3
		c0.3,0.4,0.7,0.6,1.2,0.8c0.5,0.2,1,0.3,1.6,0.3c0.8,0,1.5-0.2,2.1-0.5c0.6-0.3,1.1-0.8,1.6-1.4l1.8,1.7c-0.2,0.4-0.5,0.7-0.9,1
		c-0.4,0.3-0.8,0.6-1.2,0.9c-0.5,0.3-1,0.5-1.6,0.6C306.7,525.4,306.1,525.5,305.3,525.5z M304.9,512.8c-0.9,0-1.6,0.3-2.2,1
		c-0.6,0.6-0.9,1.5-1.1,2.7h6.3v-0.2c0-0.4-0.1-0.9-0.2-1.3c-0.1-0.4-0.3-0.8-0.5-1.1c-0.2-0.3-0.5-0.6-0.9-0.8
		C305.9,512.9,305.5,512.8,304.9,512.8z"/>
	<path d="M321.6,513.5c-0.2,0-0.4-0.1-0.7-0.1c-0.2,0-0.5,0-0.7,0c-0.8,0-1.5,0.2-2,0.5c-0.5,0.3-0.9,0.7-1.1,1.3v10.1h-3.3v-14.8
		h3.2l0.1,1.7c0.4-0.6,0.8-1.1,1.4-1.4c0.6-0.3,1.2-0.5,1.9-0.5c0.2,0,0.4,0,0.6,0.1c0.2,0,0.4,0.1,0.5,0.1L321.6,513.5z"/>
</g>
<image overflow="visible" width="151" height="151" xlink:href="http://tryscrumlive.vervebot.io/wp-content/uploads/2021/08/psm-2-05.png"  transform="matrix(1 0 0 1 630.1915 637.2443)">
</image>
<image overflow="visible" width="150" height="150" xlink:href="http://tryscrumlive.vervebot.io/wp-content/uploads/2021/08/pspo.png"  transform="matrix(1 0 0 1 1234.2418 374.4677)">
</image>
<image overflow="visible" width="151" height="151" xlink:href="http://tryscrumlive.vervebot.io/wp-content/uploads/2021/08/pspo-advance-05.png"  transform="matrix(1 0 0 1 1233.7418 907.2017)">
</image>
<g>
	<path d="M1622,1034.5v7.4h-3.5V1022h7.6c1.2,0,2.2,0.2,3.1,0.5c0.9,0.3,1.7,0.8,2.3,1.3c0.6,0.6,1.1,1.2,1.4,2
		c0.3,0.8,0.5,1.6,0.5,2.5c0,1-0.2,1.8-0.5,2.6c-0.3,0.8-0.8,1.4-1.4,1.9c-0.6,0.5-1.4,0.9-2.3,1.2c-0.9,0.3-1.9,0.4-3.1,0.4H1622z
		 M1622,1031.7h4.2c0.7,0,1.2-0.1,1.7-0.2s0.9-0.4,1.2-0.7c0.3-0.3,0.5-0.7,0.7-1.1c0.1-0.4,0.2-0.9,0.2-1.4c0-0.5-0.1-0.9-0.2-1.3
		c-0.1-0.4-0.4-0.8-0.7-1.1c-0.3-0.3-0.7-0.6-1.2-0.8c-0.5-0.2-1.1-0.3-1.7-0.3h-4.2V1031.7z"/>
	<path d="M1643.8,1030.1c-0.2,0-0.4-0.1-0.7-0.1c-0.2,0-0.5,0-0.7,0c-0.8,0-1.5,0.2-2,0.5c-0.5,0.3-0.9,0.7-1.1,1.3v10.1h-3.3v-14.8
		h3.2l0.1,1.7c0.4-0.6,0.8-1.1,1.4-1.4c0.6-0.3,1.2-0.5,1.9-0.5c0.2,0,0.4,0,0.6,0.1c0.2,0,0.4,0.1,0.5,0.1L1643.8,1030.1z"/>
	<path d="M1654.3,1041.9c-0.1-0.2-0.2-0.4-0.2-0.6c-0.1-0.2-0.1-0.5-0.2-0.8c-0.2,0.2-0.5,0.4-0.7,0.6c-0.3,0.2-0.6,0.4-0.9,0.5
		c-0.3,0.2-0.7,0.3-1.1,0.4c-0.4,0.1-0.8,0.1-1.2,0.1c-0.7,0-1.4-0.1-2-0.3c-0.6-0.2-1.2-0.5-1.6-0.9c-0.4-0.4-0.8-0.9-1-1.4
		c-0.3-0.5-0.4-1.1-0.4-1.8c0-0.8,0.2-1.5,0.5-2.1c0.3-0.6,0.7-1.1,1.3-1.5s1.3-0.7,2.1-0.9c0.8-0.2,1.8-0.3,2.9-0.3h2.1v-1
		c0-0.8-0.2-1.4-0.6-1.8c-0.4-0.5-1.1-0.7-2-0.7c-0.4,0-0.7,0.1-1.1,0.2c-0.3,0.1-0.6,0.2-0.8,0.4c-0.2,0.2-0.4,0.4-0.5,0.6
		s-0.2,0.5-0.2,0.8h-3.3c0-0.6,0.1-1.1,0.4-1.7c0.3-0.5,0.7-1,1.2-1.4c0.5-0.4,1.2-0.8,1.9-1c0.8-0.3,1.6-0.4,2.5-0.4
		c0.8,0,1.6,0.1,2.3,0.3c0.7,0.2,1.3,0.5,1.8,1c0.5,0.4,0.9,1,1.2,1.6c0.3,0.6,0.4,1.4,0.4,2.2v6.6c0,1.3,0.2,2.4,0.6,3.2v0.2
		H1654.3z M1650.7,1039.5c0.4,0,0.7,0,1.1-0.2c0.3-0.1,0.6-0.2,0.9-0.4c0.3-0.2,0.5-0.4,0.7-0.6c0.2-0.2,0.4-0.4,0.5-0.6v-2.8h-1.8
		c-1.2,0-2.2,0.2-2.8,0.6c-0.6,0.4-0.9,1-0.9,1.8c0,0.3,0,0.6,0.2,0.8c0.1,0.3,0.3,0.5,0.5,0.7c0.2,0.2,0.4,0.3,0.7,0.4
		C1650,1039.4,1650.3,1039.5,1650.7,1039.5z"/>
	<path d="M1666.7,1039.5c0.4,0,0.8-0.1,1.1-0.2c0.4-0.1,0.7-0.3,0.9-0.5c0.3-0.2,0.5-0.5,0.6-0.8c0.2-0.3,0.2-0.6,0.3-1h3.1
		c0,0.7-0.2,1.4-0.5,2c-0.3,0.6-0.8,1.2-1.3,1.6c-0.5,0.5-1.2,0.8-1.9,1.1c-0.7,0.3-1.5,0.4-2.3,0.4c-1.1,0-2.1-0.2-3-0.6
		c-0.8-0.4-1.5-0.9-2.1-1.6c-0.6-0.7-1-1.5-1.3-2.4s-0.4-1.9-0.4-2.9v-0.5c0-1,0.1-2,0.4-2.9s0.7-1.7,1.3-2.4
		c0.6-0.7,1.3-1.2,2.1-1.6c0.8-0.4,1.8-0.6,3-0.6c0.9,0,1.7,0.1,2.4,0.4c0.7,0.3,1.4,0.7,1.9,1.1c0.5,0.5,0.9,1.1,1.2,1.8
		c0.3,0.7,0.5,1.4,0.5,2.3h-3.1c0-0.4-0.1-0.8-0.2-1.1c-0.1-0.4-0.3-0.7-0.6-0.9c-0.3-0.3-0.6-0.5-0.9-0.6c-0.4-0.2-0.8-0.2-1.2-0.2
		c-0.7,0-1.2,0.1-1.7,0.4c-0.4,0.3-0.8,0.6-1,1.1c-0.3,0.4-0.4,1-0.5,1.5s-0.1,1.2-0.1,1.7v0.5c0,0.6,0,1.2,0.1,1.8
		c0.1,0.6,0.3,1.1,0.5,1.5c0.3,0.4,0.6,0.8,1,1.1C1665.5,1039.4,1666,1039.5,1666.7,1039.5z"/>
	<path d="M1679.5,1023.5v3.6h2.6v2.5h-2.6v8.3c0,0.3,0,0.6,0.1,0.8c0.1,0.2,0.2,0.4,0.3,0.5c0.1,0.1,0.3,0.2,0.5,0.2
		c0.2,0,0.4,0.1,0.6,0.1c0.2,0,0.4,0,0.7,0c0.2,0,0.4-0.1,0.5-0.1v2.6c-0.3,0.1-0.6,0.1-0.9,0.2c-0.4,0.1-0.8,0.1-1.3,0.1
		c-0.5,0-1.1-0.1-1.5-0.2c-0.5-0.1-0.9-0.4-1.2-0.7s-0.6-0.8-0.8-1.3c-0.2-0.5-0.3-1.2-0.3-1.9v-8.4h-2.4v-2.5h2.4v-3.6H1679.5z"/>
	<path d="M1684.6,1023.2c0-0.5,0.2-0.9,0.5-1.3c0.3-0.3,0.8-0.5,1.4-0.5s1.1,0.2,1.4,0.5c0.3,0.3,0.5,0.8,0.5,1.3
		c0,0.5-0.2,0.9-0.5,1.3c-0.3,0.3-0.8,0.5-1.4,0.5s-1.1-0.2-1.4-0.5C1684.8,1024.2,1684.6,1023.8,1684.6,1023.2z M1688.2,1041.9
		h-3.3v-14.8h3.3V1041.9z"/>
	<path d="M1695.9,1023.5v3.6h2.6v2.5h-2.6v8.3c0,0.3,0,0.6,0.1,0.8c0.1,0.2,0.2,0.4,0.3,0.5c0.1,0.1,0.3,0.2,0.5,0.2
		c0.2,0,0.4,0.1,0.6,0.1c0.2,0,0.4,0,0.7,0c0.2,0,0.4-0.1,0.5-0.1v2.6c-0.3,0.1-0.6,0.1-0.9,0.2c-0.4,0.1-0.8,0.1-1.3,0.1
		c-0.5,0-1.1-0.1-1.5-0.2c-0.5-0.1-0.9-0.4-1.2-0.7s-0.6-0.8-0.8-1.3c-0.2-0.5-0.3-1.2-0.3-1.9v-8.4h-2.4v-2.5h2.4v-3.6H1695.9z"/>
	<path d="M1701.1,1023.2c0-0.5,0.2-0.9,0.5-1.3c0.3-0.3,0.8-0.5,1.4-0.5s1.1,0.2,1.4,0.5c0.3,0.3,0.5,0.8,0.5,1.3
		c0,0.5-0.2,0.9-0.5,1.3c-0.3,0.3-0.8,0.5-1.4,0.5s-1.1-0.2-1.4-0.5C1701.3,1024.2,1701.1,1023.8,1701.1,1023.2z M1704.6,1041.9
		h-3.3v-14.8h3.3V1041.9z"/>
	<path d="M1707.6,1034.4c0-1.1,0.2-2.1,0.5-3s0.8-1.7,1.4-2.4c0.6-0.7,1.3-1.2,2.2-1.6s1.8-0.6,2.9-0.6c1.1,0,2.1,0.2,2.9,0.6
		c0.9,0.4,1.6,0.9,2.2,1.6c0.6,0.7,1,1.5,1.3,2.4c0.3,0.9,0.5,1.9,0.5,3v0.3c0,1.1-0.2,2.1-0.5,3c-0.3,0.9-0.8,1.7-1.3,2.4
		s-1.3,1.2-2.2,1.6c-0.9,0.4-1.8,0.6-2.9,0.6c-1.1,0-2.1-0.2-2.9-0.6c-0.9-0.4-1.6-0.9-2.2-1.6s-1-1.5-1.4-2.4
		c-0.3-0.9-0.5-1.9-0.5-3V1034.4z M1710.9,1034.6c0,0.7,0.1,1.3,0.2,1.9c0.1,0.6,0.4,1.1,0.6,1.6c0.3,0.4,0.7,0.8,1.1,1
		c0.5,0.3,1,0.4,1.6,0.4c0.6,0,1.1-0.1,1.6-0.4c0.5-0.3,0.8-0.6,1.1-1c0.3-0.4,0.5-1,0.6-1.6c0.1-0.6,0.2-1.2,0.2-1.9v-0.3
		c0-0.7-0.1-1.3-0.2-1.9c-0.1-0.6-0.4-1.1-0.6-1.5c-0.3-0.4-0.7-0.8-1.1-1.1c-0.5-0.3-1-0.4-1.6-0.4c-0.6,0-1.2,0.1-1.6,0.4
		c-0.4,0.3-0.8,0.6-1.1,1.1c-0.3,0.4-0.5,1-0.6,1.5s-0.2,1.2-0.2,1.9V1034.6z"/>
	<path d="M1727.3,1027.1l0.1,1.7c0.5-0.6,1.1-1.1,1.9-1.5c0.7-0.3,1.5-0.5,2.4-0.5c0.7,0,1.4,0.1,1.9,0.3c0.6,0.2,1.1,0.5,1.5,1
		s0.7,1,1,1.7c0.2,0.7,0.3,1.6,0.3,2.6v9.6h-3.3v-9.6c0-0.5-0.1-0.9-0.2-1.3c-0.1-0.4-0.3-0.6-0.5-0.9s-0.5-0.4-0.8-0.5
		c-0.3-0.1-0.7-0.1-1.1-0.1c-0.7,0-1.3,0.2-1.8,0.5s-0.9,0.8-1.2,1.3v10.5h-3.3v-14.8H1727.3z"/>
	<path d="M1746.3,1042.2c-1.1,0-2.1-0.2-3-0.5s-1.6-0.9-2.2-1.5c-0.6-0.6-1.1-1.4-1.4-2.3s-0.5-1.8-0.5-2.8v-0.5
		c0-1.2,0.2-2.2,0.5-3.2c0.3-0.9,0.8-1.7,1.4-2.4c0.6-0.7,1.3-1.2,2.1-1.5c0.8-0.4,1.7-0.5,2.6-0.5c1.1,0,2,0.2,2.8,0.5
		c0.8,0.4,1.4,0.9,2,1.5c0.5,0.6,0.9,1.4,1.2,2.3c0.3,0.9,0.4,1.9,0.4,2.9v1.4h-9.7c0,0.6,0.2,1.1,0.4,1.6c0.2,0.5,0.5,0.9,0.8,1.3
		c0.3,0.4,0.7,0.6,1.2,0.8c0.5,0.2,1,0.3,1.6,0.3c0.8,0,1.5-0.2,2.1-0.5c0.6-0.3,1.1-0.8,1.6-1.4l1.8,1.7c-0.2,0.4-0.5,0.7-0.9,1
		c-0.4,0.3-0.8,0.6-1.2,0.9c-0.5,0.3-1,0.5-1.6,0.6C1747.7,1042.1,1747,1042.2,1746.3,1042.2z M1745.9,1029.5c-0.9,0-1.6,0.3-2.2,1
		c-0.6,0.6-0.9,1.5-1.1,2.7h6.3v-0.2c0-0.4-0.1-0.9-0.2-1.3c-0.1-0.4-0.3-0.8-0.5-1.1c-0.2-0.3-0.5-0.6-0.9-0.8
		C1746.9,1029.6,1746.4,1029.5,1745.9,1029.5z"/>
	<path d="M1762.5,1030.1c-0.2,0-0.4-0.1-0.7-0.1c-0.2,0-0.5,0-0.7,0c-0.8,0-1.5,0.2-2,0.5c-0.5,0.3-0.9,0.7-1.1,1.3v10.1h-3.3v-14.8
		h3.2l0.1,1.7c0.4-0.6,0.8-1.1,1.4-1.4c0.6-0.3,1.2-0.5,1.9-0.5c0.2,0,0.4,0,0.6,0.1c0.2,0,0.4,0.1,0.5,0.1L1762.5,1030.1z"/>
</g>
<g>
	<path fill="#EB1E28" d="M1646.1,955.2c-10.2,10.8-16.5,25.3-16.5,41.2h-45.3c0-28.5,11.3-54.3,29.7-73.3L1646.1,955.2z"/>
	<path fill="#F59320" d="M1688.7,891.1v45.3c-16,0.3-30.5,6.8-41.1,17.3l-32.1-32.1C1634.3,903,1660.1,891.4,1688.7,891.1z"/>
	<path fill="#FCD206" d="M1763.9,921.6l-32.1,32.1c-10.6-10.4-25.1-17-41.1-17.2V891C1719.3,891.2,1745.1,902.9,1763.9,921.6z"/>
	<path fill="#0D8D45" d="M1795,996.3h-45.3c0-15.9-6.3-30.4-16.5-41.2l32.2-32.2C1783.7,942,1795,967.8,1795,996.3z"/>
	<path fill="#4B4E58" d="M1747.7,996.3h-116c0-15.4,6-29.4,15.8-39.7c0.5-0.5,0.9-1,1.4-1.4c10.3-10.2,24.3-16.5,39.8-16.8
		c0.3,0,0.7,0,1,0s0.7,0,1,0c15.5,0.3,29.5,6.6,39.7,16.7c0.5,0.5,0.9,0.9,1.4,1.4C1741.7,966.9,1747.7,980.9,1747.7,996.3z"/>
	<g>
		
			<ellipse transform="matrix(0.2273 -0.9738 0.9738 0.2273 312.2853 2307.3027)" fill="#F2F2F2" cx="1610" cy="956.9" rx="3.5" ry="3.5"/>
		<path fill="#F2F2F2" d="M1622.7,970.9l-4.5,0l-1.6-2.2c0,0,0,0-0.1,0c-1.2,0.4-2.3,0.5-3.4,0.5h0c-1.9,0-3.4-0.6-4.5-1.2l-0.2,0.2
			c0-0.1,0-0.2,0.1-0.4c-0.7-0.5-1.3-1-1.6-1.3c-1.1-1.2-1.6-2.3-1.8-2.7l0,0l0,0c-0.2-0.4-0.2-0.8,0-1.2c0.2-0.4,0.5-0.7,0.9-0.8
			c0.2-0.1,0.4-0.1,0.6-0.1c0.6,0,1.2,0.4,1.5,1c0,0,0,0.1,0,0.1c0.1,0.1,0.1,0.3,0.2,0.4c0.2,0.3,0.5,0.8,0.9,1.2c0,0,0,0,0,0
			c0,0,0,0,0,0c0.4-1.6-0.1-3.4-1.5-3.8c-1.3-0.3-3.3,0.4-4.1,2.7c-1.1,3.2-1.3,5.2-0.9,8.7c0.5,2.5,2.2,2.8,3.7,2.8c0,0,0,0,0,0
			c0,0,0,0,0,0h16.4c1.1,0,2-0.9,2-2C1624.6,971.8,1623.8,970.9,1622.7,970.9z M1611.2,970.9l1.2-1.1l0.8,1.1H1611.2z"/>
		<path fill="#F2F2F2" d="M1614.5,966l-0.3-0.3c-0.3-0.4-0.8-0.7-1.4-0.8c-0.6,0-1.1,0.1-1.5,0.5l-0.4,0.4c0.6,0.3,1.3,0.4,2.1,0.4
			C1613.5,966.2,1614,966.1,1614.5,966z"/>
		<path fill="#F2F2F2" d="M1607.8,963.4c-0.1-0.2-0.2-0.3-0.2-0.4c0,0,0-0.1,0-0.1c0,0,0,0,0,0h0c-0.3-0.6-1-0.9-1.6-0.7
			c-0.6,0.3-1,1-0.7,1.6v0c0,0.1,0.5,1.3,1.8,2.6c0.4,0.4,0.9,0.8,1.5,1.2c0.1,0.1,0.2,0.2,0.4,0.2c1.1,0.7,2.5,1.1,4.3,1.1
			c0,0,0,0,0,0c1,0,2.1-0.2,3.3-0.5c0,0,0,0,0,0c0.7-0.2,1-0.9,0.8-1.6c-0.2-0.7-0.9-1-1.6-0.8c-0.3,0.1-0.6,0.2-0.9,0.2
			c-0.6,0.1-1.1,0.2-1.6,0.2c-0.9,0-1.7-0.2-2.4-0.5c-0.7-0.3-1.3-0.7-1.8-1.2c-0.1-0.1-0.1-0.1-0.2-0.2
			C1608.3,964.2,1608,963.7,1607.8,963.4z"/>
	</g>
	<g>
		<polygon fill="#C8C5C5" points="1678.2,982.9 1655.6,927.1 1683,978.9 		"/>
		<polygon fill="#EAEAEA" points="1689,977.2 1655.5,927.1 1683,978.9 		"/>
	</g>
	<path fill="#C8C5C5" d="M1689.7,972.4c-8.5,0-15.3,6.9-15.3,15.3c0,3.2,1,6.1,2.6,8.5h25.4c1.6-2.4,2.6-5.4,2.6-8.5
		C1705,979.3,1698.2,972.4,1689.7,972.4z"/>
	<path fill="#EAEAEA" d="M1703.4,987.8c0,3.2-1.1,6.2-3,8.5h-21.5c-1.9-2.3-3-5.3-3-8.5c0-7.6,6.2-13.7,13.7-13.7
		S1703.4,980.2,1703.4,987.8z"/>
	<g>
		<circle fill="#F2F2F2" cx="1726.5" cy="912.2" r="3"/>
		<polygon fill="#F2F2F2" points="1723.5,924.9 1727.7,916.7 1722.4,914 1718,922.5 		"/>
		<path fill="#F2F2F2" d="M1731,921.9l-3.4,0l0-4.6l-1.8,3.6l0,1.7c0,0.5,0.4,1,1,1l4.2,0c0.5,0,0.8-0.4,0.8-0.8
			C1731.9,922.3,1731.5,921.9,1731,921.9z"/>
		<path fill="#F2F2F2" d="M1716.3,920c0.5,0,0.8-0.4,0.8-0.8l0-3.4l3.9,0l1-1.8c0,0-0.7,0-1.5,0l-4.1,0c-0.5,0-1,0.4-1,1l0,4.2
			C1715.4,919.6,1715.8,920,1716.3,920z"/>
		<path fill="#F2F2F2" d="M1727.2,927l-9.3-4.2l0,0l0,0v6.6l-4.7,0c-0.6,0-1.2,0.5-1.2,1.2l0,0c0,0.6,0.5,1.2,1.2,1.2l5.9,0
			c0.8,0,1.4-0.6,1.4-1.4V927l4.6,2.1l-2.1,4.6c-0.3,0.6,0,1.4,0.6,1.7l0,0c0.6,0.3,1.4,0,1.7-0.6l2.6-5.8
			C1728.3,928.2,1727.9,927.3,1727.2,927z"/>
	</g>
	<g>
		<path fill="#F2F2F2" d="M1656.2,910.7c0.7,0,1.3,0.3,1.7,0.7c0.4,0.4,0.7,1,0.7,1.7c0,0.7-0.3,1.3-0.7,1.7c-0.4,0.4-1,0.7-1.7,0.7
			s-1.3-0.3-1.7-0.7c-0.4-0.4-0.7-1-0.7-1.7c0-0.7,0.3-1.3,0.7-1.7C1655,911,1655.6,910.7,1656.2,910.7z"/>
		<path fill="#F2F2F2" d="M1655.7,915.8c0.4,0.1,0.7,0.3,0.9,0.5c0.3,0.2,0.5,0.5,0.6,0.8l2.1,3.4l3.9,0.7c0.4,0.1,0.6,0.3,0.7,0.6
			c0.1,0.3,0.2,0.6,0.1,0.9c0,0.1,0,0.1,0,0.1c-0.1,0.3-0.3,0.6-0.6,0.7c-0.2,0.1-0.5,0.1-0.8,0.1c-0.1,0-0.1,0-0.2,0l-4-0.7
			c-0.1,0-0.2-0.1-0.3-0.1c-0.1,0-0.2-0.1-0.2-0.2c-0.1-0.1-0.2-0.1-0.3-0.2c-0.1-0.1-0.2-0.2-0.3-0.3l-0.7-1.1
			c-0.2,1.1-0.6,2.6-1,3.4l2.2,1.9c0.1,0.1,0.2,0.2,0.3,0.3c0.1,0.1,0.1,0.2,0.2,0.3c0.1,0.1,0.1,0.2,0.2,0.3
			c0.1,0.1,0.1,0.2,0.1,0.4l0.4,4.7c0,0.1,0,0.1,0,0.2c0,0.3-0.1,0.6-0.2,0.9c-0.1,0.2-0.2,0.4-0.4,0.5c-0.2,0.1-0.5,0.1-0.8,0.1
			c-0.3,0-0.6-0.1-0.8-0.2c-0.3-0.2-0.5-0.4-0.5-0.8l-0.4-4.6l-2.1-1.8l-0.3,2.4c0,0.1,0,0.3-0.1,0.4c0,0.1-0.1,0.2-0.1,0.3
			c0,0.1,0,0.2-0.1,0.2c0,0.1-0.1,0.2-0.2,0.2l-3.2,3.5c0,0-0.1,0.1-0.1,0.1c-0.2,0.2-0.5,0.4-0.8,0.5c-0.3,0.1-0.7,0.1-1-0.2l0,0
			c0,0,0,0,0,0l0,0c0,0,0,0,0,0c-0.2-0.3-0.5-0.6-0.6-0.9c-0.1-0.3,0-0.7,0.2-1l3.2-3.5c0,0,0,0,0,0l0.6-4.3c0-0.2,0-0.4,0-0.5
			c0-0.3,0-0.6,0.1-0.8l1-3.8l-1.8,0.5l-1.7,3.6c-0.1,0.3-0.4,0.5-0.7,0.5c-0.3,0.1-0.7,0-1-0.1l0,0c0,0,0,0,0,0c0,0,0,0-0.1,0
			c-0.3-0.1-0.5-0.4-0.5-0.7c0-0.3,0-0.6,0.1-0.8v0l0,0c0,0,0-0.1,0.1-0.1l1.7-3.7c0-0.1,0.1-0.2,0.2-0.3c0.1-0.1,0.1-0.1,0.2-0.2
			c0.1-0.1,0.2-0.2,0.3-0.2c0.1-0.1,0.2-0.1,0.4-0.2l4.6-1.4c0,0,0.1,0,0.1,0v0c0,0,0,0,0,0c0,0,0.1,0,0.1,0l0,0l0,0
			c0,0,0.1,0,0.1,0c0,0,0.1,0,0.1,0c0.1,0,0.3,0,0.4,0C1655.4,915.7,1655.6,915.7,1655.7,915.8z"/>
	</g>
	
		<image overflow="visible" width="512" height="512" xlink:href="http://tryscrumlive.vervebot.io/wp-content/uploads/2021/08/practitioner-06.png"  transform="matrix(5.720895e-02 0 0 5.720895e-02 1751.4651 952.0446)">
	</image>
</g>
<image overflow="visible" width="150" height="150" xlink:href="http://tryscrumlive.vervebot.io/wp-content/uploads/2021/08/PSK_logo.png"  transform="matrix(1 0 0 1 630.6915 1172.9358)">
</image>
<image overflow="visible" width="151" height="151" xlink:href="http://tryscrumlive.vervebot.io/wp-content/uploads/2021/08/icp-acc-05.png"  transform="matrix(1 0 0 1 1227.7384 1433.1239)">
</image>
<image overflow="visible" width="151" height="151" xlink:href="http://tryscrumlive.vervebot.io/wp-content/uploads/2021/08/icp-cat-05.png"  transform="matrix(1 0 0 1 630.1915 1698.3367)">
</image>
<image overflow="visible" width="151" height="151" xlink:href="http://tryscrumlive.vervebot.io/wp-content/uploads/2021/08/icp-ent-05.png"  transform="matrix(1 0 0 1 1227.7384 1960.6559)">
</image>
<g>
	
		<image overflow="visible" width="151" height="151" xlink:href="http://tryscrumlive.vervebot.io/wp-content/uploads/2021/08/icf-acc-05.png"  transform="matrix(1 0 0 1 630.1915 2231.0601)">
	</image>
</g>
<image overflow="visible" width="151" height="151" xlink:href="http://tryscrumlive.vervebot.io/wp-content/uploads/2021/08/ctc-05.png"  transform="matrix(1 0 0 1 1227.7384 2481.6772)">
</image>
<path fill="none" d="M1352.8,1087.4c60.2,0,109.2-49,109.2-109.2v-2c0-60.2-49-109.2-109.2-109.2H533.8c-2.4,0-4.8-0.1-7.1-0.2
	v220.9c2.4-0.1,4.8-0.2,7.1-0.2H1352.8z"/>
<path fill="none" d="M424.5,1241.6c0,57.8,45.2,105.3,102.1,109v-218C469.7,1136.3,424.5,1183.8,424.5,1241.6z"/>
<path fill="none" d="M424.5,1768.6v2c0,57.8,45.2,105.3,102.1,109v-220.1C469.7,1663.3,424.5,1710.8,424.5,1768.6z"/>
<path fill="none" d="M424.5,2299.7v2c0,57.8,45.2,105.3,102.1,109v-220.1C469.7,2194.3,424.5,2241.8,424.5,2299.7z"/>
<path fill="none" d="M1352.8,2145.4c60.2,0,109.2-49,109.2-109.2v-2c0-60.2-49-109.2-109.2-109.2H533.8c-2.4,0-4.8-0.1-7.1-0.2
	v220.9c2.4-0.1,4.8-0.2,7.1-0.2H1352.8z"/>
<path fill="none" d="M1352.8,1614.3c60.2,0,109.2-49,109.2-109.2s-49-109.2-109.2-109.2H533.8c-2.4,0-4.8-0.1-7.1-0.2v218.8
	c2.4-0.1,4.8-0.2,7.1-0.2H1352.8z"/>
<path fill="none" d="M424.5,708.5v4.1c0,57.8,45.2,105.3,102.1,109V599.5C469.7,603.2,424.5,650.7,424.5,708.5z"/>
<path fill="none" d="M1352.8,554.3c60.2,0,109.2-49,109.2-109.2v-2c0-60.2-49-109.2-109.2-109.2H526.6v220.7
	c2.4-0.1,4.8-0.2,7.1-0.2H1352.8z"/>
<path fill="none" d="M1462.1,2569.3v-4.1c0-60.2-49-109.2-109.2-109.2H533.8c-2.4,0-4.8-0.1-7.1-0.2v222.7h826.2
	C1413.1,2678.5,1462.1,2629.5,1462.1,2569.3z"/>
<path fill="#EB1E28" d="M1352.8,288.7H526.6H402v45h124.6h826.2c60.2,0,109.2,49,109.2,109.2v2c0,60.2-49,109.2-109.2,109.2H533.8
	c-2.4,0-4.8,0.1-7.1,0.2v45.1c2.4-0.2,4.7-0.2,7.1-0.2h819.1c85.1,0,154.2-69.2,154.2-154.2v-2
	C1507.1,357.9,1437.9,288.7,1352.8,288.7z"/>
<path fill="#F59320" d="M1352.8,821.8H533.8c-2.4,0-4.8-0.1-7.1-0.2c-56.9-3.7-102.1-51.2-102.1-109v-4.1
	c0-57.8,45.2-105.3,102.1-109v-45.1c-81.7,3.7-147.1,71.4-147.1,154.1v4.1c0,82.7,65.4,150.3,147.1,154.1c2.4,0.1,4.8,0.2,7.1,0.2
	h819.1c60.2,0,109.2,49,109.2,109.2v2c0,60.2-49,109.2-109.2,109.2H533.8c-2.4,0-4.8,0.1-7.1,0.2v45.1c2.4-0.2,4.7-0.2,7.1-0.2
	h819.1c85.1,0,154.2-69.2,154.2-154.2v-2C1507.1,891,1437.9,821.8,1352.8,821.8z"/>
<path fill="#FCD206" d="M526.6,1659.6c2.4-0.2,4.7-0.2,7.1-0.2h819.1c85.1,0,154.2-69.2,154.2-154.2s-69.2-154.2-154.2-154.2H533.8
	c-2.4,0-4.8-0.1-7.1-0.2c-56.9-3.7-102.1-51.2-102.1-109c0-57.8,45.2-105.3,102.1-109v-45.1c-81.7,3.7-147.1,71.4-147.1,154.1
	c0,82.7,65.4,150.3,147.1,154.1c2.4,0.1,4.8,0.2,7.1,0.2h819.1c60.2,0,109.2,49,109.2,109.2s-49,109.2-109.2,109.2H533.8
	c-2.4,0-4.8,0.1-7.1,0.2c-81.7,3.7-147.1,71.4-147.1,154.1v2c0,82.7,65.4,150.3,147.1,154.1c2.4,0.1,4.8,0.2,7.1,0.2h819.1
	c4,0,7.9,0.2,11.7,0.6v-45.2c-3.9-0.3-7.8-0.4-11.7-0.4H533.8c-2.4,0-4.8-0.1-7.1-0.2c-56.9-3.7-102.1-51.2-102.1-109v-2
	C424.5,1710.8,469.7,1663.3,526.6,1659.6z"/>
<path fill="#0D8D45" d="M526.6,2190.7c2.4-0.2,4.7-0.2,7.1-0.2h819.1c85.1,0,154.2-69.2,154.2-154.2v-2
	c0-81.1-62.9-147.8-142.5-153.8v45.2c54.7,5.9,97.5,52.3,97.5,108.6v2c0,60.2-49,109.2-109.2,109.2H533.8c-2.4,0-4.8,0.1-7.1,0.2
	c-81.7,3.7-147.1,71.4-147.1,154.1v2c0,82.7,65.4,150.3,147.1,154.1c2.4,0.1,4.8,0.2,7.1,0.2h819.1c60.2,0,109.2,49,109.2,109.2v4.1
	c0,60.2-49,109.2-109.2,109.2H526.6H402v45h124.6h826.2c85.1,0,154.2-69.2,154.2-154.2v-4.1c0-85.1-69.2-154.2-154.2-154.2H533.8
	c-2.4,0-4.8-0.1-7.1-0.2c-56.9-3.7-102.1-51.2-102.1-109v-2C424.5,2241.8,469.7,2194.3,526.6,2190.7z"/>
<g>
	<path d="M199,1560.4h3.4v14c0,1-0.2,1.9-0.5,2.6c-0.3,0.8-0.8,1.4-1.4,2c-0.6,0.5-1.3,0.9-2.1,1.2c-0.8,0.3-1.7,0.4-2.6,0.4
		c-0.9,0-1.8-0.1-2.6-0.4c-0.8-0.2-1.5-0.6-2.1-1.1s-1-1.1-1.3-1.9c-0.3-0.7-0.5-1.6-0.5-2.6h3.4c0,0.6,0.1,1.1,0.2,1.5
		c0.2,0.4,0.4,0.7,0.6,1c0.3,0.3,0.6,0.4,1,0.6c0.4,0.1,0.8,0.2,1.2,0.2c0.4,0,0.9-0.1,1.2-0.2s0.7-0.4,1-0.7
		c0.3-0.3,0.5-0.7,0.6-1.1c0.2-0.4,0.2-0.9,0.2-1.5V1560.4z"/>
	<path d="M205.5,1572.7c0-1.1,0.2-2.1,0.5-3s0.8-1.7,1.4-2.4c0.6-0.7,1.3-1.2,2.2-1.6s1.8-0.6,2.9-0.6c1.1,0,2.1,0.2,2.9,0.6
		s1.6,0.9,2.2,1.6c0.6,0.7,1,1.5,1.3,2.4s0.5,1.9,0.5,3v0.3c0,1.1-0.2,2.1-0.5,3c-0.3,0.9-0.8,1.7-1.3,2.4s-1.3,1.2-2.2,1.6
		s-1.8,0.6-2.9,0.6c-1.1,0-2.1-0.2-2.9-0.6s-1.6-0.9-2.2-1.6s-1-1.5-1.4-2.4c-0.3-0.9-0.5-1.9-0.5-3V1572.7z M208.8,1573
		c0,0.7,0.1,1.3,0.2,1.9c0.1,0.6,0.4,1.1,0.6,1.6c0.3,0.4,0.7,0.8,1.1,1c0.5,0.3,1,0.4,1.6,0.4c0.6,0,1.1-0.1,1.6-0.4
		c0.5-0.3,0.8-0.6,1.1-1c0.3-0.4,0.5-1,0.6-1.6c0.1-0.6,0.2-1.2,0.2-1.9v-0.3c0-0.7-0.1-1.3-0.2-1.9s-0.4-1.1-0.6-1.5
		c-0.3-0.4-0.7-0.8-1.1-1.1c-0.5-0.3-1-0.4-1.6-0.4s-1.2,0.1-1.6,0.4c-0.4,0.3-0.8,0.6-1.1,1.1c-0.3,0.4-0.5,1-0.6,1.5
		s-0.2,1.2-0.2,1.9V1573z"/>
	<path d="M231,1578.8c-0.5,0.5-1,1-1.7,1.3s-1.5,0.5-2.4,0.5c-0.7,0-1.4-0.1-2-0.3s-1.1-0.5-1.5-1c-0.4-0.4-0.8-1-1-1.7
		s-0.4-1.5-0.4-2.5v-9.6h3.3v9.6c0,0.5,0.1,1,0.2,1.3c0.1,0.4,0.3,0.6,0.5,0.8c0.2,0.2,0.5,0.4,0.7,0.5c0.3,0.1,0.6,0.1,0.9,0.1
		c0.9,0,1.5-0.2,2.1-0.5c0.5-0.3,0.9-0.7,1.2-1.3v-10.6h3.3v14.8h-3.1L231,1578.8z"/>
	<path d="M245.3,1568.5c-0.2,0-0.4-0.1-0.7-0.1c-0.2,0-0.5,0-0.7,0c-0.8,0-1.5,0.2-2,0.5c-0.5,0.3-0.9,0.7-1.1,1.3v10.1h-3.3v-14.8
		h3.2l0.1,1.7c0.4-0.6,0.8-1.1,1.4-1.4s1.2-0.5,1.9-0.5c0.2,0,0.4,0,0.6,0.1s0.4,0.1,0.5,0.1L245.3,1568.5z"/>
	<path d="M250.5,1565.5l0.1,1.7c0.5-0.6,1.1-1.1,1.9-1.5c0.7-0.3,1.5-0.5,2.4-0.5c0.7,0,1.4,0.1,1.9,0.3c0.6,0.2,1.1,0.5,1.5,1
		s0.7,1,1,1.7c0.2,0.7,0.3,1.6,0.3,2.6v9.6h-3.3v-9.6c0-0.5-0.1-0.9-0.2-1.3c-0.1-0.4-0.3-0.6-0.5-0.9s-0.5-0.4-0.8-0.5
		s-0.7-0.1-1.1-0.1c-0.7,0-1.3,0.2-1.8,0.5s-0.9,0.8-1.2,1.3v10.5h-3.3v-14.8H250.5z"/>
	<path d="M269.5,1580.6c-1.1,0-2.1-0.2-3-0.5s-1.6-0.9-2.2-1.5c-0.6-0.6-1.1-1.4-1.4-2.3s-0.5-1.8-0.5-2.8v-0.5
		c0-1.2,0.2-2.2,0.5-3.2s0.8-1.7,1.4-2.4c0.6-0.7,1.3-1.2,2.1-1.5c0.8-0.4,1.7-0.5,2.6-0.5c1.1,0,2,0.2,2.8,0.5
		c0.8,0.4,1.4,0.9,2,1.5c0.5,0.6,0.9,1.4,1.2,2.3c0.3,0.9,0.4,1.9,0.4,2.9v1.4h-9.7c0,0.6,0.2,1.1,0.4,1.6c0.2,0.5,0.5,0.9,0.8,1.3
		c0.3,0.4,0.7,0.6,1.2,0.8c0.5,0.2,1,0.3,1.6,0.3c0.8,0,1.5-0.2,2.1-0.5s1.1-0.8,1.6-1.4l1.8,1.7c-0.2,0.4-0.5,0.7-0.9,1
		c-0.4,0.3-0.8,0.6-1.2,0.9s-1,0.5-1.6,0.6S270.3,1580.6,269.5,1580.6z M269.1,1567.9c-0.9,0-1.6,0.3-2.2,1
		c-0.6,0.6-0.9,1.5-1.1,2.7h6.3v-0.2c0-0.4-0.1-0.9-0.2-1.3c-0.1-0.4-0.3-0.8-0.5-1.1s-0.5-0.6-0.9-0.8
		C270.1,1568,269.7,1567.9,269.1,1567.9z"/>
	<path d="M283,1575.5l3-10h3.5l-5.9,17c-0.1,0.4-0.3,0.8-0.5,1.2s-0.5,0.8-0.9,1.2s-0.8,0.7-1.3,0.9s-1.1,0.4-1.9,0.4
		c-0.3,0-0.6,0-0.8-0.1s-0.5-0.1-0.8-0.2v-2.6c0.1,0,0.2,0,0.3,0s0.2,0,0.3,0c0.4,0,0.8,0,1.1-0.1s0.6-0.2,0.8-0.3s0.4-0.4,0.6-0.6
		s0.3-0.6,0.4-0.9l0.5-1.3l-5.2-14.7h3.6L283,1575.5z"/>
	<path d="M294.6,1565.5l0.1,1.5c0.5-0.6,1.1-1,1.8-1.3c0.7-0.3,1.5-0.5,2.5-0.5c0.9,0,1.7,0.2,2.4,0.5c0.7,0.4,1.3,0.9,1.6,1.7
		c0.5-0.7,1.1-1.2,1.9-1.7s1.6-0.6,2.7-0.6c0.8,0,1.4,0.1,2.1,0.3s1.1,0.5,1.5,1c0.4,0.4,0.7,1,1,1.7c0.2,0.7,0.3,1.5,0.3,2.5v9.6
		h-3.3v-9.6c0-0.5-0.1-1-0.2-1.3c-0.1-0.4-0.3-0.6-0.5-0.8c-0.2-0.2-0.5-0.4-0.8-0.4s-0.7-0.1-1.1-0.1c-0.8,0-1.4,0.2-1.9,0.6
		c-0.5,0.4-0.8,0.9-1,1.6c0,0,0,0.1,0,0.1c0,0.1,0,0.1,0,0.1v9.9h-3.3v-9.6c0-0.5-0.1-1-0.2-1.3s-0.3-0.6-0.5-0.9s-0.5-0.4-0.8-0.5
		s-0.7-0.1-1.1-0.1c-0.7,0-1.3,0.1-1.8,0.4c-0.5,0.3-0.8,0.7-1.1,1.2v10.7h-3.3v-14.8H294.6z"/>
	<path d="M324.7,1580.3c-0.1-0.2-0.2-0.4-0.2-0.6c-0.1-0.2-0.1-0.5-0.2-0.8c-0.2,0.2-0.5,0.4-0.7,0.6c-0.3,0.2-0.6,0.4-0.9,0.5
		s-0.7,0.3-1.1,0.4s-0.8,0.1-1.2,0.1c-0.7,0-1.4-0.1-2-0.3c-0.6-0.2-1.2-0.5-1.6-0.9s-0.8-0.9-1-1.4c-0.3-0.5-0.4-1.1-0.4-1.8
		c0-0.8,0.2-1.5,0.5-2.1c0.3-0.6,0.7-1.1,1.3-1.5s1.3-0.7,2.1-0.9c0.8-0.2,1.8-0.3,2.9-0.3h2.1v-1c0-0.8-0.2-1.4-0.6-1.8
		c-0.4-0.5-1.1-0.7-2-0.7c-0.4,0-0.7,0.1-1.1,0.2c-0.3,0.1-0.6,0.2-0.8,0.4s-0.4,0.4-0.5,0.6s-0.2,0.5-0.2,0.8h-3.3
		c0-0.6,0.1-1.1,0.4-1.7c0.3-0.5,0.7-1,1.2-1.4s1.2-0.8,1.9-1c0.8-0.3,1.6-0.4,2.5-0.4c0.8,0,1.6,0.1,2.3,0.3c0.7,0.2,1.3,0.5,1.8,1
		s0.9,1,1.2,1.6c0.3,0.6,0.4,1.4,0.4,2.2v6.6c0,1.3,0.2,2.4,0.6,3.2v0.2H324.7z M321,1577.9c0.4,0,0.7,0,1.1-0.2
		c0.3-0.1,0.6-0.2,0.9-0.4s0.5-0.4,0.7-0.6c0.2-0.2,0.4-0.4,0.5-0.6v-2.8h-1.8c-1.2,0-2.2,0.2-2.8,0.6c-0.6,0.4-0.9,1-0.9,1.8
		c0,0.3,0,0.6,0.2,0.8c0.1,0.3,0.3,0.5,0.5,0.7c0.2,0.2,0.4,0.3,0.7,0.4C320.3,1577.8,320.6,1577.9,321,1577.9z"/>
	<path d="M334.1,1565.5l0.1,1.7c0.5-0.6,1.1-1.1,1.9-1.5c0.7-0.3,1.5-0.5,2.4-0.5c0.7,0,1.4,0.1,1.9,0.3c0.6,0.2,1.1,0.5,1.5,1
		s0.7,1,1,1.7c0.2,0.7,0.3,1.6,0.3,2.6v9.6h-3.3v-9.6c0-0.5-0.1-0.9-0.2-1.3c-0.1-0.4-0.3-0.6-0.5-0.9s-0.5-0.4-0.8-0.5
		s-0.7-0.1-1.1-0.1c-0.7,0-1.3,0.2-1.8,0.5s-0.9,0.8-1.2,1.3v10.5h-3.3v-14.8H334.1z"/>
</g>
<g>
	<path fill="#EB1E28" d="M223.6,1493.2c-10.1,10.7-16.3,25.1-16.3,41h-45c0-28.3,11.2-54,29.5-72.8L223.6,1493.2z"/>
	<path fill="#F59320" d="M265.8,1429.5v45c-15.9,0.3-30.3,6.8-40.9,17.2l-31.8-31.8C211.8,1441.4,237.5,1429.8,265.8,1429.5z"/>
	<path fill="#FCD206" d="M340.6,1459.8l-31.9,31.9c-10.5-10.4-24.9-16.9-40.8-17.1v-45.2C296.2,1429.6,321.9,1441.2,340.6,1459.8z"
		/>
	<path fill="#0D8D45" d="M371.5,1534h-45c0-15.8-6.3-30.2-16.4-40.9l31.9-31.9C360.2,1480,371.5,1505.7,371.5,1534z"/>
	<path fill="#4B4E58" d="M324.5,1534H209.2c0-15.3,5.9-29.2,15.7-39.5c0.5-0.5,0.9-1,1.4-1.4c10.2-10.1,24.1-16.4,39.6-16.7
		c0.3,0,0.7,0,1,0c0.3,0,0.7,0,1,0c15.4,0.3,29.3,6.5,39.5,16.6c0.5,0.5,0.9,0.9,1.4,1.4C318.5,1504.7,324.5,1518.7,324.5,1534z"/>
	<g>
		<circle fill="#F2F2F2" cx="303.4" cy="1450.4" r="2.9"/>
		<polygon fill="#F2F2F2" points="300.4,1463.1 304.6,1454.9 299.4,1452.2 295,1460.7 		"/>
		<path fill="#F2F2F2" d="M307.9,1460.1l-3.4,0l0-4.5l-1.8,3.5l0,1.7c0,0.5,0.4,1,1,1l4.2,0c0.5,0,0.8-0.4,0.8-0.8
			C308.7,1460.5,308.4,1460.1,307.9,1460.1z"/>
		<path fill="#F2F2F2" d="M293.2,1458.2c0.5,0,0.8-0.4,0.8-0.8l0-3.4l3.9,0l1-1.8c0,0-0.7,0-1.5,0l-4.1,0c-0.5,0-1,0.4-1,1l0,4.2
			C292.4,1457.8,292.8,1458.2,293.2,1458.2z"/>
		<path fill="#F2F2F2" d="M304.1,1465.1l-9.2-4.2l0,0l0,0v6.5l-4.7,0c-0.6,0-1.2,0.5-1.2,1.2l0,0c0,0.6,0.5,1.2,1.2,1.2l5.9,0
			c0.8,0,1.4-0.6,1.4-1.4v-3.3l4.6,2.1l-2.1,4.6c-0.3,0.6,0,1.4,0.6,1.6h0c0.6,0.3,1.4,0,1.6-0.6l2.6-5.7
			C305.2,1466.3,304.8,1465.5,304.1,1465.1z"/>
	</g>
	<g>
		
			<ellipse transform="matrix(0.2273 -0.9738 0.9738 0.2273 -1310.6508 1337.9047)" fill="#F2F2F2" cx="187.7" cy="1494.8" rx="3.5" ry="3.5"/>
		<path fill="#F2F2F2" d="M200.3,1508.7l-4.5,0l-1.6-2.1c0,0,0,0-0.1,0c-1.2,0.4-2.3,0.5-3.4,0.5h0c-1.9,0-3.4-0.6-4.5-1.2l-0.2,0.2
			c0-0.1,0-0.2,0.1-0.4c-0.7-0.5-1.2-0.9-1.6-1.3c-1.1-1.1-1.6-2.3-1.8-2.7l0,0l0,0c-0.2-0.4-0.2-0.8,0-1.2c0.2-0.4,0.5-0.7,0.9-0.8
			c0.2-0.1,0.4-0.1,0.6-0.1c0.6,0,1.2,0.4,1.4,1c0,0,0,0.1,0,0.1c0.1,0.1,0.1,0.3,0.2,0.4c0.2,0.3,0.5,0.8,0.9,1.2c0,0,0,0,0,0
			c0,0,0,0,0,0c0.4-1.5-0.1-3.4-1.5-3.7c-1.3-0.3-3.3,0.4-4,2.7c-1.1,3.1-1.3,5.2-0.9,8.6c0.5,2.5,2.2,2.8,3.6,2.7c0,0,0,0,0,0
			c0,0,0,0,0,0h16.3c1.1,0,1.9-0.9,1.9-1.9C202.2,1509.6,201.4,1508.7,200.3,1508.7z M188.9,1508.7l1.2-1.1l0.8,1.1H188.9z"/>
		<path fill="#F2F2F2" d="M192.1,1503.9l-0.3-0.3c-0.3-0.4-0.8-0.7-1.4-0.8c-0.6,0-1.1,0.1-1.5,0.5l-0.4,0.4
			c0.6,0.3,1.3,0.4,2.1,0.4C191.2,1504,191.7,1504,192.1,1503.9z"/>
		<path fill="#F2F2F2" d="M185.5,1501.3c-0.1-0.2-0.2-0.3-0.2-0.4c0,0,0-0.1,0-0.1c0,0,0,0,0,0h0c-0.3-0.6-1-0.9-1.6-0.7
			c-0.6,0.3-0.9,1-0.7,1.6v0c0,0.1,0.5,1.3,1.8,2.6c0.4,0.4,0.9,0.8,1.4,1.2c0.1,0.1,0.2,0.2,0.4,0.2c1.1,0.7,2.5,1.1,4.2,1.1
			c0,0,0,0,0,0c1,0,2.1-0.2,3.3-0.5c0,0,0,0,0,0c0.7-0.2,1-0.9,0.8-1.6c-0.2-0.7-0.9-1-1.6-0.8c-0.3,0.1-0.6,0.2-0.9,0.2
			c-0.6,0.1-1.1,0.2-1.6,0.2c-0.9,0-1.7-0.2-2.3-0.5c-0.7-0.3-1.3-0.7-1.8-1.2c-0.1-0.1-0.1-0.1-0.2-0.2
			C186,1502.1,185.7,1501.6,185.5,1501.3z"/>
	</g>
	<g>
		<polygon fill="#C8C5C5" points="264.8,1511.6 298,1461.8 270.9,1513.2 		"/>
		<polygon fill="#EAEAEA" points="275.6,1517.3 298,1461.8 270.9,1513.2 		"/>
	</g>
	<path fill="#C8C5C5" d="M266.8,1510.3c-8.4,0-15.2,6.8-15.2,15.2c0,3.1,1,6.1,2.6,8.5h25.3c1.6-2.4,2.6-5.3,2.6-8.5
		C282.1,1517.1,275.2,1510.3,266.8,1510.3z"/>
	<path fill="#EAEAEA" d="M280.5,1525.5c0,3.2-1.1,6.2-3,8.5h-21.4c-1.9-2.3-3-5.3-3-8.5c0-7.5,6.1-13.7,13.7-13.7
		C274.4,1511.8,280.5,1518,280.5,1525.5z"/>
	<g>
		<path fill="#F2F2F2" d="M233.6,1449c0.7,0,1.3,0.3,1.7,0.7c0.4,0.4,0.7,1,0.7,1.7s-0.3,1.3-0.7,1.7c-0.4,0.4-1,0.7-1.7,0.7
			s-1.3-0.3-1.7-0.7c-0.4-0.4-0.7-1-0.7-1.7s0.3-1.3,0.7-1.7C232.4,1449.3,233,1449,233.6,1449z"/>
		<path fill="#F2F2F2" d="M233.1,1454c0.4,0.1,0.7,0.3,0.9,0.5c0.3,0.2,0.5,0.5,0.6,0.8l2.1,3.4l3.9,0.7c0.3,0.1,0.6,0.3,0.7,0.6
			c0.1,0.3,0.2,0.6,0.1,0.9c0,0.1,0,0.1,0,0.1c-0.1,0.3-0.3,0.6-0.6,0.7c-0.2,0.1-0.5,0.1-0.8,0.1c-0.1,0-0.1,0-0.2,0l-4-0.7
			c-0.1,0-0.2-0.1-0.3-0.1c-0.1,0-0.2-0.1-0.2-0.2c-0.1-0.1-0.2-0.1-0.3-0.2c-0.1-0.1-0.2-0.2-0.3-0.3l-0.6-1
			c-0.2,1.1-0.6,2.6-0.9,3.3l2.2,1.9c0.1,0.1,0.2,0.2,0.3,0.3c0.1,0.1,0.1,0.2,0.2,0.3c0.1,0.1,0.1,0.2,0.2,0.3
			c0.1,0.1,0.1,0.2,0.1,0.4l0.4,4.7c0,0.1,0,0.1,0,0.2c0,0.3-0.1,0.6-0.2,0.9c-0.1,0.2-0.2,0.3-0.4,0.5c-0.2,0.1-0.5,0.1-0.8,0.1
			c-0.3,0-0.6-0.1-0.8-0.2c-0.3-0.2-0.5-0.4-0.5-0.8l-0.4-4.6l-2.1-1.8l-0.3,2.4c0,0.1,0,0.3-0.1,0.4c0,0.1-0.1,0.2-0.1,0.3
			c0,0.1,0,0.2-0.1,0.2c0,0.1-0.1,0.2-0.2,0.2l-3.1,3.5c0,0-0.1,0.1-0.1,0.1c-0.2,0.2-0.5,0.4-0.8,0.5c-0.3,0.1-0.7,0.1-1-0.2h0
			c0,0,0,0,0,0l0,0c0,0,0,0,0,0c-0.2-0.3-0.5-0.6-0.6-0.9c-0.1-0.3,0-0.7,0.2-1l3.1-3.5c0,0,0,0,0,0l0.6-4.2c0-0.2,0-0.4,0-0.5
			c0-0.3,0-0.6,0.1-0.8l1-3.7l-1.8,0.5l-1.6,3.6c-0.1,0.3-0.4,0.5-0.7,0.5c-0.3,0.1-0.7,0-1-0.1l0,0c0,0,0,0,0,0c0,0,0,0-0.1,0
			c-0.3-0.1-0.5-0.4-0.5-0.7c0-0.3,0-0.6,0.1-0.8l0,0l0,0c0,0,0-0.1,0.1-0.1l1.7-3.7c0-0.1,0.1-0.2,0.2-0.3c0.1-0.1,0.1-0.1,0.2-0.2
			c0.1-0.1,0.2-0.2,0.3-0.2c0.1-0.1,0.2-0.1,0.4-0.2l4.6-1.4c0,0,0.1,0,0.1,0h0c0,0,0,0,0,0c0,0,0.1,0,0.1,0l0,0l0,0
			c0,0,0.1,0,0.1,0c0,0,0.1,0,0.1,0c0.1,0,0.3,0,0.4,0C232.8,1454,233,1454,233.1,1454z"/>
	</g>
	
		<image overflow="visible" width="512" height="512" xlink:href="http://tryscrumlive.vervebot.io/wp-content/uploads/2021/08/journeyman-06.png"  transform="matrix(5.682204e-02 0 0 5.682204e-02 328.1989 1490.0305)">
	</image>
</g>
<g>
	<path d="M1639.3,2340.5c-0.1,1-0.3,1.9-0.7,2.7s-0.9,1.5-1.5,2.1s-1.4,1.1-2.4,1.4s-2,0.5-3.2,0.5s-2.3-0.2-3.3-0.7
		c-1-0.4-1.8-1.1-2.5-1.9s-1.2-1.8-1.6-3s-0.6-2.5-0.6-3.9v-1.6c0-1.4,0.2-2.7,0.6-3.9s0.9-2.2,1.6-3s1.6-1.5,2.6-1.9
		s2.1-0.7,3.4-0.7c1.2,0,2.2,0.2,3.1,0.5s1.7,0.8,2.3,1.4s1.1,1.3,1.5,2.2s0.6,1.8,0.7,2.7h-3.4c-0.1-0.6-0.2-1.2-0.4-1.7
		s-0.4-0.9-0.8-1.3s-0.7-0.6-1.2-0.8s-1.1-0.3-1.8-0.3c-0.8,0-1.5,0.1-2.1,0.4s-1.1,0.7-1.5,1.3s-0.7,1.3-0.9,2.1s-0.3,1.8-0.3,2.8
		v1.6c0,1,0.1,1.9,0.3,2.7s0.4,1.5,0.8,2.1s0.8,1,1.4,1.3s1.3,0.5,2.1,0.5c0.7,0,1.4-0.1,1.9-0.3s0.9-0.4,1.3-0.8s0.6-0.8,0.8-1.2
		s0.3-1.1,0.4-1.7H1639.3z"/>
	<path d="M1649.8,2335.2c-0.2,0-0.4-0.1-0.7-0.1s-0.5,0-0.7,0c-0.8,0-1.5,0.2-2,0.5s-0.9,0.7-1.1,1.3v10.1h-3.3v-14.8h3.2l0.1,1.7
		c0.4-0.6,0.8-1.1,1.4-1.4s1.2-0.5,1.9-0.5c0.2,0,0.4,0,0.6,0.1s0.4,0.1,0.5,0.1L1649.8,2335.2z"/>
	<path d="M1660.3,2347c-0.1-0.2-0.2-0.4-0.2-0.6s-0.1-0.5-0.2-0.8c-0.2,0.2-0.5,0.4-0.7,0.6s-0.6,0.4-0.9,0.5s-0.7,0.3-1.1,0.4
		c-0.4,0.1-0.8,0.1-1.2,0.1c-0.7,0-1.4-0.1-2-0.3c-0.6-0.2-1.2-0.5-1.6-0.9s-0.8-0.9-1-1.4s-0.4-1.1-0.4-1.8c0-0.8,0.2-1.5,0.5-2.1
		s0.7-1.1,1.3-1.5s1.3-0.7,2.1-0.9s1.8-0.3,2.9-0.3h2.1v-1c0-0.8-0.2-1.4-0.6-1.8s-1.1-0.7-2-0.7c-0.4,0-0.7,0.1-1.1,0.2
		s-0.6,0.2-0.8,0.4s-0.4,0.4-0.5,0.6s-0.2,0.5-0.2,0.8h-3.3c0-0.6,0.1-1.1,0.4-1.7s0.7-1,1.2-1.4s1.2-0.8,1.9-1s1.6-0.4,2.5-0.4
		c0.8,0,1.6,0.1,2.3,0.3s1.3,0.5,1.8,1s0.9,1,1.2,1.6s0.4,1.4,0.4,2.2v6.6c0,1.3,0.2,2.4,0.6,3.2v0.2H1660.3z M1656.7,2344.6
		c0.4,0,0.7,0,1.1-0.2s0.6-0.2,0.9-0.4s0.5-0.4,0.7-0.6s0.4-0.4,0.5-0.6v-2.8h-1.8c-1.2,0-2.2,0.2-2.8,0.6s-0.9,1-0.9,1.8
		c0,0.3,0,0.6,0.2,0.8s0.3,0.5,0.5,0.7s0.4,0.3,0.7,0.4S1656.3,2344.6,1656.7,2344.6z"/>
	<path d="M1667.8,2347v-12.3h-2.3v-2.5h2.3v-1.4c0-0.8,0.1-1.5,0.4-2.2s0.6-1.2,1-1.6s1-0.8,1.6-1s1.4-0.3,2.2-0.3
		c0.3,0,0.6,0,1,0.1s0.6,0.1,0.9,0.2l-0.1,2.6c-0.2,0-0.4-0.1-0.6-0.1s-0.4,0-0.7,0c-0.8,0-1.4,0.2-1.8,0.6s-0.6,1-0.6,1.8v1.4h3
		v2.5h-3v12.3H1667.8z"/>
	<path d="M1680.7,2328.6v3.6h2.6v2.5h-2.6v8.3c0,0.3,0,0.6,0.1,0.8s0.2,0.4,0.3,0.5s0.3,0.2,0.5,0.2s0.4,0.1,0.6,0.1s0.4,0,0.7,0
		s0.4-0.1,0.5-0.1v2.6c-0.3,0.1-0.6,0.1-0.9,0.2s-0.8,0.1-1.3,0.1c-0.5,0-1.1-0.1-1.5-0.2s-0.9-0.4-1.2-0.7s-0.6-0.8-0.8-1.3
		s-0.3-1.2-0.3-1.9v-8.4h-2.4v-2.5h2.4v-3.6H1680.7z"/>
	<path d="M1694.2,2342.9c0-0.2,0-0.5-0.1-0.7s-0.2-0.4-0.5-0.6s-0.5-0.3-1-0.5s-1-0.3-1.6-0.4c-0.8-0.2-1.5-0.4-2.2-0.6
		s-1.2-0.5-1.7-0.9s-0.8-0.8-1.1-1.2s-0.4-1-0.4-1.6c0-0.6,0.1-1.2,0.4-1.7s0.6-1,1.1-1.4s1.1-0.7,1.8-1s1.5-0.4,2.4-0.4
		c0.9,0,1.7,0.1,2.5,0.4s1.4,0.6,1.9,1s0.9,0.9,1.2,1.5s0.4,1.2,0.4,1.9h-3.3c0-0.3-0.1-0.6-0.2-0.8s-0.3-0.5-0.5-0.7
		s-0.5-0.4-0.8-0.5s-0.7-0.2-1.1-0.2c-0.4,0-0.8,0.1-1.1,0.2s-0.6,0.2-0.8,0.4s-0.4,0.4-0.5,0.6s-0.2,0.5-0.2,0.7s0,0.5,0.1,0.7
		s0.3,0.4,0.5,0.5s0.5,0.3,0.9,0.4s0.9,0.3,1.5,0.4c0.9,0.2,1.6,0.4,2.3,0.6s1.3,0.5,1.7,0.9s0.8,0.8,1.1,1.3s0.4,1.1,0.4,1.7
		c0,0.7-0.1,1.3-0.4,1.8s-0.7,1-1.2,1.4s-1.2,0.7-1.9,0.9s-1.6,0.3-2.5,0.3c-1,0-1.9-0.1-2.7-0.4s-1.4-0.7-2-1.1s-0.9-1-1.2-1.6
		s-0.4-1.2-0.4-1.8h3.2c0,0.5,0.1,0.8,0.3,1.1s0.4,0.6,0.7,0.8s0.6,0.3,1,0.4s0.7,0.1,1.1,0.1c0.9,0,1.5-0.2,2-0.5
		S1694.2,2343.5,1694.2,2342.9z"/>
	<path d="M1703.5,2332.2l0.1,1.5c0.5-0.6,1.1-1,1.8-1.3s1.5-0.5,2.5-0.5c0.9,0,1.7,0.2,2.4,0.5s1.3,0.9,1.6,1.7
		c0.5-0.7,1.1-1.2,1.9-1.7s1.6-0.6,2.7-0.6c0.8,0,1.4,0.1,2.1,0.3s1.1,0.5,1.5,1s0.7,1,1,1.7s0.3,1.5,0.3,2.5v9.6h-3.3v-9.6
		c0-0.5-0.1-1-0.2-1.3s-0.3-0.6-0.5-0.8s-0.5-0.4-0.8-0.4s-0.7-0.1-1.1-0.1c-0.8,0-1.4,0.2-1.9,0.6s-0.8,0.9-1,1.6c0,0,0,0.1,0,0.1
		s0,0.1,0,0.1v9.9h-3.3v-9.6c0-0.5-0.1-1-0.2-1.3s-0.3-0.6-0.5-0.9s-0.5-0.4-0.8-0.5s-0.7-0.1-1.1-0.1c-0.7,0-1.3,0.1-1.8,0.4
		s-0.8,0.7-1.1,1.2v10.7h-3.3v-14.8H1703.5z"/>
	<path d="M1733.5,2347c-0.1-0.2-0.2-0.4-0.2-0.6s-0.1-0.5-0.2-0.8c-0.2,0.2-0.5,0.4-0.7,0.6s-0.6,0.4-0.9,0.5s-0.7,0.3-1.1,0.4
		c-0.4,0.1-0.8,0.1-1.2,0.1c-0.7,0-1.4-0.1-2-0.3c-0.6-0.2-1.2-0.5-1.6-0.9s-0.8-0.9-1-1.4s-0.4-1.1-0.4-1.8c0-0.8,0.2-1.5,0.5-2.1
		s0.7-1.1,1.3-1.5s1.3-0.7,2.1-0.9s1.8-0.3,2.9-0.3h2.1v-1c0-0.8-0.2-1.4-0.6-1.8s-1.1-0.7-2-0.7c-0.4,0-0.7,0.1-1.1,0.2
		s-0.6,0.2-0.8,0.4s-0.4,0.4-0.5,0.6s-0.2,0.5-0.2,0.8h-3.3c0-0.6,0.1-1.1,0.4-1.7s0.7-1,1.2-1.4s1.2-0.8,1.9-1s1.6-0.4,2.5-0.4
		c0.8,0,1.6,0.1,2.3,0.3s1.3,0.5,1.8,1s0.9,1,1.2,1.6s0.4,1.4,0.4,2.2v6.6c0,1.3,0.2,2.4,0.6,3.2v0.2H1733.5z M1729.9,2344.6
		c0.4,0,0.7,0,1.1-0.2s0.6-0.2,0.9-0.4s0.5-0.4,0.7-0.6s0.4-0.4,0.5-0.6v-2.8h-1.8c-1.2,0-2.2,0.2-2.8,0.6s-0.9,1-0.9,1.8
		c0,0.3,0,0.6,0.2,0.8s0.3,0.5,0.5,0.7s0.4,0.3,0.7,0.4S1729.5,2344.6,1729.9,2344.6z"/>
	<path d="M1742.9,2332.2l0.1,1.7c0.5-0.6,1.1-1.1,1.9-1.5s1.5-0.5,2.4-0.5c0.7,0,1.4,0.1,1.9,0.3s1.1,0.5,1.5,1s0.7,1,1,1.7
		s0.3,1.6,0.3,2.6v9.6h-3.3v-9.6c0-0.5-0.1-0.9-0.2-1.3s-0.3-0.6-0.5-0.9s-0.5-0.4-0.8-0.5s-0.7-0.1-1.1-0.1c-0.7,0-1.3,0.2-1.8,0.5
		s-0.9,0.8-1.2,1.3v10.5h-3.3v-14.8H1742.9z"/>
</g>
<g>
	<path fill="#EB1E28" d="M1645.1,2260.3c-10,10.6-16.2,24.8-16.2,40.5h-44.5c0-28,11.1-53.4,29.2-72L1645.1,2260.3z"/>
	<path fill="#F59320" d="M1686.9,2197.3v44.5c-15.7,0.3-30,6.7-40.4,17l-31.5-31.5C1633.4,2209,1658.8,2197.6,1686.9,2197.3z"/>
	<path fill="#FCD206" d="M1760.8,2227.2l-31.6,31.6c-10.4-10.3-24.7-16.7-40.4-17v-44.7C1716.9,2197.4,1742.3,2208.8,1760.8,2227.2z
		"/>
	<path fill="#0D8D45" d="M1791.4,2300.7h-44.5c0-15.7-6.2-29.9-16.3-40.4l31.6-31.6C1780.3,2247.2,1791.4,2272.7,1791.4,2300.7z"/>
	<path fill="#4B4E58" d="M1744.9,2300.7h-114c0-15.1,5.9-28.9,15.5-39.1c0.5-0.5,0.9-1,1.4-1.4c10.1-10,23.9-16.3,39.2-16.5
		c0.3,0,0.7,0,1,0s0.7,0,1,0c15.2,0.3,29,6.5,39.1,16.4c0.5,0.5,0.9,0.9,1.4,1.4C1739,2271.7,1744.9,2285.5,1744.9,2300.7z"/>
	<g>
		
			<ellipse transform="matrix(0.2273 -0.9738 0.9738 0.2273 -958.9391 3315.314)" fill="#F2F2F2" cx="1609.6" cy="2261.9" rx="3.5" ry="3.5"/>
		<path fill="#F2F2F2" d="M1622,2275.7h-4.5l-1.6-2.1c0,0,0,0-0.1,0c-1.2,0.4-2.3,0.5-3.4,0.5h0c-1.9,0-3.3-0.6-4.4-1.2l-0.2,0.2
			c0-0.1,0-0.2,0.1-0.3c-0.7-0.4-1.2-0.9-1.6-1.3c-1.1-1.1-1.6-2.2-1.8-2.6l0,0l0,0c-0.2-0.4-0.1-0.8,0-1.2c0.2-0.4,0.5-0.7,0.8-0.8
			c0.2-0.1,0.4-0.1,0.6-0.1c0.6,0,1.2,0.4,1.4,1c0,0,0,0.1,0,0.1c0.1,0.1,0.1,0.3,0.2,0.4c0.2,0.3,0.5,0.8,0.9,1.2c0,0,0,0,0,0
			c0,0,0,0,0,0c0.4-1.5-0.1-3.4-1.5-3.7c-1.3-0.3-3.2,0.4-4,2.6c-1,3.1-1.3,5.1-0.9,8.5c0.5,2.5,2.2,2.7,3.6,2.7c0,0,0,0,0,0
			c0,0,0,0,0,0h16.1c1.1,0,1.9-0.9,1.9-1.9C1624,2276.5,1623.1,2275.7,1622,2275.7z M1610.8,2275.7l1.2-1.1l0.8,1.1H1610.8z"/>
		<path fill="#F2F2F2" d="M1614,2270.9l-0.3-0.3c-0.3-0.4-0.8-0.7-1.4-0.8c-0.5,0-1.1,0.1-1.5,0.5l-0.4,0.3c0.6,0.2,1.3,0.4,2.1,0.4
			C1613,2271,1613.5,2271,1614,2270.9z"/>
		<path fill="#F2F2F2" d="M1607.4,2268.3c-0.1-0.2-0.2-0.3-0.2-0.4c0,0,0-0.1,0-0.1c0,0,0,0,0,0h0c-0.3-0.6-1-0.9-1.6-0.7
			c-0.6,0.3-0.9,1-0.7,1.6v0c0,0.1,0.5,1.3,1.7,2.6c0.4,0.4,0.9,0.8,1.4,1.2c0.1,0.1,0.2,0.2,0.4,0.2c1.1,0.7,2.5,1.1,4.2,1.1
			c0,0,0,0,0,0c1,0,2.1-0.2,3.2-0.5c0,0,0,0,0,0c0.7-0.2,1-0.9,0.8-1.5c-0.2-0.7-0.9-1-1.5-0.8c-0.3,0.1-0.6,0.2-0.9,0.2
			c-0.6,0.1-1.1,0.2-1.6,0.2c-0.9,0-1.7-0.2-2.3-0.5c-0.7-0.3-1.3-0.7-1.7-1.2c-0.1-0.1-0.1-0.1-0.2-0.2
			C1607.9,2269.1,1607.6,2268.6,1607.4,2268.3z"/>
	</g>
	<g>
		<polygon fill="#C8C5C5" points="1695.6,2282.3 1754.5,2276.4 1698.1,2287.9 		"/>
		<polygon fill="#EAEAEA" points="1698,2294.1 1754.5,2276.3 1698.1,2287.9 		"/>
	</g>
	<path fill="#C8C5C5" d="M1687.9,2277.2c-8.3,0-15.1,6.7-15.1,15.1c0,3.1,0.9,6,2.6,8.4h25c1.6-2.4,2.6-5.3,2.6-8.4
		C1703,2283.9,1696.2,2277.2,1687.9,2277.2z"/>
	<path fill="#EAEAEA" d="M1701.4,2292.3c0,3.2-1.1,6.1-2.9,8.4h-21.2c-1.8-2.3-2.9-5.2-2.9-8.4c0-7.5,6.1-13.5,13.5-13.5
		S1701.4,2284.8,1701.4,2292.3z"/>
	<g>
		<circle fill="#F2F2F2" cx="1724.1" cy="2218" r="2.9"/>
		<polygon fill="#F2F2F2" points="1721.1,2230.5 1725.3,2222.4 1720.1,2219.7 1715.7,2228.1 		"/>
		<path fill="#F2F2F2" d="M1728.5,2227.5l-3.3,0l0-4.5l-1.8,3.5l0,1.6c0,0.5,0.4,1,1,1l4.2,0c0.5,0,0.8-0.4,0.8-0.8
			C1729.3,2227.9,1729,2227.5,1728.5,2227.5z"/>
		<path fill="#F2F2F2" d="M1714,2225.6c0.5,0,0.8-0.4,0.8-0.8l0-3.3l3.9,0l1-1.8c0,0-0.7,0-1.5,0l-4,0c-0.5,0-1,0.4-1,1l0,4.2
			C1713.2,2225.3,1713.5,2225.6,1714,2225.6z"/>
		<path fill="#F2F2F2" d="M1724.8,2232.5l-9.1-4.1l0,0l0,0v6.5l-4.6,0c-0.6,0-1.1,0.5-1.1,1.1l0,0c0,0.6,0.5,1.1,1.1,1.1l5.8,0
			c0.7,0,1.4-0.6,1.4-1.4v-3.3l4.6,2.1l-2,4.5c-0.3,0.6,0,1.3,0.6,1.6h0c0.6,0.3,1.3,0,1.6-0.6l2.6-5.7
			C1725.8,2233.7,1725.5,2232.9,1724.8,2232.5z"/>
	</g>
	<g>
		<path fill="#F2F2F2" d="M1655,2216.6c0.7,0,1.2,0.3,1.7,0.7c0.4,0.4,0.7,1,0.7,1.7c0,0.7-0.3,1.2-0.7,1.7c-0.4,0.4-1,0.7-1.7,0.7
			s-1.2-0.3-1.7-0.7c-0.4-0.4-0.7-1-0.7-1.7c0-0.7,0.3-1.2,0.7-1.7C1653.8,2216.8,1654.4,2216.6,1655,2216.6z"/>
		<path fill="#F2F2F2" d="M1654.5,2221.5c0.3,0.1,0.7,0.3,0.9,0.5c0.3,0.2,0.5,0.5,0.6,0.8l2.1,3.4l3.8,0.7c0.3,0.1,0.6,0.3,0.7,0.5
			c0.1,0.3,0.2,0.6,0.1,0.9c0,0.1,0,0.1,0,0.1c-0.1,0.3-0.3,0.6-0.6,0.7c-0.2,0.1-0.5,0.1-0.8,0.1c-0.1,0-0.1,0-0.2,0l-4-0.7
			c-0.1,0-0.2-0.1-0.3-0.1c-0.1,0-0.2-0.1-0.2-0.2c-0.1-0.1-0.2-0.1-0.3-0.2c-0.1-0.1-0.2-0.2-0.3-0.3l-0.6-1
			c-0.2,1.1-0.6,2.6-0.9,3.3l2.2,1.9c0.1,0.1,0.2,0.2,0.3,0.3c0.1,0.1,0.1,0.2,0.2,0.3c0.1,0.1,0.1,0.2,0.2,0.3
			c0.1,0.1,0.1,0.2,0.1,0.4l0.4,4.7c0,0.1,0,0.1,0,0.2c0,0.3-0.1,0.6-0.2,0.9c-0.1,0.2-0.2,0.3-0.4,0.4c-0.2,0.1-0.5,0.1-0.8,0.1
			c-0.3,0-0.5-0.1-0.8-0.2c-0.3-0.2-0.5-0.4-0.5-0.8l-0.4-4.5l-2.1-1.8l-0.3,2.4c0,0.1,0,0.3-0.1,0.4c0,0.1-0.1,0.2-0.1,0.3
			c0,0.1,0,0.2-0.1,0.2c0,0.1-0.1,0.2-0.2,0.2l-3.1,3.5c0,0-0.1,0.1-0.1,0.1c-0.2,0.2-0.5,0.4-0.8,0.5c-0.3,0.1-0.7,0.1-1-0.2h0
			c0,0,0,0,0,0l0,0c0,0,0,0,0,0c-0.2-0.3-0.5-0.6-0.6-0.9c-0.1-0.3,0-0.7,0.2-0.9l3.1-3.5c0,0,0,0,0,0l0.6-4.2c0-0.2,0-0.3,0-0.5
			c0-0.3,0-0.6,0.1-0.8l1-3.7l-1.8,0.5l-1.6,3.5c-0.1,0.3-0.4,0.5-0.7,0.5c-0.3,0.1-0.7,0-1-0.1l0,0c0,0,0,0,0,0c0,0,0,0-0.1,0
			c-0.3-0.1-0.5-0.4-0.5-0.7c0-0.3,0-0.6,0.1-0.8v0l0,0c0,0,0-0.1,0.1-0.1l1.7-3.7c0-0.1,0.1-0.2,0.2-0.3c0.1-0.1,0.1-0.1,0.2-0.2
			c0.1-0.1,0.2-0.2,0.3-0.2c0.1-0.1,0.2-0.1,0.4-0.2l4.5-1.4c0,0,0.1,0,0.1,0h0c0,0,0,0,0,0c0,0,0.1,0,0.1,0l0,0l0,0
			c0,0,0.1,0,0.1,0c0,0,0.1,0,0.1,0c0.1,0,0.3,0,0.4,0C1654.2,2221.5,1654.4,2221.5,1654.5,2221.5z"/>
	</g>
	
		<image overflow="visible" width="512" height="512" xlink:href="http://tryscrumlive.vervebot.io/wp-content/uploads/2021/08/craftman-06.png"  transform="matrix(5.622999e-02 0 0 5.622999e-02 1748.6057 2257.1628)">
	</image>
</g>
</svg>
