<?xml version="1.0" encoding="utf-8"?>
<!-- Generator: Adobe Illustrator 23.0.2, SVG Export Plug-In . SVG Version: 6.00 Build 0)  -->
<svg version="1.1" id="Layer_1" xmlns="http://www.w3.org/2000/svg" xmlns:xlink="http://www.w3.org/1999/xlink" x="0px" y="0px"
	 viewBox="0 0 800 600" style="enable-background:new 0 0 800 600;" xml:space="preserve">
<style type="text/css">
	.st0r{fill:#F89B16;}
	.st1r{fill:#F8F9FA;}
	.st2r{fill:#212529;}
	.st3r{fill:#FFFFFF;}
</style>
<g>
	<defs>
		<rect id="SVGID_1_" x="215" y="51.22" width="370" height="400"/>
	</defs>
	<clipPath id="SVGID_2_">
		<use xlink:href="#SVGID_1_"  style="overflow:visible;"/>
	</clipPath>
	<g style="clip-path:url(#SVGID_2_);">
		
			<image style="overflow:visible;" width="370" height="400" xlink:href="https://tryscrumlive.vervebot.io/wp-content/uploads/2021/09/venkateswara-rao.png" transform="matrix(1 0 0 1 215 51.2241)">
		</image>
	</g>
</g>
<path class="st0r" d="M541.6,547.39H258.4c-3.87,0-7-3.13-7-7V392.01c0-3.87,3.13-7,7-7H541.6c3.87,0,7,3.13,7,7v148.38
	C548.6,544.26,545.46,547.39,541.6,547.39z"/>
<a xlink:href="https://twitter.com/evrao23" target="_black">
	<g>
		<g>
			<path class="st1r" d="M333.57,526.14h-24.29c-1.58,0-2.86-1.28-2.86-2.86V499c0-1.58,1.28-2.86,2.86-2.86h24.29
				c1.58,0,2.86,1.28,2.86,2.86v24.29C336.43,524.86,335.15,526.14,333.57,526.14z"/>
		</g>
		<a>
			<g>
				<path class="st2r" d="M327.79,508.55c0,4.33-3.3,9.33-9.33,9.33c-1.86,0-3.58-0.54-5.04-1.47c0.26,0.03,0.52,0.04,0.79,0.04
					c1.53,0,2.94-0.52,4.07-1.4c-1.44-0.03-2.65-0.97-3.07-2.27c0.2,0.03,0.41,0.05,0.62,0.05c0.29,0,0.59-0.04,0.86-0.11
					c-1.5-0.3-2.63-1.62-2.63-3.22v-0.04c0.44,0.24,0.94,0.4,1.48,0.42c-0.88-0.59-1.46-1.59-1.46-2.73c0-0.61,0.16-1.17,0.45-1.66
					c1.61,1.99,4.04,3.29,6.76,3.43c-0.05-0.24-0.08-0.5-0.08-0.75c0-1.81,1.46-3.28,3.28-3.28c0.94,0,1.8,0.4,2.4,1.04
					c0.74-0.14,1.45-0.42,2.08-0.79c-0.24,0.76-0.76,1.4-1.44,1.81c0.66-0.07,1.3-0.25,1.89-0.51c-0.45,0.65-1,1.23-1.64,1.7
					C327.79,508.26,327.79,508.41,327.79,508.55z"/>
			</g>
		</a>
	</g>
</a>
<a xlink:href="https://www.linkedin.com/in/evrao/" target="_black">
	<g>
		<g>
			<path class="st1r" d="M385.75,526.14h-24.29c-1.58,0-2.86-1.28-2.86-2.86V499c0-1.58,1.28-2.86,2.86-2.86h24.29
				c1.58,0,2.86,1.28,2.86,2.86v24.29C388.61,524.86,387.33,526.14,385.75,526.14z"/>
		</g>
		<g>
			<path class="st2r" d="M366.61,505.06c0-0.93,0.75-1.68,1.68-1.68s1.68,0.75,1.68,1.68s-0.75,1.7-1.68,1.7
				S366.61,505.99,366.61,505.06z M366.84,517.38v-9.35h2.9v9.35H366.84z M377.71,517.38v-4.55c0-1.08-0.02-2.47-1.51-2.47
				c-1.51,0-1.74,1.18-1.74,2.4v4.63h-2.9v-9.35h2.78v1.28h0.04c0.39-0.73,1.33-1.51,2.75-1.51c2.94,0,3.48,1.93,3.48,4.45v5.13h0
				H377.71z"/>
		</g>
	</g>
</a>
<a xlink:href="https://tryscrum-community.slack.com/" target="_black">
	<g>
			<g>
				<path class="st1r" d="M437.94,526.14h-24.29c-1.58,0-2.86-1.28-2.86-2.86V499c0-1.58,1.28-2.86,2.86-2.86h24.29
					c1.58,0,2.86,1.28,2.86,2.86v24.29C440.79,524.86,439.51,526.14,437.94,526.14z"/>
			</g>
		<g>
			<path class="st2r" d="M424.72,508.99c0,0.72-0.59,1.32-1.32,1.32h-3.3c-0.72,0-1.32-0.59-1.32-1.32s0.59-1.32,1.32-1.32h3.3
				C424.13,507.68,424.72,508.27,424.72,508.99z M420.11,513.61c-0.72,0-1.32-0.59-1.32-1.32c0-0.72,0.59-1.32,1.32-1.32h1.32v1.32
				C421.43,513.02,420.83,513.61,420.11,513.61z M422.09,505.7c0-0.72,0.59-1.32,1.32-1.32c0.72,0,1.32,0.59,1.32,1.32v1.32h-1.32
				C422.68,507.01,422.09,506.42,422.09,505.7z M423.41,510.98c0.72,0,1.32,0.59,1.32,1.32v3.3c0,0.72-0.59,1.32-1.32,1.32
				c-0.72,0-1.32-0.59-1.32-1.32v-3.3C422.09,511.57,422.68,510.98,423.41,510.98z M426.71,510.31c-0.72,0-1.32-0.59-1.32-1.32v-3.3
				c0-0.72,0.59-1.32,1.32-1.32c0.72,0,1.32,0.59,1.32,1.32v3.3C428.03,509.72,427.44,510.31,426.71,510.31z M425.4,512.3
				c0-0.72,0.59-1.32,1.32-1.32h3.3c0.72,0,1.32,0.59,1.32,1.32c0,0.72-0.59,1.32-1.32,1.32h-3.3
				C425.99,513.61,425.4,513.02,425.4,512.3z M428.03,515.59c0,0.72-0.59,1.32-1.32,1.32c-0.72,0-1.32-0.59-1.32-1.32v-1.32h1.32
				C427.44,514.28,428.03,514.87,428.03,515.59z M430.01,507.68c0.72,0,1.32,0.59,1.32,1.32s-0.59,1.32-1.32,1.32h-1.32v-1.32
				C428.69,508.27,429.28,507.68,430.01,507.68z"/>
		</g>
	</g>
</a>
<a xlink:href="https://www.meetup.com/smstudiochn/" target="_black">
	<g>
		<path class="st1r" d="M490.12,526.14h-24.29c-1.58,0-2.86-1.28-2.86-2.86V499c0-1.58,1.28-2.86,2.86-2.86h24.29
			c1.58,0,2.86,1.28,2.86,2.86v24.29C492.98,524.86,491.7,526.14,490.12,526.14z"/>
		<g>
			<path class="st2r" d="M470.99,511.43c-0.22,0.32-0.64,0.4-0.96,0.18c-0.31-0.22-0.39-0.65-0.18-0.97c0.22-0.32,0.64-0.4,0.96-0.19
				C471.12,510.67,471.2,511.1,470.99,511.43z M482.68,516.11c-0.54,0.38-1.16,0.55-1.78,0.53c-0.38,1.47-2.17,2.02-3.28,1.02
				c-0.04,0.03-0.08,0.05-0.12,0.09c-1.22,0.85-2.88,0.54-3.73-0.7c-0.3-0.45-0.46-0.96-0.47-1.47c-2.04-0.34-2.81-2.94-1.28-4.37
				c-0.88-1.47,0.02-3.36,1.67-3.59c0.78-2.07,3.36-3.05,5.11-1.69c2.11-0.7,4.26,0.92,4.09,3.16c1.28,0.39,1.65,2.09,0.62,2.97
				C484.33,513.42,483.98,515.2,482.68,516.11z M472.58,516.71c-0.17,0.03-0.34-0.07-0.38-0.25c-0.03-0.17,0.07-0.35,0.24-0.38
				c0.17-0.04,0.35,0.07,0.38,0.25C472.86,516.51,472.76,516.67,472.58,516.71z M472.62,506.79c-0.16-0.24-0.11-0.57,0.13-0.74
				c0.23-0.16,0.56-0.11,0.72,0.13c0.16,0.24,0.11,0.57-0.13,0.74C473.1,507.09,472.77,507.03,472.62,506.79z M479.97,513.55
				c-0.1-1,1.37-3.16,1.25-4c-0.11-0.75-0.61-0.91-1.04-0.92c-0.42-0.01-0.53,0.06-0.67,0.14c-0.09,0.05-0.21,0.15-0.37-0.01
				c-0.2-0.19-0.35-0.37-0.61-0.4c-0.38-0.06-0.55,0.06-0.83,0.3c-0.11,0.09-0.38,0.4-0.63,0.28c-0.11-0.05-0.48-0.24-0.75-0.36
				c-0.51-0.22-1.25,0.14-1.52,0.63c-0.4,0.71-1.19,3.53-1.3,3.91c-0.27,0.83,0.34,1.52,1.15,1.47c0.35-0.02,0.57-0.14,0.79-0.54
				c0.13-0.23,1.3-3.37,1.39-3.52c0.06-0.11,0.28-0.25,0.46-0.16c0.18,0.1,0.22,0.29,0.19,0.47c-0.03,0.3-0.88,2.22-0.9,2.43
				c-0.11,0.72,0.84,0.83,1.21,0.13c0.12-0.22,1.43-2.89,1.54-3.07c0.13-0.2,0.23-0.26,0.37-0.25c0.1,0,0.26,0.03,0.22,0.34
				c-0.04,0.29-1.1,2.26-1.22,2.74c-0.14,0.64,0.21,1.29,0.78,1.58c0.36,0.18,1.95,0.49,1.83-0.35
				C481.22,513.76,480.04,514.26,479.97,513.55z M474.18,503.83c-0.04-0.2,0.09-0.39,0.28-0.44c0.2-0.05,0.39,0.08,0.43,0.29
				c0.04,0.2-0.08,0.39-0.28,0.44C474.41,504.16,474.22,504.03,474.18,503.83z M477.91,518.67c0.14,0.21,0.09,0.48-0.11,0.63
				c-0.21,0.14-0.48,0.09-0.63-0.12c-0.13-0.21-0.08-0.48,0.12-0.63C477.51,518.42,477.78,518.47,477.91,518.67z M478.38,504.88
				c-0.2-0.33-0.09-0.76,0.23-0.96c0.32-0.2,0.74-0.09,0.94,0.24c0.19,0.32,0.09,0.75-0.24,0.95
				C478.99,505.31,478.57,505.2,478.38,504.88z M482.51,517.47c0.22,0.33,0.14,0.79-0.19,1.02c-0.33,0.22-0.78,0.14-1-0.19
				c-0.22-0.33-0.14-0.79,0.18-1.02C481.83,517.05,482.27,517.14,482.51,517.47z M484.51,507.87c0.18,0.27,0.12,0.63-0.14,0.82
				c-0.27,0.18-0.63,0.12-0.81-0.15s-0.12-0.63,0.15-0.82C483.96,507.53,484.33,507.6,484.51,507.87z M485.48,512.14
				c0.05,0.24-0.1,0.48-0.33,0.52c-0.23,0.05-0.46-0.1-0.51-0.33c-0.05-0.24,0.1-0.47,0.33-0.53
				C485.2,511.76,485.43,511.91,485.48,512.14z M485.97,510.42c-0.18,0.03-0.35-0.08-0.38-0.25c-0.03-0.18,0.07-0.36,0.25-0.39
				c0.17-0.03,0.34,0.07,0.38,0.25C486.26,510.2,486.14,510.37,485.97,510.42z"/>
		</g>
	</g>
</a>
<g>
	<path class="st3r" d="M306.71,431.05l3.97-12.24h2.99l-5.63,15.64h-2.63l-5.61-15.64h2.98L306.71,431.05z"/>
	<path class="st3r" d="M319.83,434.67c-0.86,0-1.63-0.14-2.32-0.43s-1.27-0.68-1.75-1.18c-0.48-0.5-0.85-1.1-1.11-1.78
		s-0.39-1.43-0.39-2.22v-0.43c0-0.92,0.14-1.75,0.41-2.49c0.27-0.74,0.64-1.37,1.12-1.89c0.47-0.52,1.03-0.92,1.67-1.2
		c0.64-0.28,1.33-0.42,2.07-0.42c0.84,0,1.58,0.14,2.2,0.42c0.62,0.28,1.14,0.68,1.55,1.19s0.71,1.11,0.91,1.82
		c0.2,0.7,0.3,1.47,0.3,2.31v1.12h-7.59c0.04,0.45,0.13,0.87,0.28,1.25c0.15,0.38,0.36,0.71,0.63,0.98
		c0.26,0.28,0.58,0.49,0.94,0.65c0.36,0.16,0.77,0.24,1.23,0.24c0.64,0,1.2-0.13,1.68-0.39c0.48-0.26,0.89-0.61,1.24-1.06l1.41,1.34
		c-0.19,0.28-0.42,0.55-0.69,0.81c-0.28,0.26-0.6,0.49-0.97,0.7c-0.37,0.2-0.79,0.37-1.25,0.49
		C320.93,434.6,320.41,434.67,319.83,434.67z M319.51,424.71c-0.72,0-1.29,0.25-1.73,0.75s-0.72,1.2-0.84,2.09h4.97v-0.19
		c-0.02-0.34-0.08-0.67-0.17-0.99c-0.09-0.32-0.23-0.6-0.41-0.85c-0.19-0.25-0.43-0.44-0.73-0.59
		C320.31,424.78,319.94,424.71,319.51,424.71z"/>
	<path class="st3r" d="M328.94,422.83l0.08,1.34c0.41-0.49,0.9-0.88,1.47-1.15c0.57-0.27,1.21-0.41,1.91-0.41
		c0.56,0,1.06,0.08,1.52,0.23c0.45,0.15,0.84,0.4,1.17,0.75s0.57,0.79,0.75,1.34c0.18,0.55,0.26,1.22,0.26,2.01v7.51h-2.61v-7.53
		c0-0.4-0.04-0.74-0.13-1.01c-0.09-0.28-0.22-0.5-0.39-0.67s-0.39-0.29-0.64-0.37c-0.25-0.07-0.55-0.11-0.88-0.11
		c-0.54,0-1,0.13-1.4,0.39s-0.71,0.61-0.95,1.04v8.27h-2.61v-11.62H328.94z"/>
	<path class="st3r" d="M342.52,429.47l-1.16,1.19v3.79h-2.61v-16.5h2.61v9.52l0.82-1.02l3.21-3.62h3.14l-4.32,4.84l4.78,6.78h-3.02
		L342.52,429.47z"/>
	<path class="st3r" d="M357.18,434.45c-0.07-0.14-0.13-0.3-0.18-0.48c-0.05-0.19-0.09-0.39-0.12-0.6c-0.17,0.18-0.36,0.35-0.57,0.5
		c-0.21,0.16-0.44,0.29-0.7,0.41c-0.25,0.12-0.53,0.21-0.83,0.28c-0.3,0.07-0.61,0.1-0.95,0.1c-0.58,0-1.11-0.09-1.6-0.26
		c-0.49-0.17-0.9-0.42-1.25-0.73c-0.35-0.31-0.62-0.68-0.82-1.1c-0.2-0.42-0.3-0.88-0.3-1.38c0-0.62,0.12-1.17,0.35-1.65
		s0.58-0.88,1.03-1.2s1-0.57,1.66-0.74c0.66-0.17,1.4-0.25,2.24-0.25h1.64v-0.76c0-0.6-0.17-1.08-0.5-1.45
		c-0.34-0.36-0.85-0.54-1.54-0.54c-0.31,0-0.59,0.04-0.84,0.12c-0.25,0.08-0.46,0.19-0.64,0.33c-0.18,0.14-0.31,0.31-0.41,0.5
		s-0.15,0.4-0.15,0.62h-2.61c0-0.46,0.11-0.9,0.34-1.33c0.23-0.43,0.55-0.81,0.96-1.14c0.42-0.33,0.92-0.6,1.51-0.8
		s1.25-0.3,1.98-0.3c0.65,0,1.25,0.08,1.8,0.25c0.55,0.17,1.03,0.42,1.43,0.75c0.4,0.33,0.71,0.75,0.93,1.25
		c0.22,0.5,0.33,1.08,0.33,1.75v5.16c0,1.05,0.15,1.88,0.44,2.5v0.18H357.18z M354.31,432.57c0.3,0,0.58-0.04,0.84-0.12
		c0.26-0.08,0.5-0.18,0.71-0.31c0.21-0.13,0.4-0.28,0.55-0.45c0.16-0.17,0.28-0.34,0.38-0.51V429h-1.41c-0.97,0-1.69,0.17-2.18,0.5
		c-0.49,0.34-0.73,0.81-0.73,1.43c0,0.24,0.04,0.46,0.12,0.66c0.08,0.2,0.2,0.37,0.35,0.52c0.16,0.15,0.35,0.26,0.57,0.34
		C353.74,432.53,354.01,432.57,354.31,432.57z"/>
	<path class="st3r" d="M365.4,420v2.83h2.05v1.93h-2.05v6.49c0,0.26,0.03,0.48,0.09,0.64c0.06,0.17,0.14,0.29,0.25,0.38
		c0.11,0.09,0.23,0.15,0.38,0.18c0.15,0.03,0.31,0.05,0.49,0.05c0.18,0,0.35-0.01,0.52-0.04c0.17-0.02,0.3-0.05,0.39-0.07v2.02
		c-0.21,0.06-0.45,0.11-0.73,0.17c-0.28,0.05-0.61,0.08-0.99,0.08c-0.43,0-0.83-0.06-1.2-0.17c-0.37-0.11-0.69-0.3-0.96-0.56
		s-0.48-0.59-0.63-1.01s-0.23-0.92-0.23-1.53v-6.64h-1.91v-1.93h1.91V420H365.4z"/>
	<path class="st3r" d="M374.57,434.67c-0.86,0-1.63-0.14-2.32-0.43s-1.27-0.68-1.75-1.18c-0.48-0.5-0.85-1.1-1.11-1.78
		s-0.39-1.43-0.39-2.22v-0.43c0-0.92,0.14-1.75,0.41-2.49c0.27-0.74,0.64-1.37,1.12-1.89c0.47-0.52,1.03-0.92,1.67-1.2
		c0.64-0.28,1.33-0.42,2.07-0.42c0.84,0,1.58,0.14,2.2,0.42c0.62,0.28,1.14,0.68,1.55,1.19s0.71,1.11,0.91,1.82
		c0.2,0.7,0.3,1.47,0.3,2.31v1.12h-7.59c0.04,0.45,0.13,0.87,0.28,1.25c0.15,0.38,0.36,0.71,0.63,0.98
		c0.26,0.28,0.58,0.49,0.94,0.65c0.36,0.16,0.77,0.24,1.23,0.24c0.64,0,1.2-0.13,1.68-0.39c0.48-0.26,0.89-0.61,1.24-1.06l1.41,1.34
		c-0.19,0.28-0.42,0.55-0.69,0.81c-0.28,0.26-0.6,0.49-0.97,0.7c-0.37,0.2-0.79,0.37-1.25,0.49
		C375.67,434.6,375.15,434.67,374.57,434.67z M374.26,424.71c-0.72,0-1.29,0.25-1.73,0.75s-0.72,1.2-0.84,2.09h4.97v-0.19
		c-0.02-0.34-0.08-0.67-0.17-0.99c-0.09-0.32-0.23-0.6-0.41-0.85c-0.19-0.25-0.43-0.44-0.73-0.59
		C375.05,424.78,374.69,424.71,374.26,424.71z"/>
	<path class="st3r" d="M387.77,431.29c0-0.19-0.03-0.36-0.09-0.52c-0.06-0.16-0.18-0.31-0.36-0.45c-0.18-0.14-0.43-0.27-0.76-0.39
		c-0.33-0.12-0.75-0.24-1.27-0.34c-0.62-0.13-1.19-0.29-1.7-0.48c-0.51-0.19-0.95-0.43-1.32-0.7c-0.37-0.28-0.65-0.6-0.85-0.97
		s-0.31-0.8-0.31-1.29c0-0.47,0.1-0.92,0.31-1.35c0.21-0.43,0.51-0.8,0.9-1.12c0.39-0.32,0.86-0.58,1.42-0.77
		c0.55-0.19,1.18-0.29,1.86-0.29c0.72,0,1.37,0.09,1.95,0.29c0.58,0.19,1.06,0.45,1.47,0.78c0.4,0.33,0.71,0.73,0.92,1.18
		c0.21,0.45,0.32,0.94,0.32,1.46h-2.61c0-0.22-0.04-0.44-0.13-0.65c-0.09-0.21-0.21-0.4-0.39-0.56s-0.39-0.29-0.64-0.39
		c-0.25-0.1-0.55-0.14-0.89-0.14c-0.33,0-0.62,0.04-0.86,0.12c-0.24,0.08-0.45,0.19-0.61,0.32c-0.16,0.13-0.28,0.29-0.36,0.46
		c-0.08,0.17-0.12,0.36-0.12,0.55s0.04,0.37,0.11,0.52c0.07,0.15,0.2,0.29,0.38,0.41s0.43,0.23,0.74,0.34
		c0.31,0.1,0.69,0.21,1.16,0.31c0.67,0.14,1.28,0.31,1.81,0.5c0.53,0.19,0.98,0.43,1.35,0.71c0.37,0.28,0.65,0.61,0.84,0.99
		s0.29,0.83,0.29,1.35c0,0.52-0.11,0.99-0.33,1.42c-0.22,0.43-0.54,0.8-0.95,1.11c-0.41,0.31-0.91,0.55-1.49,0.72
		s-1.22,0.26-1.93,0.26c-0.79,0-1.5-0.11-2.11-0.34c-0.61-0.23-1.13-0.52-1.54-0.89c-0.42-0.37-0.73-0.78-0.94-1.24
		c-0.21-0.46-0.32-0.93-0.32-1.41h2.54c0.02,0.36,0.1,0.66,0.25,0.9c0.14,0.24,0.33,0.44,0.55,0.59c0.22,0.15,0.47,0.26,0.75,0.33
		c0.28,0.07,0.57,0.1,0.86,0.1c0.69,0,1.21-0.13,1.57-0.39C387.59,432.06,387.77,431.72,387.77,431.29z"/>
	<path class="st3r" d="M402.82,430.85l1.85-8.02h2.55l-3.17,11.62h-2.15l-2.49-7.98l-2.45,7.98h-2.15l-3.18-11.62h2.55l1.88,7.94
		l2.38-7.94h1.97L402.82,430.85z"/>
	<path class="st3r" d="M415.9,434.45c-0.07-0.14-0.13-0.3-0.18-0.48c-0.05-0.19-0.09-0.39-0.12-0.6c-0.17,0.18-0.36,0.35-0.57,0.5
		c-0.21,0.16-0.44,0.29-0.7,0.41c-0.25,0.12-0.53,0.21-0.83,0.28c-0.3,0.07-0.61,0.1-0.95,0.1c-0.58,0-1.11-0.09-1.6-0.26
		c-0.49-0.17-0.9-0.42-1.25-0.73c-0.35-0.31-0.62-0.68-0.82-1.1c-0.2-0.42-0.3-0.88-0.3-1.38c0-0.62,0.12-1.17,0.35-1.65
		s0.58-0.88,1.03-1.2s1-0.57,1.66-0.74c0.66-0.17,1.4-0.25,2.24-0.25h1.64v-0.76c0-0.6-0.17-1.08-0.5-1.45
		c-0.34-0.36-0.85-0.54-1.54-0.54c-0.31,0-0.59,0.04-0.84,0.12c-0.25,0.08-0.46,0.19-0.64,0.33c-0.18,0.14-0.31,0.31-0.41,0.5
		s-0.15,0.4-0.15,0.62h-2.61c0-0.46,0.11-0.9,0.34-1.33c0.23-0.43,0.55-0.81,0.96-1.14c0.42-0.33,0.92-0.6,1.51-0.8
		s1.25-0.3,1.98-0.3c0.65,0,1.25,0.08,1.8,0.25c0.55,0.17,1.03,0.42,1.43,0.75c0.4,0.33,0.71,0.75,0.93,1.25
		c0.22,0.5,0.33,1.08,0.33,1.75v5.16c0,1.05,0.15,1.88,0.44,2.5v0.18H415.9z M413.04,432.57c0.3,0,0.58-0.04,0.84-0.12
		c0.26-0.08,0.5-0.18,0.71-0.31c0.21-0.13,0.4-0.28,0.55-0.45c0.16-0.17,0.28-0.34,0.38-0.51V429h-1.41c-0.97,0-1.69,0.17-2.18,0.5
		s-0.73,0.81-0.73,1.43c0,0.24,0.04,0.46,0.12,0.66s0.2,0.37,0.35,0.52c0.16,0.15,0.35,0.26,0.58,0.34
		C412.47,432.53,412.73,432.57,413.04,432.57z"/>
	<path class="st3r" d="M426.95,425.21c-0.17-0.03-0.35-0.05-0.52-0.06c-0.18-0.01-0.36-0.02-0.54-0.02c-0.63,0-1.14,0.12-1.54,0.37
		s-0.69,0.58-0.88,1.01v7.95h-2.61v-11.62h2.49l0.06,1.3c0.29-0.47,0.66-0.84,1.09-1.11c0.43-0.27,0.94-0.4,1.53-0.4
		c0.15,0,0.32,0.02,0.51,0.05c0.19,0.03,0.33,0.07,0.41,0.1L426.95,425.21z"/>
	<path class="st3r" d="M435.22,434.45c-0.07-0.14-0.13-0.3-0.18-0.48c-0.05-0.19-0.09-0.39-0.12-0.6c-0.17,0.18-0.36,0.35-0.57,0.5
		c-0.21,0.16-0.44,0.29-0.7,0.41c-0.25,0.12-0.53,0.21-0.83,0.28c-0.3,0.07-0.61,0.1-0.95,0.1c-0.58,0-1.11-0.09-1.6-0.26
		c-0.49-0.17-0.9-0.42-1.25-0.73c-0.35-0.31-0.62-0.68-0.82-1.1c-0.2-0.42-0.3-0.88-0.3-1.38c0-0.62,0.12-1.17,0.35-1.65
		s0.58-0.88,1.03-1.2s1-0.57,1.66-0.74c0.66-0.17,1.4-0.25,2.24-0.25h1.64v-0.76c0-0.6-0.17-1.08-0.5-1.45
		c-0.34-0.36-0.85-0.54-1.54-0.54c-0.31,0-0.59,0.04-0.84,0.12c-0.25,0.08-0.46,0.19-0.64,0.33c-0.18,0.14-0.31,0.31-0.41,0.5
		s-0.15,0.4-0.15,0.62h-2.61c0-0.46,0.11-0.9,0.34-1.33c0.23-0.43,0.55-0.81,0.96-1.14c0.42-0.33,0.92-0.6,1.51-0.8
		s1.25-0.3,1.98-0.3c0.65,0,1.25,0.08,1.8,0.25c0.55,0.17,1.03,0.42,1.43,0.75c0.4,0.33,0.71,0.75,0.93,1.25
		c0.22,0.5,0.33,1.08,0.33,1.75v5.16c0,1.05,0.15,1.88,0.44,2.5v0.18H435.22z M432.35,432.57c0.3,0,0.58-0.04,0.84-0.12
		c0.26-0.08,0.5-0.18,0.71-0.31c0.21-0.13,0.4-0.28,0.55-0.45c0.16-0.17,0.28-0.34,0.38-0.51V429h-1.41c-0.97,0-1.69,0.17-2.18,0.5
		s-0.73,0.81-0.73,1.43c0,0.24,0.04,0.46,0.12,0.66s0.2,0.37,0.35,0.52c0.16,0.15,0.35,0.26,0.58,0.34
		C431.79,432.53,432.05,432.57,432.35,432.57z"/>
	<path class="st3r" d="M451.65,428.43h-3.03v6.03h-2.72v-15.64h5.5c0.9,0,1.69,0.1,2.4,0.31c0.7,0.2,1.29,0.5,1.78,0.9
		c0.48,0.4,0.85,0.89,1.1,1.48s0.38,1.27,0.38,2.04c0,1.05-0.25,1.92-0.76,2.63c-0.5,0.71-1.21,1.25-2.11,1.63l3.51,6.52v0.14h-2.91
		L451.65,428.43z M448.62,426.25h2.79c0.49,0,0.91-0.06,1.28-0.19s0.67-0.31,0.91-0.54s0.43-0.5,0.55-0.82s0.18-0.66,0.18-1.04
		c0-0.4-0.06-0.76-0.17-1.09c-0.11-0.33-0.29-0.6-0.53-0.84c-0.24-0.23-0.54-0.41-0.91-0.54c-0.37-0.13-0.81-0.19-1.33-0.19h-2.78
		V426.25z"/>
	<path class="st3r" d="M466.33,434.45c-0.07-0.14-0.13-0.3-0.18-0.48c-0.05-0.19-0.09-0.39-0.12-0.6c-0.17,0.18-0.36,0.35-0.57,0.5
		c-0.21,0.16-0.44,0.29-0.7,0.41c-0.25,0.12-0.53,0.21-0.83,0.28c-0.3,0.07-0.61,0.1-0.95,0.1c-0.58,0-1.11-0.09-1.6-0.26
		c-0.49-0.17-0.9-0.42-1.25-0.73c-0.35-0.31-0.62-0.68-0.82-1.1c-0.2-0.42-0.3-0.88-0.3-1.38c0-0.62,0.12-1.17,0.35-1.65
		s0.58-0.88,1.03-1.2s1-0.57,1.66-0.74c0.66-0.17,1.4-0.25,2.24-0.25h1.64v-0.76c0-0.6-0.17-1.08-0.5-1.45
		c-0.34-0.36-0.85-0.54-1.54-0.54c-0.31,0-0.59,0.04-0.84,0.12c-0.25,0.08-0.46,0.19-0.64,0.33c-0.18,0.14-0.31,0.31-0.41,0.5
		s-0.15,0.4-0.15,0.62h-2.61c0-0.46,0.11-0.9,0.34-1.33c0.23-0.43,0.55-0.81,0.96-1.14c0.42-0.33,0.92-0.6,1.51-0.8
		s1.25-0.3,1.98-0.3c0.65,0,1.25,0.08,1.8,0.25c0.55,0.17,1.03,0.42,1.43,0.75c0.4,0.33,0.71,0.75,0.93,1.25
		c0.22,0.5,0.33,1.08,0.33,1.75v5.16c0,1.05,0.15,1.88,0.44,2.5v0.18H466.33z M463.46,432.57c0.3,0,0.58-0.04,0.84-0.12
		c0.26-0.08,0.5-0.18,0.71-0.31c0.21-0.13,0.4-0.28,0.55-0.45c0.16-0.17,0.28-0.34,0.38-0.51V429h-1.41c-0.97,0-1.69,0.17-2.18,0.5
		s-0.73,0.81-0.73,1.43c0,0.24,0.04,0.46,0.12,0.66s0.2,0.37,0.35,0.52c0.16,0.15,0.35,0.26,0.58,0.34
		C462.9,432.53,463.16,432.57,463.46,432.57z"/>
	<path class="st3r" d="M470.8,428.53c0-0.84,0.12-1.63,0.37-2.35c0.25-0.72,0.6-1.34,1.06-1.88s1.03-0.95,1.69-1.25
		s1.42-0.45,2.27-0.45c0.85,0,1.62,0.15,2.29,0.45s1.24,0.72,1.7,1.25s0.81,1.15,1.06,1.88c0.24,0.72,0.37,1.5,0.37,2.35v0.23
		c0,0.84-0.12,1.63-0.37,2.35s-0.6,1.35-1.06,1.87c-0.46,0.53-1.03,0.94-1.7,1.24c-0.67,0.3-1.43,0.45-2.27,0.45
		c-0.85,0-1.61-0.15-2.28-0.45c-0.67-0.3-1.24-0.71-1.7-1.24c-0.46-0.53-0.82-1.15-1.06-1.87s-0.37-1.51-0.37-2.35V428.53z
		 M473.41,428.76c0,0.52,0.05,1.02,0.16,1.48s0.28,0.87,0.5,1.22c0.23,0.35,0.52,0.62,0.88,0.82s0.77,0.3,1.26,0.3
		c0.48,0,0.9-0.1,1.25-0.3s0.64-0.47,0.87-0.82c0.23-0.35,0.39-0.75,0.5-1.22c0.11-0.47,0.17-0.96,0.17-1.48v-0.23
		c0-0.52-0.06-1-0.17-1.47c-0.11-0.46-0.28-0.87-0.51-1.21c-0.23-0.35-0.52-0.62-0.88-0.83s-0.78-0.31-1.26-0.31s-0.9,0.1-1.25,0.31
		c-0.35,0.21-0.64,0.49-0.87,0.83c-0.23,0.35-0.4,0.75-0.5,1.21c-0.11,0.46-0.16,0.95-0.16,1.47V428.76z"/>
	<path class="st3r" d="M498.68,427.47h-6.42v4.81h7.51v2.17h-10.23v-15.64h10.15V421h-7.43v4.32h6.42V427.47z"/>
</g>
<g>
	<path class="st3r" d="M300.87,459.96v5.01h-1.69v-12.8h4.72c0.73,0,1.37,0.1,1.92,0.29s1.02,0.46,1.4,0.81s0.67,0.76,0.86,1.24
		c0.2,0.48,0.29,1,0.29,1.57c0,0.62-0.1,1.17-0.29,1.65c-0.2,0.48-0.48,0.89-0.86,1.22s-0.85,0.58-1.4,0.75
		c-0.56,0.17-1.2,0.26-1.92,0.26H300.87z M300.87,458.58h3.03c0.49,0,0.92-0.06,1.27-0.18s0.64-0.29,0.87-0.51
		c0.23-0.22,0.39-0.48,0.5-0.78c0.11-0.3,0.16-0.63,0.16-1c0-0.33-0.05-0.65-0.16-0.95c-0.11-0.31-0.27-0.58-0.5-0.81
		s-0.52-0.42-0.87-0.56s-0.78-0.21-1.27-0.21h-3.03V458.58z"/>
	<path class="st3r" d="M314.88,456.92c-0.14-0.02-0.27-0.04-0.39-0.05c-0.12-0.01-0.26-0.01-0.41-0.01c-0.56,0-1.02,0.12-1.38,0.37
		s-0.62,0.58-0.8,0.99v6.75h-1.63v-9.51h1.58l0.03,1.1c0.25-0.39,0.55-0.7,0.92-0.93s0.82-0.34,1.34-0.34c0.12,0,0.25,0.01,0.4,0.04
		c0.15,0.03,0.26,0.05,0.32,0.08V456.92z"/>
	<path class="st3r" d="M315.77,460.13c0-0.69,0.1-1.33,0.3-1.92c0.2-0.59,0.49-1.1,0.86-1.53s0.82-0.77,1.36-1.02
		s1.13-0.37,1.79-0.37c0.67,0,1.28,0.12,1.81,0.37s0.99,0.59,1.37,1.02s0.66,0.95,0.86,1.53c0.2,0.59,0.3,1.23,0.3,1.92v0.19
		c0,0.69-0.1,1.33-0.3,1.92c-0.2,0.59-0.49,1.1-0.86,1.53c-0.38,0.43-0.83,0.77-1.36,1.01c-0.53,0.24-1.13,0.37-1.8,0.37
		s-1.27-0.12-1.8-0.37c-0.53-0.24-0.99-0.58-1.36-1.01c-0.38-0.43-0.66-0.94-0.87-1.53c-0.2-0.59-0.3-1.23-0.3-1.92V460.13z
		 M317.4,460.32c0,0.47,0.06,0.92,0.17,1.34s0.28,0.79,0.51,1.11c0.23,0.32,0.51,0.57,0.84,0.76s0.73,0.28,1.18,0.28
		c0.45,0,0.84-0.09,1.18-0.28s0.62-0.44,0.84-0.76c0.22-0.32,0.39-0.69,0.51-1.11s0.17-0.87,0.17-1.34v-0.19
		c0-0.47-0.06-0.92-0.17-1.34c-0.11-0.42-0.28-0.8-0.51-1.12s-0.51-0.57-0.85-0.77c-0.34-0.19-0.74-0.29-1.19-0.29
		c-0.45,0-0.83,0.1-1.17,0.29c-0.33,0.19-0.61,0.45-0.84,0.77s-0.39,0.69-0.51,1.12c-0.11,0.43-0.17,0.87-0.17,1.34V460.32z"/>
	<path class="st3r" d="M327.26,464.97v-8.25h-1.5v-1.26h1.5v-1c0-0.51,0.07-0.96,0.22-1.36c0.14-0.4,0.35-0.73,0.62-1
		s0.6-0.47,0.98-0.61c0.39-0.14,0.82-0.21,1.31-0.21c0.38,0,0.75,0.05,1.12,0.15l-0.09,1.32c-0.12-0.02-0.26-0.04-0.42-0.06
		s-0.31-0.02-0.46-0.02c-0.53,0-0.93,0.15-1.22,0.46c-0.29,0.31-0.43,0.75-0.43,1.32v1h2.03v1.26h-2.03v8.25H327.26z"/>
	<path class="st3r" d="M336.45,465.14c-0.66,0-1.26-0.11-1.8-0.34s-0.99-0.55-1.38-0.95c-0.38-0.41-0.67-0.89-0.88-1.45
		s-0.31-1.18-0.31-1.85v-0.37c0-0.77,0.12-1.46,0.35-2.07s0.54-1.12,0.93-1.54s0.83-0.73,1.33-0.95c0.5-0.22,1.02-0.33,1.56-0.33
		c0.68,0,1.27,0.12,1.76,0.36c0.49,0.24,0.9,0.56,1.22,0.98s0.56,0.91,0.71,1.48s0.23,1.19,0.23,1.85v0.73h-6.44
		c0.01,0.44,0.08,0.85,0.22,1.23s0.32,0.71,0.56,0.99s0.54,0.5,0.88,0.67s0.73,0.25,1.16,0.25c0.57,0,1.06-0.12,1.46-0.35
		s0.75-0.54,1.05-0.93l0.99,0.77c-0.15,0.23-0.34,0.46-0.55,0.68c-0.22,0.22-0.47,0.42-0.76,0.59s-0.62,0.31-1,0.41
		C337.35,465.09,336.92,465.14,336.45,465.14z M336.24,456.62c-0.33,0-0.63,0.06-0.91,0.18c-0.28,0.12-0.52,0.29-0.74,0.52
		s-0.4,0.51-0.54,0.85s-0.24,0.73-0.29,1.17h4.76v-0.12c-0.02-0.32-0.07-0.63-0.15-0.94s-0.22-0.59-0.4-0.83s-0.41-0.45-0.69-0.6
		S336.66,456.62,336.24,456.62z"/>
	<path class="st3r" d="M347.57,462.45c0-0.18-0.03-0.34-0.08-0.5c-0.05-0.15-0.16-0.3-0.31-0.44c-0.16-0.14-0.38-0.26-0.66-0.38
		s-0.67-0.23-1.13-0.33c-0.53-0.11-1-0.24-1.42-0.4s-0.78-0.33-1.08-0.55c-0.3-0.21-0.52-0.47-0.68-0.76s-0.24-0.64-0.24-1.03
		c0-0.38,0.08-0.73,0.25-1.07s0.4-0.63,0.71-0.89c0.3-0.25,0.67-0.46,1.11-0.61c0.43-0.15,0.92-0.22,1.45-0.22
		c0.57,0,1.08,0.08,1.52,0.23c0.45,0.16,0.83,0.37,1.14,0.64s0.55,0.58,0.72,0.94c0.16,0.36,0.25,0.75,0.25,1.16h-1.63
		c0-0.19-0.04-0.39-0.13-0.58s-0.22-0.37-0.39-0.53s-0.38-0.28-0.62-0.38c-0.25-0.1-0.53-0.14-0.85-0.14
		c-0.34,0-0.63,0.04-0.87,0.12c-0.24,0.08-0.43,0.18-0.58,0.32c-0.15,0.13-0.26,0.28-0.33,0.45c-0.07,0.17-0.11,0.34-0.11,0.51
		s0.03,0.33,0.09,0.47s0.17,0.27,0.33,0.38c0.16,0.12,0.39,0.22,0.67,0.32c0.28,0.1,0.65,0.2,1.1,0.29
		c0.58,0.13,1.08,0.29,1.51,0.46s0.78,0.37,1.06,0.59s0.49,0.48,0.63,0.78s0.21,0.63,0.21,1.02c0,0.42-0.09,0.8-0.26,1.14
		s-0.42,0.64-0.74,0.89s-0.71,0.44-1.16,0.58c-0.45,0.14-0.95,0.21-1.5,0.21c-0.63,0-1.19-0.09-1.67-0.26s-0.89-0.41-1.22-0.7
		c-0.33-0.29-0.58-0.62-0.75-0.99s-0.25-0.75-0.25-1.15h1.63c0.02,0.33,0.1,0.61,0.24,0.84c0.14,0.23,0.32,0.41,0.54,0.55
		s0.45,0.24,0.71,0.3s0.52,0.09,0.77,0.09c0.33,0,0.63-0.04,0.88-0.11s0.46-0.17,0.64-0.29s0.3-0.27,0.39-0.44
		C347.53,462.82,347.57,462.64,347.57,462.45z"/>
	<path class="st3r" d="M356.85,462.45c0-0.18-0.03-0.34-0.08-0.5c-0.05-0.15-0.16-0.3-0.31-0.44c-0.16-0.14-0.38-0.26-0.66-0.38
		s-0.67-0.23-1.13-0.33c-0.53-0.11-1-0.24-1.42-0.4s-0.78-0.33-1.08-0.55c-0.3-0.21-0.52-0.47-0.68-0.76s-0.24-0.64-0.24-1.03
		c0-0.38,0.08-0.73,0.25-1.07s0.4-0.63,0.71-0.89c0.3-0.25,0.67-0.46,1.11-0.61c0.43-0.15,0.92-0.22,1.45-0.22
		c0.57,0,1.08,0.08,1.52,0.23c0.45,0.16,0.83,0.37,1.14,0.64s0.55,0.58,0.72,0.94c0.16,0.36,0.25,0.75,0.25,1.16h-1.63
		c0-0.19-0.04-0.39-0.13-0.58s-0.22-0.37-0.39-0.53s-0.38-0.28-0.62-0.38c-0.25-0.1-0.53-0.14-0.85-0.14
		c-0.34,0-0.63,0.04-0.87,0.12c-0.24,0.08-0.43,0.18-0.58,0.32c-0.15,0.13-0.26,0.28-0.33,0.45c-0.07,0.17-0.11,0.34-0.11,0.51
		s0.03,0.33,0.09,0.47s0.17,0.27,0.33,0.38c0.16,0.12,0.39,0.22,0.67,0.32c0.28,0.1,0.65,0.2,1.1,0.29
		c0.58,0.13,1.08,0.29,1.51,0.46s0.78,0.37,1.06,0.59s0.49,0.48,0.63,0.78s0.21,0.63,0.21,1.02c0,0.42-0.09,0.8-0.26,1.14
		s-0.42,0.64-0.74,0.89s-0.71,0.44-1.16,0.58c-0.45,0.14-0.95,0.21-1.5,0.21c-0.63,0-1.19-0.09-1.67-0.26s-0.89-0.41-1.22-0.7
		c-0.33-0.29-0.58-0.62-0.75-0.99s-0.25-0.75-0.25-1.15h1.63c0.02,0.33,0.1,0.61,0.24,0.84c0.14,0.23,0.32,0.41,0.54,0.55
		s0.45,0.24,0.71,0.3s0.52,0.09,0.77,0.09c0.33,0,0.63-0.04,0.88-0.11s0.46-0.17,0.64-0.29s0.3-0.27,0.39-0.44
		C356.81,462.82,356.85,462.64,356.85,462.45z"/>
	<path class="st3r" d="M360.61,452.94c0-0.26,0.08-0.49,0.24-0.67s0.4-0.27,0.72-0.27s0.56,0.09,0.72,0.27s0.25,0.4,0.25,0.67
		s-0.08,0.48-0.25,0.66s-0.4,0.26-0.72,0.26s-0.56-0.09-0.72-0.26S360.61,453.2,360.61,452.94z M362.37,464.97h-1.63v-9.51h1.63
		V464.97z"/>
	<path class="st3r" d="M364.54,460.13c0-0.69,0.1-1.33,0.3-1.92c0.2-0.59,0.49-1.1,0.86-1.53s0.82-0.77,1.36-1.02
		s1.13-0.37,1.79-0.37c0.67,0,1.28,0.12,1.81,0.37s0.99,0.59,1.37,1.02s0.66,0.95,0.86,1.53c0.2,0.59,0.3,1.23,0.3,1.92v0.19
		c0,0.69-0.1,1.33-0.3,1.92c-0.2,0.59-0.49,1.1-0.86,1.53c-0.38,0.43-0.83,0.77-1.36,1.01c-0.53,0.24-1.13,0.37-1.8,0.37
		s-1.27-0.12-1.8-0.37c-0.53-0.24-0.99-0.58-1.36-1.01c-0.38-0.43-0.66-0.94-0.87-1.53c-0.2-0.59-0.3-1.23-0.3-1.92V460.13z
		 M366.17,460.32c0,0.47,0.06,0.92,0.17,1.34s0.28,0.79,0.51,1.11c0.23,0.32,0.51,0.57,0.84,0.76s0.73,0.28,1.18,0.28
		c0.45,0,0.84-0.09,1.18-0.28s0.62-0.44,0.84-0.76c0.22-0.32,0.39-0.69,0.51-1.11s0.17-0.87,0.17-1.34v-0.19
		c0-0.47-0.06-0.92-0.17-1.34c-0.11-0.42-0.28-0.8-0.51-1.12s-0.51-0.57-0.85-0.77c-0.34-0.19-0.74-0.29-1.19-0.29
		c-0.45,0-0.83,0.1-1.17,0.29c-0.33,0.19-0.61,0.45-0.84,0.77s-0.39,0.69-0.51,1.12c-0.11,0.43-0.17,0.87-0.17,1.34V460.32z"/>
	<path class="st3r" d="M376.77,455.46l0.05,1.2c0.34-0.43,0.75-0.76,1.23-1.01s1.02-0.37,1.62-0.37c0.46,0,0.88,0.06,1.26,0.19
		s0.69,0.33,0.96,0.61c0.26,0.28,0.47,0.64,0.61,1.07c0.14,0.44,0.22,0.97,0.22,1.59v6.23h-1.63v-6.25c0-0.37-0.04-0.68-0.12-0.94
		s-0.2-0.47-0.36-0.64s-0.36-0.28-0.6-0.36s-0.51-0.11-0.82-0.11c-0.53,0-0.99,0.14-1.39,0.42s-0.71,0.65-0.93,1.11v6.78h-1.63
		v-9.51H376.77z"/>
	<path class="st3r" d="M391.04,464.97c-0.06-0.12-0.11-0.26-0.14-0.44s-0.06-0.37-0.09-0.56c-0.15,0.16-0.32,0.31-0.51,0.45
		s-0.4,0.27-0.62,0.38c-0.23,0.11-0.47,0.19-0.73,0.26c-0.26,0.06-0.54,0.09-0.83,0.09c-0.49,0-0.93-0.07-1.32-0.22
		s-0.73-0.35-1.01-0.6s-0.49-0.55-0.65-0.89c-0.15-0.34-0.23-0.71-0.23-1.1c0-0.51,0.1-0.96,0.3-1.35c0.2-0.39,0.48-0.72,0.86-0.98
		s0.82-0.46,1.35-0.6s1.12-0.2,1.77-0.2h1.62v-0.75c0-0.57-0.17-1.02-0.51-1.36c-0.34-0.34-0.84-0.5-1.5-0.5
		c-0.3,0-0.58,0.04-0.83,0.12s-0.47,0.19-0.65,0.33c-0.18,0.14-0.32,0.3-0.42,0.48s-0.15,0.37-0.15,0.57h-1.63
		c0-0.34,0.09-0.68,0.27-1.01s0.43-0.63,0.76-0.9c0.33-0.27,0.73-0.48,1.19-0.65c0.47-0.17,0.99-0.25,1.56-0.25
		c0.52,0,0.99,0.07,1.43,0.2c0.44,0.13,0.81,0.33,1.12,0.6c0.31,0.27,0.55,0.6,0.73,1s0.26,0.86,0.26,1.4v4.42
		c0,0.32,0.03,0.66,0.08,1.02s0.14,0.66,0.25,0.92v0.14H391.04z M388.34,463.73c0.29,0,0.57-0.04,0.83-0.12s0.49-0.19,0.7-0.32
		c0.21-0.13,0.39-0.28,0.55-0.45s0.28-0.35,0.36-0.53v-1.95h-1.35c-0.93,0-1.65,0.15-2.15,0.43c-0.5,0.29-0.76,0.73-0.76,1.31
		c0,0.23,0.04,0.44,0.11,0.64s0.19,0.37,0.35,0.51s0.35,0.26,0.57,0.34C387.78,463.69,388.04,463.73,388.34,463.73z"/>
	<path class="st3r" d="M396.72,464.97h-1.63v-13.5h1.63V464.97z"/>
	<path class="st3r" d="M411.1,461.63h-5.36l-1.2,3.34h-1.74l4.89-12.8h1.48l4.9,12.8h-1.73L411.1,461.63z M406.25,460.24h4.35
		l-2.18-5.99L406.25,460.24z"/>
	<path class="st3r" d="M415.13,460.13c0-0.73,0.09-1.39,0.26-1.98c0.17-0.59,0.42-1.1,0.75-1.53c0.33-0.42,0.72-0.75,1.18-0.99
		s0.98-0.35,1.56-0.35c0.6,0,1.13,0.11,1.57,0.32s0.83,0.52,1.14,0.91l0.08-1.05h1.49v9.31c0,0.63-0.1,1.18-0.29,1.67
		c-0.2,0.49-0.47,0.9-0.83,1.24s-0.78,0.59-1.27,0.77s-1.04,0.26-1.63,0.26c-0.25,0-0.53-0.03-0.85-0.08s-0.64-0.15-0.97-0.27
		c-0.33-0.13-0.64-0.29-0.94-0.51s-0.55-0.47-0.76-0.78l0.84-0.98c0.2,0.25,0.4,0.45,0.62,0.62s0.42,0.3,0.64,0.4
		s0.43,0.17,0.65,0.22c0.22,0.04,0.44,0.07,0.65,0.07c0.38,0,0.73-0.05,1.04-0.16s0.58-0.27,0.8-0.49s0.39-0.48,0.5-0.8
		s0.18-0.68,0.18-1.09v-0.83c-0.32,0.36-0.69,0.64-1.13,0.83s-0.95,0.29-1.53,0.29c-0.57,0-1.08-0.12-1.54-0.36
		s-0.85-0.58-1.18-1.01c-0.33-0.43-0.58-0.94-0.75-1.53c-0.18-0.59-0.26-1.23-0.26-1.93V460.13z M416.77,460.32
		c0,0.47,0.05,0.92,0.15,1.34s0.25,0.78,0.45,1.09s0.46,0.56,0.78,0.74s0.69,0.27,1.13,0.27c0.29,0,0.55-0.04,0.78-0.11
		s0.44-0.17,0.62-0.29s0.35-0.27,0.49-0.44s0.26-0.36,0.37-0.56v-4.34c-0.11-0.19-0.23-0.37-0.37-0.54
		c-0.14-0.17-0.3-0.31-0.49-0.43s-0.39-0.22-0.62-0.29c-0.23-0.07-0.48-0.1-0.76-0.1c-0.45,0-0.83,0.09-1.14,0.28
		c-0.32,0.19-0.58,0.44-0.78,0.75s-0.36,0.68-0.45,1.1s-0.15,0.87-0.15,1.34V460.32z"/>
	<path class="st3r" d="M425.63,452.94c0-0.26,0.08-0.49,0.24-0.67s0.4-0.27,0.72-0.27s0.56,0.09,0.72,0.27s0.25,0.4,0.25,0.67
		s-0.08,0.48-0.25,0.66s-0.4,0.26-0.72,0.26s-0.55-0.09-0.72-0.26S425.63,453.2,425.63,452.94z M427.39,464.97h-1.63v-9.51h1.63
		V464.97z"/>
	<path class="st3r" d="M431.75,464.97h-1.63v-13.5h1.63V464.97z"/>
	<path class="st3r" d="M438.3,465.14c-0.66,0-1.26-0.11-1.8-0.34s-1-0.55-1.38-0.95c-0.38-0.41-0.67-0.89-0.88-1.45
		s-0.31-1.18-0.31-1.85v-0.37c0-0.77,0.12-1.46,0.35-2.07s0.54-1.12,0.93-1.54s0.83-0.73,1.33-0.95c0.5-0.22,1.02-0.33,1.56-0.33
		c0.68,0,1.27,0.12,1.76,0.36c0.49,0.24,0.9,0.56,1.22,0.98s0.55,0.91,0.71,1.48s0.23,1.19,0.23,1.85v0.73h-6.44
		c0.01,0.44,0.08,0.85,0.22,1.23s0.32,0.71,0.56,0.99s0.54,0.5,0.88,0.67s0.73,0.25,1.16,0.25c0.57,0,1.06-0.12,1.46-0.35
		s0.75-0.54,1.05-0.93l0.99,0.77c-0.15,0.23-0.34,0.46-0.55,0.68c-0.22,0.22-0.47,0.42-0.76,0.59s-0.62,0.31-1,0.41
		C439.2,465.09,438.78,465.14,438.3,465.14z M438.1,456.62c-0.33,0-0.63,0.06-0.91,0.18c-0.28,0.12-0.52,0.29-0.74,0.52
		s-0.4,0.51-0.54,0.85s-0.24,0.73-0.29,1.17h4.76v-0.12c-0.02-0.32-0.07-0.63-0.15-0.94s-0.22-0.59-0.4-0.83s-0.41-0.45-0.69-0.6
		S438.52,456.62,438.1,456.62z"/>
	<path class="st3r" d="M457.09,453.56h-4.11v11.41h-1.68v-11.41h-4.1v-1.39h9.9V453.56z"/>
	<path class="st3r" d="M462.67,456.92c-0.14-0.02-0.27-0.04-0.39-0.05c-0.12-0.01-0.26-0.01-0.41-0.01c-0.56,0-1.02,0.12-1.38,0.37
		s-0.62,0.58-0.8,0.99v6.75h-1.63v-9.51h1.58l0.03,1.1c0.25-0.39,0.55-0.7,0.92-0.93s0.82-0.34,1.34-0.34c0.12,0,0.25,0.01,0.4,0.04
		c0.15,0.03,0.26,0.05,0.32,0.08V456.92z"/>
	<path class="st3r" d="M469.69,464.97c-0.06-0.12-0.11-0.26-0.14-0.44s-0.06-0.37-0.09-0.56c-0.15,0.16-0.32,0.31-0.51,0.45
		s-0.4,0.27-0.62,0.38c-0.23,0.11-0.47,0.19-0.73,0.26c-0.26,0.06-0.54,0.09-0.83,0.09c-0.49,0-0.93-0.07-1.32-0.22
		s-0.73-0.35-1.01-0.6s-0.49-0.55-0.65-0.89c-0.15-0.34-0.23-0.71-0.23-1.1c0-0.51,0.1-0.96,0.3-1.35c0.2-0.39,0.49-0.72,0.86-0.98
		s0.82-0.46,1.35-0.6s1.12-0.2,1.77-0.2h1.62v-0.75c0-0.57-0.17-1.02-0.51-1.36c-0.34-0.34-0.84-0.5-1.5-0.5
		c-0.3,0-0.58,0.04-0.83,0.12s-0.47,0.19-0.65,0.33c-0.18,0.14-0.32,0.3-0.42,0.48s-0.15,0.37-0.15,0.57h-1.63
		c0-0.34,0.09-0.68,0.27-1.01s0.43-0.63,0.76-0.9c0.33-0.27,0.73-0.48,1.19-0.65c0.47-0.17,0.99-0.25,1.56-0.25
		c0.52,0,0.99,0.07,1.43,0.2c0.44,0.13,0.81,0.33,1.12,0.6c0.31,0.27,0.55,0.6,0.73,1s0.26,0.86,0.26,1.4v4.42
		c0,0.32,0.03,0.66,0.08,1.02s0.14,0.66,0.25,0.92v0.14H469.69z M466.99,463.73c0.29,0,0.57-0.04,0.83-0.12s0.49-0.19,0.7-0.32
		c0.21-0.13,0.39-0.28,0.55-0.45s0.28-0.35,0.36-0.53v-1.95h-1.35c-0.93,0-1.65,0.15-2.15,0.43c-0.5,0.29-0.76,0.73-0.76,1.31
		c0,0.23,0.04,0.44,0.11,0.64s0.19,0.37,0.35,0.51s0.35,0.26,0.57,0.34C466.43,463.69,466.69,463.73,466.99,463.73z"/>
	<path class="st3r" d="M473.62,452.94c0-0.26,0.08-0.49,0.24-0.67s0.4-0.27,0.72-0.27s0.56,0.09,0.72,0.27s0.25,0.4,0.25,0.67
		s-0.08,0.48-0.25,0.66s-0.4,0.26-0.72,0.26s-0.55-0.09-0.72-0.26S473.62,453.2,473.62,452.94z M475.38,464.97h-1.63v-9.51h1.63
		V464.97z"/>
	<path class="st3r" d="M479.51,455.46l0.05,1.2c0.34-0.43,0.75-0.76,1.23-1.01s1.02-0.37,1.62-0.37c0.46,0,0.88,0.06,1.26,0.19
		s0.69,0.33,0.96,0.61c0.26,0.28,0.47,0.64,0.61,1.07c0.14,0.44,0.21,0.97,0.21,1.59v6.23h-1.63v-6.25c0-0.37-0.04-0.68-0.12-0.94
		s-0.2-0.47-0.36-0.64s-0.36-0.28-0.6-0.36s-0.51-0.11-0.82-0.11c-0.53,0-0.99,0.14-1.39,0.42s-0.71,0.65-0.93,1.11v6.78h-1.63
		v-9.51H479.51z"/>
	<path class="st3r" d="M491.85,465.14c-0.66,0-1.26-0.11-1.8-0.34s-1-0.55-1.38-0.95c-0.38-0.41-0.67-0.89-0.88-1.45
		s-0.31-1.18-0.31-1.85v-0.37c0-0.77,0.12-1.46,0.35-2.07s0.54-1.12,0.93-1.54s0.83-0.73,1.33-0.95c0.5-0.22,1.02-0.33,1.56-0.33
		c0.68,0,1.27,0.12,1.76,0.36c0.49,0.24,0.9,0.56,1.22,0.98s0.55,0.91,0.71,1.48s0.23,1.19,0.23,1.85v0.73h-6.44
		c0.01,0.44,0.08,0.85,0.22,1.23s0.32,0.71,0.56,0.99s0.54,0.5,0.88,0.67s0.73,0.25,1.16,0.25c0.57,0,1.06-0.12,1.46-0.35
		s0.75-0.54,1.05-0.93l0.99,0.77c-0.15,0.23-0.34,0.46-0.55,0.68c-0.22,0.22-0.47,0.42-0.76,0.59s-0.62,0.31-1,0.41
		C492.75,465.09,492.33,465.14,491.85,465.14z M491.65,456.62c-0.33,0-0.63,0.06-0.91,0.18c-0.28,0.12-0.52,0.29-0.74,0.52
		s-0.4,0.51-0.54,0.85s-0.24,0.73-0.29,1.17h4.76v-0.12c-0.02-0.32-0.07-0.63-0.15-0.94s-0.22-0.59-0.4-0.83s-0.41-0.45-0.69-0.6
		S492.07,456.62,491.65,456.62z"/>
	<path class="st3r" d="M502.04,456.92c-0.14-0.02-0.27-0.04-0.39-0.05c-0.12-0.01-0.26-0.01-0.41-0.01c-0.56,0-1.02,0.12-1.38,0.37
		s-0.62,0.58-0.8,0.99v6.75h-1.63v-9.51h1.58l0.03,1.1c0.25-0.39,0.55-0.7,0.92-0.93s0.82-0.34,1.34-0.34c0.12,0,0.25,0.01,0.4,0.04
		c0.15,0.03,0.26,0.05,0.32,0.08V456.92z"/>
</g>
</svg>
