<?xml version="1.0" encoding="UTF-8" standalone="no"?>
<!-- Generator: Adobe Illustrator 23.0.2, SVG Export Plug-In . SVG Version: 6.00 Build 0)  -->

<svg
   version="1.1"
   id="Layer_1"
   x="0px"
   y="0px"
   viewBox="0 0 800 600"
   style="enable-background:new 0 0 800 600;"
   xml:space="preserve"
   sodipodi:docname="subhashnismall.svg"
   inkscape:version="1.2 (dc2aedaf03, 2022-05-15)"
   xmlns:inkscape="http://www.inkscape.org/namespaces/inkscape"
   xmlns:sodipodi="http://sodipodi.sourceforge.net/DTD/sodipodi-0.dtd"
   xmlns:xlink="http://www.w3.org/1999/xlink"
   xmlns="http://www.w3.org/2000/svg"
   xmlns:svg="http://www.w3.org/2000/svg"><defs
   id="defs309">
	
</defs><sodipodi:namedview
   id="namedview307"
   pagecolor="#ffffff"
   bordercolor="#000000"
   borderopacity="0.25"
   inkscape:showpageshadow="2"
   inkscape:pageopacity="0.0"
   inkscape:pagecheckerboard="0"
   inkscape:deskcolor="#d1d1d1"
   showgrid="false"
   inkscape:zoom="1.3083333"
   inkscape:cx="400.12739"
   inkscape:cy="388.66242"
   inkscape:window-width="1920"
   inkscape:window-height="1001"
   inkscape:window-x="-9"
   inkscape:window-y="-9"
   inkscape:window-maximized="1"
   inkscape:current-layer="Layer_1" />
<style
   type="text/css"
   id="style160">
	.st0ss{fill:#FBB33C;}
	.st1ss{fill:#F8F9FA;}
	.st2ss{fill:#212529;}
	.st3ss{fill:#FFFFFF;}
</style>
<g
   id="g172">
	<defs
   id="defs163">
		<rect
   id="SVGID_1_"
   x="215"
   y="52"
   width="370"
   height="400" />
	</defs>
	<clipPath
   id="SVGID_2_">
		<use
   xlink:href="#SVGID_1_"
   style="overflow:visible;"
   id="use165" />
	</clipPath>
	<g
   style="clip-path:url(#SVGID_2_);"
   clip-path="url(#SVGID_2_)"
   id="g170">
		
			<image
   style="overflow:visible;"
   width="370"
   height="400"
   xlink:href="https://tryscrumlive.vervebot.io/wp-content/uploads/2022/12/subhashini.png"
   transform="matrix(1 0 0 1 215 52)"
   id="image168">
		</image>
	</g>
</g>
<a
   id="a176">
	<path
   class="st0ss"
   d="M541.6,547.4H258.4c-3.9,0-7-3.1-7-7V392c0-3.9,3.1-7,7-7h283.2c3.9,0,7,3.1,7,7v148.4   C548.6,544.3,545.5,547.4,541.6,547.4z"
   id="path174" />
</a>
<a
   id="a481"
   xlink:href="https://twitter.com/mohan_subhashini7"><g
     id="g188">
		<g
   id="g180">
			<path
   class="st1ss"
   d="m 333.8,528.2 h -24.3 c -1.6,0 -2.9,-1.3 -2.9,-2.9 V 501 c 0,-1.6 1.3,-2.9 2.9,-2.9 h 24.3 c 1.6,0 2.9,1.3 2.9,2.9 v 24.3 c 0,1.6 -1.3,2.9 -2.9,2.9 z"
   id="path178" />
		</g>
		<a
   id="a186">
			<g
   id="g184">
				<path
   class="st2ss"
   d="m 328.1,510.6 c 0,4.3 -3.3,9.3 -9.3,9.3 -1.9,0 -3.6,-0.5 -5,-1.5 0.3,0 0.5,0 0.8,0 1.5,0 2.9,-0.5 4.1,-1.4 -1.4,0 -2.6,-1 -3.1,-2.3 0.2,0 0.4,0.1 0.6,0.1 0.3,0 0.6,0 0.9,-0.1 -1.5,-0.3 -2.6,-1.6 -2.6,-3.2 v 0 c 0.4,0.2 0.9,0.4 1.5,0.4 -0.9,-0.6 -1.5,-1.6 -1.5,-2.7 0,-0.6 0.2,-1.2 0.4,-1.7 1.6,2 4,3.3 6.8,3.4 -0.1,-0.2 -0.1,-0.5 -0.1,-0.8 0,-1.8 1.5,-3.3 3.3,-3.3 0.9,0 1.8,0.4 2.4,1 0.7,-0.1 1.5,-0.4 2.1,-0.8 -0.2,0.8 -0.8,1.4 -1.4,1.8 0.7,-0.1 1.3,-0.3 1.9,-0.5 -0.4,0.6 -1,1.2 -1.6,1.7 -0.2,0.3 -0.2,0.5 -0.2,0.6 z"
   id="path182" />
			</g>
		</a>
	</g></a>
<a
   id="a198"
   xlink:href="https://www.linkedin.com/in/subhashini-mohan-0342b8250/">
	<g
   id="g196">
		<path
   class="st1ss"
   d="M386,528.2h-24.3c-1.6,0-2.9-1.3-2.9-2.9V501c0-1.6,1.3-2.9,2.9-2.9H386c1.6,0,2.9,1.3,2.9,2.9v24.3    C388.9,526.9,387.6,528.2,386,528.2z"
   id="path192" />
		<path
   class="st2ss"
   d="M366.9,507.1c0-0.9,0.8-1.7,1.7-1.7s1.7,0.8,1.7,1.7s-0.8,1.7-1.7,1.7S366.9,508,366.9,507.1z M367.1,519.4    v-9.3h2.9v9.3H367.1z M378,519.4v-4.5c0-1.1,0-2.5-1.5-2.5c-1.5,0-1.7,1.2-1.7,2.4v4.6h-2.9v-9.3h2.8v1.3h0    c0.4-0.7,1.3-1.5,2.7-1.5c2.9,0,3.5,1.9,3.5,4.4v5.1h0H378z"
   id="path194" />
	</g>
</a>
<a
   xlink:href="https://tryscrum-community.slack.com/"
   target="_blank"
   id="a212">
	<g
   id="g210">
		<g
   id="g202">
			<path
   class="st1ss"
   d="M438.2,528.2H414c-1.6,0-2.9-1.3-2.9-2.9V501c0-1.6,1.3-2.9,2.9-2.9h24.3c1.6,0,2.9,1.3,2.9,2.9v24.3     C441.1,526.9,439.8,528.2,438.2,528.2z"
   id="path200" />
		</g>
		<a
   xlink:href="https://tryscrumstudio.slack.com/"
   target="_blank"
   id="a208">
			<g
   id="g206">
				<path
   class="st2ss"
   d="M425.7,511.6c0,0.8-0.7,1.5-1.5,1.5h-3.7c-0.8,0-1.5-0.7-1.5-1.5c0-0.8,0.7-1.5,1.5-1.5h3.7      C425.1,510.1,425.7,510.8,425.7,511.6z M420.6,516.7c-0.8,0-1.5-0.7-1.5-1.5c0-0.8,0.7-1.5,1.5-1.5h1.5v1.5      C422,516.1,421.4,516.7,420.6,516.7z M422.8,507.9c0-0.8,0.7-1.5,1.5-1.5s1.5,0.7,1.5,1.5v1.5h-1.5      C423.4,509.4,422.8,508.7,422.8,507.9z M424.3,513.8c0.8,0,1.5,0.7,1.5,1.5v3.7c0,0.8-0.7,1.5-1.5,1.5s-1.5-0.7-1.5-1.5v-3.7      C422.8,514.5,423.4,513.8,424.3,513.8z M427.9,513.1c-0.8,0-1.5-0.7-1.5-1.5v-3.7c0-0.8,0.7-1.5,1.5-1.5c0.8,0,1.5,0.7,1.5,1.5      v3.7C429.4,512.4,428.8,513.1,427.9,513.1z M426.5,515.3c0-0.8,0.7-1.5,1.5-1.5h3.7c0.8,0,1.5,0.7,1.5,1.5      c0,0.8-0.7,1.5-1.5,1.5h-3.7C427.1,516.7,426.5,516.1,426.5,515.3z M429.4,519c0,0.8-0.7,1.5-1.5,1.5c-0.8,0-1.5-0.7-1.5-1.5      v-1.5h1.5C428.8,517.5,429.4,518.2,429.4,519z M431.6,510.1c0.8,0,1.5,0.7,1.5,1.5c0,0.8-0.7,1.5-1.5,1.5h-1.5v-1.5      C430.2,510.8,430.8,510.1,431.6,510.1z"
   id="path204" />
			</g>
		</a>
	</g>
</a>
<a
   xlink:href="https://www.meetup.com/smstudiochn/"
   target="_blank"
   id="a226">
	<g
   id="g224">
		<g
   id="g216">
			<path
   class="st1ss"
   d="M490.4,528.2h-24.3c-1.6,0-2.9-1.3-2.9-2.9V501c0-1.6,1.3-2.9,2.9-2.9h24.3c1.6,0,2.9,1.3,2.9,2.9v24.3     C493.3,526.9,492,528.2,490.4,528.2z"
   id="path214" />
		</g>
		<a
   xlink:href="https://www.meetup.com/smstudiochn/"
   target="_blank"
   id="a222">
			<g
   id="g220">
				<path
   class="st2ss"
   d="M471.3,513.5c-0.2,0.3-0.6,0.4-1,0.2c-0.3-0.2-0.4-0.7-0.2-1c0.2-0.3,0.6-0.4,1-0.2      C471.4,512.7,471.5,513.2,471.3,513.5z M483,518.2c-0.5,0.4-1.2,0.6-1.8,0.5c-0.4,1.5-2.2,2-3.3,1c0,0-0.1,0.1-0.1,0.1      c-1.2,0.8-2.9,0.5-3.7-0.7c-0.3-0.4-0.5-1-0.5-1.5c-2-0.3-2.8-2.9-1.3-4.4c-0.9-1.5,0-3.4,1.7-3.6c0.8-2.1,3.4-3,5.1-1.7      c2.1-0.7,4.3,0.9,4.1,3.2c1.3,0.4,1.6,2.1,0.6,3C484.6,515.5,484.3,517.3,483,518.2z M472.9,518.8c-0.2,0-0.3-0.1-0.4-0.3      c0-0.2,0.1-0.3,0.2-0.4c0.2,0,0.3,0.1,0.4,0.3C473.2,518.6,473.1,518.7,472.9,518.8z M472.9,508.8c-0.2-0.2-0.1-0.6,0.1-0.7      c0.2-0.2,0.6-0.1,0.7,0.1c0.2,0.2,0.1,0.6-0.1,0.7C473.4,509.1,473.1,509.1,472.9,508.8z M480.3,515.6c-0.1-1,1.4-3.2,1.3-4      c-0.1-0.8-0.6-0.9-1-0.9c-0.4,0-0.5,0.1-0.7,0.1c-0.1,0.1-0.2,0.2-0.4,0c-0.2-0.2-0.3-0.4-0.6-0.4c-0.4-0.1-0.6,0.1-0.8,0.3      c-0.1,0.1-0.4,0.4-0.6,0.3c-0.1-0.1-0.5-0.2-0.8-0.4c-0.5-0.2-1.3,0.1-1.5,0.6c-0.4,0.7-1.2,3.5-1.3,3.9      c-0.3,0.8,0.3,1.5,1.2,1.5c0.3,0,0.6-0.1,0.8-0.5c0.1-0.2,1.3-3.4,1.4-3.5c0.1-0.1,0.3-0.3,0.5-0.2c0.2,0.1,0.2,0.3,0.2,0.5      c0,0.3-0.9,2.2-0.9,2.4c-0.1,0.7,0.8,0.8,1.2,0.1c0.1-0.2,1.4-2.9,1.5-3.1c0.1-0.2,0.2-0.3,0.4-0.3c0.1,0,0.3,0,0.2,0.3      c0,0.3-1.1,2.3-1.2,2.7c-0.1,0.6,0.2,1.3,0.8,1.6c0.4,0.2,2,0.5,1.8-0.3C481.5,515.8,480.4,516.3,480.3,515.6z M474.5,505.9      c0-0.2,0.1-0.4,0.3-0.4c0.2,0,0.4,0.1,0.4,0.3c0,0.2-0.1,0.4-0.3,0.4C474.7,506.2,474.5,506.1,474.5,505.9z M478.2,520.7      c0.1,0.2,0.1,0.5-0.1,0.6c-0.2,0.1-0.5,0.1-0.6-0.1c-0.1-0.2-0.1-0.5,0.1-0.6C477.8,520.5,478.1,520.5,478.2,520.7z       M478.7,506.9c-0.2-0.3-0.1-0.8,0.2-1c0.3-0.2,0.7-0.1,0.9,0.2c0.2,0.3,0.1,0.8-0.2,0.9C479.3,507.4,478.9,507.3,478.7,506.9z       M482.8,519.5c0.2,0.3,0.1,0.8-0.2,1c-0.3,0.2-0.8,0.1-1-0.2c-0.2-0.3-0.1-0.8,0.2-1C482.1,519.1,482.6,519.2,482.8,519.5z       M484.8,509.9c0.2,0.3,0.1,0.6-0.1,0.8c-0.3,0.2-0.6,0.1-0.8-0.2s-0.1-0.6,0.2-0.8C484.3,509.6,484.6,509.7,484.8,509.9z       M485.8,514.2c0.1,0.2-0.1,0.5-0.3,0.5c-0.2,0.1-0.5-0.1-0.5-0.3c-0.1-0.2,0.1-0.5,0.3-0.5C485.5,513.8,485.8,514,485.8,514.2z       M486.3,512.5c-0.2,0-0.3-0.1-0.4-0.3c0-0.2,0.1-0.4,0.3-0.4c0.2,0,0.3,0.1,0.4,0.2C486.6,512.3,486.5,512.4,486.3,512.5z"
   id="path218" />
			</g>
		</a>
	</g>
</a>
<g
   id="g258">
	<path
   class="st3ss"
   d="M318.4,430.2c0-0.7-0.2-1.2-0.7-1.6s-1.4-0.7-2.6-1.1c-1.3-0.4-2.3-0.8-3-1.3c-1.4-0.9-2.1-2.1-2.1-3.5   c0-1.3,0.5-2.3,1.5-3.1c1-0.8,2.4-1.2,4-1.2c1.1,0,2.1,0.2,2.9,0.6c0.9,0.4,1.5,1,2,1.7c0.5,0.7,0.7,1.6,0.7,2.5h-2.7   c0-0.8-0.3-1.5-0.8-1.9c-0.5-0.5-1.2-0.7-2.2-0.7c-0.9,0-1.6,0.2-2.1,0.6c-0.5,0.4-0.7,0.9-0.7,1.6c0,0.6,0.3,1.1,0.8,1.4   c0.5,0.4,1.4,0.8,2.6,1.1c1.2,0.4,2.2,0.8,2.9,1.2c0.7,0.5,1.3,1,1.6,1.6c0.3,0.6,0.5,1.3,0.5,2.1c0,1.3-0.5,2.3-1.5,3.1   c-1,0.8-2.4,1.2-4.1,1.2c-1.1,0-2.2-0.2-3.1-0.6c-0.9-0.4-1.7-1-2.2-1.7s-0.8-1.6-0.8-2.6h2.7c0,0.9,0.3,1.6,0.9,2.1   c0.6,0.5,1.4,0.7,2.5,0.7c0.9,0,1.7-0.2,2.1-0.6C318.2,431.4,318.4,430.9,318.4,430.2z"
   id="path228" />
	<path
   class="st3ss"
   d="M330.3,433.1c-0.8,0.9-1.9,1.4-3.3,1.4c-1.3,0-2.2-0.4-2.9-1.1c-0.6-0.7-1-1.8-1-3.2v-7.5h2.6v7.5   c0,1.5,0.6,2.2,1.8,2.2c1.3,0,2.1-0.5,2.6-1.4v-8.3h2.6v11.6h-2.5L330.3,433.1z"
   id="path230" />
	<path
   class="st3ss"
   d="M345.7,428.6c0,1.8-0.4,3.2-1.2,4.3s-1.9,1.6-3.3,1.6c-1.4,0-2.4-0.5-3.2-1.5l-0.1,1.3h-2.4v-16.5h2.6v6   c0.8-0.9,1.8-1.3,3-1.3c1.4,0,2.5,0.5,3.3,1.6c0.8,1.1,1.2,2.5,1.2,4.4V428.6z M343.1,428.4c0-1.3-0.2-2.2-0.7-2.8   c-0.4-0.6-1.1-0.9-1.9-0.9c-1.1,0-1.9,0.5-2.4,1.5v4.8c0.5,1,1.3,1.5,2.4,1.5c0.8,0,1.4-0.3,1.9-0.9c0.4-0.6,0.7-1.5,0.7-2.8V428.4   z"
   id="path232" />
	<path
   class="st3ss"
   d="M350.5,423.9c0.9-1,1.9-1.5,3.2-1.5c2.5,0,3.7,1.4,3.8,4.2v7.6h-2.6v-7.5c0-0.8-0.2-1.4-0.5-1.7   c-0.3-0.3-0.9-0.5-1.5-0.5c-1,0-1.8,0.5-2.3,1.4v8.3h-2.6v-16.5h2.6V423.9z"
   id="path234" />
	<path
   class="st3ss"
   d="M367.1,434.3c-0.1-0.2-0.2-0.6-0.3-1.1c-0.8,0.9-1.8,1.3-3.1,1.3c-1.2,0-2.1-0.3-2.9-1   c-0.7-0.7-1.1-1.5-1.1-2.5c0-1.2,0.5-2.2,1.4-2.9c0.9-0.7,2.2-1,3.9-1h1.6v-0.8c0-0.6-0.2-1.1-0.5-1.4c-0.3-0.4-0.8-0.5-1.5-0.5   c-0.6,0-1.1,0.1-1.5,0.4c-0.4,0.3-0.6,0.7-0.6,1.1H360c0-0.6,0.2-1.2,0.6-1.8c0.4-0.6,1-1,1.7-1.3c0.7-0.3,1.5-0.5,2.4-0.5   c1.4,0,2.4,0.3,3.3,1c0.8,0.7,1.2,1.6,1.2,2.9v5.2c0,1,0.1,1.9,0.4,2.5v0.2H367.1z M364.2,432.4c0.5,0,1-0.1,1.5-0.4   c0.5-0.3,0.8-0.6,1-1v-2.2h-1.4c-1,0-1.7,0.2-2.2,0.5c-0.5,0.3-0.7,0.8-0.7,1.4c0,0.5,0.2,0.9,0.5,1.2   C363.2,432.2,363.6,432.4,364.2,432.4z"
   id="path236" />
	<path
   class="st3ss"
   d="M378.5,431.1c0-0.5-0.2-0.8-0.6-1.1c-0.4-0.2-1-0.5-1.9-0.6c-0.9-0.2-1.6-0.4-2.2-0.7c-1.3-0.6-2-1.5-2-2.7   c0-1,0.4-1.8,1.3-2.5c0.8-0.7,1.9-1,3.2-1c1.4,0,2.5,0.3,3.4,1c0.9,0.7,1.3,1.6,1.3,2.7h-2.6c0-0.5-0.2-0.9-0.6-1.3   c-0.4-0.3-0.9-0.5-1.5-0.5c-0.6,0-1,0.1-1.4,0.4c-0.4,0.3-0.5,0.6-0.5,1.1c0,0.4,0.2,0.7,0.5,0.9c0.3,0.2,1,0.4,2,0.7   c1,0.2,1.8,0.5,2.4,0.8c0.6,0.3,1,0.7,1.3,1.1c0.3,0.4,0.4,1,0.4,1.6c0,1-0.4,1.9-1.3,2.5c-0.9,0.6-2,1-3.4,1c-1,0-1.8-0.2-2.5-0.5   c-0.7-0.3-1.3-0.8-1.7-1.4c-0.4-0.6-0.6-1.3-0.6-1.9h2.5c0,0.6,0.3,1.1,0.7,1.4s1,0.5,1.7,0.5c0.7,0,1.2-0.1,1.6-0.4   C378.3,431.9,378.5,431.5,378.5,431.1z"
   id="path238" />
	<path
   class="st3ss"
   d="M385.9,423.9c0.9-1,1.9-1.5,3.2-1.5c2.5,0,3.7,1.4,3.8,4.2v7.6h-2.6v-7.5c0-0.8-0.2-1.4-0.5-1.7   c-0.3-0.3-0.9-0.5-1.5-0.5c-1,0-1.8,0.5-2.3,1.4v8.3h-2.6v-16.5h2.6V423.9z"
   id="path240" />
	<path
   class="st3ss"
   d="M395.6,419.6c0-0.4,0.1-0.7,0.4-1c0.3-0.3,0.6-0.4,1.1-0.4s0.8,0.1,1.1,0.4s0.4,0.6,0.4,1c0,0.4-0.1,0.7-0.4,1   c-0.3,0.3-0.6,0.4-1.1,0.4s-0.8-0.1-1.1-0.4C395.7,420.4,395.6,420,395.6,419.6z M398.4,434.3h-2.6v-11.6h2.6V434.3z"
   id="path242" />
	<path
   class="st3ss"
   d="M403.6,422.7l0.1,1.3c0.9-1,2-1.6,3.4-1.6c2.4,0,3.7,1.4,3.7,4.2v7.7h-2.6v-7.5c0-0.7-0.2-1.3-0.5-1.6   c-0.3-0.4-0.8-0.5-1.6-0.5c-1.1,0-1.8,0.5-2.4,1.4v8.3h-2.6v-11.6H403.6z"
   id="path244" />
	<path
   class="st3ss"
   d="M413.4,419.6c0-0.4,0.1-0.7,0.4-1c0.3-0.3,0.6-0.4,1.1-0.4s0.8,0.1,1.1,0.4s0.4,0.6,0.4,1c0,0.4-0.1,0.7-0.4,1   c-0.3,0.3-0.6,0.4-1.1,0.4s-0.8-0.1-1.1-0.4C413.6,420.4,413.4,420,413.4,419.6z M416.2,434.3h-2.6v-11.6h2.6V434.3z"
   id="path246" />
	<path
   class="st3ss"
   d="M428.3,418.6l4.5,12l4.5-12h3.5v15.6h-2.7v-5.2l0.3-6.9l-4.6,12.1h-1.9l-4.6-12l0.3,6.9v5.2h-2.7v-15.6H428.3z   "
   id="path248" />
	<path
   class="st3ss"
   d="M443.3,428.4c0-1.1,0.2-2.2,0.7-3.1s1.1-1.6,1.9-2.1c0.8-0.5,1.8-0.7,2.8-0.7c1.6,0,2.8,0.5,3.8,1.5   s1.5,2.3,1.6,4l0,0.6c0,1.1-0.2,2.2-0.7,3.1s-1.1,1.6-1.9,2.1c-0.8,0.5-1.8,0.7-2.8,0.7c-1.6,0-3-0.5-3.9-1.6   c-1-1.1-1.5-2.5-1.5-4.4V428.4z M445.9,428.6c0,1.2,0.2,2.1,0.7,2.8s1.2,1,2.1,1s1.6-0.3,2.1-1c0.5-0.7,0.7-1.7,0.7-3   c0-1.2-0.3-2.1-0.8-2.8s-1.2-1-2.1-1c-0.9,0-1.5,0.3-2,1S445.9,427.2,445.9,428.6z"
   id="path250" />
	<path
   class="st3ss"
   d="M458.9,423.9c0.9-1,1.9-1.5,3.2-1.5c2.5,0,3.7,1.4,3.8,4.2v7.6h-2.6v-7.5c0-0.8-0.2-1.4-0.5-1.7   c-0.3-0.3-0.9-0.5-1.5-0.5c-1,0-1.8,0.5-2.3,1.4v8.3h-2.6v-16.5h2.6V423.9z"
   id="path252" />
	<path
   class="st3ss"
   d="M475.5,434.3c-0.1-0.2-0.2-0.6-0.3-1.1c-0.8,0.9-1.8,1.3-3.1,1.3c-1.2,0-2.1-0.3-2.9-1s-1.1-1.5-1.1-2.5   c0-1.2,0.5-2.2,1.4-2.9c0.9-0.7,2.2-1,3.9-1h1.6v-0.8c0-0.6-0.2-1.1-0.5-1.4c-0.3-0.4-0.8-0.5-1.5-0.5c-0.6,0-1.1,0.1-1.5,0.4   c-0.4,0.3-0.6,0.7-0.6,1.1h-2.6c0-0.6,0.2-1.2,0.6-1.8c0.4-0.6,1-1,1.7-1.3c0.7-0.3,1.5-0.5,2.4-0.5c1.4,0,2.4,0.3,3.3,1   c0.8,0.7,1.2,1.6,1.2,2.9v5.2c0,1,0.1,1.9,0.4,2.5v0.2H475.5z M472.6,432.4c0.5,0,1-0.1,1.5-0.4c0.5-0.3,0.8-0.6,1-1v-2.2h-1.4   c-1,0-1.7,0.2-2.2,0.5s-0.7,0.8-0.7,1.4c0,0.5,0.2,0.9,0.5,1.2C471.6,432.2,472,432.4,472.6,432.4z"
   id="path254" />
	<path
   class="st3ss"
   d="M482.9,422.7l0.1,1.3c0.9-1,2-1.6,3.4-1.6c2.4,0,3.7,1.4,3.7,4.2v7.7h-2.6v-7.5c0-0.7-0.2-1.3-0.5-1.6   c-0.3-0.4-0.8-0.5-1.6-0.5c-1.1,0-1.8,0.5-2.4,1.4v8.3h-2.6v-11.6H482.9z"
   id="path256" />
</g>
<g
   id="g304">
	<path
   class="st3ss"
   d="M300.1,460.6c-0.2,1.4-0.7,2.4-1.5,3.1s-2,1.1-3.4,1.1c-1.5,0-2.7-0.5-3.6-1.6s-1.4-2.5-1.4-4.4v-1.2   c0-1.2,0.2-2.2,0.6-3.1s1-1.6,1.8-2.1s1.7-0.7,2.7-0.7c1.4,0,2.4,0.4,3.3,1.1s1.3,1.8,1.4,3.2h-1.7c-0.1-1-0.5-1.8-1-2.2   c-0.5-0.5-1.2-0.7-2.1-0.7c-1.1,0-1.9,0.4-2.5,1.2c-0.6,0.8-0.9,1.9-0.9,3.4v1.2c0,1.4,0.3,2.5,0.9,3.3c0.6,0.8,1.4,1.2,2.4,1.2   c0.9,0,1.7-0.2,2.2-0.6s0.8-1.2,1-2.2H300.1z"
   id="path260" />
	<path
   class="st3ss"
   d="M308,463.7c-0.6,0.7-1.6,1.1-2.8,1.1c-1,0-1.8-0.3-2.3-0.9s-0.8-1.5-0.8-2.6v-6.2h1.6v6.1   c0,1.4,0.6,2.2,1.8,2.2c1.2,0,2.1-0.5,2.5-1.4v-6.9h1.6v9.5H308L308,463.7z"
   id="path262" />
	<path
   class="st3ss"
   d="M317.6,462.1c0-0.4-0.2-0.8-0.5-1s-0.9-0.5-1.7-0.6s-1.5-0.4-2-0.6s-0.8-0.5-1.1-0.9s-0.3-0.7-0.3-1.2   c0-0.8,0.3-1.4,1-2s1.5-0.8,2.5-0.8c1.1,0,2,0.3,2.6,0.8s1,1.3,1,2.1h-1.6c0-0.4-0.2-0.8-0.6-1.2s-0.9-0.5-1.4-0.5   c-0.6,0-1.1,0.1-1.4,0.4s-0.5,0.6-0.5,1c0,0.4,0.2,0.7,0.5,0.9s0.9,0.4,1.7,0.6s1.5,0.4,2,0.7s0.9,0.6,1.1,0.9s0.4,0.8,0.4,1.3   c0,0.8-0.3,1.5-1,2s-1.6,0.8-2.6,0.8c-0.8,0-1.4-0.1-2-0.4s-1-0.6-1.4-1.1s-0.5-1-0.5-1.6h1.6c0,0.5,0.2,1,0.7,1.3s0.9,0.5,1.6,0.5   c0.6,0,1.1-0.1,1.5-0.4S317.6,462.6,317.6,462.1z"
   id="path264" />
	<path
   class="st3ss"
   d="M323.5,452.9v2.3h1.8v1.3h-1.8v5.9c0,0.4,0.1,0.7,0.2,0.9c0.2,0.2,0.4,0.3,0.8,0.3c0.2,0,0.4,0,0.8-0.1v1.3   c-0.4,0.1-0.8,0.2-1.2,0.2c-0.7,0-1.3-0.2-1.6-0.7s-0.6-1.1-0.6-1.9v-5.9h-1.7v-1.3h1.7v-2.3H323.5z"
   id="path266" />
	<path
   class="st3ss"
   d="M326.6,459.8c0-0.9,0.2-1.8,0.5-2.5s0.9-1.3,1.5-1.7s1.4-0.6,2.2-0.6c1.3,0,2.3,0.4,3.1,1.3s1.2,2.1,1.2,3.6   v0.1c0,0.9-0.2,1.8-0.5,2.5s-0.9,1.3-1.5,1.7s-1.4,0.6-2.3,0.6c-1.3,0-2.3-0.4-3.1-1.3s-1.2-2.1-1.2-3.6V459.8z M328.2,460   c0,1.1,0.2,1.9,0.7,2.5s1.1,1,2,1c0.8,0,1.5-0.3,2-1s0.7-1.6,0.7-2.7c0-1-0.2-1.9-0.7-2.5s-1.2-1-2-1c-0.8,0-1.5,0.3-1.9,1   S328.2,458.8,328.2,460z"
   id="path268" />
	<path
   class="st3ss"
   d="M338.8,455.2l0,1.1c0.7-0.8,1.6-1.2,2.8-1.2c1.3,0,2.2,0.5,2.7,1.5c0.3-0.5,0.7-0.8,1.2-1.1s1.1-0.4,1.8-0.4   c2.1,0,3.1,1.1,3.2,3.3v6.4H349v-6.3c0-0.7-0.2-1.2-0.5-1.5s-0.8-0.5-1.6-0.5c-0.6,0-1.1,0.2-1.5,0.5s-0.6,0.8-0.7,1.5v6.3h-1.6   v-6.2c0-1.4-0.7-2.1-2-2.1c-1.1,0-1.8,0.5-2.2,1.4v6.9h-1.6v-9.5H338.8z"
   id="path270" />
	<path
   class="st3ss"
   d="M357,464.8c-1.3,0-2.3-0.4-3.1-1.3s-1.2-2-1.2-3.4v-0.3c0-0.9,0.2-1.8,0.5-2.5s0.9-1.3,1.5-1.7   s1.3-0.6,2.1-0.6c1.2,0,2.2,0.4,2.9,1.2s1,2,1,3.5v0.7h-6.4c0,0.9,0.3,1.7,0.8,2.3s1.2,0.9,2,0.9c0.6,0,1.1-0.1,1.5-0.4   s0.7-0.5,1-0.9l1,0.8C359.8,464.2,358.6,464.8,357,464.8z M356.8,456.3c-0.7,0-1.2,0.2-1.7,0.7s-0.7,1.1-0.8,2h4.8v-0.1   c0-0.8-0.3-1.5-0.7-1.9S357.5,456.3,356.8,456.3z"
   id="path272" />
	<path
   class="st3ss"
   d="M367.2,456.6c-0.2,0-0.5-0.1-0.8-0.1c-1.1,0-1.8,0.5-2.2,1.4v6.8h-1.6v-9.5h1.6l0,1.1c0.5-0.8,1.3-1.3,2.3-1.3   c0.3,0,0.6,0,0.7,0.1V456.6z"
   id="path274" />
	<path
   class="st3ss"
   d="M377.2,459c-1.4-0.4-2.5-0.9-3.2-1.5s-1-1.4-1-2.2c0-1,0.4-1.8,1.2-2.5s1.9-1,3.1-1c0.9,0,1.7,0.2,2.4,0.5   s1.2,0.8,1.6,1.4s0.6,1.3,0.6,2h-1.7c0-0.8-0.2-1.4-0.7-1.8c-0.5-0.4-1.2-0.7-2.1-0.7c-0.8,0-1.5,0.2-1.9,0.6s-0.7,0.9-0.7,1.5   c0,0.5,0.2,1,0.7,1.3c0.4,0.4,1.2,0.7,2.3,1c1.1,0.3,1.9,0.6,2.5,1s1,0.8,1.3,1.3s0.4,1,0.4,1.7c0,1-0.4,1.9-1.2,2.5   s-1.9,0.9-3.2,0.9c-0.9,0-1.7-0.2-2.5-0.5s-1.3-0.8-1.8-1.4s-0.6-1.3-0.6-2h1.7c0,0.8,0.3,1.4,0.9,1.8s1.3,0.7,2.3,0.7   c0.9,0,1.6-0.2,2-0.5s0.7-0.9,0.7-1.5s-0.2-1.1-0.7-1.5S378.3,459.3,377.2,459z"
   id="path276" />
	<path
   class="st3ss"
   d="M389.7,463.7c-0.6,0.7-1.6,1.1-2.8,1.1c-1,0-1.8-0.3-2.3-0.9s-0.8-1.5-0.8-2.6v-6.2h1.6v6.1   c0,1.4,0.6,2.2,1.8,2.2c1.2,0,2.1-0.5,2.5-1.4v-6.9h1.6v9.5h-1.5L389.7,463.7z"
   id="path278" />
	<path
   class="st3ss"
   d="M401.8,460c0,1.4-0.3,2.6-1,3.5c-0.7,0.9-1.6,1.3-2.7,1.3c-1.2,0-2.1-0.4-2.7-1.1v4.6h-1.6v-13.2h1.5l0.1,1.1   c0.7-0.8,1.6-1.2,2.8-1.2c1.1,0,2,0.4,2.7,1.3s1,2.1,1,3.6V460z M400.2,459.8c0-1.1-0.2-1.9-0.7-2.5s-1.1-0.9-1.9-0.9   c-1,0-1.7,0.4-2.2,1.3v4.5c0.5,0.9,1.2,1.3,2.2,1.3c0.8,0,1.4-0.3,1.9-0.9S400.2,461.1,400.2,459.8z"
   id="path280" />
	<path
   class="st3ss"
   d="M411.9,460c0,1.4-0.3,2.6-1,3.5s-1.6,1.3-2.7,1.3c-1.2,0-2.1-0.4-2.7-1.1v4.6h-1.6v-13.2h1.5l0.1,1.1   c0.7-0.8,1.6-1.2,2.8-1.2c1.1,0,2,0.4,2.7,1.3s1,2.1,1,3.6V460z M410.3,459.8c0-1.1-0.2-1.9-0.7-2.5s-1.1-0.9-1.9-0.9   c-1,0-1.7,0.4-2.2,1.3v4.5c0.5,0.9,1.2,1.3,2.2,1.3c0.8,0,1.4-0.3,1.9-0.9S410.3,461.1,410.3,459.8z"
   id="path282" />
	<path
   class="st3ss"
   d="M413.5,459.8c0-0.9,0.2-1.8,0.5-2.5s0.9-1.3,1.5-1.7s1.4-0.6,2.2-0.6c1.3,0,2.3,0.4,3.1,1.3s1.2,2.1,1.2,3.6   v0.1c0,0.9-0.2,1.8-0.5,2.5s-0.9,1.3-1.5,1.7s-1.4,0.6-2.3,0.6c-1.3,0-2.3-0.4-3.1-1.3s-1.2-2.1-1.2-3.6V459.8z M415.2,460   c0,1.1,0.2,1.9,0.7,2.5s1.1,1,2,1c0.8,0,1.5-0.3,2-1s0.7-1.6,0.7-2.7c0-1-0.2-1.9-0.7-2.5s-1.2-1-2-1c-0.8,0-1.5,0.3-1.9,1   S415.2,458.8,415.2,460z"
   id="path284" />
	<path
   class="st3ss"
   d="M428.8,456.6c-0.2,0-0.5-0.1-0.8-0.1c-1.1,0-1.8,0.5-2.2,1.4v6.8h-1.6v-9.5h1.6l0,1.1c0.5-0.8,1.3-1.3,2.3-1.3   c0.3,0,0.6,0,0.7,0.1V456.6z"
   id="path286" />
	<path
   class="st3ss"
   d="M433,452.9v2.3h1.8v1.3H433v5.9c0,0.4,0.1,0.7,0.2,0.9c0.2,0.2,0.4,0.3,0.8,0.3c0.2,0,0.4,0,0.8-0.1v1.3   c-0.4,0.1-0.8,0.2-1.2,0.2c-0.7,0-1.3-0.2-1.6-0.7s-0.6-1.1-0.6-1.9v-5.9h-1.7v-1.3h1.7v-2.3H433z"
   id="path288" />
	<path
   class="st3ss"
   d="M443.5,451.9l4.2,10.4l4.2-10.4h2.2v12.8h-1.7v-5l0.2-5.4l-4.2,10.4h-1.3l-4.2-10.3l0.2,5.4v5h-1.7v-12.8   H443.5z"
   id="path290" />
	<path
   class="st3ss"
   d="M462.7,464.7c-0.1-0.2-0.2-0.5-0.2-1c-0.8,0.8-1.7,1.2-2.7,1.2c-0.9,0-1.7-0.3-2.3-0.8s-0.9-1.2-0.9-2   c0-1,0.4-1.8,1.1-2.3s1.8-0.8,3.2-0.8h1.6v-0.7c0-0.6-0.2-1-0.5-1.4s-0.8-0.5-1.5-0.5c-0.6,0-1.1,0.1-1.5,0.4s-0.6,0.6-0.6,1.1   h-1.6c0-0.5,0.2-0.9,0.5-1.4s0.8-0.8,1.4-1.1s1.2-0.4,1.9-0.4c1.1,0,2,0.3,2.6,0.8s0.9,1.3,1,2.3v4.4c0,0.9,0.1,1.6,0.3,2.1v0.1   H462.7z M460,463.4c0.5,0,1-0.1,1.5-0.4s0.8-0.6,1-1v-2h-1.3c-2,0-3,0.6-3,1.7c0,0.5,0.2,0.9,0.5,1.2S459.4,463.4,460,463.4z"
   id="path292" />
	<path
   class="st3ss"
   d="M468.1,455.2l0.1,1.2c0.7-0.9,1.7-1.4,2.8-1.4c2,0,3,1.1,3,3.4v6.3h-1.6v-6.3c0-0.7-0.2-1.2-0.5-1.5   s-0.8-0.5-1.4-0.5c-0.5,0-1,0.1-1.4,0.4s-0.7,0.7-0.9,1.1v6.8h-1.6v-9.5H468.1z"
   id="path294" />
	<path
   class="st3ss"
   d="M482.4,464.7c-0.1-0.2-0.2-0.5-0.2-1c-0.8,0.8-1.7,1.2-2.7,1.2c-0.9,0-1.7-0.3-2.3-0.8s-0.9-1.2-0.9-2   c0-1,0.4-1.8,1.1-2.3s1.8-0.8,3.2-0.8h1.6v-0.7c0-0.6-0.2-1-0.5-1.4s-0.8-0.5-1.5-0.5c-0.6,0-1.1,0.1-1.5,0.4s-0.6,0.6-0.6,1.1   h-1.6c0-0.5,0.2-0.9,0.5-1.4s0.8-0.8,1.4-1.1s1.2-0.4,1.9-0.4c1.1,0,2,0.3,2.6,0.8s0.9,1.3,1,2.3v4.4c0,0.9,0.1,1.6,0.3,2.1v0.1   H482.4z M479.7,463.4c0.5,0,1-0.1,1.5-0.4s0.8-0.6,1-1v-2h-1.3c-2,0-3,0.6-3,1.7c0,0.5,0.2,0.9,0.5,1.2S479.2,463.4,479.7,463.4z"
   id="path296" />
	<path
   class="st3ss"
   d="M485.9,459.8c0-1.5,0.3-2.7,1-3.5s1.6-1.3,2.7-1.3c1.2,0,2.1,0.4,2.7,1.2l0.1-1.1h1.5v9.3   c0,1.2-0.4,2.2-1.1,2.9s-1.7,1.1-2.9,1.1c-0.7,0-1.4-0.1-2-0.4s-1.2-0.7-1.5-1.2l0.8-1c0.7,0.9,1.5,1.3,2.6,1.3   c0.8,0,1.4-0.2,1.9-0.7s0.7-1.1,0.7-1.9v-0.8c-0.7,0.8-1.5,1.1-2.7,1.1c-1.1,0-2-0.4-2.7-1.3S485.9,461.4,485.9,459.8z M487.6,460   c0,1.1,0.2,1.9,0.7,2.5s1.1,0.9,1.8,0.9c1,0,1.8-0.5,2.3-1.4v-4.3c-0.5-0.9-1.2-1.4-2.2-1.4c-0.8,0-1.4,0.3-1.9,0.9   S487.6,458.8,487.6,460z"
   id="path298" />
	<path
   class="st3ss"
   d="M500.4,464.8c-1.3,0-2.3-0.4-3.1-1.3s-1.2-2-1.2-3.4v-0.3c0-0.9,0.2-1.8,0.5-2.5s0.9-1.3,1.5-1.7   s1.3-0.6,2.1-0.6c1.2,0,2.2,0.4,2.9,1.2s1,2,1,3.5v0.7h-6.4c0,0.9,0.3,1.7,0.8,2.3s1.2,0.9,2,0.9c0.6,0,1.1-0.1,1.5-0.4   s0.7-0.5,1-0.9l1,0.8C503.2,464.2,502,464.8,500.4,464.8z M500.2,456.3c-0.7,0-1.2,0.2-1.7,0.7s-0.7,1.1-0.8,2h4.8v-0.1   c0-0.8-0.3-1.5-0.7-1.9S500.8,456.3,500.2,456.3z"
   id="path300" />
	<path
   class="st3ss"
   d="M510.6,456.6c-0.2,0-0.5-0.1-0.8-0.1c-1.1,0-1.8,0.5-2.2,1.4v6.8H506v-9.5h1.6l0,1.1c0.5-0.8,1.3-1.3,2.3-1.3   c0.3,0,0.6,0,0.7,0.1V456.6z"
   id="path302" />
</g>
</svg>
