<?xml version="1.0" encoding="UTF-8" standalone="no"?>
<!-- Generator: Adobe Illustrator 23.0.2, SVG Export Plug-In . SVG Version: 6.00 Build 0)  -->

<svg
   version="1.1"
   id="Layer_1"
   x="0px"
   y="0px"
   viewBox="0 0 462 598"
   style="enable-background:new 0 0 462 598;"
   xml:space="preserve"
   sodipodi:docname="subhashiniLarge.svg"
   inkscape:version="1.2 (dc2aedaf03, 2022-05-15)"
   xmlns:inkscape="http://www.inkscape.org/namespaces/inkscape"
   xmlns:sodipodi="http://sodipodi.sourceforge.net/DTD/sodipodi-0.dtd"
   xmlns:xlink="http://www.w3.org/1999/xlink"
   xmlns="http://www.w3.org/2000/svg"
   xmlns:svg="http://www.w3.org/2000/svg"><defs
   id="defs1013">
	
</defs><sodipodi:namedview
   id="namedview1011"
   pagecolor="#ffffff"
   bordercolor="#000000"
   borderopacity="0.25"
   inkscape:showpageshadow="2"
   inkscape:pageopacity="0.0"
   inkscape:pagecheckerboard="0"
   inkscape:deskcolor="#d1d1d1"
   showgrid="false"
   inkscape:zoom="1.361204"
   inkscape:cx="231.04545"
   inkscape:cy="299.36732"
   inkscape:window-width="1920"
   inkscape:window-height="1001"
   inkscape:window-x="-9"
   inkscape:window-y="-9"
   inkscape:window-maximized="1"
   inkscape:current-layer="Layer_1" />
<style
   type="text/css"
   id="style864">
	.st0{fill:#FBB33C;}
	.st1{fill:#F8F9FA;}
	.st2{fill:#212529;}
	.st3{fill:#FFFFFF;}
</style>
<g
   id="g876">
	<defs
   id="defs867">
		<rect
   id="SVGID_1_"
   x="46"
   y="51"
   width="370"
   height="400" />
	</defs>
	<clipPath
   id="SVGID_2_">
		<use
   xlink:href="#SVGID_1_"
   style="overflow:visible;"
   id="use869" />
	</clipPath>
	<g
   style="clip-path:url(#SVGID_2_);"
   clip-path="url(#SVGID_2_)"
   id="g874">
		
			<image
   style="overflow:visible;"
   width="370"
   height="400"
   xlink:href="https://tryscrumlive.vervebot.io/wp-content/uploads/2022/12/subhashini.png"
   transform="matrix(1 0 0 1 46 51)"
   id="image872">
		</image>
	</g>
</g>
<a
   id="a880">
	<path
   class="st0"
   d="M372.6,546.4H89.4c-3.9,0-7-3.1-7-7V391c0-3.9,3.1-7,7-7h283.2c3.9,0,7,3.1,7,7v148.4   C379.6,543.3,376.5,546.4,372.6,546.4z"
   id="path878" />
</a>
<a
   id="a1035"
   xlink:href="href=&quot;https://twitter.com/mohan_subhashini7"><g
     id="g892">
		<g
   id="g884">
			<path
   class="st1"
   d="m 164.8,527.2 h -24.3 c -1.6,0 -2.9,-1.3 -2.9,-2.9 V 500 c 0,-1.6 1.3,-2.9 2.9,-2.9 h 24.3 c 1.6,0 2.9,1.3 2.9,2.9 v 24.3 c 0,1.6 -1.3,2.9 -2.9,2.9 z"
   id="path882" />
		</g>
		<a
   id="a890">
			<g
   id="g888">
				<path
   class="st2"
   d="m 159.1,509.6 c 0,4.3 -3.3,9.3 -9.3,9.3 -1.9,0 -3.6,-0.5 -5,-1.5 0.3,0 0.5,0 0.8,0 1.5,0 2.9,-0.5 4.1,-1.4 -1.4,0 -2.6,-1 -3.1,-2.3 0.2,0 0.4,0.1 0.6,0.1 0.3,0 0.6,0 0.9,-0.1 -1.5,-0.3 -2.6,-1.6 -2.6,-3.2 v 0 c 0.4,0.2 0.9,0.4 1.5,0.4 -0.9,-0.6 -1.5,-1.6 -1.5,-2.7 0,-0.6 0.2,-1.2 0.4,-1.7 1.6,2 4,3.3 6.8,3.4 -0.1,-0.2 -0.1,-0.5 -0.1,-0.8 0,-1.8 1.5,-3.3 3.3,-3.3 0.9,0 1.8,0.4 2.4,1 0.7,-0.1 1.5,-0.4 2.1,-0.8 -0.2,0.8 -0.8,1.4 -1.4,1.8 0.7,-0.1 1.3,-0.3 1.9,-0.5 -0.4,0.6 -1,1.2 -1.6,1.7 -0.2,0.3 -0.2,0.5 -0.2,0.6 z"
   id="path886" />
			</g>
		</a>
	</g></a>
<a
   id="a902"
   xlink:href="https://www.linkedin.com/in/subhashini-mohan-0342b8250/">
	<g
   id="g900">
		<path
   class="st1"
   d="M217,527.2h-24.3c-1.6,0-2.9-1.3-2.9-2.9V500c0-1.6,1.3-2.9,2.9-2.9H217c1.6,0,2.9,1.3,2.9,2.9v24.3    C219.9,525.9,218.6,527.2,217,527.2z"
   id="path896" />
		<path
   class="st2"
   d="M197.9,506.1c0-0.9,0.8-1.7,1.7-1.7s1.7,0.8,1.7,1.7s-0.8,1.7-1.7,1.7S197.9,507,197.9,506.1z M198.1,518.4    v-9.3h2.9v9.3H198.1z M209,518.4v-4.5c0-1.1,0-2.5-1.5-2.5c-1.5,0-1.7,1.2-1.7,2.4v4.6h-2.9v-9.3h2.8v1.3h0    c0.4-0.7,1.3-1.5,2.7-1.5c2.9,0,3.5,1.9,3.5,4.4v5.1h0H209z"
   id="path898" />
	</g>
</a>
<a
   xlink:href="https://tryscrum-community.slack.com/"
   target="_blank"
   id="a916">
	<g
   id="g914">
		<g
   id="g906">
			<path
   class="st1"
   d="M269.2,527.2H245c-1.6,0-2.9-1.3-2.9-2.9V500c0-1.6,1.3-2.9,2.9-2.9h24.3c1.6,0,2.9,1.3,2.9,2.9v24.3     C272.1,525.9,270.8,527.2,269.2,527.2z"
   id="path904" />
		</g>
		<a
   xlink:href="https://tryscrumstudio.slack.com/"
   target="_blank"
   id="a912">
			<g
   id="g910">
				<path
   class="st2"
   d="M256.7,510.6c0,0.8-0.7,1.5-1.5,1.5h-3.7c-0.8,0-1.5-0.7-1.5-1.5s0.7-1.5,1.5-1.5h3.7      C256.1,509.1,256.7,509.8,256.7,510.6z M251.6,515.7c-0.8,0-1.5-0.7-1.5-1.5c0-0.8,0.7-1.5,1.5-1.5h1.5v1.5      C253,515.1,252.4,515.7,251.6,515.7z M253.8,506.9c0-0.8,0.7-1.5,1.5-1.5c0.8,0,1.5,0.7,1.5,1.5v1.5h-1.5      C254.4,508.4,253.8,507.7,253.8,506.9z M255.3,512.8c0.8,0,1.5,0.7,1.5,1.5v3.7c0,0.8-0.7,1.5-1.5,1.5c-0.8,0-1.5-0.7-1.5-1.5      v-3.7C253.8,513.5,254.4,512.8,255.3,512.8z M258.9,512.1c-0.8,0-1.5-0.7-1.5-1.5v-3.7c0-0.8,0.7-1.5,1.5-1.5      c0.8,0,1.5,0.7,1.5,1.5v3.7C260.4,511.4,259.8,512.1,258.9,512.1z M257.5,514.3c0-0.8,0.7-1.5,1.5-1.5h3.7      c0.8,0,1.5,0.7,1.5,1.5c0,0.8-0.7,1.5-1.5,1.5h-3.7C258.1,515.7,257.5,515.1,257.5,514.3z M260.4,518c0,0.8-0.7,1.5-1.5,1.5      c-0.8,0-1.5-0.7-1.5-1.5v-1.5h1.5C259.8,516.5,260.4,517.2,260.4,518z M262.6,509.1c0.8,0,1.5,0.7,1.5,1.5s-0.7,1.5-1.5,1.5      h-1.5v-1.5C261.2,509.8,261.8,509.1,262.6,509.1z"
   id="path908" />
			</g>
		</a>
	</g>
</a>
<a
   xlink:href="https://www.meetup.com/smstudiochn/"
   target="_blank"
   id="a930">
	<g
   id="g928">
		<g
   id="g920">
			<path
   class="st1"
   d="M321.4,527.2h-24.3c-1.6,0-2.9-1.3-2.9-2.9V500c0-1.6,1.3-2.9,2.9-2.9h24.3c1.6,0,2.9,1.3,2.9,2.9v24.3     C324.3,525.9,323,527.2,321.4,527.2z"
   id="path918" />
		</g>
		<a
   xlink:href="https://www.meetup.com/smstudiochn/"
   target="_blank"
   id="a926">
			<g
   id="g924">
				<path
   class="st2"
   d="M302.3,512.5c-0.2,0.3-0.6,0.4-1,0.2c-0.3-0.2-0.4-0.7-0.2-1c0.2-0.3,0.6-0.4,1-0.2      C302.4,511.7,302.5,512.2,302.3,512.5z M314,517.2c-0.5,0.4-1.2,0.6-1.8,0.5c-0.4,1.5-2.2,2-3.3,1c0,0-0.1,0.1-0.1,0.1      c-1.2,0.8-2.9,0.5-3.7-0.7c-0.3-0.4-0.5-1-0.5-1.5c-2-0.3-2.8-2.9-1.3-4.4c-0.9-1.5,0-3.4,1.7-3.6c0.8-2.1,3.4-3,5.1-1.7      c2.1-0.7,4.3,0.9,4.1,3.2c1.3,0.4,1.6,2.1,0.6,3C315.6,514.5,315.3,516.3,314,517.2z M303.9,517.8c-0.2,0-0.3-0.1-0.4-0.3      c0-0.2,0.1-0.3,0.2-0.4c0.2,0,0.3,0.1,0.4,0.3C304.2,517.6,304.1,517.7,303.9,517.8z M303.9,507.8c-0.2-0.2-0.1-0.6,0.1-0.7      c0.2-0.2,0.6-0.1,0.7,0.1c0.2,0.2,0.1,0.6-0.1,0.7C304.4,508.1,304.1,508.1,303.9,507.8z M311.3,514.6c-0.1-1,1.4-3.2,1.3-4      c-0.1-0.8-0.6-0.9-1-0.9c-0.4,0-0.5,0.1-0.7,0.1c-0.1,0.1-0.2,0.2-0.4,0c-0.2-0.2-0.3-0.4-0.6-0.4c-0.4-0.1-0.6,0.1-0.8,0.3      c-0.1,0.1-0.4,0.4-0.6,0.3c-0.1-0.1-0.5-0.2-0.8-0.4c-0.5-0.2-1.3,0.1-1.5,0.6c-0.4,0.7-1.2,3.5-1.3,3.9      c-0.3,0.8,0.3,1.5,1.2,1.5c0.3,0,0.6-0.1,0.8-0.5c0.1-0.2,1.3-3.4,1.4-3.5c0.1-0.1,0.3-0.3,0.5-0.2c0.2,0.1,0.2,0.3,0.2,0.5      c0,0.3-0.9,2.2-0.9,2.4c-0.1,0.7,0.8,0.8,1.2,0.1c0.1-0.2,1.4-2.9,1.5-3.1c0.1-0.2,0.2-0.3,0.4-0.3c0.1,0,0.3,0,0.2,0.3      c0,0.3-1.1,2.3-1.2,2.7c-0.1,0.6,0.2,1.3,0.8,1.6c0.4,0.2,2,0.5,1.8-0.3C312.5,514.8,311.4,515.3,311.3,514.6z M305.5,504.9      c0-0.2,0.1-0.4,0.3-0.4c0.2,0,0.4,0.1,0.4,0.3c0,0.2-0.1,0.4-0.3,0.4C305.7,505.2,305.5,505.1,305.5,504.9z M309.2,519.7      c0.1,0.2,0.1,0.5-0.1,0.6c-0.2,0.1-0.5,0.1-0.6-0.1c-0.1-0.2-0.1-0.5,0.1-0.6C308.8,519.5,309.1,519.5,309.2,519.7z       M309.7,505.9c-0.2-0.3-0.1-0.8,0.2-1c0.3-0.2,0.7-0.1,0.9,0.2c0.2,0.3,0.1,0.8-0.2,0.9C310.3,506.4,309.9,506.3,309.7,505.9z       M313.8,518.5c0.2,0.3,0.1,0.8-0.2,1c-0.3,0.2-0.8,0.1-1-0.2c-0.2-0.3-0.1-0.8,0.2-1C313.1,518.1,313.6,518.2,313.8,518.5z       M315.8,508.9c0.2,0.3,0.1,0.6-0.1,0.8c-0.3,0.2-0.6,0.1-0.8-0.2s-0.1-0.6,0.2-0.8C315.3,508.6,315.6,508.7,315.8,508.9z       M316.8,513.2c0.1,0.2-0.1,0.5-0.3,0.5c-0.2,0.1-0.5-0.1-0.5-0.3c-0.1-0.2,0.1-0.5,0.3-0.5C316.5,512.8,316.8,513,316.8,513.2z       M317.3,511.5c-0.2,0-0.3-0.1-0.4-0.3c0-0.2,0.1-0.4,0.3-0.4c0.2,0,0.3,0.1,0.4,0.3C317.6,511.3,317.5,511.4,317.3,511.5z"
   id="path922" />
			</g>
		</a>
	</g>
</a>
<g
   id="g962">
	<path
   class="st3"
   d="M149.4,429.2c0-0.7-0.2-1.2-0.7-1.6s-1.4-0.7-2.6-1.1c-1.3-0.4-2.3-0.8-3-1.3c-1.4-0.9-2.1-2.1-2.1-3.5   c0-1.3,0.5-2.3,1.5-3.1c1-0.8,2.4-1.2,4-1.2c1.1,0,2.1,0.2,2.9,0.6c0.9,0.4,1.5,1,2,1.7c0.5,0.7,0.7,1.6,0.7,2.5h-2.7   c0-0.8-0.3-1.5-0.8-1.9c-0.5-0.5-1.2-0.7-2.2-0.7c-0.9,0-1.6,0.2-2.1,0.6c-0.5,0.4-0.7,0.9-0.7,1.6c0,0.6,0.3,1.1,0.8,1.4   c0.5,0.4,1.4,0.8,2.6,1.1c1.2,0.4,2.2,0.8,2.9,1.2c0.7,0.5,1.3,1,1.6,1.6c0.3,0.6,0.5,1.3,0.5,2.1c0,1.3-0.5,2.3-1.5,3.1   c-1,0.8-2.4,1.2-4.1,1.2c-1.1,0-2.2-0.2-3.1-0.6c-0.9-0.4-1.7-1-2.2-1.7s-0.8-1.6-0.8-2.6h2.7c0,0.9,0.3,1.6,0.9,2.1   c0.6,0.5,1.4,0.7,2.5,0.7c0.9,0,1.7-0.2,2.1-0.6C149.2,430.4,149.4,429.9,149.4,429.2z"
   id="path932" />
	<path
   class="st3"
   d="M161.3,432.1c-0.8,0.9-1.9,1.4-3.3,1.4c-1.3,0-2.2-0.4-2.9-1.1c-0.6-0.7-1-1.8-1-3.2v-7.5h2.6v7.5   c0,1.5,0.6,2.2,1.8,2.2c1.3,0,2.1-0.5,2.6-1.4v-8.3h2.6v11.6h-2.5L161.3,432.1z"
   id="path934" />
	<path
   class="st3"
   d="M176.7,427.6c0,1.8-0.4,3.2-1.2,4.3s-1.9,1.6-3.3,1.6c-1.4,0-2.4-0.5-3.2-1.5l-0.1,1.3h-2.4v-16.5h2.6v6   c0.8-0.9,1.8-1.3,3-1.3c1.4,0,2.5,0.5,3.3,1.6c0.8,1.1,1.2,2.5,1.2,4.4V427.6z M174.1,427.4c0-1.3-0.2-2.2-0.7-2.8   c-0.4-0.6-1.1-0.9-1.9-0.9c-1.1,0-1.9,0.5-2.4,1.5v4.8c0.5,1,1.3,1.5,2.4,1.5c0.8,0,1.4-0.3,1.9-0.9c0.4-0.6,0.7-1.5,0.7-2.8V427.4   z"
   id="path936" />
	<path
   class="st3"
   d="M181.5,422.9c0.9-1,1.9-1.5,3.2-1.5c2.5,0,3.7,1.4,3.8,4.2v7.6h-2.6v-7.5c0-0.8-0.2-1.4-0.5-1.7   c-0.3-0.3-0.9-0.5-1.5-0.5c-1,0-1.8,0.5-2.3,1.4v8.3h-2.6v-16.5h2.6V422.9z"
   id="path938" />
	<path
   class="st3"
   d="M198.1,433.3c-0.1-0.2-0.2-0.6-0.3-1.1c-0.8,0.9-1.8,1.3-3.1,1.3c-1.2,0-2.1-0.3-2.9-1   c-0.7-0.7-1.1-1.5-1.1-2.5c0-1.2,0.5-2.2,1.4-2.9c0.9-0.7,2.2-1,3.9-1h1.6v-0.8c0-0.6-0.2-1.1-0.5-1.4c-0.3-0.4-0.8-0.5-1.5-0.5   c-0.6,0-1.1,0.1-1.5,0.4c-0.4,0.3-0.6,0.7-0.6,1.1H191c0-0.6,0.2-1.2,0.6-1.8c0.4-0.6,1-1,1.7-1.3c0.7-0.3,1.5-0.5,2.4-0.5   c1.4,0,2.4,0.3,3.3,1c0.8,0.7,1.2,1.6,1.2,2.9v5.2c0,1,0.1,1.9,0.4,2.5v0.2H198.1z M195.2,431.4c0.5,0,1-0.1,1.5-0.4   c0.5-0.3,0.8-0.6,1-1v-2.2h-1.4c-1,0-1.7,0.2-2.2,0.5c-0.5,0.3-0.7,0.8-0.7,1.4c0,0.5,0.2,0.9,0.5,1.2   C194.2,431.2,194.6,431.4,195.2,431.4z"
   id="path940" />
	<path
   class="st3"
   d="M209.5,430.1c0-0.5-0.2-0.8-0.6-1.1c-0.4-0.2-1-0.5-1.9-0.6c-0.9-0.2-1.6-0.4-2.2-0.7c-1.3-0.6-2-1.5-2-2.7   c0-1,0.4-1.8,1.3-2.5c0.8-0.7,1.9-1,3.2-1c1.4,0,2.5,0.3,3.4,1c0.9,0.7,1.3,1.6,1.3,2.7h-2.6c0-0.5-0.2-0.9-0.6-1.3   c-0.4-0.3-0.9-0.5-1.5-0.5c-0.6,0-1,0.1-1.4,0.4c-0.4,0.3-0.5,0.6-0.5,1.1c0,0.4,0.2,0.7,0.5,0.9c0.3,0.2,1,0.4,2,0.7   c1,0.2,1.8,0.5,2.4,0.8c0.6,0.3,1,0.7,1.3,1.1c0.3,0.4,0.4,1,0.4,1.6c0,1-0.4,1.9-1.3,2.5c-0.9,0.6-2,1-3.4,1c-1,0-1.8-0.2-2.5-0.5   c-0.7-0.3-1.3-0.8-1.7-1.4c-0.4-0.6-0.6-1.3-0.6-1.9h2.5c0,0.6,0.3,1.1,0.7,1.4s1,0.5,1.7,0.5c0.7,0,1.2-0.1,1.6-0.4   C209.3,430.9,209.5,430.5,209.5,430.1z"
   id="path942" />
	<path
   class="st3"
   d="M216.9,422.9c0.9-1,1.9-1.5,3.2-1.5c2.5,0,3.7,1.4,3.8,4.2v7.6h-2.6v-7.5c0-0.8-0.2-1.4-0.5-1.7   c-0.3-0.3-0.9-0.5-1.5-0.5c-1,0-1.8,0.5-2.3,1.4v8.3h-2.6v-16.5h2.6V422.9z"
   id="path944" />
	<path
   class="st3"
   d="M226.6,418.6c0-0.4,0.1-0.7,0.4-1c0.3-0.3,0.6-0.4,1.1-0.4s0.8,0.1,1.1,0.4s0.4,0.6,0.4,1c0,0.4-0.1,0.7-0.4,1   c-0.3,0.3-0.6,0.4-1.1,0.4s-0.8-0.1-1.1-0.4C226.7,419.4,226.6,419,226.6,418.6z M229.4,433.3h-2.6v-11.6h2.6V433.3z"
   id="path946" />
	<path
   class="st3"
   d="M234.6,421.7l0.1,1.3c0.9-1,2-1.6,3.4-1.6c2.4,0,3.7,1.4,3.7,4.2v7.7h-2.6v-7.5c0-0.7-0.2-1.3-0.5-1.6   c-0.3-0.4-0.8-0.5-1.6-0.5c-1.1,0-1.8,0.5-2.4,1.4v8.3h-2.6v-11.6H234.6z"
   id="path948" />
	<path
   class="st3"
   d="M244.4,418.6c0-0.4,0.1-0.7,0.4-1c0.3-0.3,0.6-0.4,1.1-0.4s0.8,0.1,1.1,0.4s0.4,0.6,0.4,1c0,0.4-0.1,0.7-0.4,1   c-0.3,0.3-0.6,0.4-1.1,0.4s-0.8-0.1-1.1-0.4C244.6,419.4,244.4,419,244.4,418.6z M247.2,433.3h-2.6v-11.6h2.6V433.3z"
   id="path950" />
	<path
   class="st3"
   d="M259.3,417.6l4.5,12l4.5-12h3.5v15.6h-2.7v-5.2l0.3-6.9l-4.6,12.1h-1.9l-4.6-12l0.3,6.9v5.2h-2.7v-15.6H259.3z   "
   id="path952" />
	<path
   class="st3"
   d="M274.3,427.4c0-1.1,0.2-2.2,0.7-3.1s1.1-1.6,1.9-2.1c0.8-0.5,1.8-0.7,2.8-0.7c1.6,0,2.8,0.5,3.8,1.5   s1.5,2.3,1.6,4l0,0.6c0,1.1-0.2,2.2-0.7,3.1s-1.1,1.6-1.9,2.1c-0.8,0.5-1.8,0.7-2.8,0.7c-1.6,0-3-0.5-3.9-1.6   c-1-1.1-1.5-2.5-1.5-4.4V427.4z M276.9,427.6c0,1.2,0.2,2.1,0.7,2.8s1.2,1,2.1,1s1.6-0.3,2.1-1c0.5-0.7,0.7-1.7,0.7-3   c0-1.2-0.3-2.1-0.8-2.8s-1.2-1-2.1-1c-0.9,0-1.5,0.3-2,1S276.9,426.2,276.9,427.6z"
   id="path954" />
	<path
   class="st3"
   d="M289.9,422.9c0.9-1,1.9-1.5,3.2-1.5c2.5,0,3.7,1.4,3.8,4.2v7.6h-2.6v-7.5c0-0.8-0.2-1.4-0.5-1.7   c-0.3-0.3-0.9-0.5-1.5-0.5c-1,0-1.8,0.5-2.3,1.4v8.3h-2.6v-16.5h2.6V422.9z"
   id="path956" />
	<path
   class="st3"
   d="M306.5,433.3c-0.1-0.2-0.2-0.6-0.3-1.1c-0.8,0.9-1.8,1.3-3.1,1.3c-1.2,0-2.1-0.3-2.9-1s-1.1-1.5-1.1-2.5   c0-1.2,0.5-2.2,1.4-2.9c0.9-0.7,2.2-1,3.9-1h1.6v-0.8c0-0.6-0.2-1.1-0.5-1.4c-0.3-0.4-0.8-0.5-1.5-0.5c-0.6,0-1.1,0.1-1.5,0.4   c-0.4,0.3-0.6,0.7-0.6,1.1h-2.6c0-0.6,0.2-1.2,0.6-1.8c0.4-0.6,1-1,1.7-1.3c0.7-0.3,1.5-0.5,2.4-0.5c1.4,0,2.4,0.3,3.3,1   c0.8,0.7,1.2,1.6,1.2,2.9v5.2c0,1,0.1,1.9,0.4,2.5v0.2H306.5z M303.6,431.4c0.5,0,1-0.1,1.5-0.4c0.5-0.3,0.8-0.6,1-1v-2.2h-1.4   c-1,0-1.7,0.2-2.2,0.5s-0.7,0.8-0.7,1.4c0,0.5,0.2,0.9,0.5,1.2C302.6,431.2,303,431.4,303.6,431.4z"
   id="path958" />
	<path
   class="st3"
   d="M313.9,421.7l0.1,1.3c0.9-1,2-1.6,3.4-1.6c2.4,0,3.7,1.4,3.7,4.2v7.7h-2.6v-7.5c0-0.7-0.2-1.3-0.5-1.6   c-0.3-0.4-0.8-0.5-1.6-0.5c-1.1,0-1.8,0.5-2.4,1.4v8.3h-2.6v-11.6H313.9z"
   id="path960" />
</g>
<g
   id="g1008">
	<path
   class="st3"
   d="M131.1,459.6c-0.2,1.4-0.7,2.4-1.5,3.1s-2,1.1-3.4,1.1c-1.5,0-2.7-0.5-3.6-1.6s-1.4-2.5-1.4-4.4v-1.2   c0-1.2,0.2-2.2,0.6-3.1s1-1.6,1.8-2.1s1.7-0.7,2.7-0.7c1.4,0,2.4,0.4,3.3,1.1s1.3,1.8,1.4,3.2h-1.7c-0.1-1-0.5-1.8-1-2.2   c-0.5-0.5-1.2-0.7-2.1-0.7c-1.1,0-1.9,0.4-2.5,1.2c-0.6,0.8-0.9,1.9-0.9,3.4v1.2c0,1.4,0.3,2.5,0.9,3.3c0.6,0.8,1.4,1.2,2.4,1.2   c0.9,0,1.7-0.2,2.2-0.6s0.8-1.2,1-2.2H131.1z"
   id="path964" />
	<path
   class="st3"
   d="M139,462.7c-0.6,0.7-1.6,1.1-2.8,1.1c-1,0-1.8-0.3-2.3-0.9s-0.8-1.5-0.8-2.6v-6.2h1.6v6.1   c0,1.4,0.6,2.2,1.8,2.2c1.2,0,2.1-0.5,2.5-1.4v-6.9h1.6v9.5H139L139,462.7z"
   id="path966" />
	<path
   class="st3"
   d="M148.6,461.1c0-0.4-0.2-0.8-0.5-1s-0.9-0.5-1.7-0.6s-1.5-0.4-2-0.6s-0.8-0.5-1.1-0.9s-0.3-0.7-0.3-1.2   c0-0.8,0.3-1.4,1-2s1.5-0.8,2.5-0.8c1.1,0,2,0.3,2.6,0.8s1,1.3,1,2.1h-1.6c0-0.4-0.2-0.8-0.6-1.2s-0.9-0.5-1.4-0.5   c-0.6,0-1.1,0.1-1.4,0.4s-0.5,0.6-0.5,1c0,0.4,0.2,0.7,0.5,0.9s0.9,0.4,1.7,0.6s1.5,0.4,2,0.7s0.9,0.6,1.1,0.9s0.4,0.8,0.4,1.3   c0,0.8-0.3,1.5-1,2s-1.6,0.8-2.6,0.8c-0.8,0-1.4-0.1-2-0.4s-1-0.6-1.4-1.1s-0.5-1-0.5-1.6h1.6c0,0.5,0.2,1,0.7,1.3s0.9,0.5,1.6,0.5   c0.6,0,1.1-0.1,1.5-0.4S148.6,461.6,148.6,461.1z"
   id="path968" />
	<path
   class="st3"
   d="M154.5,451.9v2.3h1.8v1.3h-1.8v5.9c0,0.4,0.1,0.7,0.2,0.9c0.2,0.2,0.4,0.3,0.8,0.3c0.2,0,0.4,0,0.8-0.1v1.3   c-0.4,0.1-0.8,0.2-1.2,0.2c-0.7,0-1.3-0.2-1.6-0.7s-0.6-1.1-0.6-1.9v-5.9h-1.7v-1.3h1.7v-2.3H154.5z"
   id="path970" />
	<path
   class="st3"
   d="M157.6,458.8c0-0.9,0.2-1.8,0.5-2.5s0.9-1.3,1.5-1.7s1.4-0.6,2.2-0.6c1.3,0,2.3,0.4,3.1,1.3s1.2,2.1,1.2,3.6   v0.1c0,0.9-0.2,1.8-0.5,2.5s-0.9,1.3-1.5,1.7s-1.4,0.6-2.3,0.6c-1.3,0-2.3-0.4-3.1-1.3s-1.2-2.1-1.2-3.6V458.8z M159.2,459   c0,1.1,0.2,1.9,0.7,2.5s1.1,1,2,1c0.8,0,1.5-0.3,2-1s0.7-1.6,0.7-2.7c0-1-0.2-1.9-0.7-2.5s-1.2-1-2-1c-0.8,0-1.5,0.3-1.9,1   S159.2,457.8,159.2,459z"
   id="path972" />
	<path
   class="st3"
   d="M169.8,454.2l0,1.1c0.7-0.8,1.6-1.2,2.8-1.2c1.3,0,2.2,0.5,2.7,1.5c0.3-0.5,0.7-0.8,1.2-1.1s1.1-0.4,1.8-0.4   c2.1,0,3.1,1.1,3.2,3.3v6.4H180v-6.3c0-0.7-0.2-1.2-0.5-1.5s-0.8-0.5-1.6-0.5c-0.6,0-1.1,0.2-1.5,0.5s-0.6,0.8-0.7,1.5v6.3h-1.6   v-6.2c0-1.4-0.7-2.1-2-2.1c-1.1,0-1.8,0.5-2.2,1.4v6.9h-1.6v-9.5H169.8z"
   id="path974" />
	<path
   class="st3"
   d="M188,463.8c-1.3,0-2.3-0.4-3.1-1.3s-1.2-2-1.2-3.4v-0.3c0-0.9,0.2-1.8,0.5-2.5s0.9-1.3,1.5-1.7   s1.3-0.6,2.1-0.6c1.2,0,2.2,0.4,2.9,1.2s1,2,1,3.5v0.7h-6.4c0,0.9,0.3,1.7,0.8,2.3s1.2,0.9,2,0.9c0.6,0,1.1-0.1,1.5-0.4   s0.7-0.5,1-0.9l1,0.8C190.8,463.2,189.6,463.8,188,463.8z M187.8,455.3c-0.7,0-1.2,0.2-1.7,0.7s-0.7,1.1-0.8,2h4.8v-0.1   c0-0.8-0.3-1.5-0.7-1.9S188.5,455.3,187.8,455.3z"
   id="path976" />
	<path
   class="st3"
   d="M198.2,455.6c-0.2,0-0.5-0.1-0.8-0.1c-1.1,0-1.8,0.5-2.2,1.4v6.8h-1.6v-9.5h1.6l0,1.1c0.5-0.8,1.3-1.3,2.3-1.3   c0.3,0,0.6,0,0.7,0.1V455.6z"
   id="path978" />
	<path
   class="st3"
   d="M208.2,458c-1.4-0.4-2.5-0.9-3.2-1.5s-1-1.4-1-2.2c0-1,0.4-1.8,1.2-2.5s1.9-1,3.1-1c0.9,0,1.7,0.2,2.4,0.5   s1.2,0.8,1.6,1.4s0.6,1.3,0.6,2h-1.7c0-0.8-0.2-1.4-0.7-1.8c-0.5-0.4-1.2-0.7-2.1-0.7c-0.8,0-1.5,0.2-1.9,0.6s-0.7,0.9-0.7,1.5   c0,0.5,0.2,1,0.7,1.3c0.4,0.4,1.2,0.7,2.3,1c1.1,0.3,1.9,0.6,2.5,1s1,0.8,1.3,1.3s0.4,1,0.4,1.7c0,1-0.4,1.9-1.2,2.5   s-1.9,0.9-3.2,0.9c-0.9,0-1.7-0.2-2.5-0.5s-1.3-0.8-1.8-1.4s-0.6-1.3-0.6-2h1.7c0,0.8,0.3,1.4,0.9,1.8s1.3,0.7,2.3,0.7   c0.9,0,1.6-0.2,2-0.5s0.7-0.9,0.7-1.5s-0.2-1.1-0.7-1.5S209.3,458.3,208.2,458z"
   id="path980" />
	<path
   class="st3"
   d="M220.7,462.7c-0.6,0.7-1.6,1.1-2.8,1.1c-1,0-1.8-0.3-2.3-0.9s-0.8-1.5-0.8-2.6v-6.2h1.6v6.1   c0,1.4,0.6,2.2,1.8,2.2c1.2,0,2.1-0.5,2.5-1.4v-6.9h1.6v9.5h-1.5L220.7,462.7z"
   id="path982" />
	<path
   class="st3"
   d="M232.8,459c0,1.4-0.3,2.6-1,3.5c-0.7,0.9-1.6,1.3-2.7,1.3c-1.2,0-2.1-0.4-2.7-1.1v4.6h-1.6v-13.2h1.5l0.1,1.1   c0.7-0.8,1.6-1.2,2.8-1.2c1.1,0,2,0.4,2.7,1.3s1,2.1,1,3.6V459z M231.2,458.8c0-1.1-0.2-1.9-0.7-2.5s-1.1-0.9-1.9-0.9   c-1,0-1.7,0.4-2.2,1.3v4.5c0.5,0.9,1.2,1.3,2.2,1.3c0.8,0,1.4-0.3,1.9-0.9S231.2,460.1,231.2,458.8z"
   id="path984" />
	<path
   class="st3"
   d="M242.9,459c0,1.4-0.3,2.6-1,3.5s-1.6,1.3-2.7,1.3c-1.2,0-2.1-0.4-2.7-1.1v4.6h-1.6v-13.2h1.5l0.1,1.1   c0.7-0.8,1.6-1.2,2.8-1.2c1.1,0,2,0.4,2.7,1.3s1,2.1,1,3.6V459z M241.3,458.8c0-1.1-0.2-1.9-0.7-2.5s-1.1-0.9-1.9-0.9   c-1,0-1.7,0.4-2.2,1.3v4.5c0.5,0.9,1.2,1.3,2.2,1.3c0.8,0,1.4-0.3,1.9-0.9S241.3,460.1,241.3,458.8z"
   id="path986" />
	<path
   class="st3"
   d="M244.5,458.8c0-0.9,0.2-1.8,0.5-2.5s0.9-1.3,1.5-1.7s1.4-0.6,2.2-0.6c1.3,0,2.3,0.4,3.1,1.3s1.2,2.1,1.2,3.6   v0.1c0,0.9-0.2,1.8-0.5,2.5s-0.9,1.3-1.5,1.7s-1.4,0.6-2.3,0.6c-1.3,0-2.3-0.4-3.1-1.3s-1.2-2.1-1.2-3.6V458.8z M246.2,459   c0,1.1,0.2,1.9,0.7,2.5s1.1,1,2,1c0.8,0,1.5-0.3,2-1s0.7-1.6,0.7-2.7c0-1-0.2-1.9-0.7-2.5s-1.2-1-2-1c-0.8,0-1.5,0.3-1.9,1   S246.2,457.8,246.2,459z"
   id="path988" />
	<path
   class="st3"
   d="M259.8,455.6c-0.2,0-0.5-0.1-0.8-0.1c-1.1,0-1.8,0.5-2.2,1.4v6.8h-1.6v-9.5h1.6l0,1.1c0.5-0.8,1.3-1.3,2.3-1.3   c0.3,0,0.6,0,0.7,0.1V455.6z"
   id="path990" />
	<path
   class="st3"
   d="M264,451.9v2.3h1.8v1.3H264v5.9c0,0.4,0.1,0.7,0.2,0.9c0.2,0.2,0.4,0.3,0.8,0.3c0.2,0,0.4,0,0.8-0.1v1.3   c-0.4,0.1-0.8,0.2-1.2,0.2c-0.7,0-1.3-0.2-1.6-0.7s-0.6-1.1-0.6-1.9v-5.9h-1.7v-1.3h1.7v-2.3H264z"
   id="path992" />
	<path
   class="st3"
   d="M274.5,450.9l4.2,10.4l4.2-10.4h2.2v12.8h-1.7v-5l0.2-5.4l-4.2,10.4h-1.3l-4.2-10.3l0.2,5.4v5h-1.7v-12.8   H274.5z"
   id="path994" />
	<path
   class="st3"
   d="M293.7,463.7c-0.1-0.2-0.2-0.5-0.2-1c-0.8,0.8-1.7,1.2-2.7,1.2c-0.9,0-1.7-0.3-2.3-0.8s-0.9-1.2-0.9-2   c0-1,0.4-1.8,1.1-2.3s1.8-0.8,3.2-0.8h1.6v-0.7c0-0.6-0.2-1-0.5-1.4s-0.8-0.5-1.5-0.5c-0.6,0-1.1,0.1-1.5,0.4s-0.6,0.6-0.6,1.1   h-1.6c0-0.5,0.2-0.9,0.5-1.4s0.8-0.8,1.4-1.1s1.2-0.4,1.9-0.4c1.1,0,2,0.3,2.6,0.8s0.9,1.3,1,2.3v4.4c0,0.9,0.1,1.6,0.3,2.1v0.1   H293.7z M291,462.4c0.5,0,1-0.1,1.5-0.4s0.8-0.6,1-1v-2h-1.3c-2,0-3,0.6-3,1.7c0,0.5,0.2,0.9,0.5,1.2S290.4,462.4,291,462.4z"
   id="path996" />
	<path
   class="st3"
   d="M299.1,454.2l0.1,1.2c0.7-0.9,1.7-1.4,2.8-1.4c2,0,3,1.1,3,3.4v6.3h-1.6v-6.3c0-0.7-0.2-1.2-0.5-1.5   s-0.8-0.5-1.4-0.5c-0.5,0-1,0.1-1.4,0.4s-0.7,0.7-0.9,1.1v6.8h-1.6v-9.5H299.1z"
   id="path998" />
	<path
   class="st3"
   d="M313.4,463.7c-0.1-0.2-0.2-0.5-0.2-1c-0.8,0.8-1.7,1.2-2.7,1.2c-0.9,0-1.7-0.3-2.3-0.8s-0.9-1.2-0.9-2   c0-1,0.4-1.8,1.1-2.3s1.8-0.8,3.2-0.8h1.6v-0.7c0-0.6-0.2-1-0.5-1.4s-0.8-0.5-1.5-0.5c-0.6,0-1.1,0.1-1.5,0.4s-0.6,0.6-0.6,1.1   h-1.6c0-0.5,0.2-0.9,0.5-1.4s0.8-0.8,1.4-1.1s1.2-0.4,1.9-0.4c1.1,0,2,0.3,2.6,0.8s0.9,1.3,1,2.3v4.4c0,0.9,0.1,1.6,0.3,2.1v0.1   H313.4z M310.7,462.4c0.5,0,1-0.1,1.5-0.4s0.8-0.6,1-1v-2h-1.3c-2,0-3,0.6-3,1.7c0,0.5,0.2,0.9,0.5,1.2S310.2,462.4,310.7,462.4z"
   id="path1000" />
	<path
   class="st3"
   d="M316.9,458.8c0-1.5,0.3-2.7,1-3.5s1.6-1.3,2.7-1.3c1.2,0,2.1,0.4,2.7,1.2l0.1-1.1h1.5v9.3   c0,1.2-0.4,2.2-1.1,2.9s-1.7,1.1-2.9,1.1c-0.7,0-1.4-0.1-2-0.4s-1.2-0.7-1.5-1.2l0.8-1c0.7,0.9,1.5,1.3,2.6,1.3   c0.8,0,1.4-0.2,1.9-0.7s0.7-1.1,0.7-1.9v-0.8c-0.7,0.8-1.5,1.1-2.7,1.1c-1.1,0-2-0.4-2.7-1.3S316.9,460.4,316.9,458.8z M318.6,459   c0,1.1,0.2,1.9,0.7,2.5s1.1,0.9,1.8,0.9c1,0,1.8-0.5,2.3-1.4v-4.3c-0.5-0.9-1.2-1.4-2.2-1.4c-0.8,0-1.4,0.3-1.9,0.9   S318.6,457.8,318.6,459z"
   id="path1002" />
	<path
   class="st3"
   d="M331.4,463.8c-1.3,0-2.3-0.4-3.1-1.3s-1.2-2-1.2-3.4v-0.3c0-0.9,0.2-1.8,0.5-2.5s0.9-1.3,1.5-1.7   s1.3-0.6,2.1-0.6c1.2,0,2.2,0.4,2.9,1.2s1,2,1,3.5v0.7h-6.4c0,0.9,0.3,1.7,0.8,2.3s1.2,0.9,2,0.9c0.6,0,1.1-0.1,1.5-0.4   s0.7-0.5,1-0.9l1,0.8C334.2,463.2,333,463.8,331.4,463.8z M331.2,455.3c-0.7,0-1.2,0.2-1.7,0.7s-0.7,1.1-0.8,2h4.8v-0.1   c0-0.8-0.3-1.5-0.7-1.9S331.8,455.3,331.2,455.3z"
   id="path1004" />
	<path
   class="st3"
   d="M341.6,455.6c-0.2,0-0.5-0.1-0.8-0.1c-1.1,0-1.8,0.5-2.2,1.4v6.8H337v-9.5h1.6l0,1.1c0.5-0.8,1.3-1.3,2.3-1.3   c0.3,0,0.6,0,0.7,0.1V455.6z"
   id="path1006" />
</g>
</svg>
